<svg width="371" height="244" viewBox="0 0 371 244" fill="none" xmlns="http://www.w3.org/2000/svg">
<path d="M16.3453 0V22.4199H0L14.3994 31.0131L22.8315 50.3962L25.3612 32.0468L42.0957 26.878L26.4638 22.4199L16.3453 0Z" fill="#FCC766"/>
<path d="M127.543 65.7118L146.045 53.0503L155.276 66.5396L154.236 49.8033L165.47 31.898L148.898 40.1731L135.182 29.2817L140.331 44.6999L127.543 65.7118Z" fill="#FCC766"/>
<path d="M54.7324 129.275L45.4631 118.594L61.9011 104.329L43.8672 112.801L27.3735 110.926L32.4159 121.875L17.7236 138.943L35.2872 127.424L54.7324 129.275Z" fill="#FCC766"/>
<path d="M203.034 111.119L229.035 93.3261L236.038 103.561L239.835 87.7247L258.701 67.0619L236.337 80.0407L223.172 73.6648L224.699 86.9906L203.034 111.119Z" fill="#FCC766"/>
<path fill-rule="evenodd" clip-rule="evenodd" d="M267.767 93.7208L258.513 102.091L295.793 118.698L303.657 142.896C299.235 151.428 289.856 169.187 287.723 171.966C285.057 175.44 275.153 190.977 271.122 192.91C267.091 194.843 231.912 183.833 227.364 184.417C226.467 184.532 225.056 183.897 223.353 182.789L225.28 195.793C238.709 204.013 266.319 220.601 269.335 221.198C273.104 221.945 330.139 213.607 332.77 211.05C334.875 209.003 348.969 167.431 355.754 146.9L334.132 115.082L301.745 94.8746L267.767 93.7208Z" fill="#FCC766"/>
</svg>
