<svg width="247" height="395" viewBox="0 0 247 395" fill="none" xmlns="http://www.w3.org/2000/svg">
<path d="M286.085 164.773V126.317C286.085 126.216 286.085 126.129 286.041 126.028L272.812 75.9392C272.769 75.7657 272.682 75.6212 272.567 75.4912L229.921 26.8762C229.82 26.7606 229.69 26.6595 229.531 26.5872L170.771 0.0975448C170.569 0.0108357 170.352 -0.0180639 170.136 0.0108392C165.332 0.834576 109.428 10.3437 103.758 10.3437C98.0882 10.3437 42.8478 66.8347 40.1211 69.6383C40.049 69.7106 39.9913 69.7973 39.948 69.884L0.129842 143.731C0.0432808 143.89 0 144.078 0 144.266V393.873C0 394.494 0.504938 395 1.12529 395H290.874C291.509 395 292.014 394.48 292 393.844L286.099 164.773H286.085ZM146.014 228.62V374.493C146.014 375.115 145.509 375.62 144.889 375.62H36.8029C36.1393 375.62 35.6199 375.057 35.6776 374.392L42.9776 291.05C42.9776 291.05 42.9776 290.949 42.9776 290.891L37.6397 190.468C37.6108 189.846 38.0725 189.326 38.6928 189.283L144.802 182.953C145.452 182.909 145.985 183.43 145.985 184.08V228.605L146.014 228.62ZM144.947 163.819L37.6397 169.123C37.0193 169.152 36.5 168.675 36.4567 168.053L35.5911 151.766C35.5911 151.521 35.6488 151.289 35.7786 151.087L86.3592 74.335C86.4313 74.2339 86.5179 74.1327 86.6189 74.0605L127.577 42.5706C128.226 42.0792 129.178 42.4116 129.351 43.2065L145.971 115.623C145.985 115.71 146 115.796 146 115.869V162.663C146 163.255 145.524 163.761 144.932 163.79L144.947 163.819ZM173.44 120.219L176.022 43.2643C176.051 42.4405 176.902 41.9347 177.638 42.296C186.208 46.5592 227.425 67.0804 232.734 69.7395C238.476 72.6153 262.28 133.948 263.781 137.85C263.824 137.98 263.853 138.11 263.853 138.254V156.868C263.853 157.46 263.377 157.966 262.785 157.995L172.892 162.446C172.242 162.475 171.694 161.94 171.709 161.275C172.473 138.76 173.425 120.233 173.425 120.233L173.44 120.219ZM172.17 181.334L262.67 175.944C263.319 175.9 263.853 176.421 263.853 177.071V224.342C263.853 224.891 263.463 225.354 262.915 225.455L174.161 240.383C173.656 240.47 173.151 240.195 172.935 239.733C170.583 234.371 170.497 208.662 171.088 182.447C171.088 181.854 171.564 181.378 172.141 181.349L172.17 181.334ZM263.853 322.164V362.759C263.853 363.322 263.435 363.799 262.872 363.871L174.753 375.447C174.06 375.534 173.454 374.985 173.483 374.291C173.974 363.279 177.248 286.917 175.604 254.647C175.575 254.04 176.037 253.52 176.643 253.476C195.094 252.204 251.605 247.927 262.194 242.565C262.958 242.175 263.853 242.695 263.853 243.548V322.164Z" fill="#369689"/>
</svg>
