<svg width="651" height="331" viewBox="0 0 651 331" fill="none" xmlns="http://www.w3.org/2000/svg">
<path d="M288.073 5.65197C301.539 9.40122 315.016 13.1505 328.481 16.8997L322.233 23.9817L321.4 43.3584L320.409 43.1107V52.3994L324.361 55.2704L389.426 72.8908V71.0893L389.089 70.9993V66.9685L386.994 64.2551L395.27 61.5417L573.308 111.802L571.316 113.941L571.271 116.159L573.004 116.182V115.562C578.668 114.301 590.208 111.734 590.49 111.734C590.828 111.734 615.575 110.304 620.36 110.304C620.878 110.304 621.159 110.316 621.159 110.361V112.86L631.427 116.238H634.434C634.434 116.238 629.93 119.739 630.178 120.246C630.358 120.606 630.347 129.186 630.324 134.061H630.268L631.506 136.133L636.179 137.281L636.517 137.36V151.569C637.62 152.12 640.908 152.74 640.908 152.74L638.521 155.138L636.517 155.329V159.54L638.915 160.058V170.9L644.443 172.139L640.908 174.526L637.924 174.987C638.554 175.089 638.926 175.145 638.926 175.145V182.351L637.215 186.258V280.912H638.07V304.691L339.605 321.805L287.42 324.428C282.004 324.698 276.577 324.833 271.162 324.833C260.905 324.833 250.637 324.349 240.414 323.37L237.261 323.066L221.104 321.478H201.66L14.5129 312.921V289.48L5.65202 287.262V281.554H14.5129L15.0533 191.943L14.5129 192.101L15.1659 173.175L8.433 172.499L6.8117 170.495L14.5016 166.994V155.735L123.939 111.171L124.446 110.969L127.261 109.933L126.934 104.81L128.78 104.067V97.0526L126.934 96.0055L123.05 92.853L129.343 90.072L128.724 72.1252L160.846 57.1619L161.139 41.1967L160.385 26.2785L155.386 21.0656C156.005 21.0656 179.131 8.98466 179.131 8.98466C190.728 12.5875 207.841 16.5169 228.772 16.5169C229.853 16.5169 230.945 16.5169 232.048 16.4831C256.311 16.0103 275.699 10.347 288.084 5.65197M288.073 0.0224713C287.397 0.0224713 286.722 0.146329 286.08 0.382768C268.696 6.96929 250.479 10.4933 231.924 10.8536C230.866 10.8761 229.808 10.8874 228.76 10.8874C212.491 10.8874 196.357 8.44421 180.786 3.6141C180.245 3.44521 179.682 3.36643 179.119 3.36643C178.219 3.36643 177.329 3.58036 176.507 4.0082C166.611 9.17609 155.543 14.8731 153.607 15.7288C152.098 16.2242 150.837 17.3501 150.195 18.87C149.306 20.9417 149.745 23.3512 151.31 24.9725L154.856 28.6654L155.498 41.298L155.273 53.5591L126.337 67.0361C124.288 67.9931 123.016 70.076 123.083 72.3278L123.568 86.4691L120.753 87.7189C118.963 88.507 117.713 90.1846 117.454 92.1212C117.195 94.069 117.961 96.0055 119.481 97.2327L123.128 100.194V100.644C121.879 101.77 121.181 103.436 121.293 105.182L121.361 106.15L12.3624 150.533C10.2457 151.4 8.86085 153.46 8.86085 155.746V163.391L4.45857 165.395C2.87105 166.115 1.71138 167.534 1.31732 169.223C0.923253 170.912 1.31731 172.702 2.4207 174.053L4.042 176.057C4.98775 177.228 6.36135 177.971 7.8588 178.117L9.33372 178.264L8.86085 191.921C8.82707 192.822 9.01848 193.7 9.39002 194.499L8.89462 275.947H5.6295C2.52202 275.947 0 278.469 0 281.576V287.285C0 289.863 1.75641 292.115 4.26717 292.745L8.86085 293.894V312.944C8.86085 315.95 11.2252 318.427 14.2314 318.562L201.379 327.119C201.469 327.119 201.547 327.119 201.637 327.119H220.812L236.698 328.673L239.862 328.977C250.22 329.968 260.736 330.463 271.139 330.463C276.634 330.463 282.196 330.328 287.679 330.046L339.864 327.423L638.363 310.309C641.347 310.141 643.666 307.675 643.666 304.691V280.923C643.666 279.831 643.351 278.807 642.81 277.94V187.429L644.049 184.603C644.364 183.893 644.522 183.116 644.522 182.34V178.838L647.573 176.778C649.431 175.517 650.365 173.276 649.949 171.069C649.532 168.863 647.843 167.117 645.648 166.622L644.522 166.363V160.035C644.522 159.168 644.319 158.335 643.97 157.592L644.882 156.68C646.357 155.205 646.886 153.032 646.267 151.039C645.67 149.114 644.094 147.651 642.135 147.211V137.326C642.135 134.736 640.367 132.473 637.845 131.854L637.507 131.775L635.954 131.393C635.965 126.979 635.954 124.142 635.92 122.25C636.539 121.721 637.271 121.124 637.879 120.651C639.782 119.177 640.525 116.655 639.748 114.38C638.971 112.106 636.832 110.575 634.422 110.575H632.317L626.496 108.661C625.978 106.983 624.514 104.641 620.349 104.641C616.881 104.641 604.687 105.283 593.203 105.913C591.706 105.992 590.67 106.049 590.343 106.071C589.69 106.071 588.857 106.229 577.981 108.649C577.249 107.546 576.134 106.724 574.828 106.353L396.79 56.0924C396.294 55.946 395.776 55.8784 395.259 55.8784C394.662 55.8784 394.076 55.9685 393.502 56.1599L385.227 58.8733C383.493 59.4475 382.142 60.8211 381.601 62.5663C381.376 63.3094 381.297 64.0862 381.388 64.8518L326.826 50.08L326.038 49.5058V46.5222C326.635 45.6665 326.984 44.6419 327.029 43.5723L327.772 26.1884L332.704 20.604C333.987 19.1516 334.426 17.1362 333.875 15.2785C333.323 13.4207 331.859 11.9796 329.99 11.4504L325.903 10.3132L289.582 0.202654C289.086 0.0675458 288.58 0 288.073 0V0.0224713Z" fill="#D24024"/>
<path d="M14.4902 281.565L15.1432 173.186L8.41034 172.51L6.78906 170.506L16.438 166.115L79.4772 139.364L123.928 111.183L127.711 109.764L128.769 104.067V97.0525L126.923 96.0054L123.038 92.8529L137.078 86.6492L160.835 57.1731L161.431 24.6684L222.939 25.5241L277.478 23.9028L309.375 31.3562L318.922 38.1342L320.397 52.4106L340.596 67.081L389.404 73.7689V69.2765C389.404 69.2765 421.875 72.5192 422.55 72.902C423.226 73.2848 478.519 109.291 478.519 109.291L563.659 116.069L579.85 116.26L628.173 130.582L631.9 136.842L636.145 137.27C636.145 137.27 635.807 150.713 636.145 151.31C636.483 151.906 640.874 152.728 640.874 152.728L638.487 155.126L636.483 155.318V160.092L638.881 160.047V170.889L644.409 172.128L640.874 174.514L637.822 174.987L638.892 182.351L637.181 186.258L632.958 282.342" fill="#D24024"/>
<path d="M176.068 70.0646L196.919 73.6675V53.4688L177.61 49.348L128.712 72.125L129.365 90.9163L176.068 70.0646Z" fill="#FCC766"/>
<path d="M176.203 101.534L194.342 104.686L205.792 100.7L255.467 99.2818L270.779 103.662L286.609 98.3811L333.965 107.771L332.287 110.349L416.189 127.463V109.19L286.609 81.1436L272.457 85.771L255.219 81.1436L244.287 81.2674L247.631 77.9235L229.875 75.6041C229.875 75.6041 215.34 79.0832 215.34 79.8488C215.34 80.6144 220.361 82.551 220.361 82.551H209.035L196.301 87.6963L178.027 84.2173L126.945 104.81L127.846 118.704L176.226 101.522L176.203 101.534Z" fill="#FCC766"/>
<path d="M272.22 51.2847L272.817 72.0012L285.956 67.3063L413.78 97.1877V79.4772L286.069 44.9009L272.22 51.2847Z" fill="#FCC766"/>
<path d="M161.15 41.6471V55.1129L168.367 51.7464V43.4261C169.651 42.7843 170.934 42.1425 172.218 41.5008V49.9563L177.408 47.5356L179.806 48.0535V38.5171H178.185L180.156 37.5263C181.281 37.8078 182.452 38.0893 183.657 38.3707V48.8754L191.493 50.5417V40.0146C194.927 40.6676 198.586 41.2643 202.46 41.771V83.3279L208.675 80.8172H212.942V42.8856C216.094 43.1333 219.348 43.3247 222.703 43.4261V75.6155C226.126 74.7148 229.425 73.9267 229.459 73.9154L229.774 73.8366L232.352 74.1744V43.4936C233.895 43.4711 235.46 43.426 237.047 43.3585C238.928 43.2796 240.774 43.1784 242.598 43.0545V75.503L251.357 76.6401L248.531 79.4661L253.924 79.3985V41.9511C256.525 41.6246 259.059 41.253 261.513 40.8477V81.0086L269.71 83.2041V39.3165C272.873 38.6635 275.891 37.9542 278.751 37.2224V46.3421L285.855 43.0658V35.2633C286.395 35.1057 286.936 34.9367 287.465 34.7791L291.394 35.7699V44.4956L298.623 46.4547V37.5827L313.44 41.3094V50.463L320.431 52.3545V43.0658L321.422 43.3134L322.255 23.9367L328.504 16.8548C315.038 13.1055 301.561 9.3563 288.096 5.60706C275.711 10.3021 256.323 15.9653 232.06 16.4382C209.643 16.8773 191.336 12.7228 179.142 8.93975C179.142 8.93975 156.016 21.0206 155.397 21.0206L160.396 26.2336L161.173 41.6021L161.15 41.6471Z" fill="#FCC766"/>
<path d="M118.006 122.329L125.245 119.368L124.423 110.98L14.4902 155.746V167.759L126.911 127.463L118.006 122.329Z" fill="#FCC766"/>
<path d="M46.4996 178.478L81.7402 167.883L83.6318 168.694L84.4537 167.984H91.8396L91.7383 170.506L125.74 161.004V134.995L15.1545 173.186L14.4902 192.112L46.4996 183.161V178.478Z" fill="#FCC766"/>
<path d="M90.0267 169.729H85.0952L83.9468 170.709L81.6387 169.729L48.2333 179.761V185.357H46.7471V188.318H48.3909V189.478L52.3428 198.361L54.1555 197.697L54.6509 188.656L80.8168 180.425L82.7871 181.078L85.2641 185.683L85.0952 189.804L89.2048 190.3L90.0267 169.729Z" fill="#FCC766"/>
<path d="M87.8087 205.004C87.8087 205.004 88.4054 197.033 87.8087 197.483C87.2119 197.933 81.042 196.436 81.042 196.436L46.7471 205.004V212.221L81.1884 205.004H87.8087Z" fill="#FCC766"/>
<path d="M88.0676 223.953H79.6797L46.7471 230.269V238.083L81.6387 232.07L88.0676 233.129V223.953Z" fill="#FCC766"/>
<path d="M46.7471 255.388L47.5014 262.605L81.042 258.991L87.2007 260.196L88.0676 251.47H80.13L46.7471 255.388Z" fill="#FCC766"/>
<path d="M44.6415 264.71V185.751L37.5708 186.798V264.71H44.6415Z" fill="#FCC766"/>
<path d="M109.313 259.441V166.498L100.137 169.73V260.5L109.313 259.441Z" fill="#FCC766"/>
<path d="M196.942 121.992C197.01 121.53 209.485 117.747 209.688 117.871C209.89 118.006 253.958 116.61 253.958 116.61L271.691 119.864L288.275 115.484L297.834 117.274L324.98 122.318V112.433L287.87 104.867L271.544 109.246L254.149 106.263L209.474 107.197L196.199 110.98L177.881 108.053L128.758 126.777V135.998L178.545 119.075C178.545 119.075 196.864 122.464 196.931 121.992H196.942Z" fill="#FCC766"/>
<path d="M314.982 122.228V140.647C310.343 139.904 302.428 138.812 299.703 138.441V119.39L297.519 118.985L288.343 117.262L282.387 118.839V138.486L279.324 139.094V119.638L271.77 121.642L268.887 121.113V237.205C272.366 237.261 275.845 237.328 279.324 237.419V216.646L282.387 216.42V237.497C288.163 237.666 293.938 237.891 299.703 238.173V217.738L314.982 220.068V239.051C318.325 239.265 321.658 239.501 324.98 239.749V124.063L314.982 122.205V122.228ZM282.376 207.019C281.261 207.154 280.191 207.289 279.313 207.391V182.632L282.376 182.249V207.03V207.019ZM282.376 171.79L279.313 172.409V148.844L282.376 148.011V171.79ZM314.982 209.102L299.703 207.605V183.544L314.982 185.042V209.102ZM314.982 174.807L299.703 173.242V148.495C304.105 149.114 310.883 150.049 314.982 150.6V174.807Z" fill="#FCC766"/>
<path d="M198.068 123.309C197.776 123.568 197.348 123.759 196.706 123.759C195.997 123.759 194.071 123.5 191.696 123.117V140.681L185.83 139.657V122.138C182.846 121.608 180.054 121.102 178.669 120.854L172.848 122.836V140.298L159.371 144.138L161.127 153.888L172.848 151.535V175.46L161.127 177.678V186.652L172.848 184.366V208.483L161.127 210.453V218.841L172.848 216.916V240.706C177.172 240.323 181.506 239.974 185.83 239.648V217.783L191.696 218.504V239.231C195.006 239.006 198.316 238.803 201.626 238.612V122.048C199.982 122.577 198.597 123.061 198.057 123.309H198.068ZM191.707 208.922H185.841V183.556H191.707V208.922ZM191.707 174.593C189.759 174.436 187.271 174.188 185.841 173.895V150.375H191.707V174.593Z" fill="#FCC766"/>
<path d="M209.744 119.616C209.147 119.751 207.424 120.246 205.454 120.843V238.398C210.037 238.15 214.619 237.948 219.213 237.768V119.39C214.551 119.526 211.005 119.604 209.969 119.604C209.89 119.604 209.811 119.604 209.744 119.604V119.616Z" fill="#FCC766"/>
<path d="M246.211 118.591V237.137C249.015 237.115 251.818 237.092 254.599 237.092C256.209 237.092 257.831 237.103 259.452 237.115V119.39L253.823 118.355C253.001 118.377 250.118 118.467 246.211 118.591Z" fill="#FCC766"/>
<path d="M246.808 247.844C274.595 248.025 300.728 249.376 324.979 251.481V241.506C299.872 239.592 272.535 238.533 243.262 238.894C211.68 239.276 182.35 241.258 155.633 244.129V251.47C183.578 249.049 214.078 247.619 246.808 247.833V247.844Z" fill="#FCC766"/>
<path d="M153.899 247.664H152.965L153.899 251.414V247.664Z" fill="#FCC766"/>
<path d="M237.25 323.066L240.402 323.37C256.03 324.856 271.736 325.205 287.408 324.428L339.594 321.805L638.059 304.691V280.923L476.47 278.39L343.715 277.118L324.991 278.39L325.655 260.961L418.17 260.488L417.225 251.47L326.927 247.664H326.725V253.361L324.845 253.204C299.005 250.974 272.749 249.747 246.808 249.578C244.635 249.567 242.474 249.556 240.323 249.556C212.232 249.556 183.792 250.783 155.802 253.204L153.922 253.361V251.47L128.792 253.677V262.594L180.538 258.135V275.215L120.043 278.064V260.477L88.1015 262.582V278.064L50.6541 279.966V264.699L29.1043 266.827V281.565H5.66309V287.273L14.5239 289.491V312.933L201.671 321.49H221.115" fill="#FCC766"/>
<path d="M427.223 157.176C427.223 157.176 395.168 151.985 395.168 151.58C395.168 151.175 389.167 153.122 389.077 152.875L388.672 162.287C388.672 162.287 394.11 160.992 395.168 160.418C396.227 159.855 426.739 165.609 426.739 165.609V163.503L425.354 163.177V157.817L427.223 157.164V157.176Z" fill="#FCC766"/>
<path d="M389.077 192.225C389.077 192.225 394.842 191.493 395.168 191.166C395.495 190.84 426.581 194.657 426.581 194.657L427.234 193.846C427.234 193.846 425.849 193.283 425.613 193.035C425.365 192.788 425.691 188.003 425.691 188.003C425.691 188.003 427.155 186.787 427.234 186.618C427.313 186.46 395.742 182.722 395.101 182.475C394.459 182.227 388.694 183.612 388.694 183.612L389.1 192.214L389.077 192.225Z" fill="#FCC766"/>
<path d="M396.136 222.827L426.727 224.854L427.211 224.122L425.669 222.5L425.342 217.637L427.211 216.342L395.889 213.662C395.889 213.662 389.482 214.225 389.156 214.225L389.482 223.48L396.136 222.827Z" fill="#FCC766"/>
<path d="M389.077 70.988L415.513 78.1487V97.8858L419.398 99.4508C419.398 99.4508 416.538 101.376 416.177 102.097C415.817 102.806 564.886 137.36 564.886 137.36L564.605 122.802L571.169 121.372L571.315 113.952L573.319 111.813L395.281 61.553L386.994 64.2664L389.088 66.9798V71.0106L389.077 70.988Z" fill="#FCC766"/>
<path d="M572.88 122.768L566.361 124.176L566.62 137.112L572.441 136.628L636.516 151.895V137.349L572.903 121.777L572.88 122.768Z" fill="#FCC766"/>
<path d="M572.937 119.998L630.324 134.038C630.346 129.163 630.358 120.584 630.177 120.224C629.93 119.728 634.433 116.215 634.433 116.215H631.427L621.159 112.838V110.338C621.159 109.967 590.872 111.712 590.489 111.712C590.208 111.712 578.656 114.279 573.015 115.54L572.925 119.987L572.937 119.998Z" fill="#FCC766"/>
<path d="M431.208 214.935V215.678L432.154 215.013L431.208 214.935Z" fill="#FCC766"/>
<path d="M431.208 215.678L427.155 218.492L427.369 221.757L429.44 223.93L427.628 226.655L423.146 226.351V247.8L431.208 248.171V215.678Z" fill="#FCC766"/>
<path d="M423.147 147.121V154.755C424.678 155.003 426.142 155.239 427.504 155.464L427.797 158.82L427.099 159.067V161.814L428.484 162.141V167.714L426.423 167.32C425.387 167.129 424.284 166.915 423.158 166.712V184.31C428.304 184.963 428.326 185.008 428.765 185.819L429.193 186.607L428.788 187.417C428.653 187.688 428.563 187.857 427.38 188.87C427.313 190.03 427.256 191.234 427.256 191.977C427.47 192.079 427.696 192.18 427.898 192.259L430.037 193.137L427.335 196.515L426.378 196.402C425.354 196.278 424.273 196.143 423.158 196.008V214.259L431.22 214.946V148.585L423.158 147.133L423.147 147.121Z" fill="#FCC766"/>
<path d="M448.018 248.959V151.614L439.945 150.15V248.587L448.018 248.959Z" fill="#FCC766"/>
<path d="M465.041 249.758V154.687L456.98 153.224V249.376L465.041 249.758Z" fill="#FCC766"/>
<path d="M482.065 250.547V157.761L474.004 156.298V250.175L482.065 250.547Z" fill="#FCC766"/>
<path d="M497.073 251.256V160.475L489.012 159.011V250.873L497.073 251.256Z" fill="#FCC766"/>
<path d="M511.643 251.931V163.098L504.471 161.803V251.594L511.643 251.931Z" fill="#FCC766"/>
<path d="M526.876 252.641V165.857L519.704 164.562V252.314L526.876 252.641Z" fill="#FCC766"/>
<path d="M540.77 253.294V168.356L533.598 167.061V252.956L540.77 253.294Z" fill="#FCC766"/>
<path d="M553.763 253.902V170.709L546.591 169.414V253.564L553.763 253.902Z" fill="#FCC766"/>
<path d="M559.201 171.688V254.149L566.361 254.487V246.572L559.617 247.281V236.338L566.361 235.493V215.722L561.047 216.274V205.342L566.361 204.677V192.382L559.617 193.429V181.844L566.361 180.887V172.983L559.201 171.688Z" fill="#FCC766"/>
<path d="M574.749 146.165C574.749 146.165 565.078 148.979 563.67 148.27V163.391L573.308 161.803L620.979 169.414L627.126 167.962L638.903 171.689V160.047L574.749 146.165Z" fill="#FCC766"/>
<path d="M561.352 237.869V245.356L573.444 244.095L592.438 245.356V239.603L575.268 236.135L561.352 237.869Z" fill="#FCC766"/>
<path d="M561.351 191.403L576.089 189.129L594.633 192.169V184.569L575.323 181.371L561.351 183.353V191.403Z" fill="#FCC766"/>
<path d="M562.781 206.873V214.349L574.873 213.088L593.867 214.349V208.595L576.697 205.128L562.781 206.873Z" fill="#FCC766"/>
<path d="M623.32 171.689C623.591 172.702 638.903 175.145 638.903 175.145V182.351L623.32 179.356V171.689Z" fill="#FCC766"/>
<path d="M632.441 182.351L628.635 181.371V191.741L625.505 191.065V180.729L622.105 179.637V284.639L626.462 284.098L626.586 246.538L628.647 246.009V282.601L637.215 283.006V183.578L632.452 182.351H632.441ZM628.624 199.768V214.36H626.676L626.721 199.363L628.624 199.768ZM626.609 236.135L626.654 221.645L628.624 221.307V236.146H626.597L626.609 236.135Z" fill="#FCC766"/>
<path d="M218.289 128.792L249.747 128.105L250.084 130.503L218.289 131.1V128.792Z" fill="#FCC766"/>
<path d="M218.289 144.521L249.747 143.834L250.084 146.232L218.289 146.829V144.521Z" fill="#FCC766"/>
<path d="M218.289 161.679L249.747 160.992L250.084 163.391L218.289 163.987V161.679Z" fill="#FCC766"/>
<path d="M218.289 178.083L249.747 177.397L250.084 179.795L218.289 180.392V178.083Z" fill="#FCC766"/>
<path d="M218.199 195.208L249.657 194.533L250.006 196.92L218.199 197.516V195.208Z" fill="#FCC766"/>
<path d="M219.212 212.57L250.67 211.883L251.008 214.281L219.212 214.878V212.57Z" fill="#FCC766"/>
<path d="M217.94 229.92L249.409 229.233L249.747 231.631L217.94 232.228V229.92Z" fill="#FCC766"/>
<path d="M228.546 119.39H225.9V237.948H228.546V119.39Z" fill="#FCC766"/>
<path d="M238.713 119.616H236.067V238.173H238.713V119.616Z" fill="#FCC766"/>
<path d="M206.817 130.12C206.963 130.267 199.104 132.136 199.104 132.136L198.868 134.917L208.258 131.944L206.817 130.12Z" fill="#FCC766"/>
<path d="M206.817 145.072C206.963 145.219 199.104 147.087 199.104 147.087L198.868 149.868L208.258 146.896L206.817 145.072Z" fill="#FCC766"/>
<path d="M206.817 161.589C206.963 161.736 199.104 163.605 199.104 163.605L198.868 166.386L208.258 163.413L206.817 161.589Z" fill="#FCC766"/>
<path d="M206.817 178.68C206.963 178.826 199.104 180.695 199.104 180.695L198.868 183.476L208.258 180.504L206.817 178.68Z" fill="#FCC766"/>
<path d="M206.186 196.03C206.333 196.177 198.474 198.046 198.474 198.046L198.237 200.827L207.627 197.854L206.186 196.03Z" fill="#FCC766"/>
<path d="M206.186 213.099C206.332 213.245 198.473 215.114 198.473 215.114L198.237 217.895L207.627 214.923L206.186 213.099Z" fill="#FCC766"/>
<path d="M207.267 229.83C207.413 229.976 199.554 231.845 199.554 231.845L199.318 234.626L208.708 231.654L207.267 229.83Z" fill="#FCC766"/>
<path d="M257.37 128.105L270.959 130.12L271.06 133.419L256.638 131.1L257.37 128.105Z" fill="#FCC766"/>
<path d="M257.37 143.181L270.959 145.196L271.06 148.484L256.638 146.165L257.37 143.181Z" fill="#FCC766"/>
<path d="M257.37 160.993L270.959 163.008L271.06 166.307L256.638 163.987L257.37 160.993Z" fill="#FCC766"/>
<path d="M255.174 176.924L268.775 178.939L268.876 182.238L254.453 179.919L255.174 176.924Z" fill="#FCC766"/>
<path d="M255.174 194.533L268.775 196.548L268.876 199.847L254.453 197.517L255.174 194.533Z" fill="#FCC766"/>
<path d="M255.692 210.724L269.293 212.739L269.394 216.038L254.971 213.718L255.692 210.724Z" fill="#FCC766"/>
<path d="M255.174 228.074L268.775 230.089L268.876 233.388L254.453 231.068L255.174 228.074Z" fill="#FCC766"/>
</svg>
