<svg width="450" height="588" viewBox="0 0 450 588" fill="none" xmlns="http://www.w3.org/2000/svg">
<path d="M294.063 398.008L228.635 339.517L231.703 302.54L310.003 379.069L294.063 398.008Z" fill="#FAC566"/>
<path d="M11.4828 170.183L228.238 338.485L253.024 318.511L78.586 115.426L48.499 103.778L11.1551 97.2951L-6.00493 124.763L11.4828 170.183Z" fill="#EB6F20"/>
<path d="M303.249 367.683L281.8 393.247L285.032 416.42L308.447 426.132L334.085 432.381L356.447 472.605L438.629 477.945L403.932 454.323L394.332 393.064C382.078 383.401 356.371 364.536 351.581 366.38C346.791 368.224 317.364 368.017 303.249 367.683Z" fill="#EB6F20"/>
<path d="M371.694 424.775L394.838 385.758L406.314 454.354L449.065 481.038L353.668 474.623L343.573 448.404L371.694 424.775Z" fill="#D04023"/>
</svg>
