<svg width="84" height="67" viewBox="0 0 84 67" fill="none" xmlns="http://www.w3.org/2000/svg">
<path fill-rule="evenodd" clip-rule="evenodd" d="M1.31201 59.2373H83.7984V59.5238H1.31201V59.2373Z" fill="#191919"/>
<path fill-rule="evenodd" clip-rule="evenodd" d="M16.385 17.726L12.5291 17.7241L10.7718 13.51V12.7522H11.1631V11.4682L10.0954 11.4662L8.85119 8.35972V7.57784L9.13824 6.08402H9.60071L9.25755 5.74439C9.57644 5.54309 9.62582 5.02311 9.14064 4.66433C8.9991 4.51224 8.67301 4.04484 8.58205 3.50115C8.70689 3.41193 8.67709 3.12512 8.50131 3.06596L8.47812 0L8.27782 0.00407166V3.07159C8.07656 3.13781 8.08101 3.41972 8.21534 3.50127C8.17076 3.80832 7.86738 4.45128 7.64185 4.66049C7.17554 5.03221 7.18815 5.50464 7.48049 5.73769L7.21879 6.08402L7.62875 6.08318L7.91352 7.57664L7.92866 8.35972L6.68363 11.4685L5.55359 11.4689V12.6259H5.95478V13.5069L4.2843 17.7235H0.582382V24.4835L1.87619 25.126L1.87499 33.5886L0 34.8643L0.123758 35.0007H0.602928L1.31159 35.6955V50.8311H3.55028L6.20422 50.8256V40.2132L8.31255 38.4495L10.4471 40.2132L10.422 48.9497L12.9976 50.822H37.542L47.1832 43.9287L47.1554 40.2099L45.1978 40.2112L53.1629 34.1681L61.1002 40.2006L59.1387 40.2073V43.7592L69.0882 50.8114H83.7986L71.4228 42.0098L71.4224 41.0888L71.6943 39.7087L72.0163 39.706L71.7806 39.4004C72.0061 39.0873 72.0606 38.7754 71.7412 38.4694C71.4948 38.1572 71.3445 37.8013 71.1527 37.2325C71.297 37.1786 71.334 36.8885 71.1324 36.7895L71.1308 33.6949L70.8958 33.6954L70.8676 36.7843C70.6913 36.9048 70.693 37.174 70.85 37.2325C70.665 37.7176 70.5172 38.1008 70.2149 38.4481C69.9709 38.7093 69.9208 39.1194 70.1549 39.3997L69.8874 39.7084H70.2588L70.563 41.0888L70.5611 42.0071H68.7812L68.7792 33.0565H64.1565L63.7312 32.7045L63.7049 32.0165L64.1617 29.7174L64.8421 29.7151L64.381 29.1939C64.6656 28.8245 64.713 28.4627 64.4115 28.1143C63.833 27.4854 63.466 26.7434 63.2746 26.0375C63.489 25.8798 63.5033 25.56 63.2592 25.4003L63.2035 20.8858H62.8834L62.8596 25.4141C62.6115 25.5826 62.6385 25.8589 62.8294 26.0375C62.5784 26.8271 62.2123 27.5772 61.6948 28.1123C61.4319 28.5137 61.4639 28.7947 61.7208 29.191L61.32 29.7169L61.8918 29.7157L62.3607 32.0147V32.6842L61.9424 33.0564H59.0551L54.2941 26.2736L54.2949 26.1492H54.4782L54.4786 24.1228L54.9725 21.5835L55.8799 21.5863L55.1479 20.871C55.5138 20.3997 55.5185 19.8539 55.0867 19.2175L54.5876 18.61C54.1562 17.9794 53.8138 17.2549 53.617 16.3743C53.8847 16.192 53.9057 15.6764 53.5167 15.5598V9.75294H53.2285L53.2197 15.5624C52.8654 15.7355 52.8492 16.1846 53.1601 16.376C52.9565 17.1928 52.5723 18.0009 52.1731 18.6268L51.641 19.2272C51.2481 19.6892 51.2306 20.2378 51.5882 20.8712L50.9818 21.5861L51.7722 21.5837L52.3051 24.11L52.3064 26.1463H52.4941L52.4933 26.2735L47.7585 33.1188L44.641 33.1313L44.1738 32.7454V32.0169L44.6367 29.7159L45.1975 29.7163L44.8733 29.2895C45.1698 28.8859 45.1493 28.4611 44.8582 28.0807C44.3897 27.6202 44.037 26.9187 43.7368 26.1082C43.9591 25.9172 43.9193 25.6021 43.7201 25.4679L43.6724 20.9486H43.3528L43.3309 25.4679C43.0485 25.6306 43.1153 25.9093 43.2565 26.1082C43.1325 26.82 42.6776 27.4677 42.2035 28.0807C41.895 28.4873 41.86 28.8908 42.2259 29.2898L41.8182 29.7156L42.3479 29.7152L42.8294 32.0167V32.7467L42.4282 33.1189H37.8672V42.01L15.5901 42.0029V35.6959L16.2642 35.0011L16.9441 35.0014L17.0701 34.8742L14.9086 33.5826L14.9177 25.2999L16.3866 24.483L16.3854 17.7265L16.385 17.726Z" fill="#191919"/>
<path d="M1.90008 57.7797H1.31445V53.8876H1.90008V55.5556H2.56537V53.8876H3.16157V57.7797H2.56537V56.1117H1.90008V57.7797ZM6.28987 57.7797H5.69884L5.59779 57.0735H4.87915L4.77798 57.7797H4.24042L4.83662 53.8876H5.69355L6.28975 57.7797H6.28987ZM4.95377 56.5453H5.51789L5.23577 54.5769L4.95365 56.5453H4.95377ZM7.37425 57.2238C7.40621 57.2275 7.43108 57.2293 7.44874 57.2293C7.46653 57.2293 7.4914 57.2293 7.52324 57.2293C7.56926 57.2293 7.61552 57.2238 7.66154 57.2127C7.70767 57.2016 7.74769 57.1811 7.78133 57.1515C7.81509 57.1219 7.83888 57.0801 7.85318 57.0264C7.86736 56.9726 7.86736 56.9012 7.85318 56.8122L7.05476 53.8876H7.64027L8.23118 56.1674L8.71023 53.8876H9.29586L8.58251 56.7567C8.51859 56.9679 8.45743 57.1404 8.3988 57.2738C8.34028 57.4073 8.27384 57.512 8.19934 57.588C8.12485 57.664 8.03966 57.7159 7.9439 57.7437C7.84801 57.7715 7.73447 57.7873 7.60314 57.791C7.54991 57.791 7.51086 57.791 7.48611 57.791C7.46124 57.791 7.42399 57.7873 7.37425 57.7799V57.2238ZM10.8432 53.8876V55.3888C10.8432 55.5297 10.8707 55.628 10.9257 55.6835C10.9806 55.7391 11.0543 55.767 11.1466 55.767C11.2352 55.767 11.3064 55.742 11.3595 55.6919C11.4127 55.6419 11.443 55.5556 11.45 55.4333V53.8876H12.0355V57.7797H11.45V56.284C11.4002 56.3024 11.3498 56.3145 11.2982 56.3202C11.2468 56.3257 11.1909 56.3284 11.1305 56.3284C10.8431 56.3284 10.6257 56.2441 10.4785 56.0755C10.3312 55.9068 10.2576 55.665 10.2576 55.3498V53.8875H10.8431L10.8432 53.8876ZM13.7587 57.7797H13.1732V53.8876H13.7587V55.5556H14.424V53.8876H15.0202V57.7797H14.424V56.1117H13.7587V57.7797ZM16.7273 56.8846C16.7273 57.0254 16.7548 57.1246 16.8097 57.182C16.8648 57.2395 16.9386 57.2683 17.0307 57.2683C17.123 57.2683 17.1966 57.2395 17.2517 57.182C17.3067 57.1247 17.3341 57.0254 17.3341 56.8846V54.7827C17.3341 54.6419 17.3067 54.5428 17.2517 54.4852C17.1968 54.4278 17.123 54.3991 17.0307 54.3991C16.9386 54.3991 16.8649 54.4278 16.8097 54.4852C16.7548 54.5426 16.7273 54.6419 16.7273 54.7827V56.8846ZM16.1418 54.8217C16.1418 54.5066 16.2182 54.2647 16.3707 54.096C16.5233 53.9273 16.7433 53.8429 17.0307 53.8429C17.3182 53.8429 17.5382 53.9273 17.6907 54.096C17.8434 54.2646 17.9197 54.5065 17.9197 54.8217V56.8456C17.9197 57.1607 17.8434 57.4025 17.6907 57.5714C17.5382 57.74 17.3182 57.8243 17.0307 57.8243C16.7433 57.8243 16.5233 57.74 16.3707 57.5714C16.2182 57.4026 16.1418 57.1608 16.1418 56.8456V54.8217ZM19.0466 55.5556H20.1112V56.1118H19.0466V55.5556ZM21.8397 57.7799H21.2541V53.8877H23.1012V57.7799H22.505V54.4436H21.8397V57.7799ZM25.101 53.8877C25.3955 53.8877 25.6147 53.9693 25.7585 54.1324C25.9022 54.2953 25.9741 54.5345 25.9741 54.8497V55.3557C25.9741 55.6707 25.9023 55.9099 25.7585 56.073C25.6148 56.2361 25.3955 56.3178 25.101 56.3178H24.8243V57.7801H24.2387V53.8879H25.1009L25.101 53.8877ZM24.8243 54.4437V55.7615H25.101C25.1934 55.7615 25.2643 55.7355 25.3141 55.6837C25.3638 55.6318 25.3886 55.5353 25.3886 55.3945V54.8107C25.3886 54.6698 25.3638 54.5734 25.3141 54.5214C25.2644 54.4696 25.1934 54.4436 25.101 54.4436H24.8243V54.4437ZM27.5852 56.8847C27.5852 57.0255 27.6128 57.1247 27.6677 57.1822C27.7228 57.2396 27.7964 57.2684 27.8887 57.2684C27.981 57.2684 28.0545 57.2396 28.1095 57.1822C28.1646 57.1248 28.1921 57.0255 28.1921 56.8847V54.7829C28.1921 54.642 28.1646 54.5429 28.1095 54.4853C28.0546 54.4279 27.981 54.3992 27.8887 54.3992C27.7964 54.3992 27.7229 54.4279 27.6677 54.4853C27.6128 54.5428 27.5852 54.642 27.5852 54.7829V56.8847ZM26.9998 54.8218C26.9998 54.5067 27.0761 54.2648 27.2286 54.0961C27.3813 53.9275 27.6013 53.843 27.8887 53.843C28.1761 53.843 28.3962 53.9275 28.5487 54.0961C28.7013 54.2647 28.7776 54.5066 28.7776 54.8218V56.8458C28.7776 57.1608 28.7013 57.4026 28.5487 57.5715C28.3962 57.7401 28.1761 57.8244 27.8887 57.8244C27.6013 57.8244 27.3813 57.7401 27.2286 57.5715C27.0761 57.4027 26.9998 57.161 26.9998 56.8458V54.8218ZM30.3252 57.7799H29.8992V53.8877H30.421V56.2174L31.3311 53.8877H31.7569V57.7799H31.23V55.5723L30.3252 57.7799ZM34.0283 54.8439C34.0283 54.6698 34.0008 54.552 33.9458 54.4909C33.8908 54.4297 33.8172 54.3992 33.7249 54.3992C33.6326 54.3992 33.559 54.4279 33.5039 54.4853C33.4489 54.5428 33.4215 54.642 33.4215 54.7829V55.1999H32.868V54.8218C32.868 54.5067 32.9416 54.2648 33.0889 54.0961C33.2361 53.9275 33.4536 53.843 33.7409 53.843C34.0284 53.843 34.2458 53.9275 34.3929 54.0961C34.5402 54.2647 34.6139 54.5066 34.6139 54.8218V54.9218C34.6139 55.337 34.4773 55.6039 34.2041 55.7225C34.353 55.7892 34.4588 55.892 34.5208 56.0311C34.5829 56.1701 34.6139 56.3397 34.6139 56.5399V56.8458C34.6139 57.1608 34.5402 57.4026 34.3929 57.5715C34.2458 57.7401 34.0284 57.8244 33.7409 57.8244C33.4536 57.8244 33.2361 57.7401 33.0889 57.5715C32.9416 57.4027 32.868 57.161 32.868 56.8458V56.3564H33.4215V56.8847C33.4215 57.0255 33.4489 57.1247 33.5039 57.1822C33.5588 57.2396 33.6326 57.2684 33.7249 57.2684C33.8172 57.2684 33.8907 57.2388 33.9458 57.1794C34.0008 57.12 34.0283 57.0032 34.0283 56.8291V56.5233C34.0283 56.3415 33.9981 56.2137 33.9378 56.1396C33.8775 56.0654 33.7799 56.0283 33.6451 56.0283H33.5546V55.4722H33.6771C33.787 55.4722 33.8732 55.4426 33.9352 55.3833C33.9973 55.3239 34.0284 55.2164 34.0284 55.0607V54.8438L34.0283 54.8439ZM36.6083 53.8877C36.9135 53.8877 37.1345 53.9617 37.2711 54.1101C37.4076 54.2585 37.4759 54.4826 37.4759 54.783V54.9219C37.4759 55.1221 37.4458 55.287 37.3855 55.4168C37.3252 55.5465 37.2293 55.6431 37.0979 55.7061C37.2576 55.769 37.3702 55.8719 37.4361 56.0147C37.5015 56.1574 37.5345 56.3325 37.5345 56.5401V56.8571C37.5345 57.1574 37.4601 57.3862 37.311 57.5439C37.1619 57.7014 36.9401 57.7802 36.6456 57.7802H35.7248V53.8881H36.6083V53.8877ZM36.3103 56.0284V57.2239H36.6457C36.7449 57.2239 36.8204 57.196 36.8719 57.1405C36.9235 57.0849 36.9491 56.9848 36.9491 56.8401V56.501C36.9491 56.3193 36.9199 56.1951 36.8614 56.1284C36.8027 56.0617 36.7061 56.0283 36.5712 56.0283H36.3105L36.3103 56.0284ZM36.3103 54.4437V55.4723H36.5391C36.6491 55.4723 36.7352 55.4427 36.7973 55.3834C36.8594 55.324 36.8906 55.2165 36.8906 55.0608V54.8439C36.8906 54.7031 36.8666 54.6011 36.8187 54.5381C36.7708 54.4751 36.6953 54.4436 36.5925 54.4436H36.3103V54.4437ZM39.2363 56.8847C39.2363 57.0255 39.2639 57.1247 39.3189 57.1822C39.3739 57.2396 39.4475 57.2684 39.5398 57.2684C39.6321 57.2684 39.7056 57.2396 39.7607 57.1822C39.8157 57.1248 39.8432 57.0255 39.8432 56.8847V54.7829C39.8432 54.642 39.8157 54.5429 39.7607 54.4853C39.7057 54.4279 39.6321 54.3992 39.5398 54.3992C39.4475 54.3992 39.374 54.4279 39.3189 54.4853C39.2639 54.5428 39.2363 54.642 39.2363 54.7829V56.8847ZM38.6509 54.8218C38.6509 54.5067 38.7272 54.2648 38.8797 54.0961C39.0324 53.9275 39.2524 53.843 39.5398 53.843C39.8273 53.843 40.0473 53.9275 40.1998 54.0961C40.3524 54.2647 40.4287 54.5066 40.4287 54.8218V56.8458C40.4287 57.1608 40.3524 57.4026 40.1998 57.5715C40.0473 57.7401 39.8273 57.8244 39.5398 57.8244C39.2524 57.8244 39.0324 57.7401 38.8797 57.5715C38.7272 57.4027 38.6509 57.161 38.6509 56.8458V54.8218ZM42.0187 57.7799C41.9902 57.7799 41.9691 57.7864 41.9548 57.7994C41.9406 57.8123 41.931 57.8354 41.9256 57.8688C41.9203 57.9022 41.9167 57.9476 41.9149 58.0051C41.9132 58.0625 41.9122 58.1358 41.9122 58.2247H41.4226V57.2239H41.545C41.7189 57.161 41.8448 57.0274 41.9229 56.8235C42.0009 56.6195 42.04 56.3324 42.04 55.9617V53.8877H43.6688V57.2239H43.9136V58.2247H43.424C43.424 58.1358 43.4229 58.0625 43.4212 58.0051C43.4196 57.9476 43.4159 57.9022 43.4105 57.8688C43.4054 57.8354 43.3947 57.8123 43.3787 57.7994C43.3627 57.7864 43.3423 57.7799 43.3174 57.7799H42.0187ZM42.5881 55.9728C42.5881 56.1136 42.5784 56.2526 42.5589 56.3897C42.5393 56.527 42.5119 56.653 42.4765 56.7679C42.4409 56.8829 42.401 56.9811 42.3567 57.0626C42.3123 57.1442 42.267 57.1978 42.2209 57.2239H43.0832V54.4437H42.5882V55.9729L42.5881 55.9728ZM46.6479 56.3285V56.8458C46.6479 57.1608 46.5743 57.4026 46.427 57.5715C46.2798 57.7401 46.0623 57.8244 45.7749 57.8244C45.4875 57.8244 45.2701 57.7401 45.123 57.5715C44.9757 57.4027 44.902 57.161 44.902 56.8458V54.8218C44.902 54.5067 44.9757 54.2648 45.123 54.0961C45.2701 53.9275 45.4875 53.843 45.7749 53.843C46.0623 53.843 46.2798 53.9275 46.427 54.0961C46.5743 54.2647 46.6479 54.5066 46.6479 54.8218V55.1999H46.0944V54.7829C46.0944 54.642 46.067 54.5429 46.012 54.4853C45.9569 54.4279 45.8833 54.3992 45.791 54.3992C45.6987 54.3992 45.6252 54.4279 45.57 54.4853C45.5151 54.5428 45.4876 54.642 45.4876 54.7829V56.8847C45.4876 57.0255 45.5151 57.1238 45.57 57.1794C45.6251 57.235 45.6987 57.2629 45.791 57.2629C45.8833 57.2629 45.9568 57.235 46.012 57.1794C46.067 57.1238 46.0944 57.0255 46.0944 56.8847V56.3285H46.6479ZM47.6792 53.8877H49.489V54.4437H48.8769V57.78H48.2913V54.4437H47.6792V53.8877ZM51.4303 53.8877C51.7353 53.8877 51.9563 53.9617 52.0929 54.1101C52.2295 54.2585 52.2978 54.4826 52.2978 54.783V54.9219C52.2978 55.1221 52.2677 55.287 52.2073 55.4168C52.147 55.5465 52.0511 55.6431 51.9198 55.7061C52.0795 55.769 52.192 55.8719 52.2579 56.0147C52.3234 56.1574 52.3564 56.3325 52.3564 56.5401V56.8571C52.3564 57.1574 52.2819 57.3862 52.1328 57.5439C51.9837 57.7014 51.7619 57.7802 51.4674 57.7802H50.5467V53.8881H51.4303V53.8877ZM51.1322 56.0284V57.2239H51.4675C51.5669 57.2239 51.6422 57.196 51.6939 57.1405C51.7453 57.0849 51.7709 56.9848 51.7709 56.8401V56.501C51.7709 56.3193 51.7417 56.1951 51.6832 56.1284C51.6247 56.0617 51.528 56.0283 51.393 56.0283H51.1323L51.1322 56.0284ZM51.1322 54.4437V55.4723H51.3611C51.471 55.4723 51.5572 55.4427 51.6193 55.3834C51.6814 55.324 51.7124 55.2165 51.7124 55.0608V54.8439C51.7124 54.7031 51.6885 54.6011 51.6405 54.5381C51.5926 54.4751 51.5171 54.4436 51.4143 54.4436H51.1322V54.4437ZM54.0742 55.528H54.8778V56.084H54.0742V57.2239H55.0856V57.78H53.4887V53.8878H55.0856V54.4438H54.0742V55.5281V55.528ZM56.8034 57.78H56.2178V53.8878H56.8034V55.5559H57.4687V53.8878H58.0649V57.78H57.4687V56.1119H56.8034V57.78ZM59.788 57.78H59.2024V53.8878H59.788V55.5559H60.4533V53.8878H61.0495V57.78H60.4533V56.1119H59.788V57.78ZM62.7726 55.4724H63.1238C63.4184 55.4724 63.6375 55.5541 63.7812 55.7172C63.9249 55.8802 63.9968 56.1193 63.9968 56.4345V56.8182C63.9968 57.1332 63.925 57.3723 63.7812 57.5356C63.6375 57.6987 63.4184 57.7802 63.1238 57.7802H62.187V53.8881H62.7726V55.4727V55.4724ZM64.2096 53.8878H64.7953V57.78H64.2096V53.8878ZM63.1238 57.2241C63.2162 57.2241 63.2871 57.1971 63.3368 57.1434C63.3865 57.0896 63.4113 56.9943 63.4113 56.857V56.3955C63.4113 56.2582 63.3865 56.1628 63.3368 56.109C63.2872 56.0553 63.2162 56.0284 63.1238 56.0284H62.7726V57.2239H63.1238V57.2241ZM66.3373 57.7801H65.9116V53.8879H66.4332V56.2176L67.3435 53.8879H67.7692V57.7801H67.2422V55.5725L66.3373 57.7801ZM66.8483 53.3207C66.9158 53.3207 66.9724 53.3022 67.0187 53.2651C67.0647 53.228 67.0897 53.1613 67.0932 53.0649H67.519C67.5119 53.2874 67.4506 53.4578 67.3353 53.5765C67.2201 53.695 67.0576 53.7544 66.8483 53.7544C66.6354 53.7544 66.4721 53.695 66.3587 53.5765C66.2451 53.4579 66.1813 53.2874 66.167 53.0649H66.5982C66.6052 53.1613 66.631 53.228 66.6753 53.2651C66.7197 53.3022 66.7773 53.3207 66.8483 53.3207ZM72.6471 57.2241V58.2249H72.1575C72.1575 58.1359 72.1566 58.0626 72.1549 58.0052C72.1532 57.9477 72.1495 57.9024 72.1442 57.8689C72.139 57.8355 72.1283 57.8124 72.1122 57.7995C72.0962 57.7866 72.0758 57.78 72.0509 57.78H70.5553V53.8878H71.1408V57.2241H71.8062V53.8878H72.4023V57.2241H72.6471ZM74.3437 55.5281H75.1474V56.0841H74.3437V57.2241H75.355V57.7801H73.7582V53.8879H75.355V54.444H74.3437V55.5282V55.5281ZM77.0728 57.7801H76.4873V53.8879H77.0728V55.556H77.7381V53.8879H78.3343V57.7801H77.7381V56.112H77.0728V57.7801ZM79.3975 53.8879H81.2072V54.444H80.5951V57.7802H80.0095V54.444H79.3975V53.8879ZM83.1271 53.8879C83.4216 53.8879 83.6408 53.9695 83.7845 54.1326C83.9282 54.2956 84.0002 54.5347 84.0002 54.8499V55.3559C84.0002 55.671 83.9283 55.9101 83.7845 56.0732C83.6408 56.2363 83.4216 56.318 83.1271 56.318H82.8503V57.7803H82.2648V53.8882H83.127L83.1271 53.8879ZM82.8503 54.444V55.7617H83.1271C83.2194 55.7617 83.2903 55.7358 83.3402 55.6839C83.3898 55.632 83.4145 55.5355 83.4145 55.3947V54.8109C83.4145 54.6701 83.3898 54.5737 83.3402 54.5217C83.2904 54.4698 83.2194 54.4438 83.1271 54.4438H82.8503V54.444Z" fill="#191919"/>
<path d="M1.66727 63.3398H1.30957V60.9628H2.43769V63.3398H2.07362V61.3023H1.66727V63.3398ZM3.68199 62.7931C3.68199 62.8791 3.69869 62.9396 3.73234 62.9748C3.76598 63.0099 3.81092 63.0275 3.86727 63.0275C3.92362 63.0275 3.96868 63.0099 4.0022 62.9748C4.03584 62.9397 4.05266 62.8791 4.05266 62.7931V61.5095C4.05266 61.4235 4.03584 61.363 4.0022 61.3278C3.96868 61.2927 3.92362 61.2751 3.86727 61.2751C3.81092 61.2751 3.76598 61.2927 3.73234 61.3278C3.69869 61.3629 3.68199 61.4235 3.68199 61.5095V62.7931ZM3.3243 61.5332C3.3243 61.3408 3.37092 61.1932 3.46415 61.0901C3.55739 60.9871 3.6916 60.9356 3.86715 60.9356C4.04269 60.9356 4.17714 60.9871 4.27026 61.0901C4.36338 61.1932 4.41 61.3409 4.41 61.5332V62.7694C4.41 62.9619 4.36338 63.1094 4.27026 63.2125C4.17702 63.3155 4.04269 63.367 3.86715 63.367C3.6916 63.367 3.55727 63.3155 3.46415 63.2125C3.37092 63.1094 3.3243 62.9618 3.3243 62.7694V61.5332ZM7.58769 62.4535V62.7693C7.58769 62.9618 7.54275 63.1093 7.45263 63.2124C7.36276 63.3154 7.22999 63.3669 7.05457 63.3669C6.87902 63.3669 6.74625 63.3154 6.65626 63.2124C6.56626 63.1093 6.52133 62.9616 6.52133 62.7693V61.5331C6.52133 61.3406 6.56626 61.1931 6.65626 61.09C6.74625 60.987 6.87902 60.9355 7.05457 60.9355C7.22999 60.9355 7.36276 60.987 7.45263 61.09C7.54275 61.1931 7.58769 61.3407 7.58769 61.5331V61.7641H7.24957V61.5094C7.24957 61.4234 7.23275 61.3629 7.19911 61.3277C7.16559 61.2926 7.12053 61.275 7.0643 61.275C7.00783 61.275 6.96289 61.2926 6.92925 61.3277C6.8956 61.3628 6.8789 61.4234 6.8789 61.5094V62.793C6.8789 62.879 6.8956 62.939 6.92925 62.9729C6.96289 63.0069 7.00783 63.0239 7.0643 63.0239C7.12053 63.0239 7.16559 63.0069 7.19911 62.9729C7.23275 62.939 7.24957 62.879 7.24957 62.793V62.4534H7.58769V62.4535ZM8.81252 62.7931C8.81252 62.8791 8.82923 62.9396 8.86287 62.9748C8.89651 63.0099 8.94145 63.0275 8.9978 63.0275C9.05415 63.0275 9.09921 63.0099 9.13273 62.9748C9.16638 62.9397 9.1832 62.8791 9.1832 62.7931V61.5095C9.1832 61.4235 9.16638 61.363 9.13273 61.3278C9.09921 61.2927 9.05415 61.2751 8.9978 61.2751C8.94145 61.2751 8.89651 61.2927 8.86287 61.3278C8.82923 61.3629 8.81252 61.4235 8.81252 61.5095V62.7931ZM8.45483 61.5332C8.45483 61.3408 8.50145 61.1932 8.59469 61.0901C8.68793 60.9871 8.82214 60.9356 8.99768 60.9356C9.17322 60.9356 9.30768 60.9871 9.40079 61.0901C9.49391 61.1932 9.54053 61.3409 9.54053 61.5332V62.7694C9.54053 62.9619 9.49391 63.1094 9.40079 63.2125C9.30756 63.3155 9.17322 63.367 8.99768 63.367C8.82214 63.367 8.68781 63.3155 8.59469 63.2125C8.50145 63.1094 8.45483 62.9618 8.45483 62.7694V61.5332ZM11.5553 60.9628L11.1813 62.1174L11.5812 63.3398H11.2039L10.9114 62.3991L10.6155 63.3398H10.2808L10.6805 62.1174L10.3066 60.9628H10.6772L10.9469 61.8389L11.2234 60.9628H11.555H11.5553ZM12.9878 60.9628C13.1677 60.9628 13.3016 61.0126 13.3895 61.1123C13.4772 61.2118 13.5212 61.3579 13.5212 61.5502V61.8593C13.5212 62.0517 13.4772 62.1977 13.3895 62.2974C13.3017 62.397 13.1678 62.4467 12.9878 62.4467H12.8189V63.3398H12.4612V60.9628H12.9878ZM12.8189 61.3024V62.1072H12.9878C13.0443 62.1072 13.0877 62.0914 13.118 62.0596C13.1482 62.0279 13.1635 61.9692 13.1635 61.8831V61.5265C13.1635 61.4405 13.1482 61.3816 13.118 61.35C13.0877 61.3182 13.0442 61.3024 12.9878 61.3024H12.8189ZM15.4122 63.3399H15.0515L14.9897 62.9086H14.5509L14.4892 63.3399H14.1608L14.5248 60.9629H15.0481L15.4122 63.3399ZM14.5963 62.5861H14.9408L14.7686 61.384L14.5963 62.5861ZM16.6273 63.3399H16.2696V60.9629H16.6273V61.9817H17.0336V60.9629H17.3977V63.3399H17.0336V62.3212H16.6273V63.3399ZM18.6517 61.9647H19.1427V62.3043H18.6517V63.0004H19.2693V63.3401H18.294V60.963H19.2693V61.3027H18.6517V61.9648V61.9647ZM20.5201 63.3399H20.1624V60.9629H20.5201V61.9817H20.9265V60.9629H21.2905V63.3399H20.9265V62.3212H20.5201V63.3399ZM22.447 63.3399H22.1869V60.9629H22.5055V62.3857L23.0615 60.9629H23.3215V63.3399H22.9996V61.9919L22.447 63.3399ZM24.5755 63.3399H24.2178V60.9629H24.5755V61.9817H24.7901V61.5334C24.7901 61.341 24.8366 61.1935 24.93 61.0903C25.0231 60.9874 25.1574 60.9359 25.3328 60.9359C25.5085 60.9359 25.6428 60.9874 25.736 61.0903C25.8292 61.1935 25.8758 61.3411 25.8758 61.5334V62.7697C25.8758 62.9621 25.8292 63.1096 25.736 63.2128C25.6427 63.3157 25.5085 63.3672 25.3328 63.3672C25.1574 63.3672 25.023 63.3157 24.93 63.2128C24.8367 63.1096 24.7901 62.962 24.7901 62.7697V62.3214H24.5755V63.3402V63.3399ZM25.1477 62.7933C25.1477 62.8792 25.1645 62.9397 25.1982 62.9749C25.2318 63.01 25.2767 63.0276 25.333 63.0276C25.3894 63.0276 25.4344 63.01 25.468 62.9749C25.5017 62.9398 25.5184 62.8792 25.5184 62.7933V61.5096C25.5184 61.4236 25.5017 61.3631 25.468 61.3279C25.4344 61.2928 25.3894 61.2752 25.333 61.2752C25.2767 61.2752 25.2318 61.2928 25.1982 61.3279C25.1645 61.363 25.1477 61.4236 25.1477 61.5096V62.7933ZM28.257 63.3399H27.9969V60.9629H28.3155V62.3857L28.8715 60.9629H29.1315V63.3399H28.8097V61.9919L28.257 63.3399ZM31.0844 62.4536V62.7694C31.0844 62.9619 31.0395 63.1094 30.9494 63.2125C30.8595 63.3155 30.7268 63.367 30.5513 63.367C30.3758 63.367 30.243 63.3155 30.153 63.2125C30.063 63.1094 30.0181 62.9618 30.0181 62.7694V61.5332C30.0181 61.3408 30.063 61.1932 30.153 61.0901C30.243 60.9871 30.3758 60.9356 30.5513 60.9356C30.7268 60.9356 30.8595 60.9871 30.9494 61.0901C31.0395 61.1932 31.0844 61.3409 31.0844 61.5332V61.7642H30.7463V61.5095C30.7463 61.4235 30.7295 61.363 30.6959 61.3278C30.6623 61.2927 30.6173 61.2751 30.5609 61.2751C30.5046 61.2751 30.4597 61.2927 30.426 61.3278C30.3924 61.3629 30.3757 61.4235 30.3757 61.5095V62.7931C30.3757 62.8791 30.3924 62.9391 30.426 62.973C30.4597 63.007 30.5046 63.024 30.5609 63.024C30.6173 63.024 30.6623 63.007 30.6959 62.973C30.7295 62.9391 30.7463 62.8791 30.7463 62.7931V62.4535H31.0844V62.4536ZM31.9158 60.9628H33.0211V61.3024H32.6472V63.3399H32.2896V61.3024H31.9157V60.9628H31.9158ZM34.184 62.7931C34.184 62.8791 34.2007 62.9396 34.2344 62.9748C34.268 63.0099 34.313 63.0275 34.3693 63.0275C34.4257 63.0275 34.4707 63.0099 34.5042 62.9748C34.5379 62.9397 34.5547 62.8791 34.5547 62.7931V61.5095C34.5547 61.4235 34.5379 61.363 34.5042 61.3278C34.4707 61.2927 34.4257 61.2751 34.3693 61.2751C34.313 61.2751 34.268 61.2927 34.2344 61.3278C34.2007 61.3629 34.184 61.4235 34.184 61.5095V62.7931ZM33.8263 61.5332C33.8263 61.3408 33.873 61.1932 33.9662 61.0901C34.0594 60.9871 34.1936 60.9356 34.3692 60.9356C34.5447 60.9356 34.6792 60.9871 34.7723 61.0901C34.8654 61.1932 34.912 61.3409 34.912 61.5332V62.7694C34.912 62.9619 34.8654 63.1094 34.7723 63.2125C34.6791 63.3155 34.5447 63.367 34.3692 63.367C34.1936 63.367 34.0593 63.3155 33.9662 63.2125C33.873 63.1094 33.8263 62.9618 33.8263 62.7694V61.5332ZM36.3253 60.9628C36.5051 60.9628 36.639 61.0126 36.7268 61.1123C36.8145 61.2118 36.8585 61.3579 36.8585 61.5502V61.8593C36.8585 62.0517 36.8145 62.1977 36.7268 62.2974C36.6391 62.397 36.5053 62.4467 36.3253 62.4467H36.1562V63.3398H35.7986V60.9628H36.3253ZM36.1562 61.3024V62.1072H36.3253C36.3816 62.1072 36.425 62.0914 36.4553 62.0596C36.4857 62.0279 36.5008 61.9692 36.5008 61.8831V61.5265C36.5008 61.4405 36.4857 61.3816 36.4553 61.35C36.425 61.3182 36.3815 61.3024 36.3253 61.3024H36.1562ZM37.9564 63.3399H37.6961V60.9629H38.0148V62.3857L38.5707 60.9629H38.8308V63.3399H38.5089V61.9919L37.9564 63.3399ZM40.8 61.6285C40.8 61.8729 40.7208 62.0338 40.5627 62.1107C40.6537 62.1491 40.716 62.212 40.7496 62.2991C40.7832 62.3863 40.8 62.4921 40.8 62.6166V62.8271C40.8 62.8748 40.8031 62.9104 40.8097 62.9341C40.8164 62.9578 40.8265 62.9748 40.8408 62.9851C40.8548 62.9953 40.8721 63.0003 40.8927 63.0003C40.9132 63.0003 40.9376 63.0003 40.9657 63.0003H40.9853V63.3399H40.8358C40.7254 63.3422 40.6375 63.3111 40.5726 63.2466C40.5076 63.1821 40.475 63.0989 40.475 62.997V62.6066C40.475 62.4955 40.4512 62.4175 40.4035 62.3722C40.3558 62.3268 40.2908 62.3042 40.2085 62.3042H40.0849V63.3399H39.7272V60.9629H40.0849V61.9647H40.2247C40.292 61.9647 40.3504 61.9466 40.4003 61.9104C40.4501 61.8741 40.475 61.8085 40.475 61.7134V61.306C40.475 61.2041 40.5076 61.1209 40.5726 61.0563C40.6376 60.9918 40.7254 60.9607 40.8358 60.963H40.9821V61.3027H40.9657C40.9376 61.3027 40.9132 61.3027 40.8927 61.3027C40.872 61.3027 40.8548 61.3077 40.8408 61.3179C40.8265 61.3281 40.8164 61.3451 40.8097 61.3689C40.8031 61.3926 40.8 61.4283 40.8 61.4758V61.6286V61.6285ZM42.158 62.7933C42.158 62.8792 42.1747 62.9397 42.2083 62.9749C42.2419 63.01 42.2869 63.0276 42.3433 63.0276C42.3996 63.0276 42.4447 63.01 42.4782 62.9749C42.5118 62.9398 42.5287 62.8792 42.5287 62.7933V61.5096C42.5287 61.4236 42.5118 61.3631 42.4782 61.3279C42.4447 61.2928 42.3996 61.2752 42.3433 61.2752C42.2869 61.2752 42.2419 61.2928 42.2083 61.3279C42.1747 61.363 42.158 61.4236 42.158 61.5096V62.7933ZM41.8003 61.5333C41.8003 61.3409 41.8468 61.1933 41.94 61.0902C42.0333 60.9872 42.1676 60.9357 42.3431 60.9357C42.5187 60.9357 42.6531 60.9872 42.7463 61.0902C42.8394 61.1933 42.886 61.341 42.886 61.5333V62.7695C42.886 62.962 42.8394 63.1095 42.7463 63.2126C42.653 63.3156 42.5187 63.3671 42.3431 63.3671C42.1676 63.3671 42.0333 63.3156 41.94 63.2126C41.8468 63.1095 41.8003 62.9619 41.8003 62.7695V61.5333ZM43.7758 61.9816H44.426V62.3212H43.7758V61.9816ZM46.3984 61.6284C46.3984 61.8728 46.3192 62.0337 46.1611 62.1105C46.2521 62.149 46.3144 62.2119 46.348 62.299C46.3816 62.3862 46.3984 62.492 46.3984 62.6165V62.827C46.3984 62.8747 46.4017 62.9103 46.4082 62.934C46.4146 62.9577 46.4249 62.9747 46.439 62.985C46.4531 62.9952 46.4705 63.0002 46.4909 63.0002C46.5116 63.0002 46.536 63.0002 46.5641 63.0002H46.5837V63.3398H46.4341C46.3237 63.3421 46.2359 63.311 46.1709 63.2465C46.1059 63.182 46.0734 63.0988 46.0734 62.9968V62.6064C46.0734 62.4954 46.0496 62.4173 46.0019 62.3721C45.9542 62.3267 45.8892 62.3041 45.8068 62.3041H45.6833V63.3398H45.3256V60.9628H45.6833V61.9646H45.823C45.8903 61.9646 45.9488 61.9465 45.9987 61.9103C46.0484 61.874 46.0734 61.8084 46.0734 61.7133V61.3059C46.0734 61.204 46.1059 61.1208 46.1709 61.0562C46.236 60.9917 46.3237 60.9605 46.4341 60.9629H46.5803V61.3025H46.5641C46.536 61.3025 46.5116 61.3025 46.4909 61.3025C46.4704 61.3025 46.4531 61.3076 46.439 61.3178C46.4249 61.3279 46.4146 61.3449 46.4082 61.3688C46.4016 61.3925 46.3984 61.4282 46.3984 61.4757V61.6285V61.6284ZM47.5776 63.0003C47.5971 63.0026 47.6122 63.0038 47.6231 63.0038C47.6338 63.0038 47.6491 63.0038 47.6687 63.0038C47.6968 63.0038 47.725 63.0003 47.7532 62.9936C47.7814 62.9868 47.8057 62.9743 47.8264 62.9561C47.847 62.938 47.8615 62.9127 47.8703 62.8798C47.879 62.847 47.879 62.8034 47.8703 62.7491L47.3826 60.9629H47.7403L48.101 62.3552L48.3936 60.9629H48.7513L48.3156 62.7152C48.2765 62.8443 48.2392 62.9495 48.2034 63.031C48.1676 63.1125 48.1269 63.1765 48.0815 63.2228C48.0359 63.2693 47.984 63.301 47.9255 63.318C47.8669 63.335 47.7976 63.3445 47.7175 63.3469C47.685 63.3469 47.6611 63.3469 47.646 63.3469C47.6308 63.3469 47.6081 63.3446 47.5777 63.3401V63.0004L47.5776 63.0003ZM49.9465 62.2363C49.9465 62.4263 49.9378 62.5911 49.9205 62.7303C49.9032 62.8695 49.8706 62.9844 49.8229 63.075C49.7752 63.1656 49.7097 63.2323 49.6262 63.2754C49.5428 63.3184 49.4361 63.3399 49.3061 63.3399H49.2671V63.0003H49.3094C49.3745 63.0003 49.427 62.9822 49.467 62.9461C49.5071 62.9098 49.538 62.8584 49.5597 62.7916C49.5813 62.7248 49.5953 62.6438 49.6019 62.5487C49.6086 62.4536 49.6117 62.3473 49.6117 62.2295V60.9628H50.6065V63.3398H50.2488V61.3023H49.9467V62.2362L49.9465 62.2363ZM51.8571 61.9305H52.0717C52.2514 61.9305 52.3853 61.9804 52.4732 62.08C52.561 62.1796 52.6049 62.3256 52.6049 62.5181V62.7524C52.6049 62.9449 52.561 63.0908 52.4732 63.1904C52.3854 63.29 52.2516 63.3398 52.0717 63.3398H51.4995V60.9628H51.8572V61.9305H51.8571ZM52.0717 63.0003C52.128 63.0003 52.1714 62.9839 52.2017 62.9511C52.232 62.9183 52.2472 62.86 52.2472 62.7763V62.4945C52.2472 62.4106 52.232 62.3523 52.2017 62.3195C52.1714 62.2867 52.1279 62.2703 52.0717 62.2703H51.8571V63.0004H52.0717V63.0003ZM53.1988 60.9628H54.3041V61.3024H53.9302V63.3399H53.5726V61.3024H53.1987V60.9628H53.1988ZM55.3209 63.0003C55.3403 63.0026 55.3555 63.0038 55.3664 63.0038C55.3771 63.0038 55.3924 63.0038 55.4119 63.0038C55.4401 63.0038 55.4683 63.0003 55.4965 62.9936C55.5246 62.9868 55.549 62.9743 55.5697 62.9561C55.5903 62.938 55.6048 62.9127 55.6136 62.8798C55.6222 62.847 55.6222 62.8034 55.6136 62.7491L55.1259 60.9629H55.4836L55.8443 62.3552L56.1368 60.9629H56.4945L56.0588 62.7152C56.0198 62.8443 55.9824 62.9495 55.9467 63.031C55.9108 63.1125 55.8702 63.1765 55.8248 63.2228C55.7791 63.2693 55.7272 63.301 55.6688 63.318C55.6102 63.335 55.5409 63.3445 55.4607 63.3469C55.4283 63.3469 55.4044 63.3469 55.3892 63.3469C55.3741 63.3469 55.3514 63.3446 55.321 63.3401V63.0004L55.3209 63.0003ZM57.862 60.9628C58.0419 60.9628 58.1757 61.0126 58.2635 61.1123C58.3512 61.2118 58.3952 61.3579 58.3952 61.5502V61.8593C58.3952 62.0517 58.3514 62.1977 58.2635 62.2974C58.1758 62.397 58.042 62.4467 57.862 62.4467H57.6929V63.3398H57.3354V60.9628H57.862ZM57.6929 61.3024V62.1072H57.862C57.9183 62.1072 57.9617 62.0914 57.992 62.0596C58.0224 62.0279 58.0376 61.9692 58.0376 61.8831V61.5265C58.0376 61.4405 58.0224 61.3816 57.992 61.35C57.9617 61.3182 57.9182 61.3024 57.862 61.3024H57.6929ZM59.5905 63.3399H59.2328V60.9629H59.5905V61.9817H59.9969V60.9629H60.3609V63.3399H59.9969V62.3212H59.5905V63.3399ZM61.6052 62.7933C61.6052 62.8792 61.6219 62.9397 61.6556 62.9749C61.6892 63.01 61.7342 63.0276 61.7906 63.0276C61.8469 63.0276 61.8919 63.01 61.9254 62.9749C61.9591 62.9398 61.9759 62.8792 61.9759 62.7933V61.5096C61.9759 61.4236 61.9591 61.3631 61.9254 61.3279C61.8919 61.2928 61.8469 61.2752 61.7906 61.2752C61.7342 61.2752 61.6892 61.2928 61.6556 61.3279C61.6219 61.363 61.6052 61.4236 61.6052 61.5096V62.7933ZM61.2475 61.5333C61.2475 61.3409 61.2942 61.1933 61.3874 61.0902C61.4806 60.9872 61.6148 60.9357 61.7905 60.9357C61.9659 60.9357 62.1004 60.9872 62.1935 61.0902C62.2866 61.1933 62.3332 61.341 62.3332 61.5333V62.7695C62.3332 62.962 62.2866 63.1095 62.1935 63.2126C62.1003 63.3156 61.9659 63.3671 61.7905 63.3671C61.6148 63.3671 61.4805 63.3156 61.3874 63.2126C61.2942 63.1095 61.2475 62.9619 61.2475 62.7695V61.5333ZM63.5774 63.3399H63.2198V60.9629H64.1658V61.3025H63.5773V63.3401L63.5774 63.3399ZM65.3258 62.7933C65.3258 62.8792 65.3425 62.9397 65.3761 62.9749C65.4096 63.01 65.4547 63.0276 65.511 63.0276C65.5674 63.0276 65.6124 63.01 65.646 62.9749C65.6796 62.9398 65.6964 62.8792 65.6964 62.7933V61.5096C65.6964 61.4236 65.6796 61.3631 65.646 61.3279C65.6124 61.2928 65.5674 61.2752 65.511 61.2752C65.4547 61.2752 65.4096 61.2928 65.3761 61.3279C65.3425 61.363 65.3258 61.4236 65.3258 61.5096V62.7933ZM64.9681 61.5333C64.9681 61.3409 65.0146 61.1933 65.1078 61.0902C65.2011 60.9872 65.3354 60.9357 65.5109 60.9357C65.6865 60.9357 65.8209 60.9872 65.914 61.0902C66.0072 61.1933 66.0538 61.341 66.0538 61.5333V62.7695C66.0538 62.962 66.0072 63.1095 65.914 63.2126C65.8208 63.3156 65.6865 63.3671 65.5109 63.3671C65.3354 63.3671 65.2011 63.3156 65.1078 63.2126C65.0146 63.1095 64.9681 62.9619 64.9681 62.7695V61.5333ZM68.5325 63.3399H68.1748V60.9629H68.5325V61.9817H68.9389V60.9629H69.303V63.3399H68.9389V62.3212H68.5325V63.3399ZM71.4151 63.3399H71.0544L70.9927 62.9086H70.5539L70.4921 63.3399H70.1637L70.5278 60.9629H71.0511L71.4151 63.3399ZM70.5993 62.5861H70.9438L70.7716 61.384L70.5993 62.5861ZM73.264 62.4538V62.7695C73.264 62.962 73.2191 63.1095 73.1291 63.2126C73.0391 63.3156 72.9063 63.3671 72.7309 63.3671C72.5554 63.3671 72.4226 63.3156 72.3326 63.2126C72.2427 63.1095 72.1977 62.9619 72.1977 62.7695V61.5333C72.1977 61.3409 72.2427 61.1933 72.3326 61.0902C72.4226 60.9872 72.5554 60.9357 72.7309 60.9357C72.9063 60.9357 73.0391 60.9872 73.1291 61.0902C73.2191 61.1933 73.264 61.341 73.264 61.5333V61.7643H72.9259V61.5096C72.9259 61.4236 72.9091 61.3631 72.8755 61.3279C72.8419 61.2928 72.7969 61.2752 72.7407 61.2752C72.6842 61.2752 72.6392 61.2928 72.6056 61.3279C72.572 61.363 72.5553 61.4236 72.5553 61.5096V62.7933C72.5553 62.8792 72.572 62.9392 72.6056 62.9731C72.6392 63.0071 72.6842 63.0241 72.7407 63.0241C72.7969 63.0241 72.8419 63.0071 72.8755 62.9731C72.9091 62.9392 72.9259 62.8792 72.9259 62.7933V62.4536H73.264V62.4538ZM74.7879 62.2364C74.7879 62.4265 74.7793 62.5912 74.7619 62.7304C74.7446 62.8697 74.7121 62.9845 74.6644 63.0752C74.6166 63.1657 74.5512 63.2324 74.4677 63.2755C74.3843 63.3185 74.2775 63.3401 74.1475 63.3401H74.1086V63.0004H74.1508C74.2159 63.0004 74.2684 62.9823 74.3084 62.9462C74.3485 62.9099 74.3794 62.8585 74.401 62.7917C74.4227 62.7249 74.4369 62.6439 74.4433 62.5488C74.4499 62.4538 74.4531 62.3474 74.4531 62.2296V60.9629H75.4478V63.3399H75.0902V61.3024H74.7879V62.2363V62.2364ZM76.6985 61.9647H77.1894V62.3043H76.6985V63.0004H77.3161V63.3401H76.3409V60.963H77.3161V61.3027H76.6985V61.9648V61.9647ZM78.5442 63.3399C78.5267 63.3399 78.5138 63.344 78.5051 63.3519C78.4965 63.3598 78.4905 63.374 78.4872 63.3943C78.484 63.4148 78.4818 63.4424 78.4806 63.4775C78.4796 63.5126 78.4792 63.5573 78.4792 63.6117H78.18V63.0004H78.2547C78.3609 62.962 78.4378 62.8804 78.4855 62.7559C78.5332 62.6315 78.557 62.4559 78.557 62.2296V60.9629H79.5518V63.0004H79.7014V63.6117H79.4021C79.4021 63.5574 79.4016 63.5127 79.4006 63.4775C79.3995 63.4424 79.3972 63.4148 79.394 63.3943C79.3908 63.374 79.3843 63.3598 79.3745 63.3519C79.3648 63.344 79.3523 63.3399 79.3372 63.3399H78.5439H78.5442ZM78.8919 62.2364C78.8919 62.3224 78.886 62.4072 78.8741 62.491C78.8621 62.5748 78.8453 62.6517 78.8236 62.7219C78.802 62.7922 78.7776 62.8521 78.7505 62.9019C78.7234 62.9517 78.6958 62.9845 78.6676 63.0004H79.1942V61.3025H78.8919V62.2364ZM80.8416 63.3399H80.5815V60.9629H80.9001V62.3857L81.4561 60.9629H81.7161V63.3399H81.3943V61.9919L80.8416 63.3399ZM82.7362 62.6845C82.7362 62.56 82.7529 62.4542 82.7865 62.3669C82.82 62.2798 82.8824 62.217 82.9734 62.1786C82.8174 62.1016 82.7393 61.9408 82.7393 61.6963V61.5095C82.7393 61.3261 82.7811 61.1891 82.8645 61.0986C82.9479 61.0081 83.0829 60.9628 83.2693 60.9628H83.8089V63.3398H83.4512V62.3721H83.3277C83.2454 62.3721 83.1857 62.3947 83.1488 62.44C83.112 62.4854 83.0935 62.5634 83.0935 62.6743V62.997C83.0935 63.0989 83.0643 63.1815 83.0058 63.245C82.9472 63.3083 82.8464 63.3401 82.7035 63.3401H82.5865V63.0004H82.6059C82.6471 63.0004 82.6791 62.9907 82.7019 62.9716C82.7246 62.9523 82.7362 62.9041 82.7362 62.8271V62.6845ZM83.2789 61.3024C83.2162 61.3024 83.1699 61.3217 83.1409 61.3602C83.1117 61.3986 83.097 61.4609 83.097 61.547V61.7813C83.097 61.8764 83.1159 61.942 83.154 61.9782C83.1918 62.0145 83.2444 62.0326 83.3115 62.0326H83.4513V61.3024H83.279H83.2789Z" fill="#191919"/>
<path d="M24.5627 66.9727H24.2051V64.5957H24.5627V65.6144H24.969V64.5957H25.3331V66.9727H24.969V65.9539H24.5627V66.9727ZM26.5773 66.426C26.5773 66.512 26.594 66.5725 26.6276 66.6077C26.6612 66.6428 26.7063 66.6604 26.7627 66.6604C26.819 66.6604 26.8641 66.6428 26.8976 66.6077C26.9312 66.5726 26.9481 66.512 26.9481 66.426V65.1424C26.9481 65.0564 26.9312 64.9959 26.8976 64.9607C26.8641 64.9256 26.819 64.908 26.7627 64.908C26.7063 64.908 26.6612 64.9256 26.6276 64.9607C26.594 64.9958 26.5773 65.0564 26.5773 65.1424V66.426ZM26.2197 65.1661C26.2197 64.9736 26.2662 64.8261 26.3594 64.723C26.4527 64.62 26.5869 64.5685 26.7625 64.5685C26.9381 64.5685 27.0725 64.62 27.1656 64.723C27.2588 64.8261 27.3053 64.9738 27.3053 65.1661V66.4023C27.3053 66.5948 27.2588 66.7423 27.1656 66.8454C27.0724 66.9484 26.9381 66.9999 26.7625 66.9999C26.5869 66.9999 26.4527 66.9484 26.3594 66.8454C26.2662 66.7423 26.2197 66.5946 26.2197 66.4023V65.1661ZM28.7316 64.5957C28.9181 64.5957 29.0529 64.641 29.1363 64.7315C29.2198 64.822 29.2615 64.959 29.2615 65.1424V65.2273C29.2615 65.3495 29.2432 65.4503 29.2062 65.5295C29.1693 65.6087 29.1109 65.6675 29.0307 65.7061C29.1283 65.7445 29.1971 65.8074 29.2371 65.8944C29.2772 65.9817 29.2973 66.0886 29.2973 66.2154V66.4089C29.2973 66.5922 29.2517 66.7321 29.1607 66.8283C29.0697 66.9244 28.9343 66.9726 28.7544 66.9726H28.192V64.5956H28.7316V64.5957ZM28.5495 65.9031V66.6332H28.7543C28.815 66.6332 28.861 66.6162 28.8924 66.5822C28.9238 66.5483 28.9395 66.4871 28.9395 66.3988V66.1918C28.9395 66.0808 28.9216 66.005 28.8859 65.9642C28.8501 65.9235 28.791 65.9031 28.7088 65.9031H28.5493H28.5495ZM28.5495 64.9353V65.5635H28.6893C28.7566 65.5635 28.8091 65.5455 28.847 65.5093C28.8848 65.4731 28.9039 65.4075 28.9039 65.3123V65.18C28.9039 65.0939 28.8892 65.0316 28.86 64.9932C28.8308 64.9547 28.7847 64.9354 28.7219 64.9354H28.5496L28.5495 64.9353ZM30.5382 66.4261C30.5382 66.5121 30.5549 66.5726 30.5886 66.6078C30.6222 66.6429 30.6671 66.6605 30.7235 66.6605C30.7799 66.6605 30.8249 66.6429 30.8584 66.6078C30.8921 66.5727 30.9089 66.5121 30.9089 66.4261V65.1425C30.9089 65.0565 30.8921 64.996 30.8584 64.9608C30.8249 64.9257 30.7799 64.9081 30.7235 64.9081C30.6671 64.9081 30.6222 64.9257 30.5886 64.9608C30.5549 64.9959 30.5382 65.0565 30.5382 65.1425V66.4261ZM30.1805 65.1662C30.1805 64.9738 30.2271 64.8262 30.3204 64.7231C30.4136 64.6201 30.5478 64.5686 30.7234 64.5686C30.8989 64.5686 31.0334 64.6201 31.1265 64.7231C31.2196 64.8262 31.2661 64.9739 31.2661 65.1662V66.4024C31.2661 66.5949 31.2196 66.7424 31.1265 66.8455C31.0333 66.9485 30.8989 67 30.7234 67C30.5478 67 30.4135 66.9485 30.3204 66.8455C30.2271 66.7424 30.1805 66.5948 30.1805 66.4024V65.1662ZM33.2093 66.0865V66.4023C33.2093 66.5948 33.1643 66.7423 33.0743 66.8454C32.9843 66.9484 32.8517 66.9999 32.6761 66.9999C32.5007 66.9999 32.3679 66.9484 32.2779 66.8454C32.1879 66.7423 32.143 66.5946 32.143 66.4023V65.1661C32.143 64.9736 32.1879 64.8261 32.2779 64.723C32.3679 64.62 32.5007 64.5685 32.6761 64.5685C32.8517 64.5685 32.9843 64.62 33.0743 64.723C33.1643 64.8261 33.2093 64.9738 33.2093 65.1661V65.3971H32.8712V65.1424C32.8712 65.0564 32.8544 64.9959 32.8208 64.9607C32.7872 64.9256 32.7422 64.908 32.6858 64.908C32.6295 64.908 32.5846 64.9256 32.5509 64.9607C32.5173 64.9958 32.5006 65.0564 32.5006 65.1424V66.426C32.5006 66.512 32.5173 66.572 32.5509 66.6059C32.5846 66.6399 32.6295 66.6569 32.6858 66.6569C32.7422 66.6569 32.7872 66.6399 32.8208 66.6059C32.8544 66.572 32.8712 66.512 32.8712 66.426V66.0864H33.2093V66.0865ZM34.3464 66.9728H34.0861V64.5958H34.4047V66.0186L34.9607 64.5958H35.2207V66.9728H34.8989V65.6247L34.3464 66.9728ZM36.4746 65.5635H36.6893C36.8691 65.5635 37.0029 65.6134 37.0908 65.713C37.1785 65.8126 37.2225 65.9586 37.2225 66.1511V66.3854C37.2225 66.5779 37.1785 66.7239 37.0908 66.8234C37.0031 66.923 36.8692 66.9728 36.6893 66.9728H36.1172V64.5958H37.063V64.9354H36.4746V65.5637V65.5635ZM36.6893 66.6333C36.7456 66.6333 36.7889 66.6169 36.8192 66.5841C36.8496 66.5513 36.8648 66.493 36.8648 66.4093V66.1275C36.8648 66.0436 36.8496 65.9853 36.8192 65.9525C36.7889 65.9197 36.7455 65.9033 36.6893 65.9033H36.4746V66.6334H36.6893V66.6333ZM38.3754 66.9729H38.1153V64.5959H38.434V66.0187L38.9898 64.5959H39.2499V66.9729H38.928V65.6249L38.3754 66.9729ZM40.6728 64.5959C40.8526 64.5959 40.9865 64.6457 41.0744 64.7454C41.1622 64.8449 41.2061 64.991 41.2061 65.1833V65.4924C41.2061 65.6849 41.1622 65.8308 41.0744 65.9305C40.9866 66.0301 40.8528 66.0798 40.6728 66.0798H40.5038V66.9729H40.1461V64.5959H40.6728ZM40.5038 64.9356V65.7403H40.6728C40.7292 65.7403 40.7726 65.7245 40.8029 65.6928C40.8332 65.661 40.8484 65.6024 40.8484 65.5162V65.1596C40.8484 65.0736 40.8332 65.0147 40.8029 64.9831C40.7726 64.9514 40.7291 64.9356 40.6728 64.9356H40.5038ZM43.1329 66.0868V66.4025C43.1329 66.595 43.0878 66.7425 42.9979 66.8456C42.9079 66.9486 42.7752 67.0001 42.5997 67.0001C42.4242 67.0001 42.2915 66.9486 42.2015 66.8456C42.1115 66.7425 42.0665 66.5949 42.0665 66.4025V65.1663C42.0665 64.9739 42.1115 64.8263 42.2015 64.7232C42.2915 64.6202 42.4242 64.5687 42.5997 64.5687C42.7752 64.5687 42.9079 64.6202 42.9979 64.7232C43.0878 64.8263 43.1329 64.974 43.1329 65.1663V65.3973H42.7948V65.1426C42.7948 65.0566 42.778 64.9962 42.7443 64.9609C42.7108 64.9259 42.6658 64.9083 42.6094 64.9083C42.553 64.9083 42.508 64.9259 42.4745 64.9609C42.4408 64.996 42.4241 65.0566 42.4241 65.1426V66.4263C42.4241 66.5122 42.4408 66.5722 42.4745 66.6061C42.508 66.6401 42.553 66.6572 42.6094 66.6572C42.6658 66.6572 42.7108 66.6401 42.7443 66.6061C42.778 66.5722 42.7948 66.5122 42.7948 66.4263V66.0866H43.1329V66.0868ZM45.0825 65.2615C45.0825 65.5059 45.0033 65.6668 44.8452 65.7437C44.9362 65.7821 44.9985 65.845 45.032 65.9322C45.0657 66.0193 45.0825 66.1251 45.0825 66.2496V66.4602C45.0825 66.5078 45.0858 66.5434 45.0922 66.5671C45.0987 66.5908 45.1089 66.6078 45.1231 66.6181C45.1372 66.6283 45.1546 66.6333 45.175 66.6333C45.1957 66.6333 45.22 66.6333 45.2482 66.6333H45.2678V66.9729H45.1182C45.0078 66.9752 44.9199 66.9441 44.8549 66.8797C44.7899 66.8151 44.7575 66.7319 44.7575 66.63V66.2396C44.7575 66.1286 44.7337 66.0505 44.686 66.0052C44.6383 65.9598 44.5733 65.9372 44.4909 65.9372H44.3674V66.9729H44.0097V64.5959H44.3674V65.5977H44.5071C44.5744 65.5977 44.6329 65.5796 44.6828 65.5434C44.7325 65.5071 44.7575 65.4415 44.7575 65.3464V64.939C44.7575 64.8371 44.7899 64.7539 44.8549 64.6893C44.9201 64.6248 45.0078 64.5937 45.1182 64.596H45.2644V64.9357H45.2482C45.22 64.9357 45.1957 64.9357 45.175 64.9357C45.1545 64.9357 45.1372 64.9407 45.1231 64.9509C45.1089 64.9611 45.0987 64.9781 45.0922 65.0019C45.0856 65.0256 45.0825 65.0613 45.0825 65.1088V65.2616V65.2615ZM46.4405 66.4263C46.4405 66.5122 46.4572 66.5727 46.4908 66.6079C46.5245 66.643 46.5694 66.6606 46.6258 66.6606C46.6821 66.6606 46.7272 66.643 46.7607 66.6079C46.7943 66.5728 46.8111 66.5122 46.8111 66.4263V65.1426C46.8111 65.0566 46.7943 64.9962 46.7607 64.9609C46.7272 64.9259 46.6821 64.9083 46.6258 64.9083C46.5694 64.9083 46.5245 64.9259 46.4908 64.9609C46.4572 64.996 46.4405 65.0566 46.4405 65.1426V66.4263ZM46.0828 65.1663C46.0828 64.9739 46.1294 64.8263 46.2226 64.7232C46.3159 64.6202 46.4501 64.5687 46.6256 64.5687C46.8012 64.5687 46.9356 64.6202 47.0287 64.7232C47.1219 64.8263 47.1684 64.974 47.1684 65.1663V66.4025C47.1684 66.595 47.1219 66.7425 47.0287 66.8456C46.9355 66.9486 46.8012 67.0001 46.6256 67.0001C46.4501 67.0001 46.3158 66.9486 46.2226 66.8456C46.1294 66.7425 46.0828 66.5949 46.0828 66.4025V65.1663ZM48.3054 66.9729H48.0454V64.5959H48.364V66.0187L48.9198 64.5959H49.1798V66.9729H48.8581V65.6249L48.3054 66.9729ZM48.6175 64.2495C48.6587 64.2495 48.6933 64.2381 48.7216 64.2155C48.7498 64.1928 48.7648 64.1521 48.7671 64.0932H49.0273C49.0229 64.229 48.9854 64.3332 48.915 64.4056C48.8446 64.4781 48.7455 64.5143 48.6177 64.5143C48.4876 64.5143 48.3879 64.4781 48.3185 64.4056C48.2491 64.3331 48.2101 64.229 48.2016 64.0932H48.4648C48.469 64.1521 48.4848 64.1928 48.5118 64.2155C48.539 64.2381 48.5742 64.2495 48.6175 64.2495ZM51.6455 66.4263C51.6455 66.5122 51.6622 66.5727 51.6959 66.6079C51.7295 66.643 51.7744 66.6606 51.8308 66.6606C51.8871 66.6606 51.9322 66.643 51.9657 66.6079C51.9994 66.5728 52.0162 66.5122 52.0162 66.4263V65.1426C52.0162 65.0566 51.9994 64.9962 51.9657 64.9609C51.9322 64.9259 51.8871 64.9083 51.8308 64.9083C51.7744 64.9083 51.7295 64.9259 51.6959 64.9609C51.6622 64.996 51.6455 65.0566 51.6455 65.1426V66.4263ZM51.2878 65.1663C51.2878 64.9739 51.3344 64.8263 51.4277 64.7232C51.5209 64.6202 51.6551 64.5687 51.8307 64.5687C52.0062 64.5687 52.1407 64.6202 52.2338 64.7232C52.3269 64.8263 52.3735 64.974 52.3735 65.1663V66.4025C52.3735 66.595 52.3269 66.7425 52.2338 66.8456C52.1405 66.9486 52.0062 67.0001 51.8307 67.0001C51.6551 67.0001 51.5208 66.9486 51.4277 66.8456C51.3344 66.7425 51.2878 66.5949 51.2878 66.4025V65.1663ZM53.6177 65.5637H53.8323C54.012 65.5637 54.1459 65.6135 54.2337 65.7131C54.3214 65.8128 54.3654 65.9587 54.3654 66.1512V66.3855C54.3654 66.578 54.3216 66.724 54.2337 66.8235C54.146 66.9231 54.0122 66.9729 53.8323 66.9729H53.2601V64.5959H54.2061V64.9356H53.6177V65.5638V65.5637ZM53.8323 66.6334C53.8886 66.6334 53.932 66.617 53.9623 66.5842C53.9926 66.5514 54.0078 66.4931 54.0078 66.4094V66.1276C54.0078 66.0438 53.9926 65.9854 53.9623 65.9526C53.932 65.9198 53.8885 65.9034 53.8323 65.9034H53.6177V66.6336H53.8323V66.6334ZM55.9053 65.8694C55.9053 66.0595 55.8966 66.2242 55.8792 66.3634C55.8619 66.5027 55.8295 66.6175 55.7818 66.7082C55.7341 66.7987 55.6686 66.8654 55.5851 66.9085C55.5017 66.9515 55.3949 66.9731 55.265 66.9731H55.2259V66.6334H55.2681C55.3332 66.6334 55.3858 66.6154 55.4258 66.5792C55.466 66.5429 55.4968 66.4915 55.5185 66.4247C55.5401 66.3579 55.5542 66.2769 55.5607 66.1818C55.5673 66.0868 55.5704 65.9804 55.5704 65.8626V64.5959H56.5652V66.9729H56.2076V64.9354H55.9053V65.8693V65.8694ZM58.674 66.9729H58.3133L58.2515 66.5416H57.8127L57.751 66.9729H57.4226L57.7867 64.5959H58.3099L58.674 66.9729ZM57.8581 66.2191H58.2026L58.0304 65.017L57.8581 66.2191ZM60.5229 66.0868V66.4025C60.5229 66.595 60.478 66.7425 60.3878 66.8456C60.298 66.9486 60.1652 67.0001 59.9898 67.0001C59.8142 67.0001 59.6815 66.9486 59.5915 66.8456C59.5015 66.7425 59.4565 66.5949 59.4565 66.4025V65.1663C59.4565 64.9739 59.5015 64.8263 59.5915 64.7232C59.6815 64.6202 59.8142 64.5687 59.9898 64.5687C60.1652 64.5687 60.298 64.6202 60.3878 64.7232C60.478 64.8263 60.5229 64.974 60.5229 65.1663V65.3973H60.1848V65.1426C60.1848 65.0566 60.168 64.9962 60.1343 64.9609C60.1008 64.9259 60.0557 64.9083 59.9994 64.9083C59.943 64.9083 59.8981 64.9259 59.8645 64.9609C59.8308 64.996 59.8141 65.0566 59.8141 65.1426V66.4263C59.8141 66.5122 59.8308 66.5722 59.8645 66.6061C59.8981 66.6401 59.943 66.6572 59.9994 66.6572C60.0557 66.6572 60.1008 66.6401 60.1343 66.6061C60.168 66.5722 60.1848 66.5122 60.1848 66.4263V66.0866H60.5229V66.0868ZM61.3541 64.5959H62.4595V64.9356H62.0856V66.9731H61.7279V64.9356H61.354V64.5959H61.3541ZM63.5671 66.9729H63.307V64.5959H63.6255V66.0187L64.1814 64.5959H64.4416V66.9729H64.1197V65.6249L63.5671 66.9729Z" fill="#191919"/>
<path fill-rule="evenodd" clip-rule="evenodd" d="M1.31201 59.2373H83.7984V59.5238H1.31201V59.2373Z" fill="#191919"/>
<path fill-rule="evenodd" clip-rule="evenodd" d="M16.385 17.726L12.5291 17.7241L10.7718 13.51V12.7522H11.1631V11.4682L10.0954 11.4662L8.85119 8.35972V7.57784L9.13824 6.08402H9.60071L9.25755 5.74439C9.57644 5.54309 9.62582 5.02311 9.14064 4.66433C8.9991 4.51224 8.67301 4.04484 8.58205 3.50115C8.70689 3.41193 8.67709 3.12512 8.50131 3.06596L8.47812 0L8.27782 0.00407166V3.07159C8.07656 3.13781 8.08101 3.41972 8.21534 3.50127C8.17076 3.80832 7.86738 4.45128 7.64185 4.66049C7.17554 5.03221 7.18815 5.50464 7.48049 5.73769L7.21879 6.08402L7.62875 6.08318L7.91352 7.57664L7.92866 8.35972L6.68363 11.4685L5.55359 11.4689V12.6259H5.95478V13.5069L4.2843 17.7235H0.582382V24.4835L1.87619 25.126L1.87499 33.5886L0 34.8643L0.123758 35.0007H0.602928L1.31159 35.6955V50.8311H3.55028L6.20422 50.8256V40.2132L8.31255 38.4495L10.4471 40.2132L10.422 48.9497L12.9976 50.822H37.542L47.1832 43.9287L47.1554 40.2099L45.1978 40.2112L53.1629 34.1681L61.1002 40.2006L59.1387 40.2073V43.7592L69.0882 50.8114H83.7986L71.4228 42.0098L71.4224 41.0888L71.6943 39.7087L72.0163 39.706L71.7806 39.4004C72.0061 39.0873 72.0606 38.7754 71.7412 38.4694C71.4948 38.1572 71.3445 37.8013 71.1527 37.2325C71.297 37.1786 71.334 36.8885 71.1324 36.7895L71.1308 33.6949L70.8958 33.6954L70.8676 36.7843C70.6913 36.9048 70.693 37.174 70.85 37.2325C70.665 37.7176 70.5172 38.1008 70.2149 38.4481C69.9709 38.7093 69.9208 39.1194 70.1549 39.3997L69.8874 39.7084H70.2588L70.563 41.0888L70.5611 42.0071H68.7812L68.7792 33.0565H64.1565L63.7312 32.7045L63.7049 32.0165L64.1617 29.7174L64.8421 29.7151L64.381 29.1939C64.6656 28.8245 64.713 28.4627 64.4115 28.1143C63.833 27.4854 63.466 26.7434 63.2746 26.0375C63.489 25.8798 63.5033 25.56 63.2592 25.4003L63.2035 20.8858H62.8834L62.8596 25.4141C62.6115 25.5826 62.6385 25.8589 62.8294 26.0375C62.5784 26.8271 62.2123 27.5772 61.6948 28.1123C61.4319 28.5137 61.4639 28.7947 61.7208 29.191L61.32 29.7169L61.8918 29.7157L62.3607 32.0147V32.6842L61.9424 33.0564H59.0551L54.2941 26.2736L54.2949 26.1492H54.4782L54.4786 24.1228L54.9725 21.5835L55.8799 21.5863L55.1479 20.871C55.5138 20.3997 55.5185 19.8539 55.0867 19.2175L54.5876 18.61C54.1562 17.9794 53.8138 17.2549 53.617 16.3743C53.8847 16.192 53.9057 15.6764 53.5167 15.5598V9.75294H53.2285L53.2197 15.5624C52.8654 15.7355 52.8492 16.1846 53.1601 16.376C52.9565 17.1928 52.5723 18.0009 52.1731 18.6268L51.641 19.2272C51.2481 19.6892 51.2306 20.2378 51.5882 20.8712L50.9818 21.5861L51.7722 21.5837L52.3051 24.11L52.3064 26.1463H52.4941L52.4933 26.2735L47.7585 33.1188L44.641 33.1313L44.1738 32.7454V32.0169L44.6367 29.7159L45.1975 29.7163L44.8733 29.2895C45.1698 28.8859 45.1493 28.4611 44.8582 28.0807C44.3897 27.6202 44.037 26.9187 43.7368 26.1082C43.9591 25.9172 43.9193 25.6021 43.7201 25.4679L43.6724 20.9486H43.3528L43.3309 25.4679C43.0485 25.6306 43.1153 25.9093 43.2565 26.1082C43.1325 26.82 42.6776 27.4677 42.2035 28.0807C41.895 28.4873 41.86 28.8908 42.2259 29.2898L41.8182 29.7156L42.3479 29.7152L42.8294 32.0167V32.7467L42.4282 33.1189H37.8672V42.01L15.5901 42.0029V35.6959L16.2642 35.0011L16.9441 35.0014L17.0701 34.8742L14.9086 33.5826L14.9177 25.2999L16.3866 24.483L16.3854 17.7265L16.385 17.726Z" fill="#191919"/>
<path d="M1.90008 57.7797H1.31445V53.8876H1.90008V55.5556H2.56537V53.8876H3.16157V57.7797H2.56537V56.1117H1.90008V57.7797ZM6.28987 57.7797H5.69884L5.59779 57.0735H4.87915L4.77798 57.7797H4.24042L4.83662 53.8876H5.69355L6.28975 57.7797H6.28987ZM4.95377 56.5453H5.51789L5.23577 54.5769L4.95365 56.5453H4.95377ZM7.37425 57.2238C7.40621 57.2275 7.43108 57.2293 7.44874 57.2293C7.46653 57.2293 7.4914 57.2293 7.52324 57.2293C7.56926 57.2293 7.61552 57.2238 7.66154 57.2127C7.70767 57.2016 7.74769 57.1811 7.78133 57.1515C7.81509 57.1219 7.83888 57.0801 7.85318 57.0264C7.86736 56.9726 7.86736 56.9012 7.85318 56.8122L7.05476 53.8876H7.64027L8.23118 56.1674L8.71023 53.8876H9.29586L8.58251 56.7567C8.51859 56.9679 8.45743 57.1404 8.3988 57.2738C8.34028 57.4073 8.27384 57.512 8.19934 57.588C8.12485 57.664 8.03966 57.7159 7.9439 57.7437C7.84801 57.7715 7.73447 57.7873 7.60314 57.791C7.54991 57.791 7.51086 57.791 7.48611 57.791C7.46124 57.791 7.42399 57.7873 7.37425 57.7799V57.2238ZM10.8432 53.8876V55.3888C10.8432 55.5297 10.8707 55.628 10.9257 55.6835C10.9806 55.7391 11.0543 55.767 11.1466 55.767C11.2352 55.767 11.3064 55.742 11.3595 55.6919C11.4127 55.6419 11.443 55.5556 11.45 55.4333V53.8876H12.0355V57.7797H11.45V56.284C11.4002 56.3024 11.3498 56.3145 11.2982 56.3202C11.2468 56.3257 11.1909 56.3284 11.1305 56.3284C10.8431 56.3284 10.6257 56.2441 10.4785 56.0755C10.3312 55.9068 10.2576 55.665 10.2576 55.3498V53.8875H10.8431L10.8432 53.8876ZM13.7587 57.7797H13.1732V53.8876H13.7587V55.5556H14.424V53.8876H15.0202V57.7797H14.424V56.1117H13.7587V57.7797ZM16.7273 56.8846C16.7273 57.0254 16.7548 57.1246 16.8097 57.182C16.8648 57.2395 16.9386 57.2683 17.0307 57.2683C17.123 57.2683 17.1966 57.2395 17.2517 57.182C17.3067 57.1247 17.3341 57.0254 17.3341 56.8846V54.7827C17.3341 54.6419 17.3067 54.5428 17.2517 54.4852C17.1968 54.4278 17.123 54.3991 17.0307 54.3991C16.9386 54.3991 16.8649 54.4278 16.8097 54.4852C16.7548 54.5426 16.7273 54.6419 16.7273 54.7827V56.8846ZM16.1418 54.8217C16.1418 54.5066 16.2182 54.2647 16.3707 54.096C16.5233 53.9273 16.7433 53.8429 17.0307 53.8429C17.3182 53.8429 17.5382 53.9273 17.6907 54.096C17.8434 54.2646 17.9197 54.5065 17.9197 54.8217V56.8456C17.9197 57.1607 17.8434 57.4025 17.6907 57.5714C17.5382 57.74 17.3182 57.8243 17.0307 57.8243C16.7433 57.8243 16.5233 57.74 16.3707 57.5714C16.2182 57.4026 16.1418 57.1608 16.1418 56.8456V54.8217ZM19.0466 55.5556H20.1112V56.1118H19.0466V55.5556ZM21.8397 57.7799H21.2541V53.8877H23.1012V57.7799H22.505V54.4436H21.8397V57.7799ZM25.101 53.8877C25.3955 53.8877 25.6147 53.9693 25.7585 54.1324C25.9022 54.2953 25.9741 54.5345 25.9741 54.8497V55.3557C25.9741 55.6707 25.9023 55.9099 25.7585 56.073C25.6148 56.2361 25.3955 56.3178 25.101 56.3178H24.8243V57.7801H24.2387V53.8879H25.1009L25.101 53.8877ZM24.8243 54.4437V55.7615H25.101C25.1934 55.7615 25.2643 55.7355 25.3141 55.6837C25.3638 55.6318 25.3886 55.5353 25.3886 55.3945V54.8107C25.3886 54.6698 25.3638 54.5734 25.3141 54.5214C25.2644 54.4696 25.1934 54.4436 25.101 54.4436H24.8243V54.4437ZM27.5852 56.8847C27.5852 57.0255 27.6128 57.1247 27.6677 57.1822C27.7228 57.2396 27.7964 57.2684 27.8887 57.2684C27.981 57.2684 28.0545 57.2396 28.1095 57.1822C28.1646 57.1248 28.1921 57.0255 28.1921 56.8847V54.7829C28.1921 54.642 28.1646 54.5429 28.1095 54.4853C28.0546 54.4279 27.981 54.3992 27.8887 54.3992C27.7964 54.3992 27.7229 54.4279 27.6677 54.4853C27.6128 54.5428 27.5852 54.642 27.5852 54.7829V56.8847ZM26.9998 54.8218C26.9998 54.5067 27.0761 54.2648 27.2286 54.0961C27.3813 53.9275 27.6013 53.843 27.8887 53.843C28.1761 53.843 28.3962 53.9275 28.5487 54.0961C28.7013 54.2647 28.7776 54.5066 28.7776 54.8218V56.8458C28.7776 57.1608 28.7013 57.4026 28.5487 57.5715C28.3962 57.7401 28.1761 57.8244 27.8887 57.8244C27.6013 57.8244 27.3813 57.7401 27.2286 57.5715C27.0761 57.4027 26.9998 57.161 26.9998 56.8458V54.8218ZM30.3252 57.7799H29.8992V53.8877H30.421V56.2174L31.3311 53.8877H31.7569V57.7799H31.23V55.5723L30.3252 57.7799ZM34.0283 54.8439C34.0283 54.6698 34.0008 54.552 33.9458 54.4909C33.8908 54.4297 33.8172 54.3992 33.7249 54.3992C33.6326 54.3992 33.559 54.4279 33.5039 54.4853C33.4489 54.5428 33.4215 54.642 33.4215 54.7829V55.1999H32.868V54.8218C32.868 54.5067 32.9416 54.2648 33.0889 54.0961C33.2361 53.9275 33.4536 53.843 33.7409 53.843C34.0284 53.843 34.2458 53.9275 34.3929 54.0961C34.5402 54.2647 34.6139 54.5066 34.6139 54.8218V54.9218C34.6139 55.337 34.4773 55.6039 34.2041 55.7225C34.353 55.7892 34.4588 55.892 34.5208 56.0311C34.5829 56.1701 34.6139 56.3397 34.6139 56.5399V56.8458C34.6139 57.1608 34.5402 57.4026 34.3929 57.5715C34.2458 57.7401 34.0284 57.8244 33.7409 57.8244C33.4536 57.8244 33.2361 57.7401 33.0889 57.5715C32.9416 57.4027 32.868 57.161 32.868 56.8458V56.3564H33.4215V56.8847C33.4215 57.0255 33.4489 57.1247 33.5039 57.1822C33.5588 57.2396 33.6326 57.2684 33.7249 57.2684C33.8172 57.2684 33.8907 57.2388 33.9458 57.1794C34.0008 57.12 34.0283 57.0032 34.0283 56.8291V56.5233C34.0283 56.3415 33.9981 56.2137 33.9378 56.1396C33.8775 56.0654 33.7799 56.0283 33.6451 56.0283H33.5546V55.4722H33.6771C33.787 55.4722 33.8732 55.4426 33.9352 55.3833C33.9973 55.3239 34.0284 55.2164 34.0284 55.0607V54.8438L34.0283 54.8439ZM36.6083 53.8877C36.9135 53.8877 37.1345 53.9617 37.2711 54.1101C37.4076 54.2585 37.4759 54.4826 37.4759 54.783V54.9219C37.4759 55.1221 37.4458 55.287 37.3855 55.4168C37.3252 55.5465 37.2293 55.6431 37.0979 55.7061C37.2576 55.769 37.3702 55.8719 37.4361 56.0147C37.5015 56.1574 37.5345 56.3325 37.5345 56.5401V56.8571C37.5345 57.1574 37.4601 57.3862 37.311 57.5439C37.1619 57.7014 36.9401 57.7802 36.6456 57.7802H35.7248V53.8881H36.6083V53.8877ZM36.3103 56.0284V57.2239H36.6457C36.7449 57.2239 36.8204 57.196 36.8719 57.1405C36.9235 57.0849 36.9491 56.9848 36.9491 56.8401V56.501C36.9491 56.3193 36.9199 56.1951 36.8614 56.1284C36.8027 56.0617 36.7061 56.0283 36.5712 56.0283H36.3105L36.3103 56.0284ZM36.3103 54.4437V55.4723H36.5391C36.6491 55.4723 36.7352 55.4427 36.7973 55.3834C36.8594 55.324 36.8906 55.2165 36.8906 55.0608V54.8439C36.8906 54.7031 36.8666 54.6011 36.8187 54.5381C36.7708 54.4751 36.6953 54.4436 36.5925 54.4436H36.3103V54.4437ZM39.2363 56.8847C39.2363 57.0255 39.2639 57.1247 39.3189 57.1822C39.3739 57.2396 39.4475 57.2684 39.5398 57.2684C39.6321 57.2684 39.7056 57.2396 39.7607 57.1822C39.8157 57.1248 39.8432 57.0255 39.8432 56.8847V54.7829C39.8432 54.642 39.8157 54.5429 39.7607 54.4853C39.7057 54.4279 39.6321 54.3992 39.5398 54.3992C39.4475 54.3992 39.374 54.4279 39.3189 54.4853C39.2639 54.5428 39.2363 54.642 39.2363 54.7829V56.8847ZM38.6509 54.8218C38.6509 54.5067 38.7272 54.2648 38.8797 54.0961C39.0324 53.9275 39.2524 53.843 39.5398 53.843C39.8273 53.843 40.0473 53.9275 40.1998 54.0961C40.3524 54.2647 40.4287 54.5066 40.4287 54.8218V56.8458C40.4287 57.1608 40.3524 57.4026 40.1998 57.5715C40.0473 57.7401 39.8273 57.8244 39.5398 57.8244C39.2524 57.8244 39.0324 57.7401 38.8797 57.5715C38.7272 57.4027 38.6509 57.161 38.6509 56.8458V54.8218ZM42.0187 57.7799C41.9902 57.7799 41.9691 57.7864 41.9548 57.7994C41.9406 57.8123 41.931 57.8354 41.9256 57.8688C41.9203 57.9022 41.9167 57.9476 41.9149 58.0051C41.9132 58.0625 41.9122 58.1358 41.9122 58.2247H41.4226V57.2239H41.545C41.7189 57.161 41.8448 57.0274 41.9229 56.8235C42.0009 56.6195 42.04 56.3324 42.04 55.9617V53.8877H43.6688V57.2239H43.9136V58.2247H43.424C43.424 58.1358 43.4229 58.0625 43.4212 58.0051C43.4196 57.9476 43.4159 57.9022 43.4105 57.8688C43.4054 57.8354 43.3947 57.8123 43.3787 57.7994C43.3627 57.7864 43.3423 57.7799 43.3174 57.7799H42.0187ZM42.5881 55.9728C42.5881 56.1136 42.5784 56.2526 42.5589 56.3897C42.5393 56.527 42.5119 56.653 42.4765 56.7679C42.4409 56.8829 42.401 56.9811 42.3567 57.0626C42.3123 57.1442 42.267 57.1978 42.2209 57.2239H43.0832V54.4437H42.5882V55.9729L42.5881 55.9728ZM46.6479 56.3285V56.8458C46.6479 57.1608 46.5743 57.4026 46.427 57.5715C46.2798 57.7401 46.0623 57.8244 45.7749 57.8244C45.4875 57.8244 45.2701 57.7401 45.123 57.5715C44.9757 57.4027 44.902 57.161 44.902 56.8458V54.8218C44.902 54.5067 44.9757 54.2648 45.123 54.0961C45.2701 53.9275 45.4875 53.843 45.7749 53.843C46.0623 53.843 46.2798 53.9275 46.427 54.0961C46.5743 54.2647 46.6479 54.5066 46.6479 54.8218V55.1999H46.0944V54.7829C46.0944 54.642 46.067 54.5429 46.012 54.4853C45.9569 54.4279 45.8833 54.3992 45.791 54.3992C45.6987 54.3992 45.6252 54.4279 45.57 54.4853C45.5151 54.5428 45.4876 54.642 45.4876 54.7829V56.8847C45.4876 57.0255 45.5151 57.1238 45.57 57.1794C45.6251 57.235 45.6987 57.2629 45.791 57.2629C45.8833 57.2629 45.9568 57.235 46.012 57.1794C46.067 57.1238 46.0944 57.0255 46.0944 56.8847V56.3285H46.6479ZM47.6792 53.8877H49.489V54.4437H48.8769V57.78H48.2913V54.4437H47.6792V53.8877ZM51.4303 53.8877C51.7353 53.8877 51.9563 53.9617 52.0929 54.1101C52.2295 54.2585 52.2978 54.4826 52.2978 54.783V54.9219C52.2978 55.1221 52.2677 55.287 52.2073 55.4168C52.147 55.5465 52.0511 55.6431 51.9198 55.7061C52.0795 55.769 52.192 55.8719 52.2579 56.0147C52.3234 56.1574 52.3564 56.3325 52.3564 56.5401V56.8571C52.3564 57.1574 52.2819 57.3862 52.1328 57.5439C51.9837 57.7014 51.7619 57.7802 51.4674 57.7802H50.5467V53.8881H51.4303V53.8877ZM51.1322 56.0284V57.2239H51.4675C51.5669 57.2239 51.6422 57.196 51.6939 57.1405C51.7453 57.0849 51.7709 56.9848 51.7709 56.8401V56.501C51.7709 56.3193 51.7417 56.1951 51.6832 56.1284C51.6247 56.0617 51.528 56.0283 51.393 56.0283H51.1323L51.1322 56.0284ZM51.1322 54.4437V55.4723H51.3611C51.471 55.4723 51.5572 55.4427 51.6193 55.3834C51.6814 55.324 51.7124 55.2165 51.7124 55.0608V54.8439C51.7124 54.7031 51.6885 54.6011 51.6405 54.5381C51.5926 54.4751 51.5171 54.4436 51.4143 54.4436H51.1322V54.4437ZM54.0742 55.528H54.8778V56.084H54.0742V57.2239H55.0856V57.78H53.4887V53.8878H55.0856V54.4438H54.0742V55.5281V55.528ZM56.8034 57.78H56.2178V53.8878H56.8034V55.5559H57.4687V53.8878H58.0649V57.78H57.4687V56.1119H56.8034V57.78ZM59.788 57.78H59.2024V53.8878H59.788V55.5559H60.4533V53.8878H61.0495V57.78H60.4533V56.1119H59.788V57.78ZM62.7726 55.4724H63.1238C63.4184 55.4724 63.6375 55.5541 63.7812 55.7172C63.9249 55.8802 63.9968 56.1193 63.9968 56.4345V56.8182C63.9968 57.1332 63.925 57.3723 63.7812 57.5356C63.6375 57.6987 63.4184 57.7802 63.1238 57.7802H62.187V53.8881H62.7726V55.4727V55.4724ZM64.2096 53.8878H64.7953V57.78H64.2096V53.8878ZM63.1238 57.2241C63.2162 57.2241 63.2871 57.1971 63.3368 57.1434C63.3865 57.0896 63.4113 56.9943 63.4113 56.857V56.3955C63.4113 56.2582 63.3865 56.1628 63.3368 56.109C63.2872 56.0553 63.2162 56.0284 63.1238 56.0284H62.7726V57.2239H63.1238V57.2241ZM66.3373 57.7801H65.9116V53.8879H66.4332V56.2176L67.3435 53.8879H67.7692V57.7801H67.2422V55.5725L66.3373 57.7801ZM66.8483 53.3207C66.9158 53.3207 66.9724 53.3022 67.0187 53.2651C67.0647 53.228 67.0897 53.1613 67.0932 53.0649H67.519C67.5119 53.2874 67.4506 53.4578 67.3353 53.5765C67.2201 53.695 67.0576 53.7544 66.8483 53.7544C66.6354 53.7544 66.4721 53.695 66.3587 53.5765C66.2451 53.4579 66.1813 53.2874 66.167 53.0649H66.5982C66.6052 53.1613 66.631 53.228 66.6753 53.2651C66.7197 53.3022 66.7773 53.3207 66.8483 53.3207ZM72.6471 57.2241V58.2249H72.1575C72.1575 58.1359 72.1566 58.0626 72.1549 58.0052C72.1532 57.9477 72.1495 57.9024 72.1442 57.8689C72.139 57.8355 72.1283 57.8124 72.1122 57.7995C72.0962 57.7866 72.0758 57.78 72.0509 57.78H70.5553V53.8878H71.1408V57.2241H71.8062V53.8878H72.4023V57.2241H72.6471ZM74.3437 55.5281H75.1474V56.0841H74.3437V57.2241H75.355V57.7801H73.7582V53.8879H75.355V54.444H74.3437V55.5282V55.5281ZM77.0728 57.7801H76.4873V53.8879H77.0728V55.556H77.7381V53.8879H78.3343V57.7801H77.7381V56.112H77.0728V57.7801ZM79.3975 53.8879H81.2072V54.444H80.5951V57.7802H80.0095V54.444H79.3975V53.8879ZM83.1271 53.8879C83.4216 53.8879 83.6408 53.9695 83.7845 54.1326C83.9282 54.2956 84.0002 54.5347 84.0002 54.8499V55.3559C84.0002 55.671 83.9283 55.9101 83.7845 56.0732C83.6408 56.2363 83.4216 56.318 83.1271 56.318H82.8503V57.7803H82.2648V53.8882H83.127L83.1271 53.8879ZM82.8503 54.444V55.7617H83.1271C83.2194 55.7617 83.2903 55.7358 83.3402 55.6839C83.3898 55.632 83.4145 55.5355 83.4145 55.3947V54.8109C83.4145 54.6701 83.3898 54.5737 83.3402 54.5217C83.2904 54.4698 83.2194 54.4438 83.1271 54.4438H82.8503V54.444Z" fill="#191919"/>
<path d="M1.66727 63.3398H1.30957V60.9628H2.43769V63.3398H2.07362V61.3023H1.66727V63.3398ZM3.68199 62.7931C3.68199 62.8791 3.69869 62.9396 3.73234 62.9748C3.76598 63.0099 3.81092 63.0275 3.86727 63.0275C3.92362 63.0275 3.96868 63.0099 4.0022 62.9748C4.03584 62.9397 4.05266 62.8791 4.05266 62.7931V61.5095C4.05266 61.4235 4.03584 61.363 4.0022 61.3278C3.96868 61.2927 3.92362 61.2751 3.86727 61.2751C3.81092 61.2751 3.76598 61.2927 3.73234 61.3278C3.69869 61.3629 3.68199 61.4235 3.68199 61.5095V62.7931ZM3.3243 61.5332C3.3243 61.3408 3.37092 61.1932 3.46415 61.0901C3.55739 60.9871 3.6916 60.9356 3.86715 60.9356C4.04269 60.9356 4.17714 60.9871 4.27026 61.0901C4.36338 61.1932 4.41 61.3409 4.41 61.5332V62.7694C4.41 62.9619 4.36338 63.1094 4.27026 63.2125C4.17702 63.3155 4.04269 63.367 3.86715 63.367C3.6916 63.367 3.55727 63.3155 3.46415 63.2125C3.37092 63.1094 3.3243 62.9618 3.3243 62.7694V61.5332ZM7.58769 62.4535V62.7693C7.58769 62.9618 7.54275 63.1093 7.45263 63.2124C7.36276 63.3154 7.22999 63.3669 7.05457 63.3669C6.87902 63.3669 6.74625 63.3154 6.65626 63.2124C6.56626 63.1093 6.52133 62.9616 6.52133 62.7693V61.5331C6.52133 61.3406 6.56626 61.1931 6.65626 61.09C6.74625 60.987 6.87902 60.9355 7.05457 60.9355C7.22999 60.9355 7.36276 60.987 7.45263 61.09C7.54275 61.1931 7.58769 61.3407 7.58769 61.5331V61.7641H7.24957V61.5094C7.24957 61.4234 7.23275 61.3629 7.19911 61.3277C7.16559 61.2926 7.12053 61.275 7.0643 61.275C7.00783 61.275 6.96289 61.2926 6.92925 61.3277C6.8956 61.3628 6.8789 61.4234 6.8789 61.5094V62.793C6.8789 62.879 6.8956 62.939 6.92925 62.9729C6.96289 63.0069 7.00783 63.0239 7.0643 63.0239C7.12053 63.0239 7.16559 63.0069 7.19911 62.9729C7.23275 62.939 7.24957 62.879 7.24957 62.793V62.4534H7.58769V62.4535ZM8.81252 62.7931C8.81252 62.8791 8.82923 62.9396 8.86287 62.9748C8.89651 63.0099 8.94145 63.0275 8.9978 63.0275C9.05415 63.0275 9.09921 63.0099 9.13273 62.9748C9.16638 62.9397 9.1832 62.8791 9.1832 62.7931V61.5095C9.1832 61.4235 9.16638 61.363 9.13273 61.3278C9.09921 61.2927 9.05415 61.2751 8.9978 61.2751C8.94145 61.2751 8.89651 61.2927 8.86287 61.3278C8.82923 61.3629 8.81252 61.4235 8.81252 61.5095V62.7931ZM8.45483 61.5332C8.45483 61.3408 8.50145 61.1932 8.59469 61.0901C8.68793 60.9871 8.82214 60.9356 8.99768 60.9356C9.17322 60.9356 9.30768 60.9871 9.40079 61.0901C9.49391 61.1932 9.54053 61.3409 9.54053 61.5332V62.7694C9.54053 62.9619 9.49391 63.1094 9.40079 63.2125C9.30756 63.3155 9.17322 63.367 8.99768 63.367C8.82214 63.367 8.68781 63.3155 8.59469 63.2125C8.50145 63.1094 8.45483 62.9618 8.45483 62.7694V61.5332ZM11.5553 60.9628L11.1813 62.1174L11.5812 63.3398H11.2039L10.9114 62.3991L10.6155 63.3398H10.2808L10.6805 62.1174L10.3066 60.9628H10.6772L10.9469 61.8389L11.2234 60.9628H11.555H11.5553ZM12.9878 60.9628C13.1677 60.9628 13.3016 61.0126 13.3895 61.1123C13.4772 61.2118 13.5212 61.3579 13.5212 61.5502V61.8593C13.5212 62.0517 13.4772 62.1977 13.3895 62.2974C13.3017 62.397 13.1678 62.4467 12.9878 62.4467H12.8189V63.3398H12.4612V60.9628H12.9878ZM12.8189 61.3024V62.1072H12.9878C13.0443 62.1072 13.0877 62.0914 13.118 62.0596C13.1482 62.0279 13.1635 61.9692 13.1635 61.8831V61.5265C13.1635 61.4405 13.1482 61.3816 13.118 61.35C13.0877 61.3182 13.0442 61.3024 12.9878 61.3024H12.8189ZM15.4122 63.3399H15.0515L14.9897 62.9086H14.5509L14.4892 63.3399H14.1608L14.5248 60.9629H15.0481L15.4122 63.3399ZM14.5963 62.5861H14.9408L14.7686 61.384L14.5963 62.5861ZM16.6273 63.3399H16.2696V60.9629H16.6273V61.9817H17.0336V60.9629H17.3977V63.3399H17.0336V62.3212H16.6273V63.3399ZM18.6517 61.9647H19.1427V62.3043H18.6517V63.0004H19.2693V63.3401H18.294V60.963H19.2693V61.3027H18.6517V61.9648V61.9647ZM20.5201 63.3399H20.1624V60.9629H20.5201V61.9817H20.9265V60.9629H21.2905V63.3399H20.9265V62.3212H20.5201V63.3399ZM22.447 63.3399H22.1869V60.9629H22.5055V62.3857L23.0615 60.9629H23.3215V63.3399H22.9996V61.9919L22.447 63.3399ZM24.5755 63.3399H24.2178V60.9629H24.5755V61.9817H24.7901V61.5334C24.7901 61.341 24.8366 61.1935 24.93 61.0903C25.0231 60.9874 25.1574 60.9359 25.3328 60.9359C25.5085 60.9359 25.6428 60.9874 25.736 61.0903C25.8292 61.1935 25.8758 61.3411 25.8758 61.5334V62.7697C25.8758 62.9621 25.8292 63.1096 25.736 63.2128C25.6427 63.3157 25.5085 63.3672 25.3328 63.3672C25.1574 63.3672 25.023 63.3157 24.93 63.2128C24.8367 63.1096 24.7901 62.962 24.7901 62.7697V62.3214H24.5755V63.3402V63.3399ZM25.1477 62.7933C25.1477 62.8792 25.1645 62.9397 25.1982 62.9749C25.2318 63.01 25.2767 63.0276 25.333 63.0276C25.3894 63.0276 25.4344 63.01 25.468 62.9749C25.5017 62.9398 25.5184 62.8792 25.5184 62.7933V61.5096C25.5184 61.4236 25.5017 61.3631 25.468 61.3279C25.4344 61.2928 25.3894 61.2752 25.333 61.2752C25.2767 61.2752 25.2318 61.2928 25.1982 61.3279C25.1645 61.363 25.1477 61.4236 25.1477 61.5096V62.7933ZM28.257 63.3399H27.9969V60.9629H28.3155V62.3857L28.8715 60.9629H29.1315V63.3399H28.8097V61.9919L28.257 63.3399ZM31.0844 62.4536V62.7694C31.0844 62.9619 31.0395 63.1094 30.9494 63.2125C30.8595 63.3155 30.7268 63.367 30.5513 63.367C30.3758 63.367 30.243 63.3155 30.153 63.2125C30.063 63.1094 30.0181 62.9618 30.0181 62.7694V61.5332C30.0181 61.3408 30.063 61.1932 30.153 61.0901C30.243 60.9871 30.3758 60.9356 30.5513 60.9356C30.7268 60.9356 30.8595 60.9871 30.9494 61.0901C31.0395 61.1932 31.0844 61.3409 31.0844 61.5332V61.7642H30.7463V61.5095C30.7463 61.4235 30.7295 61.363 30.6959 61.3278C30.6623 61.2927 30.6173 61.2751 30.5609 61.2751C30.5046 61.2751 30.4597 61.2927 30.426 61.3278C30.3924 61.3629 30.3757 61.4235 30.3757 61.5095V62.7931C30.3757 62.8791 30.3924 62.9391 30.426 62.973C30.4597 63.007 30.5046 63.024 30.5609 63.024C30.6173 63.024 30.6623 63.007 30.6959 62.973C30.7295 62.9391 30.7463 62.8791 30.7463 62.7931V62.4535H31.0844V62.4536ZM31.9158 60.9628H33.0211V61.3024H32.6472V63.3399H32.2896V61.3024H31.9157V60.9628H31.9158ZM34.184 62.7931C34.184 62.8791 34.2007 62.9396 34.2344 62.9748C34.268 63.0099 34.313 63.0275 34.3693 63.0275C34.4257 63.0275 34.4707 63.0099 34.5042 62.9748C34.5379 62.9397 34.5547 62.8791 34.5547 62.7931V61.5095C34.5547 61.4235 34.5379 61.363 34.5042 61.3278C34.4707 61.2927 34.4257 61.2751 34.3693 61.2751C34.313 61.2751 34.268 61.2927 34.2344 61.3278C34.2007 61.3629 34.184 61.4235 34.184 61.5095V62.7931ZM33.8263 61.5332C33.8263 61.3408 33.873 61.1932 33.9662 61.0901C34.0594 60.9871 34.1936 60.9356 34.3692 60.9356C34.5447 60.9356 34.6792 60.9871 34.7723 61.0901C34.8654 61.1932 34.912 61.3409 34.912 61.5332V62.7694C34.912 62.9619 34.8654 63.1094 34.7723 63.2125C34.6791 63.3155 34.5447 63.367 34.3692 63.367C34.1936 63.367 34.0593 63.3155 33.9662 63.2125C33.873 63.1094 33.8263 62.9618 33.8263 62.7694V61.5332ZM36.3253 60.9628C36.5051 60.9628 36.639 61.0126 36.7268 61.1123C36.8145 61.2118 36.8585 61.3579 36.8585 61.5502V61.8593C36.8585 62.0517 36.8145 62.1977 36.7268 62.2974C36.6391 62.397 36.5053 62.4467 36.3253 62.4467H36.1562V63.3398H35.7986V60.9628H36.3253ZM36.1562 61.3024V62.1072H36.3253C36.3816 62.1072 36.425 62.0914 36.4553 62.0596C36.4857 62.0279 36.5008 61.9692 36.5008 61.8831V61.5265C36.5008 61.4405 36.4857 61.3816 36.4553 61.35C36.425 61.3182 36.3815 61.3024 36.3253 61.3024H36.1562ZM37.9564 63.3399H37.6961V60.9629H38.0148V62.3857L38.5707 60.9629H38.8308V63.3399H38.5089V61.9919L37.9564 63.3399ZM40.8 61.6285C40.8 61.8729 40.7208 62.0338 40.5627 62.1107C40.6537 62.1491 40.716 62.212 40.7496 62.2991C40.7832 62.3863 40.8 62.4921 40.8 62.6166V62.8271C40.8 62.8748 40.8031 62.9104 40.8097 62.9341C40.8164 62.9578 40.8265 62.9748 40.8408 62.9851C40.8548 62.9953 40.8721 63.0003 40.8927 63.0003C40.9132 63.0003 40.9376 63.0003 40.9657 63.0003H40.9853V63.3399H40.8358C40.7254 63.3422 40.6375 63.3111 40.5726 63.2466C40.5076 63.1821 40.475 63.0989 40.475 62.997V62.6066C40.475 62.4955 40.4512 62.4175 40.4035 62.3722C40.3558 62.3268 40.2908 62.3042 40.2085 62.3042H40.0849V63.3399H39.7272V60.9629H40.0849V61.9647H40.2247C40.292 61.9647 40.3504 61.9466 40.4003 61.9104C40.4501 61.8741 40.475 61.8085 40.475 61.7134V61.306C40.475 61.2041 40.5076 61.1209 40.5726 61.0563C40.6376 60.9918 40.7254 60.9607 40.8358 60.963H40.9821V61.3027H40.9657C40.9376 61.3027 40.9132 61.3027 40.8927 61.3027C40.872 61.3027 40.8548 61.3077 40.8408 61.3179C40.8265 61.3281 40.8164 61.3451 40.8097 61.3689C40.8031 61.3926 40.8 61.4283 40.8 61.4758V61.6286V61.6285ZM42.158 62.7933C42.158 62.8792 42.1747 62.9397 42.2083 62.9749C42.2419 63.01 42.2869 63.0276 42.3433 63.0276C42.3996 63.0276 42.4447 63.01 42.4782 62.9749C42.5118 62.9398 42.5287 62.8792 42.5287 62.7933V61.5096C42.5287 61.4236 42.5118 61.3631 42.4782 61.3279C42.4447 61.2928 42.3996 61.2752 42.3433 61.2752C42.2869 61.2752 42.2419 61.2928 42.2083 61.3279C42.1747 61.363 42.158 61.4236 42.158 61.5096V62.7933ZM41.8003 61.5333C41.8003 61.3409 41.8468 61.1933 41.94 61.0902C42.0333 60.9872 42.1676 60.9357 42.3431 60.9357C42.5187 60.9357 42.6531 60.9872 42.7463 61.0902C42.8394 61.1933 42.886 61.341 42.886 61.5333V62.7695C42.886 62.962 42.8394 63.1095 42.7463 63.2126C42.653 63.3156 42.5187 63.3671 42.3431 63.3671C42.1676 63.3671 42.0333 63.3156 41.94 63.2126C41.8468 63.1095 41.8003 62.9619 41.8003 62.7695V61.5333ZM43.7758 61.9816H44.426V62.3212H43.7758V61.9816ZM46.3984 61.6284C46.3984 61.8728 46.3192 62.0337 46.1611 62.1105C46.2521 62.149 46.3144 62.2119 46.348 62.299C46.3816 62.3862 46.3984 62.492 46.3984 62.6165V62.827C46.3984 62.8747 46.4017 62.9103 46.4082 62.934C46.4146 62.9577 46.4249 62.9747 46.439 62.985C46.4531 62.9952 46.4705 63.0002 46.4909 63.0002C46.5116 63.0002 46.536 63.0002 46.5641 63.0002H46.5837V63.3398H46.4341C46.3237 63.3421 46.2359 63.311 46.1709 63.2465C46.1059 63.182 46.0734 63.0988 46.0734 62.9968V62.6064C46.0734 62.4954 46.0496 62.4173 46.0019 62.3721C45.9542 62.3267 45.8892 62.3041 45.8068 62.3041H45.6833V63.3398H45.3256V60.9628H45.6833V61.9646H45.823C45.8903 61.9646 45.9488 61.9465 45.9987 61.9103C46.0484 61.874 46.0734 61.8084 46.0734 61.7133V61.3059C46.0734 61.204 46.1059 61.1208 46.1709 61.0562C46.236 60.9917 46.3237 60.9605 46.4341 60.9629H46.5803V61.3025H46.5641C46.536 61.3025 46.5116 61.3025 46.4909 61.3025C46.4704 61.3025 46.4531 61.3076 46.439 61.3178C46.4249 61.3279 46.4146 61.3449 46.4082 61.3688C46.4016 61.3925 46.3984 61.4282 46.3984 61.4757V61.6285V61.6284ZM47.5776 63.0003C47.5971 63.0026 47.6122 63.0038 47.6231 63.0038C47.6338 63.0038 47.6491 63.0038 47.6687 63.0038C47.6968 63.0038 47.725 63.0003 47.7532 62.9936C47.7814 62.9868 47.8057 62.9743 47.8264 62.9561C47.847 62.938 47.8615 62.9127 47.8703 62.8798C47.879 62.847 47.879 62.8034 47.8703 62.7491L47.3826 60.9629H47.7403L48.101 62.3552L48.3936 60.9629H48.7513L48.3156 62.7152C48.2765 62.8443 48.2392 62.9495 48.2034 63.031C48.1676 63.1125 48.1269 63.1765 48.0815 63.2228C48.0359 63.2693 47.984 63.301 47.9255 63.318C47.8669 63.335 47.7976 63.3445 47.7175 63.3469C47.685 63.3469 47.6611 63.3469 47.646 63.3469C47.6308 63.3469 47.6081 63.3446 47.5777 63.3401V63.0004L47.5776 63.0003ZM49.9465 62.2363C49.9465 62.4263 49.9378 62.5911 49.9205 62.7303C49.9032 62.8695 49.8706 62.9844 49.8229 63.075C49.7752 63.1656 49.7097 63.2323 49.6262 63.2754C49.5428 63.3184 49.4361 63.3399 49.3061 63.3399H49.2671V63.0003H49.3094C49.3745 63.0003 49.427 62.9822 49.467 62.9461C49.5071 62.9098 49.538 62.8584 49.5597 62.7916C49.5813 62.7248 49.5953 62.6438 49.6019 62.5487C49.6086 62.4536 49.6117 62.3473 49.6117 62.2295V60.9628H50.6065V63.3398H50.2488V61.3023H49.9467V62.2362L49.9465 62.2363ZM51.8571 61.9305H52.0717C52.2514 61.9305 52.3853 61.9804 52.4732 62.08C52.561 62.1796 52.6049 62.3256 52.6049 62.5181V62.7524C52.6049 62.9449 52.561 63.0908 52.4732 63.1904C52.3854 63.29 52.2516 63.3398 52.0717 63.3398H51.4995V60.9628H51.8572V61.9305H51.8571ZM52.0717 63.0003C52.128 63.0003 52.1714 62.9839 52.2017 62.9511C52.232 62.9183 52.2472 62.86 52.2472 62.7763V62.4945C52.2472 62.4106 52.232 62.3523 52.2017 62.3195C52.1714 62.2867 52.1279 62.2703 52.0717 62.2703H51.8571V63.0004H52.0717V63.0003ZM53.1988 60.9628H54.3041V61.3024H53.9302V63.3399H53.5726V61.3024H53.1987V60.9628H53.1988ZM55.3209 63.0003C55.3403 63.0026 55.3555 63.0038 55.3664 63.0038C55.3771 63.0038 55.3924 63.0038 55.4119 63.0038C55.4401 63.0038 55.4683 63.0003 55.4965 62.9936C55.5246 62.9868 55.549 62.9743 55.5697 62.9561C55.5903 62.938 55.6048 62.9127 55.6136 62.8798C55.6222 62.847 55.6222 62.8034 55.6136 62.7491L55.1259 60.9629H55.4836L55.8443 62.3552L56.1368 60.9629H56.4945L56.0588 62.7152C56.0198 62.8443 55.9824 62.9495 55.9467 63.031C55.9108 63.1125 55.8702 63.1765 55.8248 63.2228C55.7791 63.2693 55.7272 63.301 55.6688 63.318C55.6102 63.335 55.5409 63.3445 55.4607 63.3469C55.4283 63.3469 55.4044 63.3469 55.3892 63.3469C55.3741 63.3469 55.3514 63.3446 55.321 63.3401V63.0004L55.3209 63.0003ZM57.862 60.9628C58.0419 60.9628 58.1757 61.0126 58.2635 61.1123C58.3512 61.2118 58.3952 61.3579 58.3952 61.5502V61.8593C58.3952 62.0517 58.3514 62.1977 58.2635 62.2974C58.1758 62.397 58.042 62.4467 57.862 62.4467H57.6929V63.3398H57.3354V60.9628H57.862ZM57.6929 61.3024V62.1072H57.862C57.9183 62.1072 57.9617 62.0914 57.992 62.0596C58.0224 62.0279 58.0376 61.9692 58.0376 61.8831V61.5265C58.0376 61.4405 58.0224 61.3816 57.992 61.35C57.9617 61.3182 57.9182 61.3024 57.862 61.3024H57.6929ZM59.5905 63.3399H59.2328V60.9629H59.5905V61.9817H59.9969V60.9629H60.3609V63.3399H59.9969V62.3212H59.5905V63.3399ZM61.6052 62.7933C61.6052 62.8792 61.6219 62.9397 61.6556 62.9749C61.6892 63.01 61.7342 63.0276 61.7906 63.0276C61.8469 63.0276 61.8919 63.01 61.9254 62.9749C61.9591 62.9398 61.9759 62.8792 61.9759 62.7933V61.5096C61.9759 61.4236 61.9591 61.3631 61.9254 61.3279C61.8919 61.2928 61.8469 61.2752 61.7906 61.2752C61.7342 61.2752 61.6892 61.2928 61.6556 61.3279C61.6219 61.363 61.6052 61.4236 61.6052 61.5096V62.7933ZM61.2475 61.5333C61.2475 61.3409 61.2942 61.1933 61.3874 61.0902C61.4806 60.9872 61.6148 60.9357 61.7905 60.9357C61.9659 60.9357 62.1004 60.9872 62.1935 61.0902C62.2866 61.1933 62.3332 61.341 62.3332 61.5333V62.7695C62.3332 62.962 62.2866 63.1095 62.1935 63.2126C62.1003 63.3156 61.9659 63.3671 61.7905 63.3671C61.6148 63.3671 61.4805 63.3156 61.3874 63.2126C61.2942 63.1095 61.2475 62.9619 61.2475 62.7695V61.5333ZM63.5774 63.3399H63.2198V60.9629H64.1658V61.3025H63.5773V63.3401L63.5774 63.3399ZM65.3258 62.7933C65.3258 62.8792 65.3425 62.9397 65.3761 62.9749C65.4096 63.01 65.4547 63.0276 65.511 63.0276C65.5674 63.0276 65.6124 63.01 65.646 62.9749C65.6796 62.9398 65.6964 62.8792 65.6964 62.7933V61.5096C65.6964 61.4236 65.6796 61.3631 65.646 61.3279C65.6124 61.2928 65.5674 61.2752 65.511 61.2752C65.4547 61.2752 65.4096 61.2928 65.3761 61.3279C65.3425 61.363 65.3258 61.4236 65.3258 61.5096V62.7933ZM64.9681 61.5333C64.9681 61.3409 65.0146 61.1933 65.1078 61.0902C65.2011 60.9872 65.3354 60.9357 65.5109 60.9357C65.6865 60.9357 65.8209 60.9872 65.914 61.0902C66.0072 61.1933 66.0538 61.341 66.0538 61.5333V62.7695C66.0538 62.962 66.0072 63.1095 65.914 63.2126C65.8208 63.3156 65.6865 63.3671 65.5109 63.3671C65.3354 63.3671 65.2011 63.3156 65.1078 63.2126C65.0146 63.1095 64.9681 62.9619 64.9681 62.7695V61.5333ZM68.5325 63.3399H68.1748V60.9629H68.5325V61.9817H68.9389V60.9629H69.303V63.3399H68.9389V62.3212H68.5325V63.3399ZM71.4151 63.3399H71.0544L70.9927 62.9086H70.5539L70.4921 63.3399H70.1637L70.5278 60.9629H71.0511L71.4151 63.3399ZM70.5993 62.5861H70.9438L70.7716 61.384L70.5993 62.5861ZM73.264 62.4538V62.7695C73.264 62.962 73.2191 63.1095 73.1291 63.2126C73.0391 63.3156 72.9063 63.3671 72.7309 63.3671C72.5554 63.3671 72.4226 63.3156 72.3326 63.2126C72.2427 63.1095 72.1977 62.9619 72.1977 62.7695V61.5333C72.1977 61.3409 72.2427 61.1933 72.3326 61.0902C72.4226 60.9872 72.5554 60.9357 72.7309 60.9357C72.9063 60.9357 73.0391 60.9872 73.1291 61.0902C73.2191 61.1933 73.264 61.341 73.264 61.5333V61.7643H72.9259V61.5096C72.9259 61.4236 72.9091 61.3631 72.8755 61.3279C72.8419 61.2928 72.7969 61.2752 72.7407 61.2752C72.6842 61.2752 72.6392 61.2928 72.6056 61.3279C72.572 61.363 72.5553 61.4236 72.5553 61.5096V62.7933C72.5553 62.8792 72.572 62.9392 72.6056 62.9731C72.6392 63.0071 72.6842 63.0241 72.7407 63.0241C72.7969 63.0241 72.8419 63.0071 72.8755 62.9731C72.9091 62.9392 72.9259 62.8792 72.9259 62.7933V62.4536H73.264V62.4538ZM74.7879 62.2364C74.7879 62.4265 74.7793 62.5912 74.7619 62.7304C74.7446 62.8697 74.7121 62.9845 74.6644 63.0752C74.6166 63.1657 74.5512 63.2324 74.4677 63.2755C74.3843 63.3185 74.2775 63.3401 74.1475 63.3401H74.1086V63.0004H74.1508C74.2159 63.0004 74.2684 62.9823 74.3084 62.9462C74.3485 62.9099 74.3794 62.8585 74.401 62.7917C74.4227 62.7249 74.4369 62.6439 74.4433 62.5488C74.4499 62.4538 74.4531 62.3474 74.4531 62.2296V60.9629H75.4478V63.3399H75.0902V61.3024H74.7879V62.2363V62.2364ZM76.6985 61.9647H77.1894V62.3043H76.6985V63.0004H77.3161V63.3401H76.3409V60.963H77.3161V61.3027H76.6985V61.9648V61.9647ZM78.5442 63.3399C78.5267 63.3399 78.5138 63.344 78.5051 63.3519C78.4965 63.3598 78.4905 63.374 78.4872 63.3943C78.484 63.4148 78.4818 63.4424 78.4806 63.4775C78.4796 63.5126 78.4792 63.5573 78.4792 63.6117H78.18V63.0004H78.2547C78.3609 62.962 78.4378 62.8804 78.4855 62.7559C78.5332 62.6315 78.557 62.4559 78.557 62.2296V60.9629H79.5518V63.0004H79.7014V63.6117H79.4021C79.4021 63.5574 79.4016 63.5127 79.4006 63.4775C79.3995 63.4424 79.3972 63.4148 79.394 63.3943C79.3908 63.374 79.3843 63.3598 79.3745 63.3519C79.3648 63.344 79.3523 63.3399 79.3372 63.3399H78.5439H78.5442ZM78.8919 62.2364C78.8919 62.3224 78.886 62.4072 78.8741 62.491C78.8621 62.5748 78.8453 62.6517 78.8236 62.7219C78.802 62.7922 78.7776 62.8521 78.7505 62.9019C78.7234 62.9517 78.6958 62.9845 78.6676 63.0004H79.1942V61.3025H78.8919V62.2364ZM80.8416 63.3399H80.5815V60.9629H80.9001V62.3857L81.4561 60.9629H81.7161V63.3399H81.3943V61.9919L80.8416 63.3399ZM82.7362 62.6845C82.7362 62.56 82.7529 62.4542 82.7865 62.3669C82.82 62.2798 82.8824 62.217 82.9734 62.1786C82.8174 62.1016 82.7393 61.9408 82.7393 61.6963V61.5095C82.7393 61.3261 82.7811 61.1891 82.8645 61.0986C82.9479 61.0081 83.0829 60.9628 83.2693 60.9628H83.8089V63.3398H83.4512V62.3721H83.3277C83.2454 62.3721 83.1857 62.3947 83.1488 62.44C83.112 62.4854 83.0935 62.5634 83.0935 62.6743V62.997C83.0935 63.0989 83.0643 63.1815 83.0058 63.245C82.9472 63.3083 82.8464 63.3401 82.7035 63.3401H82.5865V63.0004H82.6059C82.6471 63.0004 82.6791 62.9907 82.7019 62.9716C82.7246 62.9523 82.7362 62.9041 82.7362 62.8271V62.6845ZM83.2789 61.3024C83.2162 61.3024 83.1699 61.3217 83.1409 61.3602C83.1117 61.3986 83.097 61.4609 83.097 61.547V61.7813C83.097 61.8764 83.1159 61.942 83.154 61.9782C83.1918 62.0145 83.2444 62.0326 83.3115 62.0326H83.4513V61.3024H83.279H83.2789Z" fill="#191919"/>
<path d="M24.5627 66.9727H24.2051V64.5957H24.5627V65.6144H24.969V64.5957H25.3331V66.9727H24.969V65.9539H24.5627V66.9727ZM26.5773 66.426C26.5773 66.512 26.594 66.5725 26.6276 66.6077C26.6612 66.6428 26.7063 66.6604 26.7627 66.6604C26.819 66.6604 26.8641 66.6428 26.8976 66.6077C26.9312 66.5726 26.9481 66.512 26.9481 66.426V65.1424C26.9481 65.0564 26.9312 64.9959 26.8976 64.9607C26.8641 64.9256 26.819 64.908 26.7627 64.908C26.7063 64.908 26.6612 64.9256 26.6276 64.9607C26.594 64.9958 26.5773 65.0564 26.5773 65.1424V66.426ZM26.2197 65.1661C26.2197 64.9736 26.2662 64.8261 26.3594 64.723C26.4527 64.62 26.5869 64.5685 26.7625 64.5685C26.9381 64.5685 27.0725 64.62 27.1656 64.723C27.2588 64.8261 27.3053 64.9738 27.3053 65.1661V66.4023C27.3053 66.5948 27.2588 66.7423 27.1656 66.8454C27.0724 66.9484 26.9381 66.9999 26.7625 66.9999C26.5869 66.9999 26.4527 66.9484 26.3594 66.8454C26.2662 66.7423 26.2197 66.5946 26.2197 66.4023V65.1661ZM28.7316 64.5957C28.9181 64.5957 29.0529 64.641 29.1363 64.7315C29.2198 64.822 29.2615 64.959 29.2615 65.1424V65.2273C29.2615 65.3495 29.2432 65.4503 29.2062 65.5295C29.1693 65.6087 29.1109 65.6675 29.0307 65.7061C29.1283 65.7445 29.1971 65.8074 29.2371 65.8944C29.2772 65.9817 29.2973 66.0886 29.2973 66.2154V66.4089C29.2973 66.5922 29.2517 66.7321 29.1607 66.8283C29.0697 66.9244 28.9343 66.9726 28.7544 66.9726H28.192V64.5956H28.7316V64.5957ZM28.5495 65.9031V66.6332H28.7543C28.815 66.6332 28.861 66.6162 28.8924 66.5822C28.9238 66.5483 28.9395 66.4871 28.9395 66.3988V66.1918C28.9395 66.0808 28.9216 66.005 28.8859 65.9642C28.8501 65.9235 28.791 65.9031 28.7088 65.9031H28.5493H28.5495ZM28.5495 64.9353V65.5635H28.6893C28.7566 65.5635 28.8091 65.5455 28.847 65.5093C28.8848 65.4731 28.9039 65.4075 28.9039 65.3123V65.18C28.9039 65.0939 28.8892 65.0316 28.86 64.9932C28.8308 64.9547 28.7847 64.9354 28.7219 64.9354H28.5496L28.5495 64.9353ZM30.5382 66.4261C30.5382 66.5121 30.5549 66.5726 30.5886 66.6078C30.6222 66.6429 30.6671 66.6605 30.7235 66.6605C30.7799 66.6605 30.8249 66.6429 30.8584 66.6078C30.8921 66.5727 30.9089 66.5121 30.9089 66.4261V65.1425C30.9089 65.0565 30.8921 64.996 30.8584 64.9608C30.8249 64.9257 30.7799 64.9081 30.7235 64.9081C30.6671 64.9081 30.6222 64.9257 30.5886 64.9608C30.5549 64.9959 30.5382 65.0565 30.5382 65.1425V66.4261ZM30.1805 65.1662C30.1805 64.9738 30.2271 64.8262 30.3204 64.7231C30.4136 64.6201 30.5478 64.5686 30.7234 64.5686C30.8989 64.5686 31.0334 64.6201 31.1265 64.7231C31.2196 64.8262 31.2661 64.9739 31.2661 65.1662V66.4024C31.2661 66.5949 31.2196 66.7424 31.1265 66.8455C31.0333 66.9485 30.8989 67 30.7234 67C30.5478 67 30.4135 66.9485 30.3204 66.8455C30.2271 66.7424 30.1805 66.5948 30.1805 66.4024V65.1662ZM33.2093 66.0865V66.4023C33.2093 66.5948 33.1643 66.7423 33.0743 66.8454C32.9843 66.9484 32.8517 66.9999 32.6761 66.9999C32.5007 66.9999 32.3679 66.9484 32.2779 66.8454C32.1879 66.7423 32.143 66.5946 32.143 66.4023V65.1661C32.143 64.9736 32.1879 64.8261 32.2779 64.723C32.3679 64.62 32.5007 64.5685 32.6761 64.5685C32.8517 64.5685 32.9843 64.62 33.0743 64.723C33.1643 64.8261 33.2093 64.9738 33.2093 65.1661V65.3971H32.8712V65.1424C32.8712 65.0564 32.8544 64.9959 32.8208 64.9607C32.7872 64.9256 32.7422 64.908 32.6858 64.908C32.6295 64.908 32.5846 64.9256 32.5509 64.9607C32.5173 64.9958 32.5006 65.0564 32.5006 65.1424V66.426C32.5006 66.512 32.5173 66.572 32.5509 66.6059C32.5846 66.6399 32.6295 66.6569 32.6858 66.6569C32.7422 66.6569 32.7872 66.6399 32.8208 66.6059C32.8544 66.572 32.8712 66.512 32.8712 66.426V66.0864H33.2093V66.0865ZM34.3464 66.9728H34.0861V64.5958H34.4047V66.0186L34.9607 64.5958H35.2207V66.9728H34.8989V65.6247L34.3464 66.9728ZM36.4746 65.5635H36.6893C36.8691 65.5635 37.0029 65.6134 37.0908 65.713C37.1785 65.8126 37.2225 65.9586 37.2225 66.1511V66.3854C37.2225 66.5779 37.1785 66.7239 37.0908 66.8234C37.0031 66.923 36.8692 66.9728 36.6893 66.9728H36.1172V64.5958H37.063V64.9354H36.4746V65.5637V65.5635ZM36.6893 66.6333C36.7456 66.6333 36.7889 66.6169 36.8192 66.5841C36.8496 66.5513 36.8648 66.493 36.8648 66.4093V66.1275C36.8648 66.0436 36.8496 65.9853 36.8192 65.9525C36.7889 65.9197 36.7455 65.9033 36.6893 65.9033H36.4746V66.6334H36.6893V66.6333ZM38.3754 66.9729H38.1153V64.5959H38.434V66.0187L38.9898 64.5959H39.2499V66.9729H38.928V65.6249L38.3754 66.9729ZM40.6728 64.5959C40.8526 64.5959 40.9865 64.6457 41.0744 64.7454C41.1622 64.8449 41.2061 64.991 41.2061 65.1833V65.4924C41.2061 65.6849 41.1622 65.8308 41.0744 65.9305C40.9866 66.0301 40.8528 66.0798 40.6728 66.0798H40.5038V66.9729H40.1461V64.5959H40.6728ZM40.5038 64.9356V65.7403H40.6728C40.7292 65.7403 40.7726 65.7245 40.8029 65.6928C40.8332 65.661 40.8484 65.6024 40.8484 65.5162V65.1596C40.8484 65.0736 40.8332 65.0147 40.8029 64.9831C40.7726 64.9514 40.7291 64.9356 40.6728 64.9356H40.5038ZM43.1329 66.0868V66.4025C43.1329 66.595 43.0878 66.7425 42.9979 66.8456C42.9079 66.9486 42.7752 67.0001 42.5997 67.0001C42.4242 67.0001 42.2915 66.9486 42.2015 66.8456C42.1115 66.7425 42.0665 66.5949 42.0665 66.4025V65.1663C42.0665 64.9739 42.1115 64.8263 42.2015 64.7232C42.2915 64.6202 42.4242 64.5687 42.5997 64.5687C42.7752 64.5687 42.9079 64.6202 42.9979 64.7232C43.0878 64.8263 43.1329 64.974 43.1329 65.1663V65.3973H42.7948V65.1426C42.7948 65.0566 42.778 64.9962 42.7443 64.9609C42.7108 64.9259 42.6658 64.9083 42.6094 64.9083C42.553 64.9083 42.508 64.9259 42.4745 64.9609C42.4408 64.996 42.4241 65.0566 42.4241 65.1426V66.4263C42.4241 66.5122 42.4408 66.5722 42.4745 66.6061C42.508 66.6401 42.553 66.6572 42.6094 66.6572C42.6658 66.6572 42.7108 66.6401 42.7443 66.6061C42.778 66.5722 42.7948 66.5122 42.7948 66.4263V66.0866H43.1329V66.0868ZM45.0825 65.2615C45.0825 65.5059 45.0033 65.6668 44.8452 65.7437C44.9362 65.7821 44.9985 65.845 45.032 65.9322C45.0657 66.0193 45.0825 66.1251 45.0825 66.2496V66.4602C45.0825 66.5078 45.0858 66.5434 45.0922 66.5671C45.0987 66.5908 45.1089 66.6078 45.1231 66.6181C45.1372 66.6283 45.1546 66.6333 45.175 66.6333C45.1957 66.6333 45.22 66.6333 45.2482 66.6333H45.2678V66.9729H45.1182C45.0078 66.9752 44.9199 66.9441 44.8549 66.8797C44.7899 66.8151 44.7575 66.7319 44.7575 66.63V66.2396C44.7575 66.1286 44.7337 66.0505 44.686 66.0052C44.6383 65.9598 44.5733 65.9372 44.4909 65.9372H44.3674V66.9729H44.0097V64.5959H44.3674V65.5977H44.5071C44.5744 65.5977 44.6329 65.5796 44.6828 65.5434C44.7325 65.5071 44.7575 65.4415 44.7575 65.3464V64.939C44.7575 64.8371 44.7899 64.7539 44.8549 64.6893C44.9201 64.6248 45.0078 64.5937 45.1182 64.596H45.2644V64.9357H45.2482C45.22 64.9357 45.1957 64.9357 45.175 64.9357C45.1545 64.9357 45.1372 64.9407 45.1231 64.9509C45.1089 64.9611 45.0987 64.9781 45.0922 65.0019C45.0856 65.0256 45.0825 65.0613 45.0825 65.1088V65.2616V65.2615ZM46.4405 66.4263C46.4405 66.5122 46.4572 66.5727 46.4908 66.6079C46.5245 66.643 46.5694 66.6606 46.6258 66.6606C46.6821 66.6606 46.7272 66.643 46.7607 66.6079C46.7943 66.5728 46.8111 66.5122 46.8111 66.4263V65.1426C46.8111 65.0566 46.7943 64.9962 46.7607 64.9609C46.7272 64.9259 46.6821 64.9083 46.6258 64.9083C46.5694 64.9083 46.5245 64.9259 46.4908 64.9609C46.4572 64.996 46.4405 65.0566 46.4405 65.1426V66.4263ZM46.0828 65.1663C46.0828 64.9739 46.1294 64.8263 46.2226 64.7232C46.3159 64.6202 46.4501 64.5687 46.6256 64.5687C46.8012 64.5687 46.9356 64.6202 47.0287 64.7232C47.1219 64.8263 47.1684 64.974 47.1684 65.1663V66.4025C47.1684 66.595 47.1219 66.7425 47.0287 66.8456C46.9355 66.9486 46.8012 67.0001 46.6256 67.0001C46.4501 67.0001 46.3158 66.9486 46.2226 66.8456C46.1294 66.7425 46.0828 66.5949 46.0828 66.4025V65.1663ZM48.3054 66.9729H48.0454V64.5959H48.364V66.0187L48.9198 64.5959H49.1798V66.9729H48.8581V65.6249L48.3054 66.9729ZM48.6175 64.2495C48.6587 64.2495 48.6933 64.2381 48.7216 64.2155C48.7498 64.1928 48.7648 64.1521 48.7671 64.0932H49.0273C49.0229 64.229 48.9854 64.3332 48.915 64.4056C48.8446 64.4781 48.7455 64.5143 48.6177 64.5143C48.4876 64.5143 48.3879 64.4781 48.3185 64.4056C48.2491 64.3331 48.2101 64.229 48.2016 64.0932H48.4648C48.469 64.1521 48.4848 64.1928 48.5118 64.2155C48.539 64.2381 48.5742 64.2495 48.6175 64.2495ZM51.6455 66.4263C51.6455 66.5122 51.6622 66.5727 51.6959 66.6079C51.7295 66.643 51.7744 66.6606 51.8308 66.6606C51.8871 66.6606 51.9322 66.643 51.9657 66.6079C51.9994 66.5728 52.0162 66.5122 52.0162 66.4263V65.1426C52.0162 65.0566 51.9994 64.9962 51.9657 64.9609C51.9322 64.9259 51.8871 64.9083 51.8308 64.9083C51.7744 64.9083 51.7295 64.9259 51.6959 64.9609C51.6622 64.996 51.6455 65.0566 51.6455 65.1426V66.4263ZM51.2878 65.1663C51.2878 64.9739 51.3344 64.8263 51.4277 64.7232C51.5209 64.6202 51.6551 64.5687 51.8307 64.5687C52.0062 64.5687 52.1407 64.6202 52.2338 64.7232C52.3269 64.8263 52.3735 64.974 52.3735 65.1663V66.4025C52.3735 66.595 52.3269 66.7425 52.2338 66.8456C52.1405 66.9486 52.0062 67.0001 51.8307 67.0001C51.6551 67.0001 51.5208 66.9486 51.4277 66.8456C51.3344 66.7425 51.2878 66.5949 51.2878 66.4025V65.1663ZM53.6177 65.5637H53.8323C54.012 65.5637 54.1459 65.6135 54.2337 65.7131C54.3214 65.8128 54.3654 65.9587 54.3654 66.1512V66.3855C54.3654 66.578 54.3216 66.724 54.2337 66.8235C54.146 66.9231 54.0122 66.9729 53.8323 66.9729H53.2601V64.5959H54.2061V64.9356H53.6177V65.5638V65.5637ZM53.8323 66.6334C53.8886 66.6334 53.932 66.617 53.9623 66.5842C53.9926 66.5514 54.0078 66.4931 54.0078 66.4094V66.1276C54.0078 66.0438 53.9926 65.9854 53.9623 65.9526C53.932 65.9198 53.8885 65.9034 53.8323 65.9034H53.6177V66.6336H53.8323V66.6334ZM55.9053 65.8694C55.9053 66.0595 55.8966 66.2242 55.8792 66.3634C55.8619 66.5027 55.8295 66.6175 55.7818 66.7082C55.7341 66.7987 55.6686 66.8654 55.5851 66.9085C55.5017 66.9515 55.3949 66.9731 55.265 66.9731H55.2259V66.6334H55.2681C55.3332 66.6334 55.3858 66.6154 55.4258 66.5792C55.466 66.5429 55.4968 66.4915 55.5185 66.4247C55.5401 66.3579 55.5542 66.2769 55.5607 66.1818C55.5673 66.0868 55.5704 65.9804 55.5704 65.8626V64.5959H56.5652V66.9729H56.2076V64.9354H55.9053V65.8693V65.8694ZM58.674 66.9729H58.3133L58.2515 66.5416H57.8127L57.751 66.9729H57.4226L57.7867 64.5959H58.3099L58.674 66.9729ZM57.8581 66.2191H58.2026L58.0304 65.017L57.8581 66.2191ZM60.5229 66.0868V66.4025C60.5229 66.595 60.478 66.7425 60.3878 66.8456C60.298 66.9486 60.1652 67.0001 59.9898 67.0001C59.8142 67.0001 59.6815 66.9486 59.5915 66.8456C59.5015 66.7425 59.4565 66.5949 59.4565 66.4025V65.1663C59.4565 64.9739 59.5015 64.8263 59.5915 64.7232C59.6815 64.6202 59.8142 64.5687 59.9898 64.5687C60.1652 64.5687 60.298 64.6202 60.3878 64.7232C60.478 64.8263 60.5229 64.974 60.5229 65.1663V65.3973H60.1848V65.1426C60.1848 65.0566 60.168 64.9962 60.1343 64.9609C60.1008 64.9259 60.0557 64.9083 59.9994 64.9083C59.943 64.9083 59.8981 64.9259 59.8645 64.9609C59.8308 64.996 59.8141 65.0566 59.8141 65.1426V66.4263C59.8141 66.5122 59.8308 66.5722 59.8645 66.6061C59.8981 66.6401 59.943 66.6572 59.9994 66.6572C60.0557 66.6572 60.1008 66.6401 60.1343 66.6061C60.168 66.5722 60.1848 66.5122 60.1848 66.4263V66.0866H60.5229V66.0868ZM61.3541 64.5959H62.4595V64.9356H62.0856V66.9731H61.7279V64.9356H61.354V64.5959H61.3541ZM63.5671 66.9729H63.307V64.5959H63.6255V66.0187L64.1814 64.5959H64.4416V66.9729H64.1197V65.6249L63.5671 66.9729Z" fill="#191919"/>
</svg>
