<svg width="1680" height="506" viewBox="0 0 1680 506" fill="none" xmlns="http://www.w3.org/2000/svg">
<path d="M-58.1067 35.1055C-41.3206 27.1212 23.8998 6.39116 71.6729 0.222614C86.1245 -1.6434 124.328 8.65177 153.848 15.0367C191.978 23.2841 228.796 36.6927 272.168 39.0976C307.559 41.0599 370.299 39.9152 403.787 41.1057C439.811 42.3862 446.077 47.9235 472.723 49.1259C536.606 52.0086 583.949 51.122 592.354 55.1141C596.298 56.987 598.379 60.6934 601.192 62.7256C632.642 85.4389 705.781 71.1306 725.008 85.5479C743.274 99.2447 766.624 114.37 798.297 125.265C835.251 137.976 850.074 112.879 874.495 96.899C888.793 87.5431 902.981 85.608 914.224 79.6199C926.974 72.8289 944.634 89.5521 969.873 102.803C996.544 116.806 1017.6 92.8708 1043.23 88.8306C1062.41 85.8081 1080.12 77.6238 1107.76 71.9964C1125.63 68.3556 1183.15 66.3689 1220.8 60.3808C1256.08 54.7689 1270.93 68.7257 1298.52 77.1669C1326.65 85.7712 1345.43 64.0122 1361.12 53.1782C1373.71 44.4907 1387.18 44.7731 1444.3 43.1137C1501.75 41.4447 1564.23 43.9554 1591.15 40.3241C1611.56 37.571 1646.67 47.1299 1671.75 42.741C1692.58 35.1536 1713.43 20.7242 1760.61 15.4936C1768.22 13.1431 1769.39 8.8036 1769.57 4.0562L1769.61 1.43705C1769.61 2.31724 1769.61 3.19346 1769.57 4.0562L1760.61 721.614H-58.1067V35.1055Z" fill="#034E96"/>
</svg>
