<svg width="414" height="542" viewBox="0 0 414 542" fill="none" xmlns="http://www.w3.org/2000/svg">
<path d="M-140 1.33507C-133.231 -5.33675 -106.932 -22.6594 -87.6682 -27.814C-81.8408 -29.3733 -66.4358 -20.7703 -54.5322 -15.4349C-39.1566 -8.5432 -24.3104 2.66141 -6.8212 4.671C7.44975 6.3108 32.7489 5.35426 46.2525 6.34901C60.7785 7.41906 63.3053 12.0462 74.05 13.0509C99.8096 15.4598 118.9 14.7189 122.29 18.0548C123.88 19.6199 124.719 22.7171 125.853 24.4152C138.535 43.3951 168.027 31.4387 175.78 43.4861C183.146 54.9316 192.562 67.5711 205.333 76.6745C220.234 87.2961 226.211 66.3251 236.059 52.9714C241.824 45.1534 247.546 43.5364 252.079 38.5325C257.22 32.8578 264.341 46.8321 274.519 57.905C285.273 69.6059 293.763 49.6053 304.101 46.2292C311.834 43.7035 318.976 36.8646 330.119 32.1621C337.327 29.1198 360.52 27.4597 375.701 22.4558C389.929 17.7664 395.915 29.4291 407.043 36.4827C418.386 43.6727 425.958 25.4903 432.285 16.4371C437.359 9.1776 442.792 9.41359 465.824 8.02699C488.989 6.6323 514.185 8.73034 525.041 5.69589C533.271 3.39531 547.427 11.383 557.541 7.7155C565.939 1.37527 574.347 -10.6823 593.373 -15.0531C596.442 -17.0173 596.914 -20.6435 596.987 -24.6105L597 -26.7992C597 -26.0637 597 -25.3315 596.987 -24.6105L593.373 575H-140V1.33507Z" fill="#034E96"/>
</svg>
