<svg width="354" height="157" viewBox="0 0 354 157" fill="none" xmlns="http://www.w3.org/2000/svg">
<path d="M189.967 35.4207V58.7506H185.177C185.297 58.1106 185.367 57.1907 185.387 55.9807C185.407 54.7707 185.417 53.3807 185.417 51.8007V42.3707C185.417 40.7907 185.417 39.4006 185.387 38.1906C185.357 36.9806 185.297 36.0607 185.177 35.4207H189.967ZM189.727 48.5207V44.9307H192.287C192.797 44.9307 193.267 44.7907 193.687 44.5107C194.107 44.2307 194.517 43.7307 194.927 43.0107C195.297 42.3407 195.677 41.5907 196.047 40.7707C196.417 39.9507 196.797 39.1607 197.187 38.3907C197.577 37.6207 197.967 36.9807 198.357 36.4607C198.727 35.9607 199.227 35.5907 199.847 35.3707C200.467 35.1407 201.087 35.0306 201.717 35.0306C202.147 35.0306 202.607 35.0707 203.127 35.1507C203.647 35.2307 204.097 35.3507 204.517 35.5107L203.557 39.1006C203.427 39.0206 203.257 38.9306 203.027 38.8406C202.807 38.7506 202.607 38.7007 202.437 38.7007C202.107 38.7007 201.817 38.8307 201.557 39.0807C201.297 39.3307 201.087 39.6606 200.917 40.0606C200.697 40.5806 200.417 41.2007 200.097 41.9207C199.767 42.6407 199.407 43.4306 199.007 44.2906C198.837 44.6406 198.617 45.0307 198.347 45.4607C198.077 45.8907 197.797 46.1606 197.487 46.2906C197.817 46.3906 198.247 46.6506 198.777 47.0906C199.307 47.5306 199.787 48.0606 200.197 48.6906C200.617 49.3206 201.037 50.1706 201.457 51.2506C201.887 52.3306 202.297 53.5206 202.697 54.8206C203.097 56.1206 203.457 57.4407 203.787 58.7607H199.077C198.457 56.3407 197.877 54.4606 197.347 53.1006C196.807 51.7506 196.227 50.6707 195.597 49.8607C194.917 48.9807 193.997 48.5306 192.847 48.5306H189.727V48.5207Z" fill="black"/>
<path d="M213.847 66.5806H208.977V51.0006C208.977 49.0106 208.937 47.3106 208.847 45.9106C208.767 44.5106 208.537 43.3606 208.177 42.4506H212.567C212.687 42.6806 212.797 43.0306 212.917 43.4906C213.037 43.9506 213.127 44.5106 213.207 45.1706C213.937 44.2806 214.797 43.5506 215.787 42.9806C216.777 42.4106 217.847 42.1306 219.007 42.1306C220.167 42.1306 221.237 42.4806 222.127 43.1706C223.017 43.8606 223.707 44.8206 224.207 46.0306C224.707 47.2406 224.947 48.6306 224.947 50.2006C224.947 52.0206 224.627 53.6006 223.987 54.9406C223.347 56.2806 222.487 57.3106 221.407 58.0506C220.327 58.7806 219.127 59.1506 217.817 59.1506C216.977 59.1506 216.227 59.0206 215.557 58.7606C214.887 58.5006 214.187 58.1506 213.437 57.7106V61.1506C213.437 62.4306 213.467 63.4806 213.537 64.3106C213.597 65.1406 213.707 65.9006 213.837 66.5806H213.847ZM213.457 49.4006V53.9506C214.277 54.5506 214.897 54.9506 215.317 55.1506C215.737 55.3506 216.227 55.4506 216.777 55.4506C217.757 55.4506 218.617 55.0206 219.367 54.1706C220.117 53.3206 220.487 52.1506 220.487 50.6706C220.487 49.1906 220.217 48.0706 219.677 47.2106C219.137 46.3506 218.377 45.9206 217.407 45.9206C216.697 45.9206 215.967 46.2106 215.237 46.8106C214.507 47.4006 213.917 48.2606 213.457 49.3906V49.4006Z" fill="black"/>
<path d="M245.107 58.7506H240.857C240.707 58.4906 240.567 58.0706 240.427 57.4806C240.287 56.8906 240.177 56.2706 240.097 55.6306C240.017 54.9906 239.977 54.4706 239.977 54.0706V53.1606C239.527 54.0806 238.957 54.9906 238.257 55.9206C237.557 56.8406 236.757 57.6106 235.837 58.2306C234.917 58.8506 233.907 59.1606 232.787 59.1606C231.447 59.1606 230.307 58.5706 229.387 57.3806C228.457 56.1906 227.997 54.4706 227.997 52.2106C227.997 50.9406 228.187 49.7106 228.557 48.5106C228.927 47.3106 229.507 46.2306 230.287 45.2706C231.067 44.3106 232.057 43.5506 233.257 42.9906C234.457 42.4306 235.887 42.1406 237.537 42.1406C238.697 42.1406 239.847 42.2106 240.997 42.3406C242.147 42.4706 243.167 42.6506 244.077 42.8606V50.2906C244.077 52.3006 244.177 53.9906 244.367 55.3606C244.557 56.7306 244.807 57.8606 245.117 58.7606L245.107 58.7506ZM239.497 47.0906V46.0406C239.277 45.9906 238.947 45.9206 238.527 45.8406C238.097 45.7606 237.547 45.7206 236.867 45.7206C235.747 45.7206 234.867 46.0306 234.227 46.6506C233.587 47.2706 233.137 48.0706 232.867 49.0606C232.597 50.0506 232.467 51.1006 232.467 52.2106C232.467 53.1506 232.637 53.9106 232.987 54.4906C233.337 55.0706 233.747 55.3606 234.227 55.3606C234.707 55.3606 235.197 55.1406 235.687 54.6906C236.187 54.2406 236.657 53.6706 237.107 52.9806C237.557 52.2906 237.967 51.5606 238.327 50.7906C238.687 50.0206 238.977 49.3106 239.187 48.6406C239.397 47.9706 239.497 47.4606 239.497 47.1006V47.0906Z" fill="black"/>
<path d="M261.186 43.2707L260.486 47.3007C259.776 46.8007 259.106 46.4307 258.476 46.1807C257.846 45.9307 257.136 45.8106 256.306 45.8106C255.196 45.8106 254.267 46.2507 253.507 47.1207C252.747 47.9907 252.366 49.2107 252.366 50.7607C252.366 52.1707 252.726 53.3007 253.446 54.1707C254.166 55.0407 255.116 55.4706 256.316 55.4706C257.276 55.4706 258.096 55.3207 258.796 55.0107C259.486 54.7107 260.176 54.2806 260.876 53.7206L261.356 57.6207C260.546 58.1107 259.696 58.4906 258.816 58.7506C257.936 59.0106 256.896 59.1407 255.696 59.1407C254.266 59.1407 252.966 58.8207 251.786 58.1807C250.606 57.5407 249.666 56.6106 248.956 55.3806C248.246 54.1506 247.906 52.6606 247.906 50.9106C247.906 49.1606 248.246 47.7507 248.936 46.4307C249.626 45.1007 250.596 44.0506 251.846 43.2806C253.096 42.5106 254.566 42.1207 256.246 42.1207C257.296 42.1207 258.246 42.2307 259.076 42.4507C259.906 42.6707 260.616 42.9406 261.196 43.2506L261.186 43.2707Z" fill="black"/>
<path d="M269.577 42.4506V58.7506H264.947C265.027 58.3006 265.077 57.6506 265.087 56.8006C265.097 55.9506 265.107 54.9706 265.107 53.8806V47.3306C265.107 46.2206 265.107 45.2506 265.087 44.4006C265.067 43.5506 265.027 42.9106 264.947 42.4606H269.577V42.4506ZM269.097 52.0406V48.6906H271.257C272.217 48.6906 272.937 48.2406 273.417 47.3306C273.607 46.9606 273.817 46.5306 274.037 46.0406C274.257 45.5506 274.487 45.0706 274.727 44.6106C274.957 44.1506 275.187 43.7806 275.417 43.5006C275.727 43.1106 276.147 42.7806 276.687 42.5306C277.227 42.2806 277.787 42.1506 278.377 42.1506C278.757 42.1506 279.227 42.1906 279.787 42.2606C280.337 42.3406 280.777 42.4306 281.097 42.5506L280.137 46.0606C279.837 45.7906 279.467 45.6606 279.037 45.6606C278.847 45.6606 278.687 45.7106 278.567 45.8106C278.447 45.9106 278.337 46.0406 278.257 46.1906C278.117 46.4406 277.987 46.7206 277.857 47.0406C277.727 47.3706 277.527 47.8106 277.267 48.3706C276.917 49.1406 276.487 49.6406 275.987 49.8906C276.237 49.9306 276.547 50.1106 276.927 50.4206C277.307 50.7306 277.637 51.0906 277.897 51.4906C278.477 52.3606 278.977 53.4606 279.417 54.7806C279.857 56.1006 280.257 57.4306 280.617 58.7606H276.147C275.767 57.0806 275.387 55.8006 275.017 54.9306C274.647 54.0606 274.317 53.4406 274.017 53.0706C273.847 52.8606 273.577 52.6306 273.207 52.4006C272.837 52.1706 272.347 52.0506 271.757 52.0506H269.117L269.097 52.0406Z" fill="black"/>
<path d="M284.597 42.4507H288.747V58.7507H284.757V47.3307C284.757 46.2207 284.757 45.2507 284.737 44.4007C284.717 43.5507 284.677 42.9107 284.597 42.4607V42.4507ZM297.057 43.2207L299.617 45.2207L288.757 57.9907L286.237 56.0407L297.067 43.2307L297.057 43.2207ZM301.217 58.7507H297.067V42.4507H301.057V53.8707C301.057 54.9707 301.057 55.9407 301.077 56.7907C301.097 57.6407 301.137 58.2907 301.217 58.7407V58.7507Z" fill="black"/>
<path d="M197.507 74.7407L196.807 78.7707C196.097 78.2707 195.427 77.9007 194.797 77.6507C194.177 77.4107 193.457 77.2806 192.627 77.2806C191.517 77.2806 190.587 77.7206 189.827 78.5906C189.067 79.4606 188.687 80.6807 188.687 82.2307C188.687 83.6407 189.047 84.7707 189.767 85.6407C190.487 86.5107 191.437 86.9406 192.637 86.9406C193.597 86.9406 194.417 86.7907 195.117 86.4807C195.817 86.1707 196.497 85.7506 197.197 85.1906L197.677 89.0906C196.867 89.5806 196.017 89.9606 195.137 90.2206C194.257 90.4806 193.217 90.6107 192.017 90.6107C190.587 90.6107 189.287 90.2907 188.107 89.6507C186.927 89.0107 185.987 88.0806 185.277 86.8506C184.577 85.6206 184.227 84.1307 184.227 82.3907C184.227 80.6507 184.567 79.2306 185.257 77.9106C185.947 76.5806 186.917 75.5307 188.167 74.7607C189.417 73.9907 190.887 73.6006 192.567 73.6006C193.617 73.6006 194.567 73.7106 195.397 73.9406C196.227 74.1606 196.937 74.4307 197.517 74.7407H197.507Z" fill="black"/>
<path d="M201.497 73.9307H205.647V90.2307H201.657V78.8106C201.657 77.7006 201.657 76.7306 201.637 75.8806C201.617 75.0306 201.577 74.3906 201.497 73.9406V73.9307ZM213.967 74.7007L216.527 76.7007L205.667 89.4706L203.147 87.5207L213.977 74.7107L213.967 74.7007ZM218.117 90.2307H213.967V73.9307H217.957V85.3506C217.957 86.4506 217.957 87.4207 217.977 88.2707C217.997 89.1207 218.037 89.7706 218.117 90.2206V90.2307Z" fill="black"/>
<path d="M237.287 65.6207L236.567 69.6107C235.627 69.9407 234.746 70.1507 233.926 70.2307C233.106 70.3107 232.327 70.4106 231.577 70.5306C230.827 70.6506 230.097 70.9306 229.387 71.3806C228.547 71.9006 227.917 72.6707 227.507 73.6807C227.097 74.6907 226.827 75.8307 226.697 77.0807C226.567 78.3407 226.497 79.6006 226.497 80.8806C226.497 82.8106 226.796 84.3207 227.396 85.4007C227.996 86.4907 228.816 87.0306 229.846 87.0306C230.876 87.0306 231.706 86.6007 232.296 85.7407C232.886 84.8807 233.187 83.8206 233.187 82.5606C233.187 81.2006 232.926 80.0806 232.406 79.2206C231.886 78.3606 231.087 77.9307 230.007 77.9307C228.927 77.9307 227.937 78.3907 227.027 79.3007C226.117 80.2107 225.326 81.3507 224.656 82.7307L223.697 79.3707C224.187 78.5507 224.787 77.7507 225.507 76.9807C226.217 76.2107 227.036 75.5707 227.956 75.0807C228.876 74.5907 229.887 74.3406 230.967 74.3406C232.387 74.3406 233.596 74.7107 234.606 75.4607C235.616 76.2107 236.397 77.1706 236.937 78.3406C237.477 79.5106 237.747 80.7706 237.747 82.0906C237.747 83.6006 237.427 85.0106 236.787 86.3106C236.147 87.6106 235.227 88.6607 234.027 89.4507C232.827 90.2407 231.376 90.6407 229.676 90.6407C227.976 90.6407 226.607 90.2107 225.447 89.3607C224.287 88.5107 223.416 87.3207 222.816 85.8007C222.216 84.2807 221.917 82.5106 221.917 80.5006C221.917 78.7906 222.087 77.1507 222.417 75.5807C222.747 74.0107 223.326 72.5707 224.146 71.2607C224.976 69.9407 226.117 68.8206 227.587 67.8806C228.327 67.4106 229.086 67.0707 229.876 66.8707C230.666 66.6607 231.476 66.5207 232.296 66.4307C233.116 66.3407 233.947 66.2607 234.777 66.1707C235.607 66.0807 236.437 65.9107 237.257 65.6507L237.287 65.6207Z" fill="black"/>
<path d="M241.606 73.9307H245.756V90.2307H241.766V78.8106C241.766 77.7006 241.766 76.7306 241.746 75.8806C241.726 75.0306 241.686 74.3906 241.606 73.9406V73.9307ZM254.066 74.7007L256.626 76.7007L245.766 89.4706L243.246 87.5207L254.076 74.7107L254.066 74.7007ZM258.216 90.2307H254.066V73.9307H258.056V85.3506C258.056 86.4506 258.056 87.4207 258.076 88.2707C258.096 89.1207 258.136 89.7706 258.216 90.2206V90.2307Z" fill="black"/>
<path d="M267.806 98.0606H262.936V82.4807C262.936 80.4907 262.896 78.7907 262.806 77.3907C262.726 75.9907 262.496 74.8407 262.136 73.9307H266.526C266.646 74.1707 266.756 74.5106 266.876 74.9706C266.996 75.4306 267.086 75.9907 267.166 76.6507C267.896 75.7607 268.756 75.0307 269.746 74.4607C270.736 73.9007 271.806 73.6107 272.966 73.6107C274.126 73.6107 275.196 73.9607 276.086 74.6507C276.976 75.3407 277.666 76.3007 278.166 77.5107C278.666 78.7207 278.906 80.1107 278.906 81.6807C278.906 83.5007 278.586 85.0807 277.946 86.4207C277.306 87.7607 276.446 88.7906 275.366 89.5306C274.286 90.2706 273.086 90.6306 271.776 90.6306C270.936 90.6306 270.186 90.5007 269.516 90.2407C268.846 89.9807 268.146 89.6306 267.396 89.1906V92.6207C267.396 93.9007 267.426 94.9506 267.496 95.7806C267.556 96.6106 267.666 97.3707 267.796 98.0507L267.806 98.0606ZM267.406 80.8806V85.4307C268.226 86.0307 268.846 86.4306 269.266 86.6306C269.686 86.8306 270.176 86.9307 270.726 86.9307C271.706 86.9307 272.566 86.5007 273.316 85.6507C274.066 84.8007 274.436 83.6307 274.436 82.1507C274.436 80.6707 274.166 79.5506 273.626 78.6906C273.086 77.8306 272.326 77.4007 271.356 77.4007C270.646 77.4007 269.916 77.7006 269.186 78.2906C268.456 78.8806 267.866 79.7407 267.406 80.8707V80.8806Z" fill="black"/>
<path d="M295.077 74.7407L294.377 78.7707C293.667 78.2707 292.997 77.9007 292.367 77.6507C291.747 77.4107 291.027 77.2806 290.197 77.2806C289.087 77.2806 288.157 77.7206 287.397 78.5906C286.637 79.4606 286.257 80.6807 286.257 82.2307C286.257 83.6407 286.617 84.7707 287.337 85.6407C288.057 86.5107 289.007 86.9406 290.207 86.9406C291.167 86.9406 291.987 86.7907 292.687 86.4807C293.387 86.1707 294.067 85.7506 294.767 85.1906L295.247 89.0906C294.437 89.5806 293.587 89.9606 292.707 90.2206C291.827 90.4806 290.787 90.6107 289.587 90.6107C288.157 90.6107 286.857 90.2907 285.677 89.6507C284.497 89.0107 283.557 88.0806 282.847 86.8506C282.147 85.6206 281.797 84.1307 281.797 82.3907C281.797 80.6507 282.137 79.2306 282.827 77.9106C283.517 76.5806 284.487 75.5307 285.737 74.7607C286.987 73.9907 288.457 73.6006 290.137 73.6006C291.187 73.6006 292.137 73.7106 292.967 73.9406C293.797 74.1606 294.507 74.4307 295.087 74.7407H295.077Z" fill="black"/>
<path d="M303.467 73.9307V90.2307H298.837C298.917 89.7807 298.967 89.1306 298.977 88.2806C298.987 87.4306 298.997 86.4507 298.997 85.3607V78.8106C298.997 77.7006 298.997 76.7306 298.977 75.8806C298.957 75.0306 298.917 74.3906 298.837 73.9406H303.467V73.9307ZM302.987 83.5207V80.1606H305.147C306.107 80.1606 306.827 79.7107 307.307 78.8007C307.497 78.4307 307.707 78.0007 307.927 77.5107C308.147 77.0207 308.377 76.5407 308.617 76.0807C308.857 75.6207 309.077 75.2506 309.307 74.9706C309.617 74.5806 310.037 74.2506 310.577 74.0006C311.117 73.7406 311.677 73.6207 312.267 73.6207C312.647 73.6207 313.117 73.6607 313.677 73.7307C314.237 73.8007 314.667 73.9007 314.987 74.0207L314.027 77.5406C313.727 77.2706 313.357 77.1407 312.927 77.1407C312.737 77.1407 312.577 77.1906 312.457 77.2906C312.337 77.3906 312.227 77.5207 312.147 77.6707C312.007 77.9207 311.877 78.2006 311.747 78.5306C311.617 78.8606 311.417 79.3007 311.157 79.8607C310.807 80.6307 310.377 81.1306 309.877 81.3806C310.127 81.4206 310.437 81.6006 310.817 81.9106C311.197 82.2206 311.527 82.5807 311.787 82.9807C312.367 83.8507 312.867 84.9507 313.307 86.2707C313.747 87.5907 314.147 88.9206 314.507 90.2506H310.037C309.657 88.5706 309.277 87.2907 308.907 86.4207C308.537 85.5507 308.207 84.9306 307.907 84.5606C307.737 84.3506 307.467 84.1207 307.097 83.8907C306.727 83.6607 306.237 83.5406 305.647 83.5406H303.007L302.987 83.5207Z" fill="black"/>
<path d="M317.527 82.1306C317.527 80.3006 317.897 78.7507 318.617 77.4807C319.337 76.2107 320.317 75.2506 321.537 74.6006C322.747 73.9506 324.077 73.6207 325.517 73.6207C327.027 73.6207 328.357 73.9506 329.507 74.6006C330.657 75.2606 331.557 76.2207 332.207 77.4807C332.857 78.7507 333.177 80.3006 333.177 82.1306C333.177 83.9606 332.807 85.5107 332.087 86.7707C331.357 88.0307 330.387 88.9907 329.167 89.6507C327.957 90.3107 326.627 90.6306 325.187 90.6306C323.747 90.6306 322.357 90.3007 321.207 89.6507C320.057 89.0007 319.157 88.0407 318.497 86.7707C317.837 85.5107 317.517 83.9606 317.517 82.1306H317.527ZM321.997 82.1306C321.997 83.6506 322.287 84.8507 322.857 85.7307C323.427 86.6007 324.257 87.0406 325.357 87.0406C326.387 87.0406 327.207 86.6007 327.807 85.7307C328.407 84.8607 328.707 83.6606 328.707 82.1306C328.707 80.6006 328.417 79.3907 327.857 78.5207C327.287 77.6507 326.457 77.2107 325.357 77.2107C324.327 77.2107 323.507 77.6507 322.907 78.5207C322.307 79.3907 322.007 80.6006 322.007 82.1306H321.997Z" fill="black"/>
<path d="M337.017 73.9307H341.167V90.2307H337.177V78.8106C337.177 77.7006 337.177 76.7306 337.157 75.8806C337.137 75.0306 337.097 74.3906 337.017 73.9406V73.9307ZM349.477 74.7007L352.037 76.7007L341.177 89.4706L338.657 87.5207L349.487 74.7107L349.477 74.7007ZM351.157 66.7407C351.157 68.3707 350.627 69.6807 349.577 70.6807C348.527 71.6807 347.107 72.1707 345.327 72.1707C343.547 72.1707 342.107 71.6707 341.057 70.6807C340.007 69.6907 339.487 68.3707 339.487 66.7407H343.077C343.077 67.6007 343.287 68.2407 343.717 68.6707C344.147 69.0907 344.677 69.3007 345.317 69.3007C345.957 69.3007 346.497 69.0706 346.927 68.6006C347.347 68.1406 347.557 67.5207 347.557 66.7407H351.147H351.157ZM353.637 90.2307H349.487V73.9307H353.477V85.3506C353.477 86.4506 353.477 87.4207 353.497 88.2707C353.517 89.1207 353.557 89.7706 353.637 90.2206V90.2307Z" fill="black"/>
<path d="M185.177 105.411H189.327V121.711H185.337V110.291C185.337 109.181 185.337 108.211 185.317 107.361C185.297 106.511 185.257 105.871 185.177 105.421V105.411ZM197.637 106.171L200.197 108.171L189.337 120.941L186.817 118.991L197.647 106.181L197.637 106.171ZM201.787 121.701H197.637V105.401H201.627V116.821C201.627 117.921 201.627 118.891 201.647 119.741C201.667 120.591 201.707 121.241 201.787 121.691V121.701Z" fill="black"/>
<path d="M218.916 106.221L218.216 110.251C217.506 109.751 216.836 109.381 216.206 109.131C215.576 108.881 214.866 108.761 214.036 108.761C212.926 108.761 211.996 109.201 211.236 110.071C210.476 110.941 210.096 112.161 210.096 113.711C210.096 115.121 210.456 116.251 211.176 117.121C211.896 117.991 212.846 118.421 214.046 118.421C215.006 118.421 215.826 118.271 216.526 117.961C217.216 117.661 217.906 117.231 218.606 116.671L219.086 120.571C218.276 121.061 217.426 121.441 216.546 121.701C215.666 121.961 214.626 122.091 213.426 122.091C211.996 122.091 210.696 121.771 209.516 121.131C208.336 120.491 207.396 119.561 206.686 118.331C205.976 117.101 205.636 115.611 205.636 113.861C205.636 112.111 205.976 110.701 206.666 109.381C207.356 108.051 208.326 107.001 209.576 106.231C210.826 105.461 212.296 105.071 213.976 105.071C215.026 105.071 215.976 105.181 216.806 105.401C217.636 105.621 218.346 105.891 218.926 106.201L218.916 106.221Z" fill="black"/>
<path d="M238.246 105.411V108.841H232.066V121.701H227.596V108.841H221.396V105.411H238.257H238.246Z" fill="black"/>
<path d="M240.567 113.601C240.567 111.771 240.937 110.221 241.657 108.951C242.377 107.681 243.357 106.721 244.577 106.071C245.797 105.421 247.117 105.091 248.557 105.091C250.067 105.091 251.397 105.421 252.547 106.071C253.697 106.721 254.597 107.691 255.247 108.951C255.897 110.221 256.217 111.771 256.217 113.601C256.217 115.431 255.847 116.981 255.127 118.241C254.397 119.501 253.427 120.461 252.207 121.121C250.997 121.771 249.667 122.101 248.227 122.101C246.787 122.101 245.397 121.771 244.247 121.121C243.097 120.461 242.197 119.511 241.537 118.241C240.877 116.981 240.557 115.431 240.557 113.601H240.567ZM245.037 113.601C245.037 115.121 245.327 116.321 245.897 117.191C246.467 118.061 247.297 118.501 248.397 118.501C249.427 118.501 250.247 118.061 250.847 117.191C251.447 116.321 251.747 115.121 251.747 113.601C251.747 112.081 251.457 110.861 250.897 109.991C250.327 109.121 249.497 108.681 248.397 108.681C247.367 108.681 246.547 109.121 245.947 109.991C245.347 110.861 245.047 112.071 245.047 113.601H245.037Z" fill="black"/>
<path d="M264.847 129.531H259.977V113.951C259.977 111.961 259.937 110.261 259.847 108.861C259.767 107.461 259.537 106.311 259.177 105.401H263.567C263.687 105.631 263.797 105.981 263.917 106.441C264.037 106.901 264.127 107.461 264.207 108.121C264.937 107.231 265.797 106.501 266.787 105.931C267.777 105.361 268.847 105.081 270.007 105.081C271.167 105.081 272.237 105.431 273.127 106.121C274.017 106.811 274.707 107.771 275.207 108.981C275.707 110.191 275.947 111.581 275.947 113.151C275.947 114.971 275.627 116.551 274.987 117.891C274.347 119.231 273.487 120.261 272.407 121.001C271.327 121.731 270.127 122.101 268.817 122.101C267.977 122.101 267.227 121.971 266.557 121.711C265.887 121.451 265.187 121.101 264.437 120.661V124.101C264.437 125.381 264.467 126.431 264.537 127.261C264.597 128.091 264.707 128.851 264.837 129.531H264.847ZM264.447 112.361V116.911C265.267 117.511 265.887 117.911 266.307 118.111C266.727 118.311 267.217 118.411 267.767 118.411C268.747 118.411 269.607 117.981 270.357 117.131C271.107 116.281 271.477 115.111 271.477 113.631C271.477 112.151 271.207 111.031 270.667 110.171C270.127 109.311 269.367 108.881 268.397 108.881C267.687 108.881 266.957 109.171 266.227 109.771C265.497 110.361 264.907 111.221 264.447 112.351V112.361Z" fill="black"/>
<path d="M279.787 105.411H283.937V121.711H279.947V110.291C279.947 109.181 279.947 108.211 279.927 107.361C279.907 106.511 279.867 105.871 279.787 105.421V105.411ZM292.247 106.171L294.807 108.171L283.947 120.941L281.427 118.991L292.257 106.181L292.247 106.171ZM296.407 121.701H292.257V105.401H296.247V116.821C296.247 117.921 296.247 118.891 296.267 119.741C296.287 120.591 296.327 121.241 296.407 121.691V121.701Z" fill="black"/>
<path d="M301.197 105.411H305.347V121.711H301.357V110.291C301.357 109.181 301.357 108.211 301.337 107.361C301.317 106.511 301.277 105.871 301.197 105.421V105.411ZM313.657 106.171L316.217 108.171L305.357 120.941L302.837 118.991L313.667 106.181L313.657 106.171ZM317.817 121.701H313.667V105.401H317.657V116.821C317.657 117.921 317.657 118.891 317.677 119.741C317.697 120.591 317.737 121.241 317.817 121.691V121.701Z" fill="black"/>
<path d="M121.916 58.5106C127.486 59.2606 130.276 54.9106 133.476 51.2106C136.476 47.7406 138.886 43.5106 143.976 42.6106C148.606 41.7906 153.086 44.5606 154.266 48.9106C155.656 54.0406 152.496 56.0806 148.446 57.5206C143.836 59.1706 138.996 60.2006 134.616 62.5206C126.466 66.8406 124.106 74.0006 124.746 82.6006C125.346 90.6106 129.526 96.0206 137.656 98.2706C144.036 100.041 150.666 100.901 157.136 102.381C161.286 103.331 165.136 104.991 166.166 109.791C167.716 116.961 162.966 121.121 155.476 119.271C151.816 118.371 148.916 116.191 146.166 113.801C137.066 105.911 126.206 103.821 114.656 104.391C107.966 104.721 103.976 110.341 103.266 118.651C102.696 125.291 104.286 131.001 108.656 136.031C110.836 138.541 111.616 141.531 110.006 144.651C108.386 147.781 105.366 148.861 102.156 148.531C96.5664 147.961 96.7864 143.081 96.0764 139.201C95.0864 133.771 94.7464 128.221 93.5764 122.841C92.1264 116.171 88.4364 111.241 81.1464 110.151C73.2764 108.971 67.0764 111.611 62.8564 118.481C58.3464 125.831 56.8164 134.331 53.6964 142.221C52.0164 146.461 50.1164 150.561 46.3864 153.451C42.2564 156.651 35.9664 157.321 32.6064 154.681C28.3164 151.301 29.1064 146.691 30.3764 142.311C32.3264 135.601 37.8764 131.941 43.1564 128.131C47.2364 125.191 51.4164 122.371 54.4164 118.211C58.3064 112.811 59.1964 105.111 56.4064 100.951C53.6364 96.8206 47.6164 95.5106 40.3864 97.2106C34.3464 98.6306 29.1664 102.621 22.8964 103.171C19.7764 103.441 16.0064 103.551 15.2064 99.4306C14.4164 95.3506 17.7164 93.9306 20.8964 93.3606C26.8964 92.2806 32.9964 91.7606 38.9964 90.6706C46.8464 89.2406 50.7664 85.0906 50.7664 78.7306C50.7664 74.7406 48.0964 72.4906 45.2364 70.4006C42.6464 68.5106 39.9664 66.7506 37.4264 64.7906C36.2064 63.8506 35.3664 62.4706 35.8464 60.8206C36.3064 59.2206 37.7764 58.6906 39.1864 58.5106C45.1164 57.7506 51.0864 57.2706 56.9964 56.3606C60.1864 55.8706 63.0164 54.3606 63.9564 50.8506C64.9464 47.1506 63.2164 44.4006 60.5864 42.0606C58.4464 40.1606 56.1864 38.4006 54.1064 36.4406C52.0964 34.5406 50.8064 32.1806 50.4664 29.3606C50.1464 26.7406 50.3664 24.2006 53.0264 22.9806C55.7464 21.7406 58.3264 22.6506 60.2864 24.7706C63.3864 28.1306 64.1864 32.6106 65.6864 36.7206C69.1364 46.1606 74.8264 50.2006 83.2064 48.9906C89.3064 48.1106 92.7564 43.0706 92.9564 35.0906C93.1364 27.9106 89.8864 21.3906 89.1664 14.4006C88.8264 11.1006 88.3864 7.74065 90.0564 4.62065C92.0364 0.920645 95.1664 -0.699381 99.2264 0.280619C103.936 1.41062 105.966 4.97064 106.286 9.52064C106.656 14.7306 105.316 19.6206 103.026 24.2906C99.2764 31.9606 99.4864 39.9006 102.086 47.7706C104.516 55.1206 110.766 58.3806 121.866 58.5106H121.916Z" fill="#4BB6A5"/>
<path d="M9.47651 45.1306C15.2465 45.3106 20.0165 47.4206 23.7365 51.6106C26.3465 54.5506 25.6065 57.5106 21.9065 58.7506C16.2665 60.6406 10.5365 60.5606 5.03651 58.2406C1.65651 56.8106 -0.75349 54.3006 0.21651 50.2906C1.40651 45.3106 5.76651 45.5906 9.47651 45.1406V45.1306Z" fill="#4BB6A5"/>
<path d="M124.526 147.201C124.576 142.211 128.546 138.311 133.506 138.401C138.556 138.491 142.356 142.431 142.316 147.521C142.276 152.291 138.116 156.321 133.306 156.251C128.366 156.181 124.486 152.181 124.526 147.201Z" fill="#4BB6A5"/>
<path d="M106.266 35.1506L45.8364 61.7106H59.3364V121.691H153.076V61.7106H166.466L106.266 35.1506ZM99.6264 54.9006C99.6264 51.2006 102.626 48.2006 106.326 48.2006C110.026 48.2006 113.026 51.2006 113.026 54.9006C113.026 58.6006 110.026 61.6006 106.326 61.6006C102.626 61.6006 99.6264 58.6006 99.6264 54.9006ZM66.0964 118.311V91.0206C66.5764 85.8006 71.0364 81.7906 76.2264 81.8506C81.3364 81.9106 85.6564 85.8806 86.1264 91.0206V118.311H66.0964ZM92.7664 118.311V87.3606C93.4464 80.3606 99.4264 75.0106 106.386 75.0906C113.216 75.1806 118.996 80.4806 119.666 87.3606V118.311H92.7764H92.7664ZM126.416 118.311V91.0206C126.896 85.8006 131.356 81.7906 136.546 81.8506C141.656 81.9106 145.976 85.8806 146.446 91.0206V118.311H126.416Z" fill="black"/>
</svg>
