<svg width="418" height="247" viewBox="0 0 418 247" fill="none" xmlns="http://www.w3.org/2000/svg">
<path d="M214.33 246.556C213.992 246.556 213.64 246.527 213.302 246.471L208.132 245.64C208.005 245.64 207.892 245.64 207.766 245.64C207.442 245.64 207.118 245.612 206.808 245.57L200.637 244.583C200.187 244.513 199.75 244.386 199.327 244.231L182.352 241.512C182.268 241.512 182.169 241.512 182.084 241.512C181.76 241.512 181.436 241.484 181.112 241.428L171.449 239.864C171.04 239.794 170.632 239.695 170.251 239.554L154.91 237.089C154.91 237.089 154.811 237.089 154.755 237.089C154.431 237.089 154.093 237.061 153.769 237.004L146.472 235.835C146.092 235.779 145.725 235.68 145.373 235.568L140.006 234.708H139.921C139.597 234.708 139.259 234.68 138.935 234.624L133.667 233.778C133.314 233.722 132.962 233.638 132.638 233.525L119.241 231.384C118.917 231.384 118.593 231.355 118.269 231.299L105.252 229.2C104.943 229.144 104.647 229.073 104.351 228.989L92.264 227.059C91.9963 227.059 91.7146 227.031 91.447 226.974L79.684 225.087C79.4305 225.044 79.191 224.988 78.9515 224.918L67.9212 223.143C67.6958 223.143 67.4844 223.1 67.259 223.072L63.3146 222.438C63.1033 222.41 62.9061 222.368 62.7089 222.311L58.5109 221.635C58.3137 221.635 58.1164 221.607 57.9192 221.565L54.3128 220.987C54.1297 220.959 53.9466 220.917 53.7775 220.875L43.6065 219.24C43.4657 219.24 43.3107 219.212 43.1698 219.184L37.5771 218.282C37.4503 218.268 37.3376 218.24 37.2249 218.212L24.1661 216.127C21.0105 215.62 18.6861 212.887 18.6861 209.689V77.79L7.68396 79.7763C7.28952 79.8467 6.90913 79.889 6.51469 79.889C3.66906 79.889 1.077 78.0154 0.259934 75.1979C-0.669827 72.0001 0.964301 68.605 4.04942 67.3372L167.307 0.493106C168.096 0.169099 168.927 0 169.772 0C170.026 0 170.279 0.0141286 170.519 0.0423031L272.215 11.8193C272.778 11.8897 273.328 12.0164 273.849 12.2278L413.863 67.295C416.99 68.5206 418.666 71.9297 417.751 75.1557C416.934 78.0013 414.341 79.8749 411.482 79.8749C411.087 79.8749 410.693 79.8326 410.284 79.7622L399.226 77.7055V210.168C399.226 213.352 396.93 216.071 393.774 216.606L215.415 246.415C215.063 246.471 214.697 246.499 214.344 246.499L214.33 246.556Z" fill="#B1DEF2"/>
<path d="M198.496 76.339L185.254 77.8322V104.866L198.496 103.992V76.339Z" fill="#369689"/>
<path d="M157.77 160.651L169.758 161.046V134.731L157.77 134.9V160.651Z" fill="#369689"/>
<path d="M157.77 106.697L169.758 105.894V79.5933L157.77 80.9457V106.697Z" fill="#369689"/>
<path d="M147.5 57.4199V178.725L207.836 182.74V47.8124L147.5 57.4199ZM172.66 131.434V167.639C172.223 167.906 171.378 168.329 170.265 168.343C168.842 168.371 167.772 167.709 167.335 167.399C166.56 167.104 165.518 166.808 164.264 166.737C162.869 166.653 161.714 166.878 160.911 167.118C160.503 167.413 159.488 168.076 158.065 168.047C156.516 168.019 155.403 167.188 155.009 166.85C155.009 166.85 155.009 146.325 155.009 131.885C155.009 130.66 153.473 129.462 153.473 128.251L157.953 128.124C158.404 124.856 160.742 122.334 163.503 122.151C166.391 121.954 168.983 124.377 169.476 127.814C170.533 127.786 173.153 127.715 174.224 127.687C174.224 128.913 172.66 130.181 172.66 131.42V131.434ZM172.66 76.001V112.205C172.223 112.515 171.378 113.022 170.265 113.149C168.842 113.318 167.772 112.769 167.335 112.501C166.56 112.29 165.518 112.093 164.264 112.135C162.869 112.191 161.714 112.529 160.911 112.839C160.503 113.177 159.488 113.938 158.065 114.051C156.516 114.178 155.403 113.445 155.009 113.163C155.009 113.163 155.009 92.6381 155.009 78.1987C155.009 76.9731 153.473 75.9306 153.473 74.705C154.445 74.5783 156.967 74.2683 157.953 74.1415C158.404 70.8169 160.742 68.0699 163.503 67.6191C166.391 67.1401 168.983 69.2955 169.476 72.6906C170.533 72.5638 173.153 72.2256 174.224 72.0988C174.224 73.3244 172.66 74.7473 172.66 75.9869V76.001ZM185.465 70.7042C185.958 67.2106 188.55 64.3086 191.593 63.8155C194.791 63.2943 197.651 65.5483 198.186 69.1123C199.355 68.9715 202.243 68.6052 203.427 68.4503C203.427 69.7463 201.708 71.2536 201.708 72.5496V110.628C201.229 110.952 200.299 111.487 199.059 111.628C197.482 111.797 196.298 111.233 195.819 110.952C194.974 110.726 193.819 110.529 192.438 110.585C190.889 110.642 189.621 111.008 188.734 111.346C188.283 111.712 187.156 112.501 185.592 112.628C183.873 112.755 182.662 112.008 182.225 111.698C182.225 111.698 182.225 90.1588 182.225 74.9868C182.225 73.7049 180.535 72.6201 180.535 71.3382C181.605 71.1973 184.381 70.8592 185.465 70.7183V70.7042ZM201.75 130.843V168.921C201.271 169.203 200.341 169.639 199.102 169.653C197.524 169.667 196.341 168.991 195.862 168.667C195.016 168.357 193.861 168.047 192.481 167.963C190.931 167.878 189.663 168.104 188.776 168.357C188.325 168.667 187.198 169.357 185.634 169.329C183.916 169.287 182.704 168.414 182.267 168.076C182.267 168.076 182.267 146.536 182.267 131.364C182.267 130.082 180.577 128.828 180.577 127.546C181.648 127.518 184.423 127.448 185.507 127.42C186.001 123.982 188.593 121.334 191.635 121.137C194.833 120.925 197.693 123.461 198.228 127.082C199.398 127.053 202.285 126.969 203.469 126.941C203.469 128.237 201.736 129.575 201.736 130.871L201.75 130.843Z" fill="#369689"/>
<path d="M185.31 161.539L198.552 161.976V134.308L185.31 134.505V161.539Z" fill="#369689"/>
<path d="M78.6976 138.253L70.2734 138.337V159.975L78.6976 160.285V138.253Z" fill="#369689"/>
<path d="M132.201 83.8336L121.749 85.017V109.078L132.201 108.388V83.8336Z" fill="#369689"/>
<path d="M78.6976 89.8911L70.2734 90.849V112.473L78.6976 111.924V89.8911Z" fill="#369689"/>
<path d="M104.013 87.0314L94.6445 88.0879V110.867L104.013 110.247V87.0314Z" fill="#369689"/>
<path d="M104.013 137.999L94.6445 138.098V160.877L104.013 161.229V137.999Z" fill="#369689"/>
<path d="M132.201 137.732L121.749 137.83V161.877L132.201 162.272V137.732Z" fill="#369689"/>
<path d="M64.3286 173.175L139.977 178.218V58.6172L64.3286 70.6619V173.175ZM121.917 78.6916C122.312 75.5924 124.354 73.0426 126.763 72.6482C129.285 72.2255 131.539 74.2682 131.962 77.4379C132.877 77.3252 135.159 77.0434 136.089 76.9166C136.089 78.0718 134.737 79.3819 134.737 80.523V114.29C134.356 114.572 133.624 115.037 132.652 115.164C131.412 115.304 130.482 114.797 130.102 114.544C129.426 114.346 128.524 114.149 127.426 114.192C126.214 114.234 125.2 114.558 124.495 114.84C124.143 115.164 123.256 115.868 122.002 115.967C120.649 116.079 119.678 115.403 119.339 115.121C119.339 115.121 119.339 95.9485 119.339 82.4529C119.339 81.3119 118.001 80.3257 118.001 79.1847C118.846 79.072 121.044 78.8043 121.903 78.6916H121.917ZM121.917 131.519C122.312 128.462 124.354 126.123 126.763 125.968C129.285 125.799 131.539 128.082 131.962 131.294C132.877 131.279 135.159 131.223 136.089 131.195C136.089 132.35 134.737 133.519 134.737 134.66V168.428C134.356 168.681 133.624 169.062 132.652 169.076C131.412 169.09 130.482 168.484 130.102 168.202C129.426 167.935 128.524 167.653 127.426 167.582C126.214 167.498 125.2 167.709 124.495 167.935C124.143 168.216 123.256 168.836 122.002 168.808C120.649 168.78 119.678 168.005 119.339 167.695C119.339 167.695 119.339 148.522 119.339 135.027C119.339 133.886 118.001 132.759 118.001 131.617C118.846 131.603 121.044 131.547 121.903 131.533L121.917 131.519ZM94.7993 82.0866C95.1515 79.1565 96.9829 76.7617 99.1382 76.3954C101.392 76.0151 103.421 77.9591 103.787 80.9597L107.478 80.4948C107.478 81.5795 106.266 82.8192 106.266 83.9039V115.84C105.928 116.107 105.28 116.544 104.407 116.657C103.294 116.798 102.463 116.305 102.125 116.065C101.519 115.868 100.702 115.699 99.7299 115.727C98.6452 115.769 97.7436 116.065 97.1097 116.333C96.7857 116.629 95.9967 117.305 94.8838 117.389C93.6723 117.488 92.799 116.84 92.4891 116.586C92.4891 116.586 92.4891 98.4279 92.4891 85.6367C92.4891 84.552 91.2916 83.6081 91.2916 82.5233C92.0523 82.4247 94.0245 82.1853 94.7993 82.0866ZM94.7993 132.111C95.1515 129.223 96.9829 127.011 99.1382 126.87C101.392 126.715 103.421 128.871 103.787 131.913C104.604 131.899 106.647 131.843 107.478 131.829C107.478 132.914 106.266 134.026 106.266 135.111V167.047C105.928 167.287 105.28 167.653 104.407 167.667C103.294 167.695 102.463 167.117 102.125 166.836C101.519 166.582 100.702 166.315 99.7299 166.258C98.6452 166.188 97.7436 166.385 97.1097 166.596C96.7857 166.864 95.9967 167.442 94.8838 167.427C93.6723 167.399 92.799 166.667 92.4891 166.371C92.4891 166.371 92.4891 148.212 92.4891 135.421C92.4891 134.336 91.2916 133.266 91.2916 132.195C92.0523 132.181 94.0245 132.139 94.7993 132.111ZM70.4002 85.1577C70.7101 82.3825 72.3724 80.1144 74.3164 79.7763C76.345 79.4241 78.1622 81.2837 78.5144 84.1434C79.2611 84.0448 81.0925 83.8193 81.8391 83.7207C81.8391 84.7491 80.7543 85.9184 80.7543 86.9468V117.234C80.4444 117.488 79.8668 117.911 79.078 118.009C78.0778 118.136 77.3311 117.671 77.0212 117.446C76.4859 117.263 75.7393 117.094 74.8659 117.122C73.8798 117.164 73.0768 117.432 72.4992 117.699C72.2034 117.981 71.4849 118.615 70.4847 118.699C69.3859 118.784 68.6111 118.178 68.3294 117.925C68.3294 117.925 68.3294 100.668 68.3294 88.5245C68.3294 87.4962 67.2446 86.5945 67.2446 85.5662C67.9349 85.4816 69.7099 85.2563 70.4142 85.1718L70.4002 85.1577ZM70.4002 132.66C70.7101 129.913 72.3724 127.814 74.3164 127.687C76.345 127.546 78.1622 129.589 78.5144 132.477L81.8391 132.406C81.8391 133.435 80.7543 134.491 80.7543 135.52V165.807C80.4444 166.033 79.8668 166.385 79.078 166.399C78.0778 166.427 77.3311 165.878 77.0212 165.624C76.4859 165.385 75.7393 165.131 74.8659 165.075C73.8798 165.004 73.0768 165.202 72.4992 165.399C72.2034 165.652 71.4849 166.216 70.4847 166.188C69.3859 166.16 68.6111 165.469 68.3294 165.188C68.3294 165.188 68.3294 147.931 68.3294 135.787C68.3294 134.759 67.2446 133.745 67.2446 132.716L70.4142 132.646L70.4002 132.66Z" fill="#369689"/>
<path d="M53.5097 92.7506L45.9448 93.5958V114.093L53.5097 113.586V92.7506Z" fill="#369689"/>
<path d="M45.9727 157.031L53.5375 157.271V136.436L45.9727 136.534V157.031Z" fill="#369689"/>
<path d="M25.1943 170.569L58.9475 172.823V71.5214L25.1943 76.8886V170.569ZM55.3552 133.829V162.483C55.0734 162.694 54.5522 163.032 53.8619 163.06C52.9603 163.089 52.2982 162.582 52.0165 162.342C51.5375 162.117 50.8754 161.891 50.0865 161.835C49.199 161.779 48.4806 161.962 47.9734 162.159C47.7199 162.398 47.0719 162.934 46.1703 162.92C45.1842 162.92 44.4799 162.257 44.2404 161.99C44.2404 161.99 44.2404 145.649 44.2404 134.139C44.2404 133.167 43.2683 132.209 43.2683 131.237L46.1139 131.167C46.3957 128.561 47.8749 126.574 49.6217 126.448C51.439 126.307 53.0731 128.237 53.383 130.97L56.3554 130.885C56.3554 131.857 55.3834 132.857 55.3834 133.829H55.3552ZM46.0717 88.2148C46.3534 85.5804 47.8326 83.4533 49.5794 83.1434C51.3967 82.8194 53.0308 84.5944 53.3407 87.2991C54.0028 87.2146 55.637 87.0033 56.3132 86.9329C56.3132 87.9049 55.3412 89.0036 55.3412 89.9757V118.629C55.0594 118.869 54.5382 119.263 53.8479 119.348C52.9463 119.46 52.2842 119.024 52.0025 118.812C51.5235 118.629 50.8613 118.474 50.0724 118.502C49.1849 118.531 48.4665 118.798 47.9593 119.038C47.7058 119.305 47.0578 119.897 46.1562 119.982C45.1701 120.066 44.4658 119.474 44.2263 119.249C44.2263 119.249 44.2263 102.908 44.2263 91.3985C44.2263 90.4265 43.2542 89.5671 43.2542 88.581L46.0858 88.2289L46.0717 88.2148ZM30.0967 90.2152C30.3643 87.6795 31.7308 85.6368 33.3508 85.3551C35.0413 85.0592 36.5487 86.7779 36.8304 89.3699C37.4503 89.2995 38.9576 89.1023 39.5915 89.0177C39.5915 89.9616 38.69 91.0041 38.69 91.9338V119.517C38.4364 119.742 37.9434 120.122 37.2953 120.207C36.4642 120.32 35.8443 119.897 35.5908 119.686C35.14 119.517 34.5342 119.362 33.8016 119.376C32.9846 119.404 32.3084 119.658 31.8435 119.883C31.604 120.137 31.0124 120.714 30.1672 120.785C29.2515 120.869 28.6035 120.292 28.3781 120.066C28.3781 120.066 28.3781 104.317 28.3781 93.2298C28.3781 92.286 27.4765 91.4548 27.4765 90.511C28.054 90.4406 29.5332 90.2574 30.1108 90.187L30.0967 90.2152ZM30.0967 131.59C30.3643 129.082 31.7308 127.166 33.3508 127.039C35.0413 126.913 36.5487 128.772 36.8304 131.406L39.5915 131.336C39.5915 132.28 38.69 133.238 38.69 134.167V161.75C38.4364 161.962 37.9434 162.286 37.2953 162.3C36.4642 162.328 35.8443 161.835 35.5908 161.61C35.14 161.398 34.5342 161.173 33.8016 161.131C32.9846 161.074 32.3084 161.257 31.8435 161.455C31.604 161.694 31.0124 162.201 30.1672 162.187C29.2515 162.187 28.6035 161.553 28.3781 161.3C28.3781 161.3 28.3781 145.55 28.3781 134.463C28.3781 133.519 27.4765 132.604 27.4765 131.66L30.1108 131.59H30.0967Z" fill="#369689"/>
<path d="M36.9852 136.675L29.9839 136.774V156.51L36.9852 156.735V136.675Z" fill="#369689"/>
<path d="M36.9852 94.6102L29.9839 95.4132V115.149L36.9852 114.685V94.6102Z" fill="#369689"/>
<path d="M147.5 229.426L154.797 230.595V199.378C154.938 199.124 157.882 193.799 163.573 194.391C169.279 194.982 172.294 200.871 172.463 201.209V233.441L182.127 235.004V202.223C182.281 201.955 185.536 196.391 191.819 197.025C198.116 197.673 201.454 203.871 201.651 204.238V238.146L207.822 239.146V190.489L147.486 185.685V229.426H147.5Z" fill="#369689"/>
<path d="M163.56 197.912H163.503C160.489 197.602 158.53 199.702 157.713 200.8V227.58L169.406 229.383V202.026C168.575 200.73 166.588 198.236 163.56 197.912Z" fill="#369689"/>
<path d="M191.819 200.729H191.748C188.409 200.391 186.254 202.575 185.353 203.73V231.862L198.271 233.863V205.097C197.341 203.73 195.157 201.096 191.805 200.729H191.819Z" fill="#369689"/>
<path d="M25.1943 209.717L28.2654 210.211V186.248C28.3499 186.051 30.0827 181.923 33.4213 182.275C36.7459 182.628 38.5068 187.065 38.6055 187.319V211.873L44.1981 212.774V187.896C44.2826 187.685 46.1562 183.403 49.7626 183.797C53.3548 184.177 55.2425 188.784 55.3552 189.066V214.578L58.9615 215.155V178.613L25.2084 175.922V209.703L25.1943 209.717Z" fill="#369689"/>
<path d="M49.7343 186.6H49.692C47.7903 186.403 46.5505 188.107 46.0293 188.995V210.309L53.4111 211.45V189.77C52.8899 188.755 51.636 186.811 49.7343 186.6Z" fill="#369689"/>
<path d="M33.407 184.98H33.3647C31.5897 184.797 30.4487 186.445 29.9697 187.29V207.816L36.8161 208.872V188.009C36.3372 187.037 35.1679 185.177 33.407 184.966V184.98Z" fill="#369689"/>
<path d="M126.947 194.278H126.89C124.256 194.01 122.551 195.983 121.833 197.011V222.03L132.032 223.608V198.082C131.3 196.884 129.581 194.56 126.933 194.278H126.947Z" fill="#369689"/>
<path d="M99.3353 191.531H99.293C96.9263 191.291 95.4049 193.165 94.771 194.137V217.832L103.914 219.24V195.095C103.266 193.968 101.716 191.784 99.3494 191.517L99.3353 191.531Z" fill="#369689"/>
<path d="M64.3286 216.029L68.273 216.662V190.404C68.3716 190.192 70.4565 185.684 74.4714 186.107C78.4722 186.53 80.5993 191.418 80.712 191.7V218.677L92.475 220.565V192.925C92.5877 192.7 94.898 187.967 99.3496 188.431C103.801 188.896 106.154 194.066 106.28 194.362V222.804L119.297 224.903V195.715C119.41 195.475 121.988 190.488 126.961 191.009C131.933 191.531 134.554 196.997 134.709 197.321V227.383L139.977 228.228V185.093L64.3286 179.078V216.057V216.029Z" fill="#369689"/>
<path d="M74.4576 189.051H74.4154C72.2882 188.84 70.9077 190.615 70.3301 191.559V214.056L78.5712 215.324V192.418C77.9795 191.348 76.5848 189.291 74.4576 189.051Z" fill="#369689"/>
<path d="M388.195 95.4697L381.363 94.6808V114.811L388.195 115.276V95.4697Z" fill="#369689"/>
<path d="M365.275 157.58L372.628 157.327V136.76L365.275 136.661V157.58Z" fill="#369689"/>
<path d="M365.275 113.727L372.628 114.22V93.6527L365.275 92.7933V113.727Z" fill="#369689"/>
<path d="M358.485 71.2396V173.288L392.703 170.907V76.8463L358.485 71.2396ZM374.334 134.266V162.314C374.08 162.553 373.587 162.92 372.939 163.004C372.094 163.117 371.46 162.666 371.192 162.455C370.727 162.272 370.093 162.103 369.333 162.117C368.473 162.131 367.755 162.384 367.262 162.638C367.008 162.906 366.36 163.511 365.459 163.582C364.458 163.666 363.754 163.061 363.486 162.807C363.486 162.807 363.486 145.973 363.486 134.125C363.486 133.125 362.486 132.083 362.486 131.082L365.388 131.167C365.67 128.533 367.149 126.617 368.868 126.617C370.629 126.617 372.178 128.645 372.474 131.364L375.235 131.435C375.235 132.378 374.334 133.308 374.334 134.266ZM374.334 91.3281V119.376C374.08 119.587 373.587 119.911 372.939 119.925C372.094 119.953 371.46 119.446 371.192 119.193C370.727 118.967 370.093 118.728 369.333 118.671C368.473 118.601 367.755 118.784 367.262 118.981C367.008 119.221 366.36 119.756 365.459 119.742C364.458 119.728 363.754 119.038 363.486 118.77C363.486 118.77 363.486 101.936 363.486 90.0884C363.486 89.0882 362.486 87.9472 362.486 86.9329C363.12 87.0174 364.754 87.2287 365.388 87.3133C365.67 84.7071 367.149 82.9461 368.868 83.1152C370.629 83.2983 372.178 85.4819 372.474 88.2289C373.094 88.3134 374.629 88.5106 375.235 88.5811C375.235 89.5249 374.334 90.3702 374.334 91.314V91.3281ZM381.476 89.3982C381.744 86.8906 383.11 85.186 384.702 85.341C386.336 85.5101 387.773 87.609 388.04 90.2434C388.618 90.3138 390.041 90.4969 390.604 90.5814C390.604 91.4971 389.773 92.3142 389.773 93.2299V120.249C389.534 120.446 389.083 120.77 388.477 120.785C387.688 120.813 387.111 120.32 386.857 120.08C386.435 119.855 385.843 119.629 385.139 119.573C384.336 119.517 383.673 119.686 383.209 119.869C382.969 120.108 382.377 120.616 381.532 120.601C380.616 120.587 379.954 119.925 379.715 119.672C379.715 119.672 379.715 103.471 379.715 92.0747C379.715 91.1027 378.785 90.018 378.785 89.046L381.476 89.3982ZM389.787 134.576V161.595C389.548 161.821 389.097 162.187 388.491 162.258C387.702 162.356 387.125 161.934 386.871 161.722C386.449 161.553 385.857 161.384 385.153 161.398C384.35 161.412 383.688 161.666 383.223 161.891C382.983 162.145 382.391 162.722 381.56 162.793C380.645 162.863 379.983 162.286 379.743 162.046C379.743 162.046 379.743 145.846 379.743 134.449C379.743 133.477 378.813 132.491 378.813 131.519C379.405 131.533 380.912 131.575 381.504 131.59C381.772 129.054 383.138 127.208 384.73 127.208C386.364 127.208 387.801 129.152 388.069 131.773L390.633 131.843C390.633 132.759 389.801 133.66 389.801 134.576H389.787Z" fill="#369689"/>
<path d="M381.391 157.031L388.223 156.792V136.985L381.391 136.886V157.031Z" fill="#369689"/>
<path d="M296.868 138.069L286.584 137.971V162.722L296.868 162.328V138.069Z" fill="#369689"/>
<path d="M347.426 90.7221L339.157 89.7642V111.952L347.426 112.515V90.7221Z" fill="#369689"/>
<path d="M296.868 84.8341L286.584 83.6366V108.388L296.868 109.078V84.8341Z" fill="#369689"/>
<path d="M323.493 87.9331L314.308 86.8625V110.262L323.493 110.895V87.9331Z" fill="#369689"/>
<path d="M323.493 138.337L314.308 138.238V161.651L323.493 161.285V138.337Z" fill="#369689"/>
<path d="M347.426 138.563L339.157 138.492V160.68L347.426 160.356V138.563Z" fill="#369689"/>
<path d="M278.864 178.824L353.202 173.654V70.3662L278.864 58.1807V178.824ZM339.284 83.9464C339.608 81.1852 341.27 79.3257 343.186 79.5229C345.173 79.7342 346.905 82.0586 347.229 84.9747L350.329 85.3692C350.329 86.3694 349.314 87.2569 349.314 88.2571V117.967C349.033 118.192 348.483 118.531 347.751 118.545C346.807 118.559 346.088 118.024 345.792 117.77C345.271 117.53 344.567 117.277 343.708 117.206C342.736 117.136 341.933 117.319 341.369 117.516C341.087 117.77 340.355 118.333 339.341 118.319C338.228 118.291 337.411 117.573 337.129 117.291C337.129 117.291 337.129 99.4424 337.129 86.8624C337.129 85.7918 336.002 84.5803 336.002 83.5097L339.27 83.9323L339.284 83.9464ZM339.284 132.66C339.608 129.857 341.27 127.828 343.186 127.814C345.173 127.814 346.905 129.955 347.229 132.829C347.934 132.843 349.638 132.886 350.329 132.9C350.329 133.9 349.314 134.9 349.314 135.9V165.61C349.033 165.864 348.483 166.258 347.751 166.357C346.807 166.484 346.088 166.019 345.792 165.793C345.271 165.61 344.567 165.427 343.708 165.455C342.736 165.484 341.933 165.765 341.369 166.019C341.087 166.301 340.355 166.949 339.341 167.033C338.228 167.132 337.411 166.498 337.129 166.23C337.129 166.23 337.129 148.382 337.129 135.802C337.129 134.731 336.002 133.646 336.002 132.576C336.72 132.59 338.552 132.632 339.27 132.646L339.284 132.66ZM314.448 80.7344C314.8 77.8183 316.66 75.8743 318.787 76.0997C320.985 76.3251 322.915 78.8045 323.281 81.8755C324.056 81.9741 325.958 82.2277 326.732 82.3263C326.732 83.3828 325.605 84.2986 325.605 85.3692V116.657C325.281 116.882 324.676 117.249 323.873 117.263C322.816 117.277 322.027 116.713 321.703 116.432C321.126 116.178 320.337 115.91 319.393 115.826C318.322 115.741 317.435 115.939 316.801 116.15C316.477 116.418 315.674 117.009 314.547 116.981C313.307 116.953 312.406 116.192 312.082 115.882C312.082 115.882 312.082 97.0476 312.082 83.7914C312.082 82.6644 310.828 81.3825 310.828 80.2555C311.631 80.3541 313.673 80.6217 314.462 80.7203L314.448 80.7344ZM314.448 132.111C314.8 129.167 316.66 127.025 318.787 127.011C320.985 127.011 322.915 129.279 323.281 132.308L326.732 132.378C326.732 133.435 325.605 134.477 325.605 135.534V166.822C325.281 167.089 324.676 167.512 323.873 167.611C322.816 167.738 322.027 167.258 321.703 167.019C321.126 166.822 320.337 166.639 319.393 166.667C318.322 166.695 317.435 166.991 316.801 167.273C316.477 167.582 315.674 168.259 314.547 168.343C313.307 168.442 312.406 167.78 312.082 167.512C312.082 167.512 312.082 148.677 312.082 135.421C312.082 134.294 310.828 133.139 310.828 132.012L314.462 132.097L314.448 132.111ZM286.753 77.1563C287.147 74.0852 289.218 72.0426 291.613 72.2961C294.064 72.5638 296.234 75.184 296.628 78.4382C297.501 78.5509 299.614 78.8186 300.474 78.9313C300.474 80.0442 299.22 81.0161 299.22 82.129V115.178C298.868 115.417 298.192 115.798 297.276 115.812C296.107 115.826 295.219 115.22 294.853 114.938C294.205 114.657 293.331 114.375 292.261 114.304C291.063 114.22 290.063 114.417 289.359 114.643C289.007 114.924 288.105 115.544 286.837 115.516C285.443 115.474 284.442 114.671 284.09 114.347C284.09 114.347 284.09 94.4273 284.09 80.3963C284.09 79.1989 282.682 77.8325 282.682 76.6351C283.569 76.7478 285.851 77.0436 286.739 77.1563H286.753ZM286.753 131.477C287.147 128.364 289.218 126.095 291.613 126.095C294.064 126.095 296.234 128.49 296.628 131.702C297.501 131.716 299.614 131.773 300.474 131.787C300.474 132.9 299.22 133.998 299.22 135.125V168.174C298.868 168.456 298.192 168.907 297.276 169.019C296.107 169.16 295.219 168.653 294.853 168.4C294.205 168.188 293.331 168.005 292.261 168.033C291.063 168.076 290.063 168.385 289.359 168.681C289.007 169.005 288.105 169.724 286.837 169.822C285.443 169.935 284.442 169.231 284.09 168.949C284.09 168.949 284.09 149.03 284.09 134.999C284.09 133.801 282.682 132.59 282.682 131.392C283.569 131.406 285.851 131.463 286.739 131.477H286.753Z" fill="#369689"/>
<path d="M263.565 80.9598L251.859 79.5933V106.035L263.565 106.824V80.9598Z" fill="#369689"/>
<path d="M251.901 161.441L263.607 161.046V135.182L251.901 134.999V161.441Z" fill="#369689"/>
<path d="M214.344 183.304L271.468 179.331V56.9692L214.344 47.6012V183.304ZM266.298 132.054V167.301C265.89 167.597 265.129 168.076 264.086 168.202C262.748 168.357 261.748 167.808 261.325 167.54C260.593 167.315 259.593 167.118 258.381 167.146C257.015 167.188 255.874 167.512 255.085 167.822C254.676 168.16 253.648 168.935 252.211 169.034C250.619 169.146 249.478 168.4 249.069 168.09C249.069 168.09 249.069 146.804 249.069 131.815C249.069 130.547 247.463 129.223 247.463 127.955C248.478 127.983 251.084 128.054 252.098 128.082C252.549 124.757 254.916 122.348 257.634 122.376C260.438 122.391 262.889 124.969 263.354 128.392L267.721 128.504C267.721 129.702 266.298 130.857 266.298 132.054ZM252.056 72.6765C252.507 69.3942 254.873 67.2388 257.592 67.5346C260.395 67.8446 262.847 70.662 263.312 74.1275C264.298 74.2543 266.707 74.5642 267.679 74.691C267.679 75.8884 266.256 76.9027 266.256 78.1001V113.347C265.847 113.6 265.087 114.009 264.044 114.023C262.706 114.023 261.706 113.389 261.283 113.079C260.551 112.783 259.55 112.473 258.339 112.389C256.972 112.29 255.831 112.501 255.042 112.727C254.634 113.023 253.605 113.685 252.169 113.656C250.577 113.614 249.436 112.741 249.027 112.403C249.027 112.403 249.027 91.1168 249.027 76.1279C249.027 74.8601 247.421 73.3809 247.421 72.0989C248.435 72.2257 251.042 72.5638 252.056 72.7047V72.6765ZM223.994 69.0561C224.501 65.6047 227.107 63.3508 230.108 63.6888C233.193 64.0269 235.912 67.0135 236.419 70.6621C237.504 70.8029 240.166 71.141 241.237 71.2819C241.237 72.5357 239.673 73.5922 239.673 74.846V111.853C239.222 112.121 238.377 112.544 237.236 112.544C235.757 112.544 234.644 111.867 234.193 111.543C233.39 111.233 232.277 110.909 230.939 110.811C229.432 110.698 228.178 110.924 227.29 111.163C226.84 111.487 225.713 112.177 224.121 112.121C222.36 112.065 221.106 111.149 220.641 110.783C220.641 110.783 220.641 88.3838 220.641 72.6201C220.641 71.2818 218.866 69.7182 218.866 68.3799C219.993 68.5208 222.881 68.9011 223.994 69.042V69.0561ZM223.994 127.307C224.501 123.813 227.107 121.292 230.108 121.32C233.193 121.348 235.912 124.053 236.419 127.645C237.504 127.673 240.166 127.744 241.237 127.772C241.237 129.026 239.673 130.237 239.673 131.491V168.498C239.222 168.808 238.377 169.315 237.236 169.442C235.757 169.597 234.644 169.034 234.193 168.752C233.39 168.526 232.277 168.301 230.939 168.343C229.432 168.385 228.178 168.738 227.29 169.062C226.84 169.428 225.713 170.231 224.121 170.344C222.36 170.47 221.106 169.682 220.641 169.358C220.641 169.358 220.641 146.959 220.641 131.195C220.641 129.857 218.866 128.476 218.866 127.124C219.993 127.152 222.881 127.237 223.994 127.265V127.307Z" fill="#369689"/>
<path d="M236.715 134.787L223.783 134.59V162.398L236.715 161.962V134.787Z" fill="#369689"/>
<path d="M236.715 77.8323L223.783 76.325V104.133L236.715 105.007V77.8323Z" fill="#369689"/>
<path d="M358.485 215.944L363.36 215.127V189.502C363.444 189.277 365.346 184.501 368.924 184.205C372.361 183.924 374.136 188.093 374.235 188.333V213.31L379.687 212.394V187.741C379.771 187.516 381.532 182.937 384.843 182.656C388.041 182.388 389.675 186.417 389.773 186.656V210.718L392.718 210.225V176.302L358.499 179.134V215.944H358.485Z" fill="#369689"/>
<path d="M368.896 187.023H368.853C366.98 187.22 365.74 189.207 365.219 190.221V211.986L372.417 210.83V189.432C371.924 188.544 370.727 186.868 368.881 187.037L368.896 187.023Z" fill="#369689"/>
<path d="M384.814 185.374H384.786C383.053 185.558 381.898 187.459 381.419 188.431V209.379L388.082 208.308V187.699C387.617 186.839 386.519 185.219 384.814 185.374Z" fill="#369689"/>
<path d="M214.344 240.033L220.472 239.005V204.914C220.627 204.604 223.994 198.18 230.277 197.631C236.306 197.109 239.391 202.547 239.56 202.857V235.821L249.013 234.243V201.843C249.154 201.547 252.197 195.461 257.874 194.968C263.326 194.489 266.129 199.687 266.284 199.983V231.356L271.468 230.496V186.361L214.344 191.094V240.033Z" fill="#369689"/>
<path d="M257.846 198.504H257.789C254.803 198.814 252.831 201.364 252.014 202.66V230.158L263.453 228.327V201.406C262.664 200.307 260.79 198.236 257.86 198.504H257.846Z" fill="#369689"/>
<path d="M230.235 201.35H230.164C226.868 201.702 224.684 204.393 223.769 205.759V234.68L236.405 232.652V204.364C235.545 203.209 233.461 201.04 230.22 201.35H230.235Z" fill="#369689"/>
<path d="M343.341 189.657H343.299C341.186 189.883 339.805 191.996 339.213 193.066V216.141L347.299 214.845V192.165C346.75 191.221 345.412 189.46 343.341 189.643V189.657Z" fill="#369689"/>
<path d="M318.999 192.179H318.956C316.618 192.432 315.068 194.658 314.42 195.799V220.142L323.394 218.705V194.813C322.774 193.827 321.295 191.967 318.999 192.179Z" fill="#369689"/>
<path d="M278.864 229.242L284.048 228.383V198.053C284.175 197.771 286.837 192.094 291.81 191.672C296.6 191.263 299.065 196.137 299.206 196.419V225.847L312.068 223.692V195.024C312.18 194.771 314.561 189.404 319.013 189.023C323.309 188.657 325.507 193.292 325.634 193.559V221.424L337.115 219.508V192.334C337.213 192.094 339.355 187.023 343.369 186.671C347.229 186.347 349.216 190.756 349.328 191.01V217.465L353.202 216.817V179.571L278.864 185.727V229.242Z" fill="#369689"/>
<path d="M291.796 194.996H291.74C289.12 195.278 287.387 197.645 286.668 198.856V224.594L296.699 222.988V197.757C296.008 196.715 294.36 194.771 291.782 195.01L291.796 194.996Z" fill="#369689"/>
<path d="M6.50049 73.4086L211.442 36.2745L411.468 73.4086L271.454 18.3415L169.758 6.55042L6.50049 73.4086Z" fill="#369689"/>
</svg>
