<svg width="148" height="178" viewBox="0 0 148 178" fill="none" xmlns="http://www.w3.org/2000/svg">
<path d="M142.784 177.612C140.585 178.026 137.803 177.265 135.735 176.325C135.072 176.032 135.488 174.944 135.035 174.692C134.151 174.2 133.273 174.688 132.424 174.114C132.135 173.917 132.629 172.184 132.324 172.018C130.651 171.123 129.032 171.46 127.318 170.96C118.931 168.487 110.6 167.156 101.839 165.251C98.9274 164.617 95.5876 162.52 92.3016 162.597C91.9024 162.605 91.835 164.168 91.7374 164.279C90.1975 165.965 91.2018 162.978 90.558 162.42C87.7903 160.055 85.1108 159.624 80.1588 157.547C79.0371 156.998 78.5052 157.592 78.1655 158.079C77.8292 158.535 77.5971 158.891 76.7136 156.974C76.6069 156.716 78.3847 156.122 77.7795 155.32C77.206 154.534 76.2086 153.443 75.3412 151.525C74.9527 150.632 74.5553 149.735 74.4585 149.157C74.2074 147.375 74.1299 147.078 73.9202 145.365C73.6688 142.946 74.741 140.23 75.0147 137.965C75.071 137.465 73.2577 137.653 73.2263 136.762C73.1862 135.837 74.1418 133.869 74.7999 133.469C75.4512 133.04 76.5091 133.895 76.8311 133.928C79.478 134.317 77.3941 130.93 77.5048 130.619C78.9243 125.805 82.9229 124.673 85.3573 122.275C87.247 120.435 88.7993 118.151 90.584 116.68C92.7107 114.937 95.0014 114.127 96.72 112.304C96.9012 112.114 95.323 110.878 95.5382 110.646C96.7057 109.385 97.8754 108.234 99.1076 107.228C100.22 106.335 101.364 105.58 102.54 105.035C102.784 104.922 104.039 106.166 104.378 106.097C105.399 105.88 106.977 105.575 107.277 104.984C107.641 104.447 106.224 103.762 102.898 106.152C102.938 106.252 102.98 106.355 103.027 106.458C103.723 108.288 104.866 109.301 105.444 109.665C106.099 110.081 106.393 110.065 106.552 109.982C106.853 109.781 106.649 109.204 106.467 108.397C106.182 107.308 107.206 105.608 106.215 106.204C105.995 106.34 105.867 108.011 105.576 108.095C104.358 108.454 103.008 107.713 101.566 108.411C101.276 108.557 101.184 110.043 101.079 110.301C100.206 112.384 99.5071 108.718 99.2613 108.436C97.5551 106.337 96.0899 107.008 94.2889 106.858C93.8722 106.823 94.2552 108.845 93.8517 108.883C91.7601 109.056 89.5909 108.796 87.5322 107.838C87.082 107.621 87.5608 105.935 87.3478 105.744C86.4037 104.923 86.0654 108.127 85.1561 107.405C84.9637 107.257 85.118 105.805 85.0868 105.644C84.5965 103.117 83.9945 106.659 83.8459 106.734C81.977 107.755 80.8875 104.013 79.0692 104.497C78.8547 104.559 79.2924 106.412 78.6919 106.473C74.6669 106.89 70.3965 106.301 66.4252 104.742C65.8069 104.502 66.2816 103.127 66.246 102.956C65.6652 100.276 65.168 103.839 64.9647 103.969C64.1324 104.45 63.3449 103.878 62.6124 103.79C61.9012 103.706 61.2571 104.047 60.6233 106.086C57.0574 105.204 53.428 105.218 49.4183 104.359C47.4162 103.906 45.2819 103.268 43.0082 101.737C40.8579 100.365 37.8794 96.9788 38.2209 93.111C38.2343 92.9425 40.0113 92.8795 40.0412 92.5901C40.2197 91.3116 40.1722 90.7882 39.7108 90.2495C38.9757 89.4019 37.163 88.7951 35.5904 86.7506C34.9982 85.7937 39.3247 85.8851 39.6195 85.9771C40.7842 86.0444 42.9999 87.5011 43.2465 87.4673C45.1311 87.3559 37.2916 83.6422 38.0941 82.1743C38.1299 82.1403 39.4201 83.0965 39.6204 83.0635C40.2423 82.9728 39.8948 82.3144 40.5542 82.2844C42.0945 82.2008 45.7445 84.2913 44.3505 81.9763C44.1745 81.6737 39.9676 79.1107 40.8908 78.1968C41.2549 77.8336 42.4842 76.0326 43.1027 75.7637C43.7184 75.4868 44.7187 76.7801 44.7997 76.7873C47.4086 76.8451 47.7247 77.8521 50.6128 79.1969C53.4783 80.5576 47.6216 76.0958 47.1825 75.3325C46.747 74.5674 48.7958 74.795 49.4297 74.9732C50.0651 75.1485 50.6214 76.0517 51.036 76.0849C53.7536 76.2974 48.6877 73.199 48.1381 72.0377C46.8502 69.2772 51.6358 72.0855 52.776 71.5865C53.085 71.4506 51.9827 70.824 52.073 70.5425C52.4492 69.4323 54.1585 70.0652 53.7834 68.1202C53.7263 67.7987 51.8978 64.9027 54.1244 66.0115C54.4457 66.171 55.3032 67.2586 55.8344 67.1111C56.5214 66.9288 57.3948 66.3395 57.6712 65.6391C57.7136 65.5351 57.743 65.4296 57.7574 65.3231C57.8358 64.7045 55.7335 63.7264 56.6803 63.6761C57.1055 63.6492 57.7718 64.9029 58.4893 64.7779C59.2085 64.657 60.0214 63.5237 60.2583 63.0918C60.5006 62.661 58.9375 61.9306 58.8681 61.8302C58.6587 61.5554 58.4865 61.1477 58.3349 60.8426C58.1841 60.5374 58.0467 60.3549 58.0527 60.3456C58.1261 60.1967 58.0213 60.1678 58.0057 61.0026C58.0081 61.4186 58.1363 62.1068 58.4766 62.6854C58.8055 63.2618 59.2412 63.6091 59.4869 63.7334C60.0084 63.98 59.9721 63.7414 59.7955 63.5705C59.6024 63.3782 59.2831 63.1678 58.8918 62.9695C57.3164 62.1795 55.2407 61.6025 53.1584 61.8293C52.9078 61.8579 52.6501 61.899 52.3858 61.9539C52.0298 62.0253 52.2653 63.8187 52.2109 63.8481C51.0239 64.6007 51.962 59.8316 51.0949 58.2396C51.2383 61.8774 50.732 61.2203 49.8795 61.6287C49.463 61.8287 49.7075 63.2348 49.671 63.3795C49.0867 65.5264 48.6301 62.7691 48.5069 62.2054C48.0575 60.1319 47.6632 62.5961 47.3603 61.2107C47.0574 59.8357 47.6704 57.7796 46.8324 57.8199C46.6186 59.1261 47.3003 62.5186 46.6717 63.0811C44.3478 65.2104 39.7952 62.6144 37.8585 62.3388C35.92 62.0684 35.2898 62.3028 34.1613 61.8223C32.1266 60.9457 32.8444 63.4802 31.5249 64.6093C30.1924 65.732 30.9985 59.5363 30.8514 58.1965C30.7143 56.857 30.4808 58.225 30.2842 57.4843C30.091 56.7439 30.5881 55.8516 30.0902 55.5594C29.6 55.2695 28.1128 57.5825 27.853 58.9662C27.3111 61.9005 27.8157 65.0402 26.4392 63.8701C26.3615 63.8007 26.7214 62.1853 26.4203 62.0021C24.0394 60.5995 21.4976 60.2893 19.2321 58.8164C18.9224 58.611 19.4986 56.8613 19.327 56.722C17.6041 55.2547 17.7879 58.3917 15.9524 61.4981C17.131 57.1106 17.0726 54.2938 15.7833 53.9291C15.0028 53.6971 14.6017 55.6373 13.6125 56.7912C13.3022 57.136 13.1404 55.6452 12.7128 56.4773C11.2659 59.1734 10.7638 62.6749 9.36945 60.6167C9.3168 60.5226 10.2418 59.1122 10.0169 58.9011C8.63507 57.473 6.91258 60.312 4.32727 58.7233C4.2587 58.6772 4.19042 58.6267 4.12259 58.5721C1.92929 56.9874 1.52586 52.0891 1.7354 50.0788C6.74362 49.2126 5.45829 48.2622 1.99388 47.3088C2.17644 46.0447 2.18204 44.7202 2.89191 43.7479C3.13482 43.4169 4.51976 43.9835 4.68564 43.9712C7.26011 43.9184 4.06497 42.6676 4.00286 42.3889C3.46583 39.5508 6.61155 38.7133 5.19467 35.6632C5.1425 35.5574 1.97372 33.9725 4.5788 34.4883C4.75551 34.5307 5.91346 35.8654 6.4632 34.9686C7.01714 34.062 9.56074 33.1712 8.71909 31.1902C8.51624 30.712 6.33263 28.6577 8.64157 29.0567C8.95492 29.1112 9.81844 29.6534 10.3825 29.7876C12.1846 30.2055 9.07773 28.422 12.0242 29.3166C14.9622 30.2242 17.4999 30.2356 16.2079 28.0176C16.1733 27.9463 13.7328 26.467 13.9404 26.1018C14.2908 25.4854 15.2042 24.8019 15.425 24.0773C15.4555 23.9766 15.316 23.8764 15.1069 23.7841C14.8199 23.6551 14.4007 23.5425 14.1084 23.4607C13.9233 23.4086 13.789 23.3697 13.7701 23.3511C13.7689 23.3499 13.7682 23.3487 13.768 23.3476C13.6224 22.1824 13.9104 21.4722 14.2693 20.7204C14.6077 19.9885 15.0664 19.0763 14.5272 17.9942C14.4247 17.7927 13.7487 17.9559 13.2508 18.0635C12.7348 18.1559 12.3664 18.1313 12.2931 17.0995C12.0388 14.8735 15.502 6.72547 11.6847 8.05867C10.046 8.63428 8.06725 19.4515 6.75746 13.7153C4.83708 14.4549 3.07655 13.8533 1.26206 13.6036C-0.0568444 13.4218 -1.38504 13.4342 -2.71265 14.3358C-2.85482 14.4303 -3.18475 17.5052 -3.52417 17.4779C-4.02626 17.4311 -4.36135 16.0147 -4.7277 15.9369C-6.2527 15.5751 -7.56413 16.8685 -9.01917 16.7597C-9.57347 16.7219 -9.46249 15.2345 -10.126 15.1902C-10.7892 15.1478 -11.1099 17.1173 -12.0526 16.2336C-12.7685 15.56 -13.6942 11.6311 -14.6229 11.2272C-14.3991 15.1465 -15.0199 15.1058 -16.0358 16.2135C-16.2316 16.4284 -15.9141 17.7762 -16.0019 17.9481C-16.3568 18.6781 -16.8025 17.5738 -17.1322 18.3652C-17.2123 18.5553 -17.1235 19.893 -17.1836 20.1239C-17.6857 22.1378 -18.9598 19.2056 -19.1797 18.6951C-20.0233 16.7567 -20.2228 18.5195 -20.8168 17.7757C-21.4114 17.0321 -20.6796 15.9942 -21.343 15.5653C-22.7139 14.678 -24.3689 15.02 -25.6931 15.0599C-26.2207 15.0841 -25.7244 16.8407 -25.7967 16.8856C-26.8499 17.4218 -28.0974 15.6098 -28.4222 19.2106C-29.8977 10.0816 -29.0075 20.1529 -30.7057 18.4363C-30.8397 18.2972 -31.3392 13.9647 -30.9193 13.2896C-30.4995 12.6153 -29.6782 13.9171 -29.1032 12.8716C-28.9664 12.6261 -28.3984 8.48524 -28.2956 8.22915C-27.4937 6.22748 -26.8584 12.711 -26.7807 13.0637C-25.9141 16.8686 -25.171 12.399 -24.9062 12.0741C-23.7057 10.5856 -22.5233 11.4157 -21.5023 10.3436C-20.8312 9.65006 -21.0747 5.3903 -20.4964 5.47939C-18.5797 5.77438 -17.5199 11.6662 -16.0959 6.39757C-15.7907 5.2742 -16.4768 0.645972 -14.8643 4.21434C-14.7629 4.43922 -13.5315 7.72062 -13.0773 5.56656C-13.02 5.29492 -13.1073 3.9388 -13.0165 3.81874C-12.4085 3.041 -11.9009 4.09458 -11.2196 3.53469C-10.5329 2.97454 -9.71033 2.15319 -8.86518 2.56894C-8.34909 2.81682 -7.58729 5.31247 -7.31765 5.91944C-6.56124 7.66869 -5.98692 4.71003 -5.47179 6.85091C-4.95863 9.00294 -5.61158 12.3362 -4.47114 13.6904C-4.58776 10.1615 -4.65463 6.53712 -4.74358 2.98698C-2.82868 3.00149 -0.890835 3.66283 1.05 3.84927C1.58079 3.89932 2.10359 3.91508 2.64938 3.87524C2.96579 3.84867 2.6187 1.95435 2.96135 1.87727C4.43675 1.56343 5.75055 2.91684 7.50126 2.45219C8.85818 2.0902 10.6385 0.190588 12.7075 -7.51809e-06C13.2283 4.19238 16.275 3.23314 19.4869 5.27022C20.5553 5.9886 19.9361 6.89241 20.5128 7.68878C22.6319 10.929 23.6046 7.26547 24.9255 7.69199C27.8921 9.02738 27.7502 11.7504 26.8219 13.8236C25.9119 16.0055 24.3956 17.7779 24.6439 19.6865C24.717 19.7922 28.9644 22.4996 29.1423 22.9489C30.5837 25.3719 27.6192 23.1423 27.1109 24.2824C26.5029 25.5219 25.7397 26.2002 25.4086 27.1206C25.2271 27.6126 25.1753 28.2182 25.3984 28.9382C25.5821 29.5131 27.6134 31.6349 25.3725 31.5573C25.0799 31.5462 23.8034 30.9127 23.6926 30.9564C21.808 31.7515 25.8455 33.6548 26.8469 35.0759C27.8391 36.509 24.5338 36.2211 23.6352 36.0286C21.2966 35.5596 22.9664 35.1638 22.7792 35.0317C20.5465 33.4808 20.5823 34.4529 20.0913 34.9269C16.1257 33.0501 15.9677 33.9547 19.6034 35.4158C20.0012 35.574 19.8549 34.9517 20.0913 34.9269C23.6914 37.3514 23.752 38.4585 19.6954 37.5871C17.795 37.1799 16.0166 35.8083 16.0998 37.4727C16.1408 38.2225 18.9714 39.3053 19.4774 40.1578C20.6428 42.0796 17.4526 42.3146 17.4441 43.5571C17.4478 43.9917 19.1293 44.2286 19.1906 44.5339C19.3693 45.3218 18.0117 45.4546 18.4555 46.1886C18.4993 46.2509 20.1895 46.6374 20.168 46.7891C20.107 47.3578 19.8176 47.672 19.5418 47.8145C19.2605 47.9438 19.0266 47.921 18.94 47.4225C18.8955 47.1919 19.0309 46.6446 18.9156 45.8894C18.816 45.1482 18.4473 44.3248 18.0244 44.0262C17.8893 43.9258 17.7391 43.8467 17.584 43.7913C15.9927 43.3454 16.0323 45.9004 17.069 45.5888C17.7915 45.4063 18.1506 43.6998 18.7009 42.6303C19.6848 40.5376 19.7913 44.7427 19.8946 45.4049C19.8938 45.4277 19.1314 45.6898 19.3197 46.6347C19.1805 48.4953 19.8898 45.412 19.8946 45.4049C19.9035 45.8313 21.3289 46.4697 21.6937 46.1797C21.8849 46.0241 22.0197 44.3869 22.1125 44.3359C24.3092 43.1577 26.4603 42.9117 28.7462 43.7903C28.7857 43.8254 28.6353 45.6548 28.7305 45.7144C30.0728 46.5932 31.054 44.3768 32.2203 43.071C33.3922 41.7646 34.2846 42.2194 34.9636 45.3736C35.8542 44.9841 37.1418 46.3759 37.9054 47.2165C38.6654 48.0574 38.7427 44.485 38.809 44.4141C40.8462 42.1375 42.0743 44.1617 44.2883 44.4423C45.3385 44.5816 47.4358 44.0256 48.6294 43.6192C49.5502 43.2921 50.1433 44.1223 51.0356 43.5817C51.1579 43.5096 51.0252 41.9203 51.0624 41.8589C52.0725 39.9522 51.5941 43.8416 51.8023 44.5351C52.3133 46.2426 52.7059 47.4111 53.2838 47.6248C53.579 47.7272 53.9216 47.6118 54.3518 47.2356C54.6526 46.9684 55.7172 41.3952 56.4132 41.0963C57.2754 40.7178 56.8397 42.7039 57.7836 42.27C57.8659 42.2356 57.916 40.9965 58.4995 41.0911C59.904 41.3182 61.4005 41.6674 63.6865 42.3199C64.8243 42.6628 66.1978 43.052 68.2133 43.9386C70.1232 44.8939 73.5253 46.1989 76.9773 51.2116C77.8292 52.5718 78.1194 52.1816 78.5397 51.8866C78.9218 51.6146 79.5632 51.4205 80.6111 53.9453C82.9843 60.2552 81.7259 65.2441 80.9623 67.7345C80.0872 70.389 79.2465 71.7546 78.5402 72.8725C77.0999 75.0406 75.987 76.0024 74.8245 76.7492C74.2573 77.0877 73.4269 75.9245 73.0258 75.7727C70.6163 74.8315 72.7553 77.8639 72.6929 78.0441C72.6718 78.1149 72.6498 78.1844 72.6268 78.2528C71.3979 82.0681 67.4021 81.8522 66.4726 85.2676C66.4189 85.4682 68.4953 88.9583 65.6085 87.2676C65.4176 87.1535 62.4554 85.4321 63.9086 87.2947C64.0008 87.4098 65.5586 88.2525 65.0362 88.6059C64.5113 88.9634 64.8211 90.4203 62.8426 89.8473C62.2231 89.6617 59.1773 88.0885 60.878 90.2894C60.9734 90.4711 65.2625 94.8722 61.6834 92.6865C61.0968 92.3242 57.4928 89.7379 58.9213 91.6672C59.2059 92.0317 60.1596 92.3859 60.4725 93.0244C60.9778 93.9728 59.6167 93.9127 61.1598 95.1976C61.4176 95.4513 64.0114 96.9786 61.9866 95.9273C61.6642 95.773 60.333 95.1281 60.1768 95.0714C59.6126 94.8374 60.212 94.8148 60.3697 92.7447C60.4106 91.942 60.3159 90.9329 59.8988 89.8289C59.3149 88.4181 57.1038 89.5435 56.1554 88.5126C55.1769 87.3594 53.4853 86.0286 53.7037 84.8077C53.8374 83.4606 57.1232 81.2244 56.0935 80.0155C53.9249 77.7566 53.8183 78.4288 54.338 78.9095C54.8778 79.4823 56.0758 80.3136 57.4754 80.6029C57.8963 80.6893 57.665 79.3016 58.2903 79.3268C59.4971 79.3718 61.316 79.0974 63.1795 79.1951C65.1603 79.294 67.0635 79.7591 68.3296 81.1876C70.4407 83.5531 67.6874 85.2628 69.3165 86.2415C70.0984 86.7083 71.0527 82.2965 71.2491 82.1611C73.1519 80.7831 74.4191 82.7721 76.1377 82.2065C76.4921 82.0891 76.1857 80.2864 76.4867 80.2063C77.5056 79.9167 78.5824 80.7422 79.5569 80.6181C79.9931 80.5583 79.9505 79.1854 80.3558 79.3009C81.3295 79.5615 82.1651 80.1589 83.0926 81.4692C83.176 81.5885 82.5472 83.2787 83.2666 83.3611C84.421 83.4896 85.8363 84.7984 87.2452 83.5338C87.6608 83.1533 87.7789 80.0204 88.5734 82.2138C88.7425 82.6723 88.3764 86.425 89.5099 83.2119C89.687 82.6769 91.6039 78.3608 92.3275 81.2241C92.5132 81.977 92.9617 85.0803 93.4737 84.6204C93.5446 84.5465 93.356 82.8517 93.7747 82.7075C95.2547 82.2294 96.8045 82.4958 98.3801 82.0749C98.8129 81.9603 98.3012 80.1783 98.9459 80.0637C100.691 79.7439 102.905 80.3774 104.713 81.137C105.368 81.4193 104.729 82.7977 104.761 82.9595C105.235 85.5879 106.163 82.2344 106.469 82.0729C108.415 81.1302 109.534 82.9455 111.645 82.9824C112.242 83.0045 112.214 81.3097 112.364 81.1941C114.015 80.1235 112.333 82.748 113.055 83.2704C114.085 84.0265 115.383 84.6087 117.122 85.4068C118.921 86.3338 121.369 87.0639 125.085 90.8444C126.442 92.358 126.757 92.0865 127.034 91.6033C127.312 91.1856 127.522 90.5046 128.842 92.4622C129.693 93.785 130.467 95.3203 131.048 97.0003C133.775 105.463 131.716 110.699 130.501 113.886C129.091 117.129 127.517 119.045 125.95 120.512C125.321 121.078 124.403 119.817 124.033 119.765C121.498 119.32 123.194 122.355 123.197 122.839C123.313 124.923 121.934 124.531 121.29 125.625C120.975 126.16 120.635 126.678 120.269 127.184C117.257 131.454 112.821 134.388 109.772 136.471C105.401 139.447 101.62 140.977 99.9628 143.521C99.8681 143.669 101.484 144.779 101.429 144.914C101.061 145.727 100.762 146.124 100.775 145.977C100.772 145.841 101.124 145.02 101.474 143.595C101.525 143.351 103.365 143.808 103.507 143.349C103.819 142.388 103.505 141.015 102.712 140.472C102.337 140.216 100.946 141.098 100.615 140.892C100.315 140.728 100.09 140.606 99.9401 140.497C97.1363 135.283 95.1809 134.839 94.5643 134.052C94.0689 133.604 95.8889 132.478 95.1623 132.032C94.6264 131.711 94.4304 131.615 94.3703 131.564C94.3184 131.52 94.4115 131.538 94.5674 131.577C94.8972 131.663 95.4685 131.839 96.1403 132.099C97.4721 132.617 99.1178 133.462 100.81 134.97C101.035 135.176 100.672 139.015 101.366 138.373C101.568 137.323 101.751 136.08 101.938 134.954C107.576 135.165 113.433 137.088 119.536 137.826C119.797 137.857 119.519 135.786 120.026 135.835C122.901 136.112 125.761 135.77 128.623 138.014C128.902 138.233 128.485 141.799 129.398 141.322C129.558 141.234 130.922 140.853 131.327 140.101C131.382 139.987 131.257 138.299 131.691 138.281C134.159 138.201 136.761 138.759 139.174 139.939C139.563 140.133 139.022 141.885 139.299 142.038C141.285 143.115 143.564 141.899 145.421 143.633C146.65 144.8 145.986 147.847 146.498 150.917C146.571 151.351 147.382 151.467 147.32 153.231C147.166 157.669 146.479 162.497 146.361 167.229C146.334 168.248 147.507 167.218 146.705 169.638C146.649 169.8 145.799 170.568 145.553 171.39C145.382 171.958 145.521 173.765 145.198 174.486C144.874 175.207 144.658 173.686 144.146 174.526C143.635 175.376 143.711 177.426 142.784 177.612ZM41.376 50.9593C42.1124 52.664 42.1227 46.3822 41.3809 47.8956C41.3451 47.9762 41.3382 50.8757 41.376 50.9593ZM0.258346 8.817C0.646375 9.82651 0.960836 9.91215 1.17308 9.51105C1.54394 8.82199 1.61559 6.69512 1.13973 5.35236C1.11939 5.29512 1.09922 5.2429 1.07927 5.19547C0.36674 3.48433 -0.0583367 8.00807 0.258346 8.817ZM-9.63169 11.2716C-8.39644 13.3897 -8.70295 4.48649 -9.8151 6.35219C-9.87934 6.45776 -9.70384 11.1487 -9.63169 11.2716ZM143.223 151.584C143.227 151.668 143.809 151.785 143.829 151.703C144.263 149.731 143.1 149.498 143.223 151.584ZM-19.2554 14.1053C-18.8268 15.2824 -17.9282 13.8246 -18.4635 12.3605C-18.896 11.1827 -19.7925 12.6412 -19.2554 14.1053ZM55.1124 73.5719C55.0344 73.5189 54.6964 73.7804 55.102 74.1203C56.4096 75.2132 56.4252 74.4609 55.1124 73.5719ZM-35.7652 15.4803C-33.2996 15.6197 -31.2408 22.8367 -33.9585 22.2203C-34.451 22.1089 -33.1091 19.7989 -33.7735 19.1865C-34.9889 18.0711 -35.3637 22.7353 -36.7036 20.3591C-36.9464 19.924 -35.9067 15.456 -35.7617 15.4697C-35.7629 15.4733 -35.7641 15.4768 -35.7652 15.4803ZM41.8937 58.4971C41.9066 58.58 42.494 58.65 42.5062 58.5674C42.7906 56.5689 41.6165 56.4266 41.8937 58.4971ZM40.8578 95.2278C40.6775 95.417 41.9916 97.2309 42.1833 97.0942C44.8251 95.2047 43.3825 93.0118 40.8578 95.2278ZM1.86439 50.0233C-0.275911 49.3712 -0.558953 47.8972 1.99119 47.3126C1.83026 48.163 1.84458 49.0617 1.86439 50.0233Z" fill="#FAC566"/>
</svg>
