<svg width="778" height="68" viewBox="0 0 778 68" fill="none" xmlns="http://www.w3.org/2000/svg">
<path d="M6.78631 12.2048C11.1431 11.3642 16.952 11.3129 21.3919 11.5646C22.7844 11.6412 22.1695 12.6015 23.1346 12.6949C25.019 12.8766 26.7061 12.2809 28.5784 12.5316C29.1993 12.6191 28.5701 14.1088 29.2182 14.168C32.7604 14.4831 36.0341 13.8249 39.5958 13.8124C57.1477 13.7524 74.3329 12.8017 92.0353 12.0054C97.8762 11.7409 105.042 12.4657 111.024 11.4295C111.718 11.3076 111.203 10.0911 111.328 9.97776C113.295 8.23844 112.797 10.8144 114.19 11.0431C119.734 11.9429 125.755 11.6012 130.964 10.7295C133.163 10.3564 130.756 8.03925 133.094 9.26696C133.256 9.34961 132.79 10.7181 133.41 10.8146C134.81 11.0312 137.442 10.6 138.505 10.6285C140.58 10.6882 140.921 10.6502 142.881 10.5244C145.564 10.3639 148.766 10.7997 151.626 10.2974C152.23 10.1867 151.328 8.88245 152.284 8.58303C153.239 8.28386 155.831 8.22005 156.729 8.48066C157.626 8.74134 157.327 9.83647 157.498 10.071C158.917 12.052 161.688 8.98426 162.074 8.88716C169.012 7.20431 175.122 8.44377 181.711 8.01977C186.708 7.69483 192.022 6.82463 196.779 6.61168C201.503 6.40443 205.624 6.68695 210.08 6.53113C210.969 6.50034 211.871 6.45169 212.794 6.37761C213.373 6.3327 212.602 4.77044 213.31 4.71236C220.858 4.09557 228.337 3.86252 235.914 4.55121C236.671 4.62186 235.776 6.07841 236.537 6.2331C241.211 7.14697 248.621 9.55924 251.064 3.30343C254.181 3.39042 258.014 3.45495 260.846 4.55979C262.681 5.27035 261.005 6.88381 263.185 6.12742C263.677 5.95868 262.966 4.64683 263.709 4.49528C266.851 3.85795 270.289 4.14015 273.384 3.30937C274.013 3.13727 273.787 1.94244 273.958 1.718C275.399 -0.102349 278.025 2.6888 278.584 2.87607C282.827 4.26854 285.839 3.52453 289.73 3.40607C290.633 3.37936 289.501 1.8068 290.368 1.7231C294.857 1.31123 299.541 1.27022 303.965 1.82517C304.951 1.95246 304.1 3.36184 304.574 3.49311C306.663 4.05543 307.027 1.43948 309.032 1.93019C309.454 2.03041 309.261 3.21699 309.341 3.34368C310.603 5.33263 311.537 2.41826 311.841 2.34401C315.69 1.34066 318.277 4.26194 322.005 3.71475C322.452 3.64631 321.393 2.18803 322.651 2.08685C331.038 1.40416 339.938 1.55658 348.281 2.53833C349.578 2.689 348.684 3.83264 348.769 3.96867C350.148 6.09291 350.933 3.18068 351.352 3.06141C354.659 2.19575 357.818 4.54922 360.001 1.05548C374.108 1.93909 388.116 -0.220227 402.117 2.74102C402.295 2.77519 401.99 4.20229 402.344 4.26433C406.609 5.0279 405.779 2.82173 408.585 0.0945301C409.293 -0.590283 411.475 2.66552 411.667 2.90425C412.368 3.78335 411.658 5.90631 411.892 6.07603C413.823 7.40864 413.48 0.401977 416.091 0.38883C416.173 0.40019 415.835 1.69141 416.054 1.81879C416.736 2.21874 417.409 1.70378 418.075 2.14565C419.602 3.16844 420.145 6.57173 422.467 4.58595C422.762 4.32846 422.306 0.353276 424.638 0.538909C425.57 0.615599 429.671 0.549025 430.826 0.809489C431.979 1.06885 431.185 2.3484 431.267 2.40401C434.366 4.10455 433.188 4.80425 434.73 7.31653C436.27 9.82008 435.862 3.86008 436.496 3.1974C437.131 2.53643 439.393 3.94464 439.952 4.43379C440.508 4.92288 439.807 5.73303 440.302 6.01079C443.58 7.82712 441.764 3.06174 442.854 2.1228C445.427 -0.0994077 447.377 4.33576 449.716 4.79105C450.348 4.9141 449.841 3.90268 450.406 3.81409C452.646 3.47713 453.957 4.87039 456.518 3.63802C456.937 3.4371 459.032 0.807464 460.332 2.77645C460.516 3.06031 459.966 4.15359 460.913 4.4141C462.324 4.80473 464.878 5.08617 466.416 4.74508C467.549 4.49256 466.288 2.65545 467.698 3.2443C468.325 3.50734 467.137 4.54751 468.314 4.95325C469.486 5.35834 472.485 5.37056 473.643 5.35879C474.79 5.34556 474.192 3.95624 474.286 3.86548C474.859 3.34603 477.073 2.73134 477.266 2.7377C478.224 2.74313 479.173 2.7729 480.113 2.82179C488.843 3.27483 496.976 5.35236 505.591 4.99494C506.344 4.96614 505.901 3.49622 506.017 3.47687C508.609 2.97123 506.433 6.74644 508.168 8.10917C508.029 5.15585 509.064 5.73091 510.873 5.48404C511.744 5.36282 511.322 4.20341 511.406 4.09011C512.767 2.41431 513.58 4.68991 513.79 5.15727C514.571 6.87705 515.589 4.93153 516.119 6.08228C516.647 7.22462 515.24 8.81769 516.964 8.87568C517.496 7.84483 516.343 5.03315 517.673 4.64779C522.717 3.18436 531.869 5.83476 535.825 6.29815C539.807 6.75757 541.058 6.64306 543.374 7.17144C547.519 8.12947 546.115 5.99053 548.768 5.2299C551.442 4.47409 549.831 9.40624 550.131 10.5104C550.425 11.614 550.903 10.5319 551.319 11.1565C551.733 11.7809 550.697 12.4454 551.75 12.7427C552.807 13.0393 555.847 11.3312 556.311 10.2324C557.293 7.90334 556.154 5.29688 558.938 6.39069C559.098 6.45527 558.468 7.73418 559.084 7.9146C563.953 9.30273 569.081 9.78257 573.972 11.115C574.639 11.2999 573.904 12.7124 574.29 12.8366C578.296 14.1371 577.065 11.5378 579.58 8.99998C578.734 12.6058 579.79 14.9525 582.881 15.2688C584.751 15.4627 584.59 13.8384 585.916 12.8336C586.315 12.5305 587.533 13.7565 587.847 13.031C588.884 10.6607 587.909 7.7897 591.018 9.20933C591.155 9.27582 590.564 10.5702 591.048 10.7019C594.173 11.562 594.795 9.03705 598.259 9.09918C600.981 9.14813 605.569 11.2523 608.573 11.8729C608.011 15.9577 610.997 15.3682 612.517 12.6937C614.475 13.0545 616.621 13.1669 618.488 13.8084C619.127 14.0275 618.54 15.1545 618.606 15.2932C619.607 17.466 620.819 14.8384 621.257 14.7879C626.036 14.3693 629.485 16.9791 634.168 15.6124C634.335 15.5631 635.023 12.7696 635.889 15.0175C635.942 15.1717 634.293 16.2371 636.347 16.6541C638.382 17.0679 642.054 19.2057 645.112 18.373C645.862 18.1738 648.018 16.1794 649.107 18.212C649.251 18.4873 648.908 19.2615 649.098 19.7583C649.705 21.3421 650.7 18.5771 651.299 21.1809C651.911 23.7873 653.648 25.9665 656.844 24.8396C656.943 24.8082 658.047 22.6805 658.937 22.8872C660.338 23.2147 662.336 24.0917 663.817 24.3739C664.531 24.509 664.356 23.0206 664.485 23.0199C669.506 23.2209 672.652 25.1888 677.691 26.9111C678.585 27.2222 681.788 25.9799 683.225 27.9163C683.453 28.2218 683.57 28.6141 683.618 29.0601C683.916 31.7149 681.832 36.2487 686.003 35.8441C687.97 35.6652 692.602 27.7061 694.689 33.0722C701.372 33.7829 706.498 37.8632 713.257 38.5464C713.563 38.579 715.271 36.561 715.943 36.8435C716.921 37.26 717.054 38.5457 717.72 38.8777C720.532 40.3109 723.541 40.4446 726.284 41.7654C727.32 42.2646 726.478 43.2057 727.701 43.8047C728.937 44.4124 730.379 43.3228 731.774 44.7909C732.809 45.899 732.711 49.4044 734.173 50.523C735.601 47.6851 736.738 48.2953 739.118 48.5488C739.583 48.6001 739.659 47.4004 739.905 47.374C740.921 47.2466 741.199 48.4174 742.189 48.2297C742.429 48.1861 742.934 47.2257 743.162 47.1374C745.13 46.3538 745.958 49.5667 746.092 50.1247C746.609 52.2418 747.881 51.3336 748.557 52.4398C749.22 53.5408 747.379 53.4175 748.321 54.3899C750.276 56.4054 753.327 58.0017 755.627 59.4721C756.552 60.0553 756.675 58.4311 756.825 58.4858C758.954 59.3622 760.05 61.8831 762.668 60.1347C759.954 67.2608 764.215 60.2604 766.121 63.2941C766.269 63.5365 764.598 66.6593 763.501 66.5587C762.409 66.4613 761.77 64.7288 760.203 64.6825C759.829 64.6659 756.522 66.4792 756.212 66.5217C753.754 66.8214 756.312 62.2096 756.376 61.9067C757.026 58.6285 753.251 60.499 752.629 60.4149C749.767 60.0094 748.181 58.2345 745.851 57.848C744.329 57.5917 742.531 60.5459 741.609 59.9203C738.53 57.8554 739.529 52.9481 734.497 55.1081C733.425 55.5761 732.442 59.2861 731.331 55.4568C731.275 55.2207 730.594 51.8935 728.831 52.978C728.609 53.1145 728.155 54.1167 727.944 54.1217C726.531 54.1348 726.123 52.9918 724.677 52.8175C723.215 52.6368 721.471 52.5752 720.138 51.624C719.353 51.0593 718.969 48.6967 718.716 48.0565C718.035 46.2299 715.871 47.9357 715.725 46.0086C715.579 44.0725 718.046 42.146 716.402 40.3137C715.325 42.9627 714.128 45.6473 713.009 48.2978C708.685 46.5842 704.613 44.2286 700.063 42.9439C699.501 42.7887 699.615 44.4325 699.002 44.305C696.394 43.7562 694.499 42.0559 691.754 41.7359C689.594 41.4853 686.965 42.4598 684.693 42.2939C684.396 40.0596 682.869 39.3553 681.184 38.9155C680.256 38.6725 679.281 38.5142 678.455 38.2056C677.654 37.9082 677.91 37.0716 677.383 36.6543C675.419 35.1115 675.798 38.1695 675.093 38.4725C672.074 39.7717 673.282 33.3364 670.146 32.8169C669.98 32.7863 667.222 35.7615 666.92 35.9209C664.892 36.9413 666.884 34.6725 665.843 34.1917C663.929 33.3132 662.692 32.2119 660.133 32.7488C659.381 32.9088 657.311 34.7207 656.301 32.8189C656.166 32.5694 656.477 31.4553 656.348 31.3622C653.984 29.7727 653.223 33.3184 651.563 34.2617C649.896 35.2041 648.05 32.3404 647.705 31.5495C646.82 29.5034 648.772 30.9269 648.875 30.7602C650.034 28.7544 648.278 28.8242 647.055 28.4272C647.478 24.8961 645.651 24.8004 645.768 28.0275C645.784 28.3803 646.829 28.2233 647.055 28.4272C645.358 31.6695 643.318 31.7743 641.701 28.2097C640.936 26.5391 642.191 24.9369 638.983 25.081C637.523 25.1464 637.682 27.6469 636.354 28.1131C633.316 29.1757 629.992 26.3709 627.008 26.3065C625.923 26.2829 626.773 27.7564 626.025 27.7862C624.071 27.8745 622.524 26.6454 620.509 26.891C620.327 26.915 620.569 28.3615 619.962 28.2974C615.431 27.85 611.573 26.453 606.813 25.8555C604.529 25.5679 600.313 25.8593 597.955 25.4439C593.843 24.7237 588.96 22.1698 585.376 22.316C583.028 22.4044 583.396 23.8492 582.314 24.704C580.254 26.3641 577.177 22.7519 576.759 22.1994C576.747 22.181 578.775 22.035 577.775 21.221C577.291 19.6716 576.782 22.195 576.759 22.1994C576.472 21.8388 572.559 21.1715 571.735 21.371C571.292 21.4797 571.419 22.8232 571.19 22.8549C565.77 23.5809 560.452 23.4968 555.077 22.4808C554.985 22.4471 555.235 20.9764 555.016 20.9158C551.96 20.0311 549.8 21.7023 547.16 22.6051C544.526 23.5085 542.503 23.0174 541.125 20.3763C539.172 20.5747 536.448 19.2814 534.867 18.5046C533.282 17.7273 532.909 20.6023 532.762 20.6509C528.265 22.2286 525.791 20.4398 521.227 19.9552C519.03 19.718 514.729 19.9376 512.337 20.1511C510.445 20.3237 509.377 19.6008 507.637 19.9633C507.403 20.0117 507.585 21.3073 507.512 21.3539C505.534 22.8153 506.581 19.7085 506.207 19.1311C504.852 17.0323 503.985 15.9085 501.505 16.7786C500.93 16.9775 499.118 21.4454 498.075 21.6743C496.719 21.9636 497.283 20.358 495.857 20.7033C495.735 20.7315 495.724 21.7334 494.864 21.6607C490.866 21.3362 486.475 20.6235 482.292 20.6162C481.719 20.6114 482.413 22.2188 481.584 22.238C480.946 22.2527 480.297 22.2608 479.64 22.2605C476.339 22.2597 472.829 22.0409 469.697 21.3594C468.773 21.1537 469.376 20.0523 469.18 19.7182C467.979 17.696 466.165 20.569 465.874 20.6195C458.931 21.8978 453.677 19.2032 446.589 20.3941C446.205 20.464 443.233 23.5549 441.93 20.8769C441.841 20.6987 440.549 17.9586 439.381 19.8206C439.308 19.9371 440.117 21.3477 438.694 21.1971C437.276 21.047 434.994 21.9771 433.044 20.4269C432.429 19.9385 430.962 17.2096 429.119 19.3801C428.997 19.5313 426.155 24.442 425.138 21.0539C424.972 20.4963 425.143 16.909 422.939 18.7505C422.518 19.1076 423.284 19.9064 422.175 20.4077C420.478 21.1803 418.231 20.2257 416.149 21.8317C415.785 22.1159 414.247 24.5567 412.994 22.7155C412.798 22.4271 413.161 21.2279 412.505 21.0973C409.387 20.471 406.115 21.2948 402.942 20.4939C401.817 20.2127 402.374 18.272 401.198 17.764C400.022 17.2561 397.654 16.7811 396.435 17.6792C395.217 18.5776 396.591 21.6474 394.76 21.915C386.798 23.0786 378.869 21.3912 370.891 21.2782C369.707 21.2614 370.708 22.346 368.967 22.4009C362.547 22.6048 351.488 23.898 345.853 21.7033C341.336 19.9437 346.921 18.3644 343.485 17.6912C341.824 17.3709 340.139 21.0057 339.745 21.1297C335.895 22.3849 333.146 20.8764 329.664 21.4702C328.945 21.5934 329.698 23.0247 329.086 23.1136C326.999 23.4299 324.767 22.8512 322.766 23.0348C321.868 23.1205 322.07 24.2248 321.24 24.1662C319.256 24.0389 317.489 23.6312 315.52 22.6572C315.34 22.5685 316.481 21.1475 315.012 21.1464C312.634 21.1486 309.66 20.226 306.961 21.3849C306.162 21.7331 306.223 24.2699 304.418 22.5828C304.04 22.2305 304.392 19.1681 302.464 21.8746C302.142 22.3241 298.864 26.0015 297.106 23.7792C296.642 23.1942 295.419 20.7465 294.461 21.1763C294.332 21.2439 294.914 22.5851 294.113 22.7496C291.291 23.3059 288.291 23.2816 285.396 23.8289C284.622 23.9778 285.839 25.3388 284.685 25.5158C281.492 26.0052 277.502 25.8167 274.349 25.5137C273.187 25.3993 273.934 24.1969 273.844 24.0736C272.401 22.0672 271.727 24.8915 271.287 25.074C268.552 26.1719 266.371 24.9587 263.817 25.4243C263.113 25.5493 263.677 26.8555 263.542 26.9806C262.135 28.2069 263.112 25.7686 262.175 25.5485C259.56 24.9237 256.656 25.169 254.048 25.4658C253.089 25.5769 254.244 27.0658 253.384 27.1477C248.283 27.662 242.968 27.7819 237.925 27.1923C236.978 27.0784 237.506 25.8609 237.297 25.6C235.852 23.7736 234.011 26.4645 233.564 26.7353C231.548 27.9704 230.688 26.964 228.875 27.2581C223.481 28.1433 217.26 28.4651 211.352 28.5986C207.49 28.6875 203.825 28.6936 200.483 28.725C189.47 28.8321 180.878 28.2426 170.427 29.2277C169.763 29.2889 170.538 30.8219 169.967 30.8949C162.588 31.7669 155.278 31.6504 147.881 32.6341C147.277 32.7119 148.257 34.1445 147.292 34.3196C145.321 34.6885 142.75 34.7918 140.703 34.4609C139.702 34.3024 140.929 32.9238 139.923 32.7906C137.578 32.4779 135.07 32.5553 132.724 32.9705C131.724 33.1507 133.361 34.5659 132.047 34.6815C123.099 35.5003 114.327 36.4426 105.114 35.1864C104.48 35.1002 103.685 32.0385 102.412 32.74C102.382 33.6098 102.469 34.6231 102.5 35.5477C89.5097 37.09 76.5004 37.0986 63.4038 38.0655C62.8526 38.1066 63.9464 39.6686 62.8805 39.7564C56.6928 40.2685 50.737 41.2512 44.2682 40.1787C43.6282 40.0745 43.691 37.1535 41.8787 37.7557C41.5587 37.8646 38.8078 38.4987 38.1455 39.1909C38.0562 39.2943 38.6848 40.5989 37.7913 40.7184C32.5878 41.3903 27.1014 41.5738 21.8127 41.2206C20.96 41.1609 21.725 39.6424 21.1165 39.5875C16.7991 39.2087 12.2761 40.721 8.09758 39.7848C5.29937 39.153 6.07985 36.5768 4.41296 34.2622C4.17725 33.9357 2.48893 34.0341 2.27252 32.6189C1.72373 29.0609 2.1829 25.0685 1.50159 21.2847C1.3562 20.4696 -0.817786 21.5594 0.336499 19.4527C0.417656 19.3114 1.99228 18.5039 2.33371 17.7938C2.5717 17.3027 1.93499 15.9013 2.45276 15.2533C2.97055 14.6058 3.70929 15.7618 4.59406 14.9753C5.47766 14.1802 4.91129 12.5716 6.78631 12.2048ZM527.78 15.0471C526.351 13.5808 525.863 18.6468 527.549 17.5181C527.631 17.4575 527.854 15.1192 527.78 15.0471ZM705.812 40.6272C704.693 37.8965 702.405 40.6327 703.172 42.6969C703.915 44.7548 706.143 41.4534 705.812 40.6272ZM725.114 46.1171C723.703 43.6042 720.629 50.1362 723.382 49.7104C723.54 49.6878 725.195 46.2629 725.114 46.1171ZM11.0485 32.9571C11.0217 32.8918 9.8057 32.9361 9.78286 33.0054C9.2846 34.6721 11.716 34.5824 11.0485 32.9571ZM743.865 53.1392C743.693 51.9359 741.365 51.9825 741.578 53.4655C741.742 54.6516 744.066 54.6254 743.865 53.1392ZM449.756 7.27347C449.733 7.19744 448.861 7.12101 448.875 7.54948C448.921 8.92934 450.138 8.55161 449.756 7.27347ZM772.911 71.0953C768.873 68.0373 769.603 61.3682 773.841 65.0206C774.606 65.6815 770.987 65.389 771.747 66.5474C773.135 68.6603 776.513 66.4323 777.361 69.4266C777.511 69.9716 773.134 71.2802 772.899 71.0972C772.903 71.0966 772.907 71.096 772.911 71.0953ZM527.237 8.9023C527.207 8.83322 526.014 8.70683 525.981 8.77199C525.248 10.35 527.656 10.6057 527.237 8.9023ZM398.9 4.1619C398.833 4.01898 396.028 3.91444 395.937 4.04778C394.505 6.70269 400.171 6.92167 398.9 4.1619ZM608.607 11.9878C610.09 10.5301 611.724 10.5378 612.511 12.6909C611.226 12.422 609.885 12.2419 608.607 11.9878Z" fill="#EB6F20"/>
</svg>
