<svg width="310" height="428" viewBox="0 0 310 428" fill="none" xmlns="http://www.w3.org/2000/svg">
<path d="M180.505 34.4199L223.484 129.937L274.37 280.735L204.961 405.621L68.0148 399.7C24.1084 380.826 -42.976 329.915 -42.0841 324.107C-41.1918 318.3 -78.8663 243.293 -73.6516 196.007L-37.1405 120.133L24.8233 117.097L65.062 92.0179L91.1884 77.0706L125.433 25.9591L180.505 34.4199ZM117.782 82.4366L111.205 125.243L156.21 150.862L186.435 124.245L175.699 72.3734L147.412 68.0276L117.782 82.4366Z" fill="#FAC566"/>
<path d="M30.1998 228.874L46.8676 193.768C34.3877 182.711 6.72447 160.183 -4.08973 158.522C-14.9039 156.86 -29.3627 172.917 -35.2403 181.153L-15.7425 234.371L30.1998 228.874Z" fill="#034E96"/>
<path d="M104.694 297.716C94.244 292.352 71.8913 281.402 66.0837 280.509L34.8527 286.986L11.0372 303.57L26.3535 342.308L77.9212 350.231L104.694 297.716Z" fill="#D04023"/>
<path d="M204.561 334.838C197.181 330.835 183.436 326.126 177.485 324.273L132.202 348.833L168.448 383.1L208.863 371.885C210.503 361.204 211.94 338.842 204.561 334.838Z" fill="#369689"/>
<path d="M165.723 247.388L207.099 229.915C215.336 239.123 233.763 257.841 241.573 259.041C249.383 260.241 234.319 284.575 225.811 296.592L186.453 299.258L168.235 287.747L165.723 247.388Z" fill="#EB6F20"/>
</svg>
