<svg width="710" height="378" viewBox="0 0 710 378" fill="none" xmlns="http://www.w3.org/2000/svg">
<path d="M27.5686 0V37.8141H0L24.2866 52.3077L38.5085 85L42.775 54.0513L71 45.3333L44.6348 37.8141L27.5686 0Z" fill="#FCC766"/>
<path d="M223.905 177.047L255.112 155.692L270.681 178.443L268.927 150.215L287.875 120.016L259.924 133.973L236.79 115.603L245.474 141.608L223.905 177.047Z" fill="#FCC766"/>
<path d="M92.2751 224.06L76.6412 206.044L104.366 181.984L73.9495 196.275L46.1306 193.111L54.6353 211.579L29.8547 240.365L59.4781 220.938L92.2751 224.06Z" fill="#FCC766"/>
<path d="M396.609 109.197L440.464 79.1866L452.276 96.4483L458.679 69.739L490.5 34.8885L452.779 56.7789L430.575 46.0251L433.151 68.5008L396.609 109.197Z" fill="#FCC766"/>
<path fill-rule="evenodd" clip-rule="evenodd" d="M535.312 125.142L519.705 139.258L582.581 167.268L595.845 208.081C588.386 222.473 572.568 252.428 568.971 257.114C564.474 262.973 547.77 289.177 540.972 292.438C534.173 295.698 474.838 277.127 467.167 278.112C465.654 278.307 463.273 277.239 460.401 275.37L463.651 297.3C486.3 311.163 532.87 339.141 537.956 340.149C544.317 341.408 640.51 327.346 644.947 323.033C648.497 319.581 672.27 249.464 683.713 214.836L647.245 161.17L592.619 127.088L535.312 125.142Z" fill="#FCC766"/>
</svg>
