<svg width="380" height="367" viewBox="0 0 380 367" fill="none" xmlns="http://www.w3.org/2000/svg">
<rect width="378.301" height="366.281" transform="matrix(1 0 0.00206957 0.999998 0 0)" fill="#FAC566"/>
<path d="M29.952 29.621C29.9493 28.3476 29.7674 27.2539 29.4061 26.3398C29.0448 25.4179 28.5473 24.7109 27.9134 24.2187C27.2796 23.7187 26.5486 23.4687 25.7205 23.4687C24.9002 23.4687 24.1663 23.707 23.5188 24.1836C22.8792 24.6523 22.3728 25.3203 21.9996 26.1875C21.6342 27.0546 21.4527 28.082 21.4552 29.2695C21.4578 30.5273 21.6397 31.6171 22.001 32.539C22.3701 33.4609 22.8755 34.1718 23.5171 34.6718C24.1588 35.1718 24.9015 35.4218 25.7452 35.4218C26.5265 35.4218 27.233 35.1913 27.8649 34.7304C28.5046 34.2695 29.011 33.6054 29.3842 32.7382C29.7652 31.871 29.9545 30.832 29.952 29.621ZM33.2912 29.3281C33.2941 30.7343 33.0858 31.9921 32.6662 33.1015C32.2544 34.2109 31.69 35.1523 30.9728 35.9257C30.2557 36.6913 29.4366 37.2773 28.5155 37.6835C27.5945 38.0898 26.634 38.2929 25.634 38.2929C24.2902 38.2929 23.0473 37.957 21.9053 37.2851C20.7633 36.6054 19.8472 35.6171 19.157 34.3203C18.4668 33.0156 18.1198 31.4296 18.1159 29.5625C18.113 28.1562 18.3174 26.9023 18.7292 25.8007C19.1488 24.6914 19.7211 23.75 20.446 22.9765C21.171 22.2031 21.994 21.6133 22.915 21.207C23.8439 20.8008 24.8161 20.5976 25.8317 20.5976C27.1677 20.5976 28.3988 20.9375 29.5253 21.6172C30.6595 22.289 31.5677 23.2734 32.2501 24.5703C32.9403 25.8671 33.2873 27.4531 33.2912 29.3281ZM45.438 26.6445L44.9285 29.5976C44.4043 29.2304 43.9115 28.957 43.4502 28.7773C42.9967 28.5976 42.4692 28.5078 41.8676 28.5078C41.0551 28.5078 40.3683 28.8281 39.8071 29.4687C39.2538 30.1093 38.9783 31 38.9806 32.1406C38.9828 33.1718 39.2462 34.0078 39.771 34.6484C40.3035 35.2812 41.0073 35.5976 41.8823 35.5976C42.5854 35.5976 43.1907 35.4882 43.698 35.2695C44.2054 35.0429 44.7125 34.7265 45.2195 34.3203L45.577 37.1796C44.984 37.539 44.3635 37.8124 43.7154 37.9999C43.0674 38.1952 42.3059 38.2929 41.4309 38.2929C40.384 38.2929 39.4265 38.0585 38.5583 37.5898C37.6902 37.121 36.9973 36.4374 36.4798 35.539C35.9623 34.6328 35.7023 33.539 35.6996 32.2578C35.6971 31.039 35.9448 29.9453 36.4428 28.9765C36.9486 28 37.658 27.2304 38.5709 26.6679C39.4916 26.0976 40.5691 25.8125 41.8035 25.8125C42.5769 25.8125 43.2685 25.8945 43.8782 26.0586C44.4879 26.2226 45.0078 26.4179 45.438 26.6445ZM47.6758 32.0585C47.673 30.7148 47.9363 29.5781 48.4656 28.6484C49.0027 27.7187 49.7161 27.0156 50.6058 26.539C51.4954 26.0546 52.4675 25.8125 53.5222 25.8125C54.6316 25.8125 55.6087 26.0546 56.4534 26.539C57.2981 27.0156 57.9598 27.7187 58.4382 28.6484C58.9167 29.5781 59.1574 30.7148 59.1601 32.0585C59.1629 33.4023 58.8957 34.539 58.3586 35.4687C57.8293 36.3906 57.1198 37.0937 56.2302 37.5781C55.3405 38.0546 54.3684 38.2929 53.3137 38.2929C52.2121 38.2929 51.239 38.0546 50.3942 37.5781C49.5495 37.0937 48.884 36.3906 48.3977 35.4687C47.9192 34.539 47.6785 33.4023 47.6758 32.0585ZM50.957 32.0585C50.9593 33.1757 51.1682 34.0546 51.5836 34.6953C52.0068 35.3359 52.6207 35.6562 53.4254 35.6562C54.1832 35.6562 54.7802 35.3359 55.2164 34.6953C55.6604 34.0546 55.8812 33.1757 55.8789 32.0585C55.8766 30.9335 55.6638 30.0507 55.2406 29.4101C54.8252 28.7695 54.2152 28.4492 53.4105 28.4492C52.6527 28.4492 52.0518 28.7695 51.6078 29.4101C51.1716 30.0507 50.9547 30.9335 50.957 32.0585ZM72.4945 19.9531L71.9732 22.8828C71.2862 23.125 70.642 23.2773 70.0405 23.3398C69.4391 23.3945 68.865 23.4648 68.3183 23.5507C67.7716 23.6367 67.2369 23.8437 66.7141 24.1718C66.0977 24.5547 65.638 25.1172 65.3348 25.8593C65.0395 26.6015 64.842 27.4336 64.7423 28.3554C64.6505 29.2773 64.6055 30.207 64.6075 31.1445C64.6104 32.5585 64.8314 33.664 65.2706 34.4609C65.7175 35.2578 66.3199 35.6562 67.0777 35.6562C67.8434 35.6562 68.4404 35.3398 68.8687 34.707C69.3049 34.0742 69.5221 33.2968 69.5202 32.3749C69.5181 31.3749 69.325 30.5585 68.9409 29.9257C68.5568 29.2929 67.9702 28.9765 67.1811 28.9765C66.392 28.9765 65.6623 29.3125 64.9918 29.9843C64.3291 30.6484 63.7527 31.4843 63.2626 32.4921L62.5544 30.0312C62.9125 29.4296 63.3527 28.8476 63.875 28.2851C64.3972 27.7148 64.9939 27.25 65.6651 26.8906C66.344 26.5234 67.0819 26.3398 67.8788 26.3398C68.9178 26.3398 69.809 26.6132 70.5523 27.1601C71.2957 27.707 71.8674 28.414 72.2677 29.2812C72.6679 30.1406 72.869 31.0546 72.871 32.0234C72.8733 33.1328 72.6411 34.164 72.1743 35.1171C71.7075 36.0703 71.0333 36.8398 70.1517 37.4257C69.2779 38.0038 68.216 38.2929 66.966 38.2929C65.7473 38.2929 64.7115 37.9804 63.8586 37.3554C63.0136 36.7304 62.3711 35.8593 61.9313 34.7421C61.4915 33.6249 61.2701 32.3281 61.267 30.8515C61.2644 29.5937 61.383 28.3906 61.6228 27.2421C61.8626 26.0937 62.2823 25.039 62.8819 24.0781C63.4893 23.1093 64.3313 22.2812 65.408 21.5937C65.9464 21.25 66.5045 21.0039 67.0823 20.8554C67.6679 20.6992 68.2614 20.5898 68.8628 20.5273C69.4643 20.4648 70.0696 20.4023 70.6789 20.3398C71.2881 20.2695 71.8933 20.1406 72.4945 19.9531ZM75.5709 34.2499L75.5617 29.7851C75.56 28.9804 75.5429 28.2382 75.5102 27.5586C75.4854 26.8789 75.4413 26.375 75.3782 26.0468L78.8352 26.0468L78.8436 30.0898L82.0076 30.0898C83.1248 30.0898 84.051 30.2656 84.7861 30.6171C85.5212 30.9687 86.0729 31.4335 86.4413 32.0117C86.8097 32.582 86.9946 33.2109 86.996 33.8984C86.9987 35.2031 86.6063 36.2343 85.8188 36.9921C85.0391 37.7421 83.8328 38.1171 82.2 38.1171C81.786 38.1171 81.2625 38.1132 80.6297 38.1054C79.9969 38.1054 79.3406 38.0976 78.6609 38.082C77.9812 38.0742 77.3483 38.0624 76.7624 38.0468C76.1764 38.039 75.7233 38.0234 75.4029 37.9999C75.4647 37.6718 75.5067 37.1679 75.5287 36.4882C75.5585 35.8007 75.5726 35.0546 75.5709 34.2499ZM78.8489 32.6679L78.8547 35.4804C79.2532 35.5038 79.679 35.5195 80.1322 35.5273C80.5853 35.5351 81.0384 35.539 81.4916 35.539C82.9759 35.539 83.7171 35.0507 83.7151 34.0742C83.7143 33.707 83.5379 33.3828 83.1857 33.1015C82.8336 32.8124 82.2083 32.6679 81.3098 32.6679L78.8489 32.6679ZM88.5618 26.0468L92.0188 26.0468C92.0188 26.0468 92.0192 26.2343 92.02 26.6093C92.0207 26.9765 92.0217 27.4453 92.0229 28.0156C92.024 28.5781 92.0252 29.164 92.0265 29.7734C92.0278 30.375 92.0289 30.9218 92.0299 31.414C92.0309 31.8984 92.0316 32.2382 92.032 32.4335C92.033 32.9335 92.0421 33.5429 92.0592 34.2617C92.0841 34.9726 92.1129 35.6679 92.1456 36.3476C92.1861 37.0273 92.2302 37.5781 92.2779 37.9999L88.7623 37.9999C88.7623 37.9999 88.7618 37.789 88.761 37.3671C88.7601 36.9374 88.759 36.3984 88.7576 35.7499C88.7563 35.0937 88.7549 34.414 88.7534 33.7109C88.7519 32.9999 88.7506 32.3593 88.7494 31.789C88.7471 30.6484 88.7331 29.5625 88.7075 28.5312C88.6898 27.4921 88.6412 26.664 88.5618 26.0468ZM104.852 26.6093L106.73 28.0742L98.7806 37.4374L96.9261 36.0078L104.852 26.6093ZM95.7102 26.0468L98.7571 26.0468L98.7818 37.9999L95.8521 37.9999L95.8348 29.621C95.8331 28.8085 95.8277 28.0937 95.8186 27.4765C95.8095 26.8515 95.7734 26.375 95.7102 26.0468ZM107.922 37.9999L104.876 37.9999L104.851 26.0468L107.781 26.0468L107.798 34.4257C107.8 35.2304 107.805 35.9453 107.814 36.5703C107.831 37.1952 107.867 37.6718 107.922 37.9999ZM106.07 20.7734C106.073 21.9687 105.688 22.9336 104.916 23.6679C104.144 24.3945 103.106 24.7578 101.801 24.7578C100.481 24.7578 99.4372 24.3945 98.6701 23.6679C97.903 22.9336 97.5182 21.9687 97.5157 20.7734L100.152 20.7734C100.154 21.4062 100.311 21.8789 100.624 22.1914C100.937 22.4961 101.328 22.6484 101.797 22.6484C102.273 22.6484 102.664 22.4804 102.968 22.1445C103.28 21.8008 103.435 21.3437 103.434 20.7734L106.07 20.7734ZM121.028 28.3906L121.033 30.8515L123.259 30.8515C124.259 30.8515 124.907 30.7304 125.204 30.4882C125.508 30.246 125.66 29.9179 125.659 29.5039C125.658 29.1601 125.497 28.8789 125.177 28.6601C124.864 28.4414 124.242 28.332 123.313 28.332C123.102 28.332 122.836 28.3359 122.516 28.3437C122.203 28.3515 121.906 28.3593 121.625 28.3671C121.344 28.375 121.145 28.3828 121.028 28.3906ZM117.758 34.2499L117.749 29.7968C117.748 28.9921 117.73 28.2304 117.698 27.5117C117.673 26.7851 117.629 26.2578 117.565 25.9296C117.745 25.914 118.093 25.9023 118.608 25.8945C119.124 25.8789 119.706 25.8671 120.354 25.8593C121.011 25.8437 121.639 25.832 122.241 25.8242C122.843 25.8164 123.315 25.8125 123.659 25.8125C125.245 25.8125 126.519 26.0742 127.481 26.5976C128.451 27.1132 128.937 27.9062 128.939 28.9765C128.94 29.664 128.699 30.2343 128.216 30.6875C127.732 31.1328 127.214 31.4609 126.659 31.6718C127.081 31.7812 127.492 31.9414 127.891 32.1523C128.297 32.3632 128.634 32.6562 128.9 33.0312C129.167 33.3984 129.301 33.8828 129.302 34.4843C129.304 35.5312 128.864 36.4101 127.983 37.121C127.102 37.8242 125.669 38.1757 123.685 38.1757C123.27 38.1757 122.763 38.1679 122.161 38.1523C121.559 38.1445 120.946 38.1327 120.321 38.1171C119.696 38.1015 119.134 38.082 118.633 38.0585C118.141 38.0429 117.794 38.0234 117.59 37.9999C117.652 37.6718 117.694 37.1679 117.716 36.4882C117.746 35.8007 117.76 35.0546 117.758 34.2499ZM121.037 33.0781L121.042 35.5976C121.199 35.6054 121.523 35.6171 122.015 35.6328C122.515 35.6484 122.992 35.6562 123.445 35.6562C124.445 35.6562 125.124 35.5351 125.483 35.2929C125.842 35.0507 126.021 34.7148 126.02 34.2851C126.019 33.9257 125.851 33.6367 125.515 33.4179C125.186 33.1914 124.514 33.0781 123.498 33.0781L121.037 33.0781ZM136.294 38.2929C135.771 38.2929 135.212 38.2538 134.618 38.1757C134.032 38.0976 133.473 37.9843 132.942 37.8359C132.41 37.6796 131.964 37.4999 131.605 37.2968L132.126 34.6015C132.705 35.0078 133.362 35.3046 134.097 35.4921C134.832 35.6796 135.562 35.7734 136.289 35.7734C137.219 35.7734 137.89 35.6328 138.304 35.3515C138.717 35.0624 138.923 34.7148 138.923 34.3085C138.922 33.9179 138.698 33.5781 138.253 33.289C137.807 32.9921 137.091 32.8437 136.107 32.8437L133.705 32.8437L133.7 30.5585L136.102 30.5585C136.798 30.5585 137.36 30.4375 137.789 30.1953C138.226 29.9531 138.444 29.6445 138.443 29.2695C138.442 28.6054 137.68 28.2734 136.156 28.2734C135.641 28.2734 135.035 28.3398 134.34 28.4726C133.653 28.5976 133.009 28.8437 132.408 29.2109L131.993 26.6914C132.633 26.3789 133.374 26.1562 134.218 26.0234C135.061 25.8828 135.882 25.8125 136.678 25.8125C137.522 25.8125 138.319 25.9218 139.07 26.1406C139.82 26.3515 140.43 26.6718 140.9 27.1015C141.37 27.5234 141.605 28.0507 141.606 28.6835C141.607 29.1992 141.479 29.664 141.222 30.0781C140.965 30.4921 140.642 30.8281 140.252 31.0859C139.87 31.3437 139.483 31.4999 139.093 31.5546C139.483 31.5937 139.906 31.7304 140.359 31.9648C140.813 32.1992 141.204 32.5195 141.533 32.9257C141.862 33.332 142.027 33.8124 142.028 34.3671C142.03 35.1249 141.797 35.8007 141.329 36.3945C140.862 36.9804 140.199 37.4452 139.34 37.789C138.481 38.1249 137.466 38.2929 136.294 38.2929ZM148.188 37.9999L144.79 37.9999C144.851 37.6718 144.886 37.1952 144.892 36.5703C144.899 35.9453 144.901 35.2304 144.899 34.4257L144.882 26.0468L154.902 26.0468L154.907 28.5664L148.169 28.5664L148.188 37.9999ZM165.805 28.5664L162.583 28.5664C162.437 30.1054 162.221 31.4726 161.935 32.6679C161.656 33.8554 161.291 34.8515 160.839 35.6562C160.341 36.5312 159.737 37.1601 159.027 37.5429C158.317 37.9257 157.38 38.1171 156.216 38.1171L156.209 34.9531C156.748 34.9531 157.228 34.8476 157.65 34.6367C158.071 34.4179 158.406 33.9492 158.655 33.2304C158.896 32.5507 159.101 31.6289 159.27 30.4648C159.447 29.3007 159.573 27.8281 159.648 26.0468L169.198 26.0468C169.144 26.375 169.11 26.8437 169.096 27.4531C169.089 28.0546 169.087 28.7578 169.089 29.5625L169.099 34.4843C169.101 35.3828 169.106 36.1171 169.115 36.6874C169.132 37.2577 169.168 37.6952 169.223 37.9999L165.825 37.9999L165.805 28.5664ZM179.714 33.4296L178.425 33.4296C177.714 33.4296 177.136 33.6171 176.691 33.9921C176.426 34.2187 176.204 34.4804 176.025 34.7773C175.846 35.0663 175.667 35.4609 175.489 35.9609C175.31 36.4609 175.081 37.1406 174.801 37.9999L171.403 37.9999C171.799 36.8046 172.148 35.8007 172.451 34.9882C172.762 34.1679 173.093 33.5507 173.444 33.1367C173.67 32.871 173.935 32.6406 174.239 32.4453C173.637 32.1406 173.148 31.7382 172.772 31.2382C172.396 30.7382 172.207 30.1406 172.206 29.4453C172.204 28.7187 172.421 28.0859 172.858 27.5468C173.302 27 173.918 26.5742 174.707 26.2695C175.503 25.9648 176.425 25.8125 177.471 25.8125C178.073 25.8125 178.733 25.8242 179.452 25.8476C180.171 25.8632 180.85 25.8867 181.491 25.9179C182.132 25.9414 182.628 25.9648 182.98 25.9882L182.997 34.4257C182.999 35.2304 183.012 35.9453 183.037 36.5703C183.069 37.1952 183.117 37.6718 183.18 37.9999L179.723 37.9999L179.714 33.4296ZM177.834 30.9687L179.709 30.9687L179.703 28.332C179.563 28.3164 179.34 28.3046 179.035 28.2968C178.73 28.289 178.41 28.2851 178.074 28.2851C177.746 28.2773 177.461 28.2734 177.219 28.2734C176.766 28.2734 176.371 28.3906 176.036 28.625C175.708 28.8593 175.545 29.1601 175.546 29.5273C175.546 29.9726 175.727 30.3242 176.087 30.582C176.447 30.832 177.029 30.9609 177.834 30.9687ZM185.109 35.4804L187.628 35.4804C188.118 34.5273 188.55 33.5937 188.923 32.6796C189.304 31.7656 189.634 30.7773 189.913 29.7148C190.2 28.6523 190.447 27.4296 190.656 26.0468L199.152 26.0468C199.075 26.664 199.026 27.4921 199.004 28.5312C198.991 29.5625 198.985 30.6484 198.988 31.789L198.995 35.4804L201.573 35.4804L201.589 43.1562L198.835 43.1562C198.834 42.6562 198.822 42.0976 198.797 41.4804C198.78 40.871 198.747 40.2577 198.699 39.6406C198.651 39.0312 198.576 38.4843 198.473 37.9999L188.219 37.9999C188.127 38.4843 188.053 39.0312 188 39.6406C187.954 40.2577 187.921 40.871 187.898 41.4804C187.884 42.0976 187.877 42.6562 187.878 43.1562L185.125 43.1562L185.109 35.4804ZM190.851 35.4804L195.831 35.4804L195.817 28.5664L193.18 28.5664C192.987 29.3632 192.808 30.0507 192.645 30.6289C192.483 31.207 192.316 31.7421 192.145 32.2343C191.982 32.7187 191.795 33.2187 191.585 33.7343C191.376 34.2421 191.131 34.8242 190.851 35.4804Z" fill="#191919"/>
<path d="M30.0441 102.467L30.0472 104L19.2855 104L19.2824 102.467L30.0441 102.467ZM19.5851 102.467L19.5955 107.496L17.7303 107.496L17.7101 102.467L19.5851 102.467ZM31.6847 102.467L31.6756 107.486L29.8103 107.486L29.7999 102.467L31.6847 102.467ZM28.1721 89.781L28.1753 91.324L21.9448 91.324L21.9416 89.781L28.1721 89.781ZM29.7932 89.781L29.8226 104L27.9476 104L27.9182 89.781L29.7932 89.781ZM21.2971 89.781L23.1819 89.781L22.9008 95.5036C22.8635 96.363 22.7837 97.1573 22.6615 97.8864C22.5393 98.6091 22.3877 99.2699 22.2067 99.8689C22.0256 100.468 21.8184 101.005 21.585 101.48C21.3516 101.949 21.1018 102.356 20.8356 102.701C20.5693 103.039 20.29 103.319 19.9975 103.541C19.7115 103.756 19.4221 103.909 19.1293 104L18.2699 104L18.2667 102.467L18.8722 102.467C19.0411 102.284 19.2326 102.021 19.4467 101.675C19.6674 101.33 19.8845 100.884 20.0983 100.338C20.3185 99.7842 20.5091 99.1104 20.6702 98.3161C20.8379 97.5219 20.9499 96.5844 21.0062 95.5036L21.2971 89.781ZM39.858 102.193L39.8467 96.7536C39.8458 96.337 39.7605 95.9756 39.5906 95.6697C39.4271 95.3572 39.1793 95.1163 38.8469 94.947C38.5145 94.7777 38.1042 94.6931 37.6159 94.6931C37.1601 94.6931 36.7599 94.7712 36.4152 94.9275C36.077 95.0837 35.8105 95.2888 35.6157 95.5427C35.4274 95.7966 35.3336 96.07 35.3342 96.363L33.5275 96.363C33.5268 95.9854 33.6236 95.6111 33.8182 95.24C34.0127 94.8689 34.292 94.5336 34.6559 94.2341C35.0264 93.9281 35.4686 93.6872 35.9826 93.5115C36.503 93.3292 37.0823 93.238 37.7203 93.238C38.4885 93.238 39.1659 93.3682 39.7523 93.6286C40.3453 93.8891 40.8084 94.2829 41.1415 94.8103C41.4811 95.3311 41.6518 95.9854 41.6534 96.7732L41.6636 101.695C41.6643 102.047 41.6944 102.421 41.7538 102.818C41.8197 103.215 41.9148 103.557 42.0391 103.843L42.0394 104L40.1547 104C40.0631 103.791 39.9909 103.515 39.9381 103.17C39.8853 102.818 39.8586 102.493 39.858 102.193ZM40.1609 97.5935L40.1831 98.863L38.3569 98.863C37.8426 98.863 37.3837 98.9053 36.9802 98.99C36.5768 99.0681 36.2385 99.1885 35.9654 99.3513C35.6923 99.514 35.4843 99.7191 35.3416 99.9665C35.1989 100.207 35.1279 100.491 35.1285 100.816C35.1292 101.148 35.2047 101.451 35.355 101.724C35.5053 101.998 35.7304 102.216 36.0302 102.379C36.3365 102.535 36.711 102.613 37.1538 102.613C37.7071 102.613 38.1952 102.496 38.6179 102.261C39.0406 102.027 39.3753 101.741 39.6219 101.402C39.8752 101.064 40.0112 100.735 40.0301 100.416L40.8033 101.285C40.7583 101.558 40.6353 101.861 40.4341 102.193C40.233 102.525 39.9635 102.844 39.6256 103.15C39.2942 103.45 38.8975 103.7 38.4357 103.902C37.9804 104.097 37.4663 104.195 36.8934 104.195C36.1772 104.195 35.5487 104.055 35.0077 103.775C34.4733 103.495 34.0558 103.121 33.7554 102.652C33.4614 102.177 33.3139 101.646 33.3126 101.06C33.3115 100.494 33.4211 99.9958 33.6416 99.5661C33.862 99.1299 34.1803 98.7686 34.5964 98.4821C35.0124 98.1892 35.5133 97.9678 36.0989 97.8181C36.6845 97.6683 37.3387 97.5935 38.0613 97.5935L40.1609 97.5935ZM51.6657 98.0134L51.6687 99.4782L46.0828 99.4782L46.0798 98.0134L51.6657 98.0134ZM46.4512 93.4333L46.473 104L44.6664 104L44.6445 93.4333L46.4512 93.4333ZM53.1211 93.4333L53.1429 104L51.3265 104L51.3047 93.4333L53.1211 93.4333ZM63.2087 98.0134L63.2117 99.4782L57.6258 99.4782L57.6227 98.0134L63.2087 98.0134ZM57.9941 93.4333L58.016 104L56.2094 104L56.1875 93.4333L57.9941 93.4333ZM64.664 93.4333L64.6859 104L62.8695 104L62.8476 93.4333L64.664 93.4333ZM73.8228 102.193L73.8115 96.7536C73.8107 96.337 73.7253 95.9756 73.5554 95.6697C73.392 95.3572 73.1441 95.1163 72.8117 94.947C72.4793 94.7777 72.069 94.6931 71.5807 94.6931C71.125 94.6931 70.7248 94.7712 70.38 94.9275C70.0418 95.0837 69.7753 95.2888 69.5805 95.5427C69.3922 95.7966 69.2984 96.07 69.299 96.363L67.4924 96.363C67.4916 95.9854 67.5885 95.6111 67.783 95.24C67.9776 94.8689 68.2568 94.5336 68.6208 94.2341C68.9912 93.9281 69.4335 93.6872 69.9474 93.5115C70.4679 93.3292 71.0471 93.238 71.6851 93.238C72.4534 93.238 73.1307 93.3682 73.7172 93.6286C74.3102 93.8891 74.7732 94.2829 75.1064 94.8103C75.446 95.3311 75.6166 95.9854 75.6182 96.7732L75.6284 101.695C75.6291 102.047 75.6592 102.421 75.7186 102.818C75.7846 103.215 75.8797 103.557 76.004 103.843L76.0043 104L74.1195 104C74.0279 103.791 73.9557 103.515 73.9029 103.17C73.8501 102.818 73.8234 102.493 73.8228 102.193ZM74.1258 97.5935L74.1479 98.863L72.3218 98.863C71.8074 98.863 71.3486 98.9053 70.9451 98.99C70.5416 99.0681 70.2033 99.1885 69.9302 99.3513C69.6571 99.514 69.4492 99.7191 69.3065 99.9665C69.1637 100.207 69.0927 100.491 69.0934 100.816C69.0941 101.148 69.1696 101.451 69.3199 101.724C69.4702 101.998 69.6952 102.216 69.9951 102.379C70.3014 102.535 70.6759 102.613 71.1186 102.613C71.672 102.613 72.16 102.496 72.5827 102.261C73.0054 102.027 73.3401 101.741 73.5868 101.402C73.84 101.064 73.976 100.735 73.9949 100.416L74.7682 101.285C74.7232 101.558 74.6001 101.861 74.399 102.193C74.1978 102.525 73.9283 102.844 73.5904 103.15C73.259 103.45 72.8624 103.7 72.4006 103.902C71.9452 104.097 71.4311 104.195 70.8582 104.195C70.1421 104.195 69.5135 104.055 68.9726 103.775C68.4381 103.495 68.0207 103.121 67.7202 102.652C67.4263 102.177 67.2787 101.646 67.2775 101.06C67.2763 100.494 67.386 99.9958 67.6064 99.5661C67.8269 99.1299 68.1451 98.7686 68.5612 98.4821C68.9773 98.1892 69.4781 97.9678 70.0637 97.8181C70.6494 97.6683 71.3035 97.5935 72.0262 97.5935L74.1258 97.5935ZM80.6032 98.9607L82.5563 98.9607L79.5101 104L77.557 104L80.6032 98.9607ZM82.1055 93.4333L86.5195 93.4333L86.5414 104L84.7347 104L84.7159 94.8982L82.1085 94.8982C81.5942 94.8982 81.1744 94.9861 80.8493 95.1618C80.5241 95.3311 80.2869 95.5525 80.1378 95.8259C79.9886 96.0993 79.9143 96.3825 79.9149 96.6755C79.9155 96.962 79.9844 97.2387 80.1217 97.5056C80.259 97.766 80.4742 97.9808 80.7676 98.1501C81.0609 98.3194 81.4387 98.404 81.9009 98.404L85.2114 98.404L85.2145 99.8884L81.904 99.8884C81.2985 99.8884 80.7612 99.807 80.2921 99.6443C79.8231 99.4815 79.4255 99.2569 79.0993 98.9704C78.7732 98.6775 78.5251 98.3357 78.355 97.945C78.1849 97.5479 78.0994 97.1182 78.0985 96.656C78.0975 96.1937 78.1845 95.7673 78.3595 95.3767C78.541 94.9861 78.8007 94.6443 79.1386 94.3513C79.4831 94.0583 79.9025 93.8337 80.397 93.6775C80.8979 93.5147 81.4674 93.4333 82.1055 93.4333ZM96.3535 93.4333L96.3754 104L94.5687 104L94.5469 93.4333L96.3535 93.4333ZM103.287 93.4333L98.2899 99.488L95.7606 99.488L95.4839 97.906L97.5542 97.906L101.09 93.4333L103.287 93.4333ZM101.366 104L97.469 99.2146L98.6284 97.906L103.661 104L101.366 104ZM111.46 102.193L111.448 96.7536C111.447 96.337 111.362 95.9756 111.192 95.6697C111.029 95.3572 110.781 95.1163 110.448 94.947C110.116 94.7777 109.706 94.6931 109.217 94.6931C108.762 94.6931 108.361 94.7712 108.017 94.9275C107.679 95.0837 107.412 95.2888 107.217 95.5427C107.029 95.7966 106.935 96.07 106.936 96.363L105.129 96.363C105.128 95.9854 105.225 95.6111 105.42 95.24C105.614 94.8689 105.894 94.5336 106.258 94.2341C106.628 93.9281 107.07 93.6872 107.584 93.5115C108.105 93.3292 108.684 93.238 109.322 93.238C110.09 93.238 110.767 93.3682 111.354 93.6286C111.947 93.8891 112.41 94.2829 112.743 94.8103C113.083 95.3311 113.253 95.9854 113.255 96.7732L113.265 101.695C113.266 102.047 113.296 102.421 113.355 102.818C113.421 103.215 113.516 103.557 113.641 103.843L113.641 104L111.756 104C111.665 103.791 111.592 103.515 111.54 103.17C111.487 102.818 111.46 102.493 111.46 102.193ZM111.763 97.5935L111.785 98.863L109.958 98.863C109.444 98.863 108.985 98.9053 108.582 98.99C108.178 99.0681 107.84 99.1885 107.567 99.3513C107.294 99.514 107.086 99.7191 106.943 99.9665C106.8 100.207 106.729 100.491 106.73 100.816C106.731 101.148 106.806 101.451 106.957 101.724C107.107 101.998 107.332 102.216 107.632 102.379C107.938 102.535 108.313 102.613 108.755 102.613C109.309 102.613 109.797 102.496 110.219 102.261C110.642 102.027 110.977 101.741 111.224 101.402C111.477 101.064 111.613 100.735 111.632 100.416L112.405 101.285C112.36 101.558 112.237 101.861 112.036 102.193C111.835 102.525 111.565 102.844 111.227 103.15C110.896 103.45 110.499 103.7 110.037 103.902C109.582 104.097 109.068 104.195 108.495 104.195C107.779 104.195 107.15 104.055 106.609 103.775C106.075 103.495 105.657 103.121 105.357 102.652C105.063 102.177 104.915 101.646 104.914 101.06C104.913 100.494 105.023 99.9958 105.243 99.5661C105.464 99.1299 105.782 98.7686 106.198 98.4821C106.614 98.1892 107.115 97.9678 107.7 97.8181C108.286 97.6683 108.94 97.5935 109.663 97.5935L111.763 97.5935ZM120.24 93.4333L120.262 104L118.446 104L118.424 93.4333L120.24 93.4333ZM123.785 93.4333L123.788 94.8982L114.95 94.8982L114.947 93.4333L123.785 93.4333ZM129.188 104.195C128.453 104.195 127.785 104.071 127.186 103.824C126.593 103.57 126.081 103.215 125.65 102.759C125.226 102.304 124.899 101.763 124.67 101.138C124.441 100.513 124.326 99.8298 124.324 99.0876L124.323 98.6775C124.322 97.8181 124.447 97.0531 124.699 96.3825C124.952 95.7055 125.296 95.1325 125.731 94.6638C126.166 94.195 126.66 93.8402 127.213 93.5993C127.766 93.3585 128.339 93.238 128.931 93.238C129.686 93.238 130.338 93.3682 130.885 93.6286C131.439 93.8891 131.892 94.2536 132.245 94.7224C132.597 95.1846 132.859 95.7315 133.029 96.363C133.2 96.988 133.286 97.6716 133.288 98.4138L133.289 99.2243L125.399 99.2243L125.396 97.7497L131.48 97.7497L131.479 97.613C131.452 97.1443 131.354 96.6885 131.184 96.2458C131.02 95.8031 130.759 95.4385 130.4 95.1521C130.041 94.8656 129.553 94.7224 128.934 94.7224C128.524 94.7224 128.147 94.8103 127.802 94.9861C127.457 95.1553 127.162 95.4092 126.915 95.7478C126.668 96.0863 126.477 96.4997 126.341 96.988C126.206 97.4763 126.138 98.0394 126.14 98.6775L126.141 99.0876C126.142 99.5889 126.211 100.061 126.349 100.504C126.493 100.94 126.699 101.324 126.966 101.656C127.24 101.988 127.57 102.248 127.954 102.437C128.345 102.626 128.788 102.72 129.283 102.72C129.921 102.72 130.461 102.59 130.903 102.33C131.345 102.069 131.732 101.721 132.063 101.285L133.159 102.154C132.932 102.499 132.642 102.828 132.292 103.14C131.941 103.453 131.508 103.707 130.994 103.902C130.487 104.097 129.885 104.195 129.188 104.195ZM142.213 93.4333L142.216 94.9275L137.333 94.9275L137.352 104L135.545 104L135.523 93.4333L142.213 93.4333ZM143.122 98.8337L143.122 98.6091C143.12 97.8474 143.23 97.141 143.45 96.49C143.67 95.8324 143.987 95.2628 144.403 94.781C144.819 94.2927 145.323 93.9151 145.914 93.6482C146.506 93.3747 147.17 93.238 147.906 93.238C148.648 93.238 149.316 93.3747 149.909 93.6482C150.508 93.9151 151.017 94.2927 151.434 94.781C151.859 95.2628 152.182 95.8324 152.405 96.49C152.627 97.141 152.74 97.8474 152.741 98.6091L152.742 98.8337C152.743 99.5954 152.634 100.302 152.414 100.953C152.194 101.604 151.873 102.174 151.451 102.662C151.035 103.144 150.531 103.521 149.939 103.795C149.354 104.062 148.69 104.195 147.948 104.195C147.206 104.195 146.538 104.062 145.945 103.795C145.352 103.521 144.844 103.144 144.419 102.662C144.002 102.174 143.682 101.604 143.459 100.953C143.236 100.302 143.124 99.5954 143.122 98.8337ZM144.929 98.6091L144.929 98.8337C144.93 99.361 144.993 99.8591 145.118 100.328C145.242 100.79 145.429 101.2 145.677 101.558C145.932 101.916 146.248 102.2 146.626 102.408C147.004 102.61 147.444 102.711 147.945 102.711C148.44 102.711 148.872 102.61 149.243 102.408C149.62 102.2 149.932 101.916 150.179 101.558C150.426 101.2 150.61 100.79 150.733 100.328C150.862 99.8591 150.926 99.361 150.925 98.8337L150.925 98.6091C150.924 98.0883 150.858 97.5967 150.726 97.1345C150.602 96.6657 150.412 96.2523 150.157 95.8943C149.909 95.5297 149.596 95.2432 149.218 95.0349C148.847 94.8266 148.41 94.7224 147.909 94.7224C147.414 94.7224 146.978 94.8266 146.601 95.0349C146.23 95.2432 145.918 95.5297 145.665 95.8943C145.419 96.2523 145.234 96.6657 145.111 97.1345C144.988 97.5967 144.928 98.0883 144.929 98.6091ZM156.807 95.4646L156.833 108.062L155.017 108.062L154.986 93.4333L156.646 93.4333L156.807 95.4646ZM163.933 98.6286L163.933 98.8337C163.935 99.6019 163.845 100.315 163.664 100.972C163.483 101.623 163.217 102.19 162.867 102.672C162.523 103.153 162.097 103.528 161.59 103.795C161.083 104.062 160.5 104.195 159.843 104.195C159.172 104.195 158.579 104.084 158.065 103.863C157.55 103.642 157.113 103.319 156.754 102.896C156.395 102.473 156.107 101.965 155.891 101.373C155.682 100.78 155.537 100.113 155.458 99.3708L155.455 98.2771C155.532 97.4958 155.677 96.7959 155.89 96.1775C156.104 95.559 156.386 95.0316 156.737 94.5954C157.094 94.1527 157.526 93.8174 158.034 93.5896C158.541 93.3552 159.127 93.238 159.791 93.238C160.455 93.238 161.044 93.3682 161.559 93.6286C162.074 93.8825 162.508 94.2471 162.86 94.7224C163.213 95.1976 163.477 95.7673 163.655 96.4314C163.838 97.0889 163.931 97.8213 163.933 98.6286ZM162.117 98.8337L162.116 98.6286C162.115 98.1013 162.059 97.6065 161.947 97.1443C161.835 96.6755 161.662 96.2654 161.427 95.9138C161.198 95.5557 160.905 95.2758 160.546 95.0739C160.188 94.8656 159.761 94.7614 159.266 94.7614C158.811 94.7614 158.414 94.8396 158.075 94.9958C157.744 95.1521 157.461 95.3637 157.227 95.6306C156.993 95.891 156.802 96.1905 156.653 96.529C156.51 96.8611 156.404 97.2061 156.333 97.5642L156.338 100.093C156.469 100.549 156.652 100.979 156.888 101.383C157.123 101.78 157.436 102.102 157.827 102.349C158.218 102.59 158.71 102.711 159.302 102.711C159.791 102.711 160.21 102.61 160.562 102.408C160.919 102.2 161.212 101.916 161.439 101.558C161.672 101.2 161.844 100.79 161.954 100.328C162.063 99.8591 162.118 99.361 162.117 98.8337ZM168.196 101.138L173.053 93.4333L174.869 93.4333L174.891 104L173.075 104L173.059 96.2946L168.202 104L166.405 104L166.383 93.4333L168.18 93.4333L168.196 101.138ZM179.92 98.9607L181.873 98.9607L178.827 104L176.873 104L179.92 98.9607ZM181.422 93.4333L185.836 93.4333L185.858 104L184.051 104L184.032 94.8982L181.425 94.8982C180.911 94.8982 180.491 94.9861 180.166 95.1618C179.841 95.3311 179.603 95.5525 179.454 95.8259C179.305 96.0993 179.231 96.3825 179.231 96.6755C179.232 96.962 179.301 97.2387 179.438 97.5056C179.575 97.766 179.791 97.9808 180.084 98.1501C180.377 98.3194 180.755 98.404 181.217 98.404L184.528 98.404L184.531 99.8884L181.22 99.8884C180.615 99.8884 180.078 99.807 179.609 99.6443C179.139 99.4815 178.742 99.2569 178.416 98.9704C178.09 98.6775 177.842 98.3357 177.671 97.945C177.501 97.5479 177.416 97.1182 177.415 96.656C177.414 96.1937 177.501 95.7673 177.676 95.3767C177.857 94.9861 178.117 94.6443 178.455 94.3513C178.799 94.0583 179.219 93.8337 179.713 93.6775C180.214 93.5147 180.784 93.4333 181.422 93.4333ZM25.6693 121.433L25.6724 122.927L20.3306 122.927L20.3275 121.433L25.6693 121.433ZM20.5911 121.433L20.613 132L18.8064 132L18.7845 121.433L20.5911 121.433ZM27.2708 121.433L27.2927 132L25.4763 132L25.4544 121.433L27.2708 121.433ZM31.9821 123.465L32.0081 136.062L30.1917 136.062L30.1615 121.433L31.8216 121.433L31.9821 123.465ZM39.1077 126.629L39.1082 126.834C39.1098 127.602 39.0201 128.315 38.8392 128.972C38.6582 129.623 38.3925 130.19 38.0419 130.672C37.6978 131.153 37.2722 131.528 36.7649 131.795C36.2577 132.061 35.6753 132.195 35.0177 132.195C34.3471 132.195 33.7545 132.084 33.2397 131.863C32.7249 131.642 32.288 131.319 31.9291 130.896C31.5701 130.473 31.2826 129.965 31.0666 129.373C30.857 128.78 30.7124 128.113 30.6327 127.371L30.6305 126.277C30.707 125.496 30.852 124.796 31.0656 124.177C31.2791 123.559 31.5612 123.032 31.9119 122.595C32.2691 122.153 32.7013 121.817 33.2086 121.59C33.716 121.355 34.3017 121.238 34.9657 121.238C35.6298 121.238 36.2193 121.368 36.7341 121.629C37.249 121.882 37.6827 122.247 38.0352 122.722C38.3878 123.198 38.6526 123.767 38.8298 124.431C39.0134 125.089 39.1061 125.821 39.1077 126.629ZM37.2918 126.834L37.2913 126.629C37.2903 126.101 37.2339 125.606 37.1223 125.144C37.0106 124.675 36.8372 124.265 36.6021 123.914C36.3735 123.556 36.08 123.276 35.7215 123.074C35.363 122.866 34.9363 122.761 34.4415 122.761C33.9858 122.761 33.5888 122.84 33.2506 122.996C32.9189 123.152 32.6361 123.364 32.4023 123.631C32.1685 123.891 31.9771 124.19 31.828 124.529C31.6855 124.861 31.5788 125.206 31.5079 125.564L31.5131 128.093C31.6443 128.549 31.8275 128.979 32.0627 129.382C32.2979 129.78 32.611 130.102 33.0022 130.349C33.3933 130.59 33.8851 130.711 34.4775 130.711C34.9658 130.711 35.3855 130.61 35.7367 130.408C36.0943 130.2 36.3867 129.916 36.6138 129.558C36.8474 129.2 37.0191 128.79 37.1288 128.328C37.2386 127.859 37.2929 127.361 37.2918 126.834ZM45.8087 132.195C45.073 132.195 44.4055 132.071 43.806 131.824C43.213 131.57 42.7012 131.215 42.2706 130.759C41.8465 130.304 41.5198 129.763 41.2907 129.138C41.0615 128.513 40.9462 127.83 40.9446 127.088L40.9438 126.677C40.942 125.818 41.0674 125.053 41.3199 124.382C41.5724 123.705 41.9163 123.132 42.3515 122.664C42.7867 122.195 43.2808 121.84 43.8337 121.599C44.3866 121.358 44.9592 121.238 45.5517 121.238C46.3069 121.238 46.9582 121.368 47.5056 121.629C48.0595 121.889 48.5128 122.254 48.8653 122.722C49.2178 123.185 49.4794 123.731 49.6499 124.363C49.8205 124.988 49.9065 125.672 49.9081 126.414L49.9098 127.224L42.0191 127.224L42.0161 125.75L48.1001 125.75L48.0998 125.613C48.0728 125.144 47.9742 124.688 47.804 124.246C47.6403 123.803 47.3791 123.438 47.0205 123.152C46.6618 122.866 46.1732 122.722 45.5547 122.722C45.1446 122.722 44.7672 122.81 44.4225 122.986C44.0778 123.155 43.7821 123.409 43.5354 123.748C43.2887 124.086 43.0975 124.5 42.9618 124.988C42.8261 125.476 42.7589 126.039 42.7602 126.677L42.761 127.088C42.7621 127.589 42.8314 128.061 42.9691 128.504C43.1132 128.94 43.3191 129.324 43.5867 129.656C43.8608 129.988 44.1901 130.248 44.5746 130.437C44.9656 130.626 45.4085 130.72 45.9033 130.72C46.5413 130.72 47.0814 130.59 47.5236 130.33C47.9658 130.069 48.3524 129.721 48.6836 129.285L49.7791 130.154C49.552 130.499 49.2629 130.828 48.912 131.14C48.5611 131.453 48.1287 131.707 47.6148 131.902C47.1073 132.097 46.5053 132.195 45.8087 132.195ZM53.9115 121.433L55.7181 121.433L55.57 125.388C55.533 126.391 55.4209 127.257 55.2336 127.986C55.0463 128.715 54.8067 129.337 54.5148 129.851C54.2229 130.359 53.895 130.785 53.5311 131.131C53.1738 131.476 52.8033 131.765 52.4196 132L51.5212 132L51.567 130.525L51.9381 130.515C52.1524 130.261 52.3602 130.001 52.5614 129.734C52.7627 129.461 52.9476 129.138 53.1161 128.767C53.2846 128.39 53.4236 127.931 53.5332 127.39C53.6492 126.843 53.7227 126.176 53.7536 125.388L53.9115 121.433ZM54.3607 121.433L60.7181 121.433L60.74 132L58.9333 132L58.9149 123.103L54.3641 123.103L54.3607 121.433ZM51.108 130.515L62.0943 130.515L62.1038 135.115L60.2972 135.115L60.2907 132L52.9177 132L52.9241 135.115L51.1077 135.115L51.108 130.515ZM71.2549 126.013L71.2579 127.478L65.672 127.478L65.669 126.013L71.2549 126.013ZM66.0404 121.433L66.0622 132L64.2556 132L64.2337 121.433L66.0404 121.433ZM72.7103 121.433L72.7321 132L70.9157 132L70.8939 121.433L72.7103 121.433ZM81.869 130.193L81.8578 124.754C81.8569 124.337 81.7715 123.976 81.6016 123.67C81.4382 123.357 81.1903 123.116 80.8579 122.947C80.5256 122.778 80.1152 122.693 79.6269 122.693C79.1712 122.693 78.771 122.771 78.4263 122.927C78.088 123.084 77.8215 123.289 77.6268 123.543C77.4385 123.797 77.3446 124.07 77.3452 124.363L75.5386 124.363C75.5378 123.985 75.6347 123.611 75.8293 123.24C76.0238 122.869 76.3031 122.534 76.667 122.234C77.0375 121.928 77.4797 121.687 77.9936 121.511C78.5141 121.329 79.0933 121.238 79.7314 121.238C80.4996 121.238 81.1769 121.368 81.7634 121.629C82.3564 121.889 82.8195 122.283 83.1526 122.81C83.4922 123.331 83.6628 123.985 83.6645 124.773L83.6746 129.695C83.6754 130.047 83.7054 130.421 83.7649 130.818C83.8308 131.215 83.9259 131.557 84.0502 131.843L84.0505 132L82.1657 132C82.0742 131.791 82.002 131.515 81.9492 131.17C81.8964 130.818 81.8697 130.492 81.869 130.193ZM82.172 125.593L82.1942 126.863L80.368 126.863C79.8537 126.863 79.3948 126.905 78.9913 126.99C78.5878 127.068 78.2495 127.188 77.9764 127.351C77.7033 127.514 77.4954 127.719 77.3527 127.966C77.21 128.207 77.1389 128.491 77.1396 128.816C77.1403 129.148 77.2158 129.451 77.3661 129.724C77.5164 129.998 77.7415 130.216 78.0413 130.379C78.3476 130.535 78.7221 130.613 79.1648 130.613C79.7182 130.613 80.2062 130.496 80.6289 130.261C81.0516 130.027 81.3863 129.741 81.633 129.402C81.8862 129.063 82.0223 128.735 82.0411 128.416L82.8144 129.285C82.7694 129.558 82.6463 129.861 82.4452 130.193C82.2441 130.525 81.9745 130.844 81.6366 131.15C81.3052 131.45 80.9086 131.7 80.4468 131.902C79.9915 132.097 79.4773 132.195 78.9044 132.195C78.1883 132.195 77.5597 132.055 77.0188 131.775C76.4844 131.495 76.0669 131.121 75.7665 130.652C75.4725 130.177 75.3249 129.646 75.3237 129.06C75.3225 128.494 75.4322 127.996 75.6527 127.566C75.8731 127.13 76.1914 126.769 76.6074 126.482C77.0235 126.189 77.5244 125.968 78.11 125.818C78.6956 125.668 79.3497 125.593 80.0724 125.593L82.172 125.593ZM90.4561 126.951L88.5127 126.951L88.5104 125.838L90.3073 125.838C90.8086 125.838 91.2056 125.776 91.4983 125.652C91.791 125.522 91.999 125.343 92.1222 125.115C92.2454 124.887 92.3067 124.62 92.3061 124.314C92.3055 124.041 92.2334 123.784 92.0896 123.543C91.9524 123.295 91.7306 123.097 91.4243 122.947C91.118 122.791 90.7077 122.713 90.1934 122.713C89.7767 122.713 89.3993 122.787 89.061 122.937C88.7228 123.08 88.453 123.279 88.2517 123.533C88.0569 123.78 87.9599 124.06 87.9605 124.373L86.1539 124.373C86.1525 123.728 86.3337 123.175 86.6973 122.713C87.0674 122.244 87.5582 121.882 88.1697 121.629C88.7876 121.375 89.4612 121.248 90.1904 121.248C90.8023 121.248 91.3494 121.316 91.8314 121.453C92.32 121.583 92.7338 121.778 93.0729 122.039C93.4119 122.293 93.6697 122.612 93.8463 122.996C94.0294 123.373 94.1215 123.813 94.1225 124.314C94.1232 124.672 94.0393 125.011 93.8707 125.33C93.7021 125.649 93.4585 125.932 93.14 126.179C92.8215 126.42 92.4345 126.609 91.9791 126.746C91.5301 126.882 91.0225 126.951 90.4561 126.951ZM88.5113 126.267L90.4547 126.267C91.0862 126.267 91.6429 126.329 92.125 126.453C92.607 126.57 93.011 126.746 93.337 126.98C93.663 127.215 93.9077 127.504 94.0712 127.849C94.2412 128.188 94.3266 128.578 94.3275 129.021C94.3286 129.516 94.2286 129.962 94.0276 130.359C93.8331 130.75 93.5538 131.082 93.1898 131.355C92.8258 131.629 92.39 131.837 91.8825 131.98C91.3815 132.123 90.825 132.195 90.213 132.195C89.5294 132.195 88.8651 132.078 88.2201 131.843C87.5751 131.609 87.0437 131.248 86.6261 130.759C86.2084 130.265 85.9987 129.636 85.9972 128.875L87.8038 128.875C87.8045 129.194 87.906 129.496 88.1084 129.783C88.3108 130.069 88.5913 130.3 88.9497 130.476C89.3146 130.652 89.7347 130.74 90.21 130.74C90.7178 130.74 91.1408 130.662 91.4791 130.506C91.8173 130.349 92.0707 130.141 92.2395 129.881C92.4147 129.62 92.502 129.337 92.5014 129.031C92.5006 128.634 92.4218 128.315 92.265 128.074C92.1083 127.833 91.867 127.657 91.5413 127.547C91.222 127.429 90.8118 127.371 90.3105 127.371L88.5136 127.371L88.5113 126.267ZM103.833 126.013L103.836 127.478L98.2501 127.478L98.2471 126.013L103.833 126.013ZM98.6185 121.433L98.6403 132L96.8337 132L96.8118 121.433L98.6185 121.433ZM105.288 121.433L105.31 132L103.494 132L103.472 121.433L105.288 121.433ZM114.447 130.193L114.436 124.754C114.435 124.337 114.35 123.976 114.18 123.67C114.016 123.357 113.768 123.116 113.436 122.947C113.104 122.778 112.693 122.693 112.205 122.693C111.749 122.693 111.349 122.771 111.004 122.927C110.666 123.084 110.4 123.289 110.205 123.543C110.017 123.797 109.923 124.07 109.923 124.363L108.117 124.363C108.116 123.985 108.213 123.611 108.407 123.24C108.602 122.869 108.881 122.534 109.245 122.234C109.616 121.928 110.058 121.687 110.572 121.511C111.092 121.329 111.671 121.238 112.309 121.238C113.078 121.238 113.755 121.368 114.342 121.629C114.935 121.889 115.398 122.283 115.731 122.81C116.07 123.331 116.241 123.985 116.243 124.773L116.253 129.695C116.253 130.047 116.284 130.421 116.343 130.818C116.409 131.215 116.504 131.557 116.628 131.843L116.629 132L114.744 132C114.652 131.791 114.58 131.515 114.527 131.17C114.474 130.818 114.448 130.492 114.447 130.193ZM114.75 125.593L114.772 126.863L112.946 126.863C112.432 126.863 111.973 126.905 111.569 126.99C111.166 127.068 110.828 127.188 110.555 127.351C110.281 127.514 110.074 127.719 109.931 127.966C109.788 128.207 109.717 128.491 109.718 128.816C109.718 129.148 109.794 129.451 109.944 129.724C110.095 129.998 110.32 130.216 110.619 130.379C110.926 130.535 111.3 130.613 111.743 130.613C112.296 130.613 112.784 130.496 113.207 130.261C113.63 130.027 113.964 129.741 114.211 129.402C114.464 129.063 114.6 128.735 114.619 128.416L115.393 129.285C115.348 129.558 115.224 129.861 115.023 130.193C114.822 130.525 114.553 130.844 114.215 131.15C113.883 131.45 113.487 131.7 113.025 131.902C112.57 132.097 112.055 132.195 111.483 132.195C110.766 132.195 110.138 132.055 109.597 131.775C109.062 131.495 108.645 131.121 108.345 130.652C108.051 130.177 107.903 129.646 107.902 129.06C107.901 128.494 108.01 127.996 108.231 127.566C108.451 127.13 108.769 126.769 109.186 126.482C109.602 126.189 110.102 125.968 110.688 125.818C111.274 125.668 111.928 125.593 112.651 125.593L114.75 125.593ZM127.046 121.433L127.068 132L125.261 132L125.24 121.433L127.046 121.433ZM126.441 126.287L126.444 127.771C126.08 127.908 125.709 128.032 125.332 128.142C124.961 128.246 124.567 128.331 124.15 128.396C123.74 128.455 123.295 128.484 122.813 128.484C121.979 128.484 121.256 128.341 120.644 128.054C120.031 127.761 119.558 127.322 119.225 126.736C118.892 126.144 118.724 125.398 118.722 124.5L118.716 121.414L120.523 121.414L120.529 124.5C120.53 125.086 120.619 125.561 120.796 125.925C120.972 126.29 121.23 126.56 121.569 126.736C121.908 126.905 122.321 126.99 122.81 126.99C123.278 126.99 123.718 126.961 124.128 126.902C124.544 126.837 124.941 126.752 125.319 126.648C125.703 126.544 126.077 126.423 126.441 126.287ZM134.363 132.195C133.628 132.195 132.96 132.071 132.361 131.824C131.768 131.57 131.256 131.215 130.825 130.759C130.401 130.304 130.075 129.763 129.845 129.138C129.616 128.513 129.501 127.83 129.499 127.088L129.498 126.677C129.497 125.818 129.622 125.053 129.875 124.382C130.127 123.705 130.471 123.132 130.906 122.664C131.341 122.195 131.835 121.84 132.388 121.599C132.941 121.358 133.514 121.238 134.106 121.238C134.862 121.238 135.513 121.368 136.06 121.629C136.614 121.889 137.067 122.254 137.42 122.722C137.772 123.185 138.034 123.731 138.205 124.363C138.375 124.988 138.461 125.672 138.463 126.414L138.464 127.224L130.574 127.224L130.571 125.75L136.655 125.75L136.654 125.613C136.627 125.144 136.529 124.688 136.359 124.246C136.195 123.803 135.934 123.438 135.575 123.152C135.216 122.866 134.728 122.722 134.109 122.722C133.699 122.722 133.322 122.81 132.977 122.986C132.632 123.155 132.337 123.409 132.09 123.748C131.843 124.086 131.652 124.5 131.516 124.988C131.381 125.476 131.314 126.039 131.315 126.677L131.316 127.088C131.317 127.589 131.386 128.061 131.524 128.504C131.668 128.94 131.874 129.324 132.141 129.656C132.415 129.988 132.745 130.248 133.129 130.437C133.52 130.626 133.963 130.72 134.458 130.72C135.096 130.72 135.636 130.59 136.078 130.33C136.52 130.069 136.907 129.721 137.238 129.285L138.334 130.154C138.107 130.499 137.818 130.828 137.467 131.14C137.116 131.453 136.683 131.707 136.169 131.902C135.662 132.097 135.06 132.195 134.363 132.195ZM147.739 126.013L147.742 127.478L142.156 127.478L142.153 126.013L147.739 126.013ZM142.525 121.433L142.547 132L140.74 132L140.718 121.433L142.525 121.433ZM149.195 121.433L149.217 132L147.4 132L147.378 121.433L149.195 121.433ZM158.353 130.193L158.342 124.754C158.341 124.337 158.256 123.976 158.086 123.67C157.923 123.357 157.675 123.116 157.342 122.947C157.01 122.778 156.6 122.693 156.111 122.693C155.656 122.693 155.255 122.771 154.911 122.927C154.572 123.084 154.306 123.289 154.111 123.543C153.923 123.797 153.829 124.07 153.83 124.363L152.023 124.363C152.022 123.985 152.119 123.611 152.314 123.24C152.508 122.869 152.787 122.534 153.151 122.234C153.522 121.928 153.964 121.687 154.478 121.511C154.998 121.329 155.578 121.238 156.216 121.238C156.984 121.238 157.661 121.368 158.248 121.629C158.841 121.889 159.304 122.283 159.637 122.81C159.977 123.331 160.147 123.985 160.149 124.773L160.159 129.695C160.16 130.047 160.19 130.421 160.249 130.818C160.315 131.215 160.41 131.557 160.535 131.843L160.535 132L158.65 132C158.559 131.791 158.486 131.515 158.434 131.17C158.381 130.818 158.354 130.492 158.353 130.193ZM158.656 125.593L158.679 126.863L156.852 126.863C156.338 126.863 155.879 126.905 155.476 126.99C155.072 127.068 154.734 127.188 154.461 127.351C154.188 127.514 153.98 127.719 153.837 127.966C153.694 128.207 153.623 128.491 153.624 128.816C153.625 129.148 153.7 129.451 153.85 129.724C154.001 129.998 154.226 130.216 154.526 130.379C154.832 130.535 155.206 130.613 155.649 130.613C156.203 130.613 156.691 130.496 157.113 130.261C157.536 130.027 157.871 129.741 158.117 129.402C158.371 129.063 158.507 128.735 158.526 128.416L159.299 129.285C159.254 129.558 159.131 129.861 158.93 130.193C158.728 130.525 158.459 130.844 158.121 131.15C157.79 131.45 157.393 131.7 156.931 131.902C156.476 132.097 155.962 132.195 155.389 132.195C154.673 132.195 154.044 132.055 153.503 131.775C152.969 131.495 152.551 131.121 152.251 130.652C151.957 130.177 151.809 129.646 151.808 129.06C151.807 128.494 151.917 127.996 152.137 127.566C152.357 127.13 152.676 126.769 153.092 126.482C153.508 126.189 154.009 125.968 154.594 125.818C155.18 125.668 155.834 125.593 156.557 125.593L158.656 125.593ZM169.849 121.433L171.656 121.433L171.508 125.388C171.471 126.391 171.358 127.257 171.171 127.986C170.984 128.715 170.744 129.337 170.452 129.851C170.16 130.359 169.832 130.785 169.469 131.131C169.111 131.476 168.741 131.765 168.357 132L167.459 132L167.504 130.525L167.876 130.515C168.09 130.261 168.298 130.001 168.499 129.734C168.7 129.461 168.885 129.138 169.054 128.767C169.222 128.39 169.361 127.931 169.471 127.39C169.587 126.843 169.66 126.176 169.691 125.388L169.849 121.433ZM170.298 121.433L176.656 121.433L176.677 132L174.871 132L174.852 123.103L170.302 123.103L170.298 121.433ZM167.045 130.515L178.032 130.515L178.041 135.115L176.235 135.115L176.228 132L168.855 132L168.862 135.115L167.045 135.115L167.045 130.515ZM187.076 121.433L187.079 122.927L181.971 122.927L181.968 121.433L187.076 121.433ZM188.667 121.433L188.689 132L186.883 132L186.861 121.433L188.667 121.433ZM181.529 121.433L183.345 121.433L183.082 126.531C183.038 127.319 182.965 128.015 182.862 128.621C182.765 129.22 182.63 129.734 182.455 130.164C182.287 130.593 182.072 130.945 181.813 131.218C181.559 131.485 181.254 131.684 180.896 131.814C180.538 131.938 180.125 132 179.656 132L179.09 132L179.086 130.408L179.477 130.379C179.757 130.359 179.994 130.294 180.189 130.183C180.391 130.073 180.56 129.91 180.696 129.695C180.832 129.474 180.942 129.19 181.026 128.845C181.117 128.5 181.184 128.09 181.229 127.615C181.28 127.14 181.318 126.586 181.343 125.955L181.529 121.433ZM193.728 126.961L195.681 126.961L192.634 132L190.681 132L193.728 126.961ZM195.23 121.433L199.644 121.433L199.666 132L197.859 132L197.84 122.898L195.233 122.898C194.719 122.898 194.299 122.986 193.974 123.162C193.648 123.331 193.411 123.552 193.262 123.826C193.113 124.099 193.039 124.382 193.039 124.675C193.04 124.962 193.109 125.239 193.246 125.506C193.383 125.766 193.599 125.981 193.892 126.15C194.185 126.319 194.563 126.404 195.025 126.404L198.336 126.404L198.339 127.888L195.028 127.888C194.423 127.888 193.886 127.807 193.416 127.644C192.947 127.481 192.55 127.257 192.224 126.97C191.898 126.677 191.649 126.336 191.479 125.945C191.309 125.548 191.224 125.118 191.223 124.656C191.222 124.194 191.309 123.767 191.484 123.377C191.665 122.986 191.925 122.644 192.263 122.351C192.607 122.058 193.027 121.834 193.521 121.677C194.022 121.515 194.592 121.433 195.23 121.433ZM209.419 121.433L211.226 121.433L211.078 125.388C211.041 126.391 210.929 127.257 210.741 127.986C210.554 128.715 210.315 129.337 210.023 129.851C209.731 130.359 209.403 130.785 209.039 131.131C208.682 131.476 208.311 131.765 207.927 132L207.029 132L207.075 130.525L207.446 130.515C207.66 130.261 207.868 130.001 208.069 129.734C208.271 129.461 208.455 129.138 208.624 128.767C208.792 128.39 208.931 127.931 209.041 127.39C209.157 126.843 209.231 126.176 209.261 125.388L209.419 121.433ZM209.868 121.433L216.226 121.433L216.248 132L214.441 132L214.423 123.103L209.872 123.103L209.868 121.433ZM206.616 130.515L217.602 130.515L217.612 135.115L215.805 135.115L215.799 132L208.426 132L208.432 135.115L206.616 135.115L206.616 130.515ZM223.992 132.195C223.257 132.195 222.589 132.071 221.99 131.824C221.397 131.57 220.885 131.215 220.454 130.759C220.03 130.304 219.703 129.763 219.474 129.138C219.245 128.513 219.13 127.83 219.128 127.088L219.127 126.677C219.126 125.818 219.251 125.053 219.503 124.382C219.756 123.705 220.1 123.132 220.535 122.664C220.97 122.195 221.464 121.84 222.017 121.599C222.57 121.358 223.143 121.238 223.735 121.238C224.49 121.238 225.142 121.368 225.689 121.629C226.243 121.889 226.696 122.254 227.049 122.722C227.401 123.185 227.663 123.731 227.834 124.363C228.004 124.988 228.09 125.672 228.092 126.414L228.093 127.224L220.203 127.224L220.2 125.75L226.284 125.75L226.283 125.613C226.256 125.144 226.158 124.688 225.988 124.246C225.824 123.803 225.563 123.438 225.204 123.152C224.845 122.866 224.357 122.722 223.738 122.722C223.328 122.722 222.951 122.81 222.606 122.986C222.261 123.155 221.966 123.409 221.719 123.748C221.472 124.086 221.281 124.5 221.145 124.988C221.01 125.476 220.942 126.039 220.944 126.677L220.945 127.088C220.946 127.589 221.015 128.061 221.153 128.504C221.297 128.94 221.503 129.324 221.77 129.656C222.044 129.988 222.374 130.248 222.758 130.437C223.149 130.626 223.592 130.72 224.087 130.72C224.725 130.72 225.265 130.59 225.707 130.33C226.149 130.069 226.536 129.721 226.867 129.285L227.963 130.154C227.736 130.499 227.447 130.828 227.096 131.14C226.745 131.453 226.312 131.707 225.798 131.902C225.291 132.097 224.689 132.195 223.992 132.195ZM234.38 121.433L234.402 132L232.586 132L232.564 121.433L234.38 121.433ZM237.925 121.433L237.928 122.898L229.09 122.898L229.087 121.433L237.925 121.433ZM243.328 132.195C242.593 132.195 241.925 132.071 241.326 131.824C240.733 131.57 240.221 131.215 239.79 130.759C239.366 130.304 239.039 129.763 238.81 129.138C238.581 128.513 238.466 127.83 238.464 127.088L238.463 126.677C238.462 125.818 238.587 125.053 238.839 124.382C239.092 123.705 239.436 123.132 239.871 122.664C240.306 122.195 240.8 121.84 241.353 121.599C241.906 121.358 242.479 121.238 243.071 121.238C243.826 121.238 244.478 121.368 245.025 121.629C245.579 121.889 246.032 122.254 246.385 122.722C246.737 123.185 246.999 123.731 247.169 124.363C247.34 124.988 247.426 125.672 247.428 126.414L247.429 127.224L239.539 127.224L239.536 125.75L245.62 125.75L245.619 125.613C245.592 125.144 245.494 124.688 245.324 124.246C245.16 123.803 244.899 123.438 244.54 123.152C244.181 122.866 243.693 122.722 243.074 122.722C242.664 122.722 242.287 122.81 241.942 122.986C241.597 123.155 241.302 123.409 241.055 123.748C240.808 124.086 240.617 124.5 240.481 124.988C240.346 125.476 240.278 126.039 240.28 126.677L240.281 127.088C240.282 127.589 240.351 128.061 240.489 128.504C240.633 128.94 240.839 129.324 241.106 129.656C241.38 129.988 241.71 130.248 242.094 130.437C242.485 130.626 242.928 130.72 243.423 130.72C244.061 130.72 244.601 130.59 245.043 130.33C245.485 130.069 245.872 129.721 246.203 129.285L247.299 130.154C247.071 130.499 246.782 130.828 246.432 131.14C246.081 131.453 245.648 131.707 245.134 131.902C244.627 132.097 244.025 132.195 243.328 132.195ZM251.496 129.138L256.353 121.433L258.169 121.433L258.191 132L256.375 132L256.359 124.295L251.502 132L249.705 132L249.683 121.433L251.48 121.433L251.496 129.138ZM255.359 117.605L256.823 117.605C256.825 118.113 256.708 118.565 256.475 118.963C256.241 119.353 255.906 119.659 255.471 119.881C255.035 120.102 254.518 120.213 253.919 120.213C253.014 120.213 252.297 119.972 251.769 119.49C251.247 119.002 250.985 118.373 250.984 117.605L252.448 117.605C252.449 117.989 252.561 118.328 252.783 118.621C253.005 118.914 253.382 119.06 253.916 119.06C254.437 119.06 254.808 118.914 255.029 118.621C255.249 118.328 255.359 117.989 255.359 117.605ZM22.7169 157.656C23.0229 157.656 23.2832 157.601 23.4978 157.49C23.7189 157.373 23.8846 157.21 23.9948 157.002C24.1116 156.787 24.1664 156.53 24.1592 156.23L27.2549 156.23C27.2631 157.024 27.0692 157.721 26.6733 158.32C26.2839 158.912 25.751 159.375 25.0746 159.707C24.4047 160.032 23.6466 160.195 22.8003 160.195C21.9734 160.195 21.2505 160.061 20.6315 159.795C20.0124 159.521 19.4941 159.143 19.0764 158.662C18.6652 158.173 18.3548 157.604 18.1451 156.953C17.9419 156.302 17.8396 155.595 17.838 154.834L17.8375 154.609C17.836 153.847 17.9354 153.141 18.1359 152.49C18.3429 151.832 18.6509 151.263 19.0601 150.781C19.4757 150.293 19.9893 149.915 20.6007 149.648C21.2186 149.375 21.9377 149.238 22.7581 149.238C23.637 149.238 24.412 149.404 25.0833 149.736C25.7611 150.068 26.2927 150.55 26.6781 151.181C27.0635 151.813 27.2539 152.578 27.2492 153.476L24.1535 153.476C24.1594 153.157 24.11 152.871 24.0053 152.617C23.9006 152.363 23.7374 152.161 23.5157 152.011C23.3006 151.855 23.0237 151.777 22.6852 151.777C22.3466 151.777 22.0734 151.852 21.8653 152.002C21.6573 152.151 21.4982 152.36 21.3881 152.627C21.2845 152.887 21.2135 153.186 21.1751 153.525C21.1433 153.864 21.1278 154.225 21.1285 154.609L21.129 154.834C21.1298 155.224 21.1469 155.592 21.1801 155.937C21.2199 156.276 21.2954 156.575 21.4066 156.836C21.5178 157.089 21.6777 157.291 21.8864 157.441C22.095 157.584 22.3718 157.656 22.7169 157.656ZM33.2286 154.824L33.2282 154.619C33.2266 153.844 33.3358 153.131 33.5558 152.48C33.7758 151.823 34.1001 151.253 34.5288 150.771C34.9575 150.289 35.4873 149.915 36.1183 149.648C36.7492 149.375 37.4781 149.238 38.3049 149.238C39.1383 149.238 39.871 149.375 40.503 149.648C41.1416 149.915 41.6762 150.289 42.1069 150.771C42.5376 151.253 42.8643 151.823 43.087 152.48C43.3097 153.131 43.4219 153.844 43.4235 154.619L43.4239 154.824C43.4255 155.592 43.3163 156.305 43.0963 156.962C42.8763 157.614 42.552 158.183 42.1233 158.671C41.6946 159.153 41.1648 159.528 40.5338 159.795C39.9029 160.061 39.174 160.195 38.3471 160.195C37.5203 160.195 36.7876 160.061 36.149 159.795C35.5105 159.528 34.9758 159.153 34.5452 158.671C34.1145 158.183 33.7878 157.614 33.5651 156.962C33.3423 156.305 33.2302 155.592 33.2286 154.824ZM36.5192 154.619L36.5196 154.824C36.5204 155.221 36.5505 155.592 36.6098 155.937C36.6691 156.282 36.7674 156.585 36.9047 156.845C37.0419 157.099 37.2279 157.298 37.4625 157.441C37.6972 157.584 37.9903 157.656 38.3419 157.656C38.6869 157.656 38.9732 157.584 39.2008 157.441C39.4349 157.298 39.62 157.099 39.7562 156.845C39.8924 156.585 39.9894 156.282 40.0473 155.937C40.1052 155.592 40.1337 155.221 40.1329 154.824L40.1325 154.619C40.1317 154.235 40.1016 153.873 40.0423 153.535C39.983 153.19 39.8847 152.887 39.7475 152.627C39.6102 152.36 39.4242 152.151 39.1896 152.002C38.9549 151.852 38.6617 151.777 38.3102 151.777C37.9651 151.777 37.6756 151.852 37.4415 152.002C37.214 152.151 37.0321 152.36 36.8959 152.627C36.7597 152.887 36.6627 153.19 36.6048 153.535C36.5469 153.873 36.5184 154.235 36.5192 154.619ZM52.2702 149.433L52.2754 151.972L48.1153 151.972L48.1319 160L44.8409 160L44.819 149.433L52.2702 149.433ZM56.581 151.464L56.6071 164.062L53.3161 164.062L53.2858 149.433L56.3522 149.433L56.581 151.464ZM63.0719 154.589L63.0723 154.795C63.0739 155.563 62.9875 156.276 62.813 156.933C62.6386 157.591 62.3794 158.164 62.0354 158.652C61.6913 159.14 61.2624 159.521 60.7487 159.795C60.2414 160.061 59.6525 160.195 58.9819 160.195C58.3504 160.195 57.8065 160.055 57.3502 159.775C56.8939 159.495 56.5122 159.108 56.2052 158.613C55.8982 158.118 55.6496 157.552 55.4595 156.914C55.2694 156.276 55.1182 155.602 55.0061 154.892L55.0055 154.629C55.1146 153.867 55.2629 153.16 55.4504 152.509C55.6378 151.852 55.884 151.279 56.189 150.791C56.494 150.302 56.8708 149.921 57.3195 149.648C57.7746 149.375 58.318 149.238 58.9495 149.238C59.62 149.238 60.2095 149.365 60.7178 149.619C61.2327 149.873 61.6631 150.237 62.0092 150.713C62.3617 151.181 62.6265 151.744 62.8037 152.402C62.9808 153.06 63.0702 153.789 63.0719 154.589ZM59.7813 154.795L59.7809 154.589C59.78 154.179 59.7499 153.805 59.6906 153.466C59.6313 153.121 59.5363 152.822 59.4056 152.568C59.2814 152.314 59.1149 152.119 58.9063 151.982C58.6977 151.845 58.4404 151.777 58.1344 151.777C57.7828 151.777 57.4867 151.832 57.2461 151.943C57.0119 152.047 56.8235 152.21 56.6807 152.431C56.5444 152.646 56.4473 152.916 56.3894 153.242C56.338 153.561 56.316 153.935 56.3234 154.365L56.325 155.166C56.313 155.66 56.3627 156.097 56.4742 156.474C56.5856 156.845 56.7783 157.135 57.0522 157.343C57.326 157.552 57.6974 157.656 58.1661 157.656C58.4786 157.656 58.7389 157.584 58.9469 157.441C59.1549 157.291 59.3205 157.086 59.4437 156.826C59.5668 156.559 59.6541 156.253 59.7055 155.908C59.7568 155.563 59.7821 155.192 59.7813 154.795ZM70.0307 157.343L70.0217 152.988C70.0211 152.688 69.9782 152.431 69.8931 152.216C69.808 152.002 69.6742 151.836 69.4917 151.718C69.3092 151.595 69.0649 151.533 68.7589 151.533C68.5115 151.533 68.3 151.575 68.1244 151.66C67.9488 151.744 67.8156 151.871 67.7248 152.041C67.634 152.21 67.5889 152.425 67.5894 152.685L64.2984 152.685C64.2974 152.197 64.4039 151.744 64.6179 151.328C64.8383 150.905 65.1501 150.537 65.5531 150.224C65.9626 149.912 66.4504 149.671 67.0164 149.502C67.589 149.326 68.2268 149.238 68.9299 149.238C69.7698 149.238 70.5188 149.378 71.1769 149.658C71.8415 149.938 72.3665 150.358 72.7518 150.918C73.137 151.471 73.3305 152.168 73.3323 153.007L73.3412 157.334C73.3426 158.024 73.3828 158.548 73.4617 158.906C73.5405 159.257 73.6518 159.567 73.7956 159.834L73.796 160L70.4952 160C70.3382 159.674 70.2202 159.277 70.1411 158.808C70.0685 158.333 70.0317 157.845 70.0307 157.343ZM70.4232 153.545L70.4464 155.302L68.9913 155.302C68.6853 155.302 68.425 155.345 68.2103 155.429C68.0022 155.514 67.8331 155.631 67.7032 155.781C67.5798 155.924 67.489 156.087 67.4308 156.269C67.3791 156.451 67.3535 156.643 67.3539 156.845C67.3543 157.041 67.4002 157.216 67.4917 157.373C67.5897 157.522 67.7201 157.64 67.883 157.724C68.046 157.809 68.2284 157.851 68.4302 157.851C68.7948 157.851 69.1039 157.783 69.3575 157.646C69.6176 157.503 69.8158 157.33 69.9521 157.129C70.0884 156.927 70.1564 156.738 70.156 156.562L70.8815 157.91C70.7518 158.17 70.6026 158.434 70.4339 158.701C70.2717 158.968 70.0671 159.215 69.8202 159.443C69.5798 159.664 69.2839 159.847 68.9327 159.99C68.5814 160.127 68.1551 160.195 67.6538 160.195C67.0027 160.195 66.4035 160.061 65.8561 159.795C65.3152 159.528 64.8814 159.156 64.5549 158.681C64.2284 158.199 64.0645 157.646 64.0632 157.021C64.0621 156.474 64.1587 155.986 64.3532 155.556C64.5541 155.127 64.8561 154.762 65.2591 154.462C65.6621 154.163 66.176 153.935 66.8007 153.779C67.4253 153.623 68.1608 153.545 69.0072 153.545L70.4232 153.545ZM82.4643 153.554L82.4695 156.084L77.1961 156.084L77.1908 153.554L82.4643 153.554ZM78.3835 149.433L78.4053 160L75.1143 160L75.0924 149.433L78.3835 149.433ZM84.5651 149.433L84.587 160L81.2862 160L81.2643 149.433L84.5651 149.433ZM89.6364 155.566L92.5339 149.433L95.8249 149.433L95.8467 160L92.5557 160L92.543 153.847L89.6456 160L86.3448 160L86.3229 149.433L89.6237 149.433L89.6364 155.566ZM106.997 149.433L107.019 160L103.718 160L103.696 149.433L106.997 149.433ZM105.336 153.798L105.341 156.337C105.198 156.435 104.964 156.53 104.639 156.621C104.32 156.712 103.981 156.787 103.623 156.845C103.272 156.897 102.976 156.923 102.735 156.923C101.635 156.923 100.694 156.783 99.9118 156.504C99.1299 156.224 98.5301 155.784 98.1122 155.185C97.6942 154.58 97.4843 153.798 97.4823 152.841L97.4753 149.433L100.766 149.433L100.773 152.841C100.774 153.265 100.837 153.59 100.961 153.818C101.085 154.039 101.29 154.189 101.577 154.267C101.864 154.345 102.248 154.384 102.73 154.384C103.01 154.384 103.283 154.362 103.55 154.316C103.823 154.27 104.106 154.205 104.399 154.121C104.692 154.03 105.004 153.922 105.336 153.798ZM113.923 160.195C113.064 160.195 112.295 160.061 111.618 159.795C110.94 159.521 110.366 159.147 109.897 158.671C109.433 158.196 109.078 157.649 108.829 157.031C108.587 156.412 108.465 155.758 108.463 155.068L108.463 154.697C108.461 153.922 108.567 153.206 108.781 152.548C108.994 151.884 109.312 151.305 109.734 150.81C110.156 150.315 110.686 149.931 111.323 149.658C111.961 149.378 112.703 149.238 113.549 149.238C114.298 149.238 114.969 149.358 115.562 149.599C116.154 149.84 116.657 150.185 117.068 150.634C117.485 151.084 117.802 151.627 118.018 152.265C118.241 152.903 118.353 153.619 118.355 154.414L118.357 155.752L109.725 155.752L109.72 153.691L115.14 153.691L115.14 153.437C115.146 153.086 115.083 152.786 114.952 152.539C114.828 152.291 114.645 152.102 114.404 151.972C114.163 151.842 113.87 151.777 113.525 151.777C113.167 151.777 112.871 151.855 112.637 152.011C112.409 152.168 112.231 152.382 112.101 152.656C111.978 152.923 111.891 153.232 111.839 153.584C111.788 153.935 111.763 154.306 111.763 154.697L111.764 155.068C111.765 155.459 111.818 155.813 111.923 156.132C112.034 156.451 112.191 156.725 112.393 156.953C112.602 157.174 112.85 157.347 113.136 157.47C113.43 157.594 113.762 157.656 114.133 157.656C114.582 157.656 115.025 157.571 115.46 157.402C115.896 157.233 116.27 156.953 116.582 156.562L118.08 158.339C117.865 158.645 117.56 158.942 117.163 159.228C116.773 159.515 116.305 159.749 115.759 159.931C115.212 160.107 114.6 160.195 113.923 160.195ZM126.996 153.554L127.001 156.084L121.727 156.084L121.722 153.554L126.996 153.554ZM122.915 149.433L122.937 160L119.646 160L119.624 149.433L122.915 149.433ZM129.096 149.433L129.118 160L125.817 160L125.796 149.433L129.096 149.433ZM138.226 153.554L138.231 156.084L132.958 156.084L132.953 153.554L138.226 153.554ZM134.145 149.433L134.167 160L130.876 160L130.854 149.433L134.145 149.433ZM140.327 149.433L140.349 160L137.048 160L137.026 149.433L140.327 149.433ZM144.346 152.334L147.354 152.334C148.37 152.334 149.239 152.496 149.963 152.822C150.693 153.141 151.253 153.593 151.645 154.179C152.037 154.759 152.234 155.436 152.235 156.211C152.237 156.764 152.127 157.275 151.907 157.744C151.686 158.206 151.365 158.606 150.942 158.945C150.526 159.277 150.016 159.537 149.411 159.726C148.812 159.908 148.132 160 147.37 160L142.39 160L142.368 149.433L145.669 149.433L145.685 157.48L147.365 157.48C147.743 157.48 148.045 157.421 148.273 157.304C148.507 157.187 148.679 157.031 148.789 156.836C148.9 156.64 148.955 156.425 148.954 156.191C148.954 155.931 148.898 155.703 148.787 155.507C148.676 155.306 148.503 155.149 148.268 155.039C148.04 154.921 147.737 154.863 147.36 154.863L144.352 154.863L144.346 152.334ZM157.094 149.433L157.116 160L153.815 160L153.794 149.433L157.094 149.433ZM165.829 156.367L168.208 149.433L170.757 149.433L166.94 160L164.743 160L160.893 149.433L163.452 149.433L165.829 156.367ZM162.71 149.433L162.732 160L159.44 160L159.419 149.433L162.71 149.433ZM169.069 160L169.048 149.433L172.339 149.433L172.36 160L169.069 160ZM177.8 155.566L180.698 149.433L183.989 149.433L184.011 160L180.72 160L180.707 153.847L177.81 160L174.509 160L174.487 149.433L177.788 149.433L177.8 155.566ZM23.7473 183.693L20.5051 183.693L20.4814 181.662L23.1767 181.662C23.4436 181.662 23.6552 181.632 23.8113 181.574C23.9739 181.515 24.0877 181.427 24.1526 181.31C24.2239 181.186 24.2594 181.04 24.2591 180.871C24.2587 180.701 24.2324 180.558 24.1801 180.441C24.1342 180.324 24.0592 180.229 23.9549 180.158C23.8571 180.086 23.7333 180.034 23.5834 180.002C23.4336 179.969 23.2578 179.953 23.056 179.953L21.8158 179.953L21.8324 188L18.5414 188L18.5195 177.433L23.0508 177.433C23.7474 177.433 24.3725 177.495 24.9262 177.619C25.4798 177.736 25.9489 177.918 26.3335 178.166C26.7247 178.406 27.0248 178.712 27.2339 179.084C27.443 179.455 27.5481 179.891 27.5491 180.392C27.5498 180.718 27.4723 181.024 27.3166 181.31C27.161 181.597 26.9304 181.85 26.6248 182.072C26.3258 182.293 25.9551 182.475 25.5127 182.619C25.0703 182.755 24.5626 182.84 23.9898 182.873L23.7473 183.693ZM23.7562 188L19.8012 188L20.8018 185.48L23.751 185.48C24.0245 185.48 24.2458 185.447 24.4149 185.382C24.584 185.317 24.7075 185.22 24.7854 185.089C24.8632 184.959 24.902 184.8 24.9016 184.611C24.9012 184.429 24.8683 184.269 24.8029 184.132C24.7375 183.996 24.6201 183.888 24.4507 183.81C24.2878 183.732 24.0533 183.693 23.7473 183.693L21.1692 183.693L21.1845 181.662L23.9677 181.662L24.6726 182.492C25.493 182.537 26.1606 182.677 26.6754 182.912C27.1967 183.146 27.5782 183.442 27.8198 183.8C28.068 184.158 28.1925 184.552 28.1934 184.982C28.1944 185.483 28.0977 185.923 27.9031 186.3C27.7151 186.678 27.4325 186.994 27.0555 187.248C26.6784 187.495 26.2133 187.684 25.6602 187.814C25.1135 187.938 24.4789 188 23.7562 188ZM29.1264 182.824L29.126 182.619C29.1244 181.844 29.2336 181.131 29.4536 180.48C29.6736 179.822 29.9979 179.253 30.4266 178.771C30.8553 178.289 31.3851 177.915 32.0161 177.648C32.647 177.375 33.3759 177.238 34.2027 177.238C35.0361 177.238 35.7688 177.375 36.4008 177.648C37.0394 177.915 37.574 178.289 38.0047 178.771C38.4354 179.253 38.7621 179.822 38.9848 180.48C39.2075 181.131 39.3197 181.844 39.3213 182.619L39.3217 182.824C39.3233 183.592 39.2141 184.305 38.9941 184.962C38.7741 185.613 38.4498 186.183 38.0211 186.671C37.5924 187.153 37.0626 187.528 36.4316 187.794C35.8006 188.061 35.0718 188.195 34.2449 188.195C33.4181 188.195 32.6854 188.061 32.0468 187.794C31.4083 187.528 30.8736 187.153 30.443 186.671C30.0123 186.183 29.6856 185.613 29.4629 184.962C29.2401 184.305 29.128 183.592 29.1264 182.824ZM32.417 182.619L32.4174 182.824C32.4182 183.221 32.4483 183.592 32.5076 183.937C32.5669 184.282 32.6652 184.585 32.8025 184.845C32.9397 185.099 33.1257 185.298 33.3603 185.441C33.595 185.584 33.8881 185.656 34.2397 185.656C34.5847 185.656 34.871 185.584 35.0986 185.441C35.3327 185.298 35.5178 185.099 35.654 184.845C35.7902 184.585 35.8872 184.282 35.9451 183.937C36.003 183.592 36.0315 183.221 36.0307 182.824L36.0303 182.619C36.0295 182.235 35.9994 181.873 35.9401 181.535C35.8808 181.19 35.7825 180.887 35.6453 180.626C35.508 180.36 35.322 180.151 35.0873 180.002C34.8527 179.852 34.5595 179.777 34.208 179.777C33.8629 179.777 33.5734 179.852 33.3393 180.002C33.1117 180.151 32.9299 180.36 32.7937 180.626C32.6575 180.887 32.5605 181.19 32.5026 181.535C32.4447 181.873 32.4162 182.235 32.417 182.619ZM45.8943 182.96L43.7263 182.96L43.7235 181.632L45.081 181.632C45.3609 181.632 45.5854 181.59 45.7545 181.505C45.9301 181.421 46.0568 181.304 46.1347 181.154C46.219 180.998 46.2609 180.822 46.2605 180.626C46.2602 180.457 46.2305 180.294 46.1716 180.138C46.1192 179.982 46.0148 179.852 45.8583 179.748C45.7018 179.643 45.4706 179.591 45.1646 179.591C44.9107 179.591 44.6894 179.624 44.5008 179.689C44.3121 179.754 44.1658 179.855 44.0619 179.992C43.958 180.122 43.9063 180.291 43.9067 180.5L40.606 180.5C40.6045 179.816 40.7987 179.233 41.1883 178.752C41.5779 178.263 42.1012 177.892 42.7582 177.638C43.4153 177.378 44.1409 177.248 44.9352 177.248C45.6318 177.248 46.2634 177.316 46.8301 177.453C47.3968 177.583 47.8822 177.778 48.2864 178.039C48.6906 178.299 49.0005 178.621 49.2161 179.005C49.4383 179.383 49.5499 179.822 49.5509 180.324C49.5516 180.682 49.4677 181.02 49.2991 181.339C49.1305 181.658 48.8869 181.942 48.5684 182.189C48.2499 182.43 47.8629 182.619 47.4075 182.755C46.9586 182.892 46.4542 182.96 45.8943 182.96ZM43.7248 182.257L45.8928 182.257C46.5178 182.257 47.0681 182.319 47.5436 182.443C48.0256 182.56 48.4296 182.736 48.7556 182.97C49.0816 183.205 49.3263 183.494 49.4898 183.839C49.6598 184.178 49.7452 184.569 49.7462 185.011C49.7472 185.513 49.6309 185.962 49.3974 186.359C49.1638 186.75 48.8325 187.082 48.4033 187.355C47.9742 187.628 47.4668 187.837 46.8812 187.98C46.2956 188.123 45.6544 188.195 44.9578 188.195C44.2221 188.195 43.509 188.078 42.8184 187.843C42.1278 187.609 41.5607 187.248 41.117 186.759C40.6732 186.271 40.4506 185.643 40.449 184.875L43.7498 184.875C43.7501 185.05 43.7993 185.213 43.8973 185.363C43.9952 185.513 44.1485 185.633 44.357 185.724C44.572 185.809 44.8488 185.851 45.1873 185.851C45.5194 185.851 45.7764 185.796 45.9585 185.685C46.1471 185.574 46.277 185.431 46.3482 185.255C46.426 185.08 46.4647 184.901 46.4643 184.718C46.4637 184.438 46.4112 184.214 46.3067 184.044C46.2021 183.875 46.0456 183.751 45.8371 183.673C45.6351 183.589 45.3844 183.546 45.0849 183.546L43.7275 183.546L43.7248 182.257ZM57.7624 184.367L60.1406 177.433L62.6895 177.433L58.8734 188L56.6762 188L52.8262 177.433L55.3848 177.433L57.7624 184.367ZM54.6426 177.433L54.6644 188L51.3734 188L51.3516 177.433L54.6426 177.433ZM61.0023 188L60.9805 177.433L64.2715 177.433L64.2934 188L61.0023 188ZM66.0795 182.824L66.0791 182.619C66.0775 181.844 66.1867 181.131 66.4067 180.48C66.6267 179.822 66.951 179.253 67.3797 178.771C67.8084 178.289 68.3382 177.915 68.9692 177.648C69.6001 177.375 70.329 177.238 71.1558 177.238C71.9892 177.238 72.7219 177.375 73.354 177.648C73.9925 177.915 74.5272 178.289 74.9578 178.771C75.3885 179.253 75.7152 179.822 75.9379 180.48C76.1607 181.131 76.2728 181.844 76.2744 182.619L76.2748 182.824C76.2764 183.592 76.1672 184.305 75.9472 184.962C75.7272 185.613 75.4029 186.183 74.9742 186.671C74.5455 187.153 74.0157 187.528 73.3847 187.794C72.7538 188.061 72.0249 188.195 71.1981 188.195C70.3712 188.195 69.6385 188.061 69 187.794C68.3614 187.528 67.8268 187.153 67.3961 186.671C66.9654 186.183 66.6387 185.613 66.416 184.962C66.1933 184.305 66.0811 183.592 66.0795 182.824ZM69.3701 182.619L69.3705 182.824C69.3714 183.221 69.4014 183.592 69.4607 183.937C69.52 184.282 69.6183 184.585 69.7556 184.845C69.8928 185.099 70.0788 185.298 70.3135 185.441C70.5481 185.584 70.8412 185.656 71.1928 185.656C71.5379 185.656 71.8242 185.584 72.0517 185.441C72.2858 185.298 72.4709 185.099 72.6071 184.845C72.7433 184.585 72.8403 184.282 72.8982 183.937C72.9561 183.592 72.9846 183.221 72.9838 182.824L72.9834 182.619C72.9826 182.235 72.9526 181.873 72.8933 181.535C72.8339 181.19 72.7357 180.887 72.5984 180.626C72.4611 180.36 72.2752 180.151 72.0405 180.002C71.8058 179.852 71.5127 179.777 71.1611 179.777C70.8161 179.777 70.5265 179.852 70.2924 180.002C70.0649 180.151 69.883 180.36 69.7468 180.626C69.6107 180.887 69.5136 181.19 69.4558 181.535C69.3979 181.873 69.3693 182.235 69.3701 182.619ZM81.5416 184.308L76.9473 177.433L81.0586 177.433L83.0782 181.232L85.0508 181.232L84.6861 184.308L81.5416 184.308ZM83.1028 183.693L81.0121 188L77.0961 188L80.2582 182.316L83.1028 183.693ZM87.2988 177.433L87.3207 188L84.0394 188L84.0176 177.433L87.2988 177.433ZM94.3984 177.433L89.8326 184.308L86.6881 184.308L86.3204 181.232L88.293 181.232L90.2871 177.433L94.3984 177.433ZM90.3676 188L88.2688 183.693L91.225 182.316L94.391 188L90.3676 188ZM102.874 181.554L102.879 184.084L97.6056 184.084L97.6003 181.554L102.874 181.554ZM98.793 177.433L98.8148 188L95.5238 188L95.502 177.433L98.793 177.433ZM104.975 177.433L104.996 188L101.696 188L101.674 177.433L104.975 177.433ZM106.392 182.824L106.392 182.619C106.39 181.844 106.499 181.131 106.719 180.48C106.939 179.822 107.264 179.253 107.692 178.771C108.121 178.289 108.651 177.915 109.282 177.648C109.913 177.375 110.642 177.238 111.468 177.238C112.302 177.238 113.034 177.375 113.666 177.648C114.305 177.915 114.84 178.289 115.27 178.771C115.701 179.253 116.028 179.822 116.25 180.48C116.473 181.131 116.585 181.844 116.587 182.619L116.587 182.824C116.589 183.592 116.48 184.305 116.26 184.962C116.04 185.613 115.715 186.183 115.287 186.671C114.858 187.153 114.328 187.528 113.697 187.794C113.066 188.061 112.337 188.195 111.511 188.195C110.684 188.195 109.951 188.061 109.312 187.794C108.674 187.528 108.139 187.153 107.709 186.671C107.278 186.183 106.951 185.613 106.728 184.962C106.506 184.305 106.394 183.592 106.392 182.824ZM109.683 182.619L109.683 182.824C109.684 183.221 109.714 183.592 109.773 183.937C109.833 184.282 109.931 184.585 110.068 184.845C110.205 185.099 110.391 185.298 110.626 185.441C110.861 185.584 111.154 185.656 111.505 185.656C111.85 185.656 112.137 185.584 112.364 185.441C112.598 185.298 112.783 185.099 112.92 184.845C113.056 184.585 113.153 184.282 113.211 183.937C113.269 183.592 113.297 183.221 113.296 182.824L113.296 182.619C113.295 182.235 113.265 181.873 113.206 181.535C113.146 181.19 113.048 180.887 112.911 180.626C112.774 180.36 112.588 180.151 112.353 180.002C112.118 179.852 111.825 179.777 111.474 179.777C111.129 179.777 110.839 179.852 110.605 180.002C110.377 180.151 110.196 180.36 110.059 180.626C109.923 180.887 109.826 181.19 109.768 181.535C109.71 181.873 109.682 182.235 109.683 182.619ZM122.521 185.656C122.827 185.656 123.087 185.6 123.302 185.49C123.523 185.373 123.689 185.21 123.799 185.001C123.916 184.787 123.97 184.529 123.963 184.23L127.059 184.23C127.067 185.024 126.873 185.721 126.477 186.32C126.088 186.912 125.555 187.375 124.879 187.707C124.209 188.032 123.451 188.195 122.604 188.195C121.777 188.195 121.055 188.061 120.436 187.794C119.816 187.521 119.298 187.143 118.88 186.662C118.469 186.173 118.159 185.604 117.949 184.953C117.746 184.302 117.644 183.595 117.642 182.834L117.642 182.609C117.64 181.847 117.739 181.141 117.94 180.49C118.147 179.832 118.455 179.263 118.864 178.781C119.28 178.293 119.793 177.915 120.405 177.648C121.023 177.375 121.742 177.238 122.562 177.238C123.441 177.238 124.216 177.404 124.887 177.736C125.565 178.068 126.097 178.55 126.482 179.181C126.868 179.813 127.058 180.578 127.053 181.476L123.958 181.476C123.963 181.157 123.914 180.871 123.809 180.617C123.705 180.363 123.541 180.161 123.32 180.011C123.105 179.855 122.828 179.777 122.489 179.777C122.151 179.777 121.877 179.852 121.669 180.002C121.461 180.151 121.302 180.36 121.192 180.626C121.089 180.887 121.018 181.186 120.979 181.525C120.947 181.863 120.932 182.225 120.933 182.609L120.933 182.834C120.934 183.224 120.951 183.592 120.984 183.937C121.024 184.276 121.099 184.575 121.211 184.835C121.322 185.089 121.482 185.291 121.69 185.441C121.899 185.584 122.176 185.656 122.521 185.656ZM134.369 177.433L134.391 188L131.09 188L131.068 177.433L134.369 177.433ZM137.709 177.433L137.714 179.953L127.792 179.953L127.787 177.433L137.709 177.433ZM141.323 182.619L144.604 182.619L141.735 188L138.463 188L141.323 182.619ZM143.383 177.433L148.129 177.433L148.151 188L144.87 188L144.853 179.953L143.388 179.953C143.069 179.953 142.799 180.015 142.578 180.138C142.363 180.262 142.201 180.421 142.091 180.617C141.98 180.806 141.925 180.998 141.926 181.193C141.926 181.382 141.982 181.567 142.093 181.75C142.204 181.932 142.37 182.085 142.592 182.209C142.82 182.326 143.097 182.384 143.422 182.384L146.166 182.384L146.171 184.503L143.427 184.503C142.691 184.503 142.027 184.419 141.434 184.25C140.848 184.08 140.346 183.843 139.929 183.537C139.511 183.224 139.192 182.86 138.969 182.443C138.747 182.026 138.636 181.571 138.634 181.076C138.633 180.548 138.743 180.063 138.964 179.621C139.184 179.178 139.499 178.794 139.908 178.468C140.324 178.136 140.825 177.882 141.411 177.707C141.996 177.524 142.654 177.433 143.383 177.433ZM156.864 184.367L159.242 177.433L161.791 177.433L157.975 188L155.778 188L151.928 177.433L154.486 177.433L156.864 184.367ZM153.744 177.433L153.766 188L150.475 188L150.453 177.433L153.744 177.433ZM160.104 188L160.082 177.433L163.373 177.433L163.395 188L160.104 188ZM168.835 183.566L171.732 177.433L175.023 177.433L175.045 188L171.754 188L171.742 181.847L168.844 188L165.543 188L165.521 177.433L168.822 177.433L168.835 183.566ZM177.044 186.457C177.043 185.988 177.212 185.597 177.549 185.285C177.887 184.966 178.323 184.806 178.857 184.806C179.397 184.806 179.834 184.966 180.167 185.285C180.506 185.597 180.676 185.988 180.677 186.457C180.678 186.925 180.509 187.319 180.172 187.638C179.84 187.951 179.404 188.107 178.864 188.107C178.33 188.107 177.894 187.951 177.554 187.638C177.215 187.319 177.045 186.925 177.044 186.457Z" fill="#191919"/>
</svg>
