<svg width="735" height="374" viewBox="0 0 735 374" fill="none" xmlns="http://www.w3.org/2000/svg">
<path d="M17.4175 369.783L14.1473 357.132L8.85512 235.22L36.6362 226.919L36.5866 207.769L27.5017 206.961L31.2009 184.131L52.9373 173.717L182.064 122.682L194.382 122.147L192.708 83.5706L196.143 78.5508L194.389 48.5463L255.407 20.1463L333.995 47.4167L335.032 71.3039L338.504 72.3408L339.324 91.2165L335.885 90.2684L336.578 106.233L342.189 105.268C366.704 101.047 391.677 98.3544 416.405 97.2809C423.007 96.9943 429.719 96.8232 436.316 96.7623C474.348 96.4042 512.588 99.7952 549.965 106.832L555.907 107.957L556.83 129.233L630 112.392L704.648 135.128L705.557 156.074L726.511 161.569L706.459 176.856L712.606 318.438L693.392 326.022L693.335 324.702L646.697 335.641L646.753 336.931L636.362 336.856L635.2 337.102L608.122 336.654L231.855 357.528L231.935 359.388L218.241 358.359L182.855 366.705L17.3588 369.816L17.4175 369.783Z" fill="#FCC766"/>
<path d="M21.699 355.526L16.6992 240.352L44.2428 232.121L44.1699 200.314L36.3226 199.618L38.0782 188.808L55.9707 180.229L183.664 129.768L199.313 129.089L200.211 149.765L210.819 149.305L216.348 78.5907L255.906 29.911L326.68 54.499L327.918 83.0077C327.918 83.0077 328.294 90.628 328.417 93.4639L329.343 114.785L465.489 107.041L548.584 113.822L549.643 138.204L629.764 119.768L697.313 140.347L704.8 312.824L633.99 328.962L608.025 328.54L251.238 348.328L217.706 350.19L181.962 358.611L23.3001 361.59L21.7296 355.54L21.699 355.526Z" fill="#FCC766"/>
<path d="M271.769 246.086C333.032 238.916 399.491 233.686 470.539 231.684C523.69 230.189 574.266 230.654 621.986 232.521L622.95 254.728C575.256 254.153 525.669 254.636 474.305 256.445C403.938 258.914 336.946 263.626 273.629 269.892C273.014 261.951 272.384 254.011 271.769 246.071L271.769 246.086Z" fill="#D24024"/>
<path d="M306.679 341.382L334.482 340.175L331.375 268.603C322.117 269.351 312.861 270.143 303.622 270.965L306.679 341.396L306.679 341.382Z" fill="#D24024"/>
<path d="M377.815 338.294L411.38 336.836L408.19 263.344C397.018 263.98 385.833 264.661 374.651 265.401L377.815 338.294Z" fill="#D24024"/>
<path d="M448.256 261.349C448.121 261.355 447.986 261.361 447.851 261.367L451.053 335.129L486.793 333.578L483.6 260.026C480.553 260.128 477.49 260.216 474.443 260.318C465.752 260.62 456.943 260.972 448.256 261.349Z" fill="#D24024"/>
<path d="M522.939 331.994L605.029 328.43L601.989 258.419C574.653 258.268 547.168 258.499 519.772 259.057L522.939 331.994Z" fill="#D24024"/>
<path d="M549.984 146.412L630.159 129.207L638.82 328.737L607.993 328.512L605.197 258.204L626.997 256.867L625.83 229.994L590.722 228.797L587.962 165.223L556.674 161.666L550.663 162.047L549.984 146.412Z" fill="#D24024"/>
<path d="M650.051 179.5C649.173 172.082 645.953 167.186 643.689 167.314C641.425 167.442 638.778 172.608 638.662 179.994L645.031 326.694L657.513 324.032L650.051 179.5Z" fill="#D24024"/>
<path d="M667.61 182.992C666.792 175.571 663.933 170.659 661.909 170.777C659.899 170.895 657.598 176.046 657.527 183.43L663.6 323.332L674.583 320.751L667.595 182.993L667.61 182.992Z" fill="#D24024"/>
<path d="M683.516 186.811C682.742 179.389 680.063 174.469 678.189 174.58C676.33 174.691 674.193 179.835 674.168 187.217L679.911 319.512L690.06 317.132L683.531 186.811L683.516 186.811Z" fill="#D24024"/>
<path d="M639.172 146.028L709.484 164.458L703.576 168.954L695.984 166.863L633.218 149.459L639.172 146.028Z" fill="#D24024"/>
<path d="M704.77 312.811L698.476 167.837L694.142 166.341L700.572 314.466L704.77 312.811Z" fill="#D24024"/>
<path d="M286.999 242.658L281.394 113.544L290.022 115.59L296.776 240.701L286.999 242.658Z" fill="#D24024"/>
<path d="M308.395 170.038L306.23 120.148L315.073 121.959L317.039 167.258L308.395 170.038Z" fill="#D24024"/>
<path d="M217.507 126.059L220.649 119.474L246.948 116.513L241.824 119.351L222.564 121.706L220.019 128.175L217.507 126.059Z" fill="#D24024"/>
<path d="M231.144 296.135L227.438 233.969L222.565 121.706L220.019 128.175L227.318 296.301L231.144 296.135Z" fill="#D24024"/>
<path d="M331.24 80.5635L331.111 77.5926L257.021 55.5988L255.905 29.881L326.679 54.4691L326.59 52.4134L255.817 27.8554L202.299 52.7579L203.896 80.1987L200.418 85.2804L202.375 130.354L210.127 129.191L211.168 159.767L187.004 157.193L186.592 147.695L176.891 146.553L36.3065 199.588L44.1538 200.285L44.2267 232.091L16.6831 240.322L20.1937 305.262L23.2377 361.533L29.0053 361.418L26.5335 304.476L35.1167 303.427L37.6277 361.269L41.3227 361.199L38.7948 302.966L47.1687 301.941L49.7344 361.044L59.167 360.86L56.559 300.782L65.7398 299.647L68.3895 360.685L77.0263 360.521L74.3375 298.582L82.8908 297.534L85.618 360.358L93.6239 360.206L90.8608 296.557L98.4121 295.628L101.21 360.072L106.136 359.979L103.317 295.024L113.933 293.721L116.801 359.786L125.784 359.622L122.158 292.718L134.987 291.139L138.311 359.394L141.075 359.349C140.559 350.562 139.634 321.288 138.741 290.69L152.722 288.971L155.765 359.072L163.155 358.932L160.079 288.065L173.492 286.416L177.08 358.673L181.901 358.584L195.521 354.084L187.098 160.061L211.267 163.777L217.629 350.163L223.934 350.641L221.586 296.55L223.745 295.373L215.624 119.045L218.833 112.968L241.249 109.56L244.716 171.405L252.164 342.996L269.498 343.702L259.065 103.375L317.89 115.869L317.783 113.408L258.905 99.6834L257.187 60.1015L331.209 80.5498L331.24 80.5635ZM25.7304 285.284L23.8382 241.695L32.3707 239.476L34.2993 283.904L25.7304 285.284ZM37.9566 283.31L35.9934 238.086L44.2982 235.471L46.3161 281.955L37.9566 283.31ZM55.6914 280.45L53.4364 228.505L62.5157 225.029L64.8573 278.97L55.6914 280.45ZM73.4406 277.575L71.0984 223.619L79.6008 221.401L81.9796 276.197L73.4406 277.575ZM89.9366 274.92L87.5005 218.803L94.9886 216.418L97.4748 273.691L89.9359 274.905L89.9366 274.92ZM102.372 272.922L99.9023 216.025L101.106 215.356L110.395 211.871L112.971 271.214L102.372 272.922ZM120.943 269.921L117.777 211.536C118.392 211.509 130.967 207.881 130.967 207.881L133.885 267.826L120.942 269.906L120.943 269.921ZM138.096 267.162C137.187 234.806 136.445 206.636 136.445 206.636L149.03 203.219L151.711 264.977L138.096 267.177L138.096 267.162ZM159.055 263.772L156.349 201.443L169.119 197.807L172.296 261.633L159.055 263.772Z" fill="#D24024"/>
<path d="M536.401 163.523C447.555 156.195 366.73 162.245 296.668 174.14L297.596 195.522C306.903 194.171 316.454 192.914 326.234 191.723L328.17 236.316C330.071 236.144 331.973 235.971 333.86 235.814L332.298 199.833L361.24 197.148L365.228 233.25C366.546 233.147 367.879 233.044 369.199 232.957L365.891 187.596C378.157 186.523 390.759 185.6 403.655 184.859L405.64 230.578C406.825 230.512 408.01 230.46 409.195 230.394L407.542 192.312L443.988 190.73L445.635 228.677C446.58 228.636 447.526 228.595 448.486 228.553L446.515 183.164C450.706 183.073 454.926 182.995 459.179 182.945C466.766 182.856 474.252 182.847 481.65 182.887L483.586 227.48C484.442 227.458 485.298 227.451 486.154 227.429L484.536 190.143L515.499 190.738L517.073 227.004C518.396 226.991 519.718 226.979 521.04 226.967L519.162 183.694C528.257 184.035 537.174 184.46 545.931 184.982L547.754 226.965C548.295 226.971 548.852 226.977 549.393 226.984L547.874 191.993L566.982 193.749L568.434 227.209C570.224 227.237 571.999 227.25 573.79 227.293L572.032 186.81C577.116 187.221 582.156 187.649 587.107 188.11L586.277 168.994C570.126 166.794 553.495 164.946 536.402 163.538L536.401 163.523Z" fill="#D24024"/>
<path d="M436.384 103.87C392.055 104.276 353.658 109.746 322.955 116.19C324.527 124.014 324.969 133.496 326.541 141.32C331.329 140.465 336.331 139.677 341.516 138.941L342.584 163.548C344.364 163.336 346.128 163.124 347.909 162.926L347.152 145.506L370.776 142.541L371.554 160.472C372.392 160.39 373.215 160.309 374.054 160.243L372.976 135.395C381.706 134.626 390.804 133.99 400.163 133.494L401.236 158.221C402.63 158.131 404.026 158.07 405.405 157.98L404.654 140.695L431.873 139.513L432.625 156.843C433.691 156.812 434.742 156.782 435.793 156.751L434.728 132.219C441.622 132.085 448.609 132.007 455.674 132.001C457.809 131.998 459.899 132.013 461.989 132.027L463.05 156.47C463.832 156.466 464.614 156.477 465.396 156.488L464.645 139.188L488.781 140.079L489.514 156.96C490.357 156.983 491.185 157.007 492.028 157.031L490.995 133.234C497.977 133.742 504.74 134.396 511.327 135.147L512.317 157.954C512.935 157.987 513.553 158.036 514.156 158.07L513.485 142.615L529.155 145.167L529.761 159.121C531.163 159.225 532.565 159.315 533.953 159.435L533.03 138.174C538.707 139.085 544.267 140.076 549.709 141.118L548.523 113.794C518.013 108.053 480.021 103.449 436.353 103.856L436.384 103.87Z" fill="#D24024"/>
</svg>
