<svg width="425" height="401" viewBox="0 0 425 401" fill="none" xmlns="http://www.w3.org/2000/svg">
<path d="M15.9815 393.219C10.5015 393.119 6.14637 388.601 6.24662 383.122L6.98537 342.739L2.24559 333.402C-0.179532 328.626 1.64066 322.77 6.35349 320.213L17.6744 314.058C25.0912 305.497 34.3408 298.407 44.5135 293.486C52.2662 289.745 60.4369 287.235 68.8776 286.019L68.8881 285.448L43.1312 286.103C42.9844 286.1 42.8376 286.097 42.6908 286.095C37.6838 286.003 33.4961 282.158 33.0172 277.124C32.5246 271.943 36.1342 267.262 41.2726 266.409C43.8259 265.967 52.0722 263.784 55.8822 259.743C57.097 258.443 58.1791 257.256 59.1783 256.149C62.8422 252.072 66.3562 248.155 71.7861 245.644L72.3752 241.984C69.6691 240.972 67.4898 238.811 66.4973 235.987C65.1168 232.079 66.3219 227.745 69.4865 225.094L75.9809 219.682L82.6956 178.153L85.2739 160.287L85.4457 154.465C85.4573 153.829 85.5508 153.178 85.6929 152.545L89.629 135.372C89.8233 134.56 90.0985 133.782 90.4705 133.071L91.8094 130.338C97.0395 116.452 107.39 96.4268 127.142 78.9233C148.104 60.3489 170.665 52.4411 186.633 49.0787C189.31 46.3704 191.489 43.1962 193.02 39.7655C194.074 37.4028 194.821 34.9366 195.259 32.3832C194.72 31.5576 194.246 30.6842 193.855 29.7798C192.304 26.2437 192.185 22.9459 192.44 20.6175C192.568 17.1774 193.575 13.8513 195.374 10.9638C196.685 8.85056 198.399 7.02201 200.433 5.54193C202.169 4.2685 204.286 3.60572 206.455 3.6454L211.593 3.73939C213.436 3.7731 215.253 4.32839 216.8 5.3356C220.299 7.60212 222.945 11.0114 224.26 14.9184C225.034 17.233 225.331 19.7183 225.123 22.178C225.154 24.9195 224.583 27.6336 223.411 30.1246C222.953 31.0788 222.431 31.9992 221.828 32.8529C222.282 35.6511 223.113 38.4072 224.306 40.9741C225.955 44.4957 228.293 47.7362 231.148 50.4151C249.667 55.7299 274.585 67.0352 295.241 91.0534C306.263 103.883 314.607 118.67 320.002 134.985C320.327 135.97 320.504 137.001 320.501 138.013C320.697 138.93 320.777 139.894 320.711 140.839C320.722 141.1 320.734 141.378 320.729 141.655L319.308 219.321L322.097 219.372C324.266 219.411 326.373 220.168 328.078 221.521L338.289 229.636C341.618 232.275 342.89 236.752 341.447 240.739C341.034 241.906 340.394 242.972 339.611 243.871L339.516 249.09C347.088 251.627 351.127 256.464 355.374 261.567C356.332 262.71 357.353 263.953 358.536 265.296C362.324 269.623 370.812 272.063 372.892 272.492C377.996 273.532 381.432 278.343 380.75 283.502C380.087 288.515 375.762 292.204 370.755 292.113C370.608 292.11 370.461 292.107 370.314 292.105L349.634 290.813C358.892 292.222 367.763 295.141 376.084 299.552C386.07 304.841 395.038 312.249 402.153 321.091L413.241 327.657C417.857 330.384 419.462 336.303 416.864 340.987L410.588 352.309C410.267 352.891 409.898 353.422 409.465 353.92L408.796 390.502C408.696 395.982 404.178 400.337 398.698 400.237L15.9812 393.235L15.9815 393.219Z" fill="#B1DEF2"/>
<path d="M100.906 134.289C104.733 123.999 113.761 104.048 133.694 86.3849C155.452 67.1072 178.737 60.6972 190.705 58.4037C191.654 58.2253 192.522 58.0617 193.324 57.9295C203.791 58.2841 214.276 58.6228 224.743 58.9775C236.533 61.983 264.87 70.9852 287.699 97.5392C300.574 112.523 307.147 127.784 310.58 138.141C310.427 138.465 310.612 139.969 310.708 140.036C310.725 140.037 310.836 140.169 310.785 140.282C310.65 140.574 309.51 140.438 309.391 140.697C308.14 140.413 304.855 139.831 301.206 141.331C295.929 143.502 294.013 148.329 293.671 149.203C292.573 146.769 290.268 142.583 285.85 138.847C280.194 134.078 274.231 132.745 271.514 132.304C269.377 132.297 264.575 132.601 259.513 135.543C254.549 138.422 251.949 142.338 250.871 144.195C249.448 141.722 246.541 137.394 241.321 133.807C235.182 129.584 229.131 128.608 226.215 128.343C223.429 128.129 215.944 127.926 208.485 132.57C203.914 135.423 201.157 138.962 199.68 141.219C197.992 138.953 194.797 135.273 189.629 132.388C183.395 128.913 177.563 128.399 174.611 128.345C172.065 128.412 166.754 128.886 161.179 132.194C154.664 136.056 151.562 141.513 150.427 143.793C149.595 142.016 146.383 135.692 139 132.588C134.79 130.814 130.956 130.809 128.816 130.982C126.641 131.285 123.838 131.968 120.906 133.513C112.834 137.754 109.627 145.38 108.7 147.908C108.588 146.878 108.135 144.015 105.833 141.411C103.34 138.592 100.286 137.867 99.2943 137.67C99.8367 136.554 100.379 135.454 100.922 134.338L100.906 134.289Z" fill="#369689"/>
<path d="M332.111 237.42L75.8404 232.732L85.1187 224.972L321.899 229.304L332.111 237.42Z" fill="#369689"/>
<path d="M122.932 211.845L123.89 159.459C123.452 152.224 129.403 147.079 134.466 147.662C138.861 148.182 143.014 153.088 142.592 159.182L141.622 212.187L122.932 211.845Z" fill="#369689"/>
<path d="M94.3249 211.322L95.2832 158.936C95.024 151.704 99.1812 146.527 102.679 147.08C105.721 147.576 108.584 152.458 108.244 158.553L107.274 211.559L94.3249 211.322Z" fill="#369689"/>
<path d="M163.395 212.586L164.354 160.2C163.866 152.963 170.372 147.829 175.908 148.42C180.728 148.948 185.271 153.861 184.817 159.954L183.848 212.96L163.395 212.586Z" fill="#369689"/>
<path d="M111.035 385.038L111.757 345.553C111.384 340.097 116.284 336.222 120.469 336.674C124.1 337.067 127.524 340.768 127.179 345.362L126.448 385.304L111.035 385.022L111.035 385.038Z" fill="#369689"/>
<path d="M147.731 385.71L148.453 346.225C148.194 340.771 151.953 336.875 155.142 337.309C157.909 337.685 160.517 341.371 160.238 345.967L159.507 385.909L147.731 385.694L147.731 385.71Z" fill="#369689"/>
<path d="M67.1947 384.236L67.9171 344.751C67.5437 339.295 72.444 335.42 76.6287 335.872C80.2597 336.265 83.6833 339.966 83.3382 344.56L82.6075 384.502L67.195 384.22L67.1947 384.236Z" fill="#369689"/>
<path d="M31.9182 383.591L32.6405 344.106C32.4303 338.653 35.7157 334.748 38.5141 335.175C40.9382 335.546 43.2038 339.225 42.9403 343.821L42.2096 383.763L31.9185 383.575L31.9182 383.591Z" fill="#369689"/>
<path d="M211.117 213.459L212.075 161.073C211.588 153.836 218.093 148.702 223.63 149.293C228.449 149.821 232.993 154.734 232.539 160.827L231.569 213.833L211.117 213.459Z" fill="#369689"/>
<path d="M257.012 214.298L257.97 161.912C257.499 154.676 263.76 149.537 269.084 150.124C273.708 150.649 278.072 155.558 277.634 161.652L276.665 214.658L257.028 214.299L257.012 214.298Z" fill="#369689"/>
<path d="M294.572 214.985L295.531 162.599C295.206 155.366 299.967 150.2 303.986 150.763C307.485 151.267 310.756 156.156 310.4 162.252L309.43 215.257L294.589 214.986L294.572 214.985Z" fill="#369689"/>
<path d="M186.665 253.374L230.146 254.17L263.114 282.051L150.611 279.993L186.665 253.374Z" fill="#369689"/>
<path d="M82.659 253.282L85.3238 258.34L86.1227 270.852L89.5803 270.915L82.258 275.202L42.888 276.211C42.888 276.211 56.045 274.038 63.0829 266.564C70.1208 259.09 72.6168 254.649 80.5878 253.245" fill="#369689"/>
<path d="M332.014 257.844L329.166 262.801L327.91 275.275L324.452 275.212L331.613 279.764L370.92 282.212C370.92 282.212 357.851 279.559 351.091 271.832C344.331 264.106 341.999 259.577 334.085 257.882" fill="#369689"/>
<path d="M77.7656 295.155L117.022 295.873C121.843 296.32 128.933 297.592 136.665 301.258C142.002 303.786 146.141 306.749 149.162 309.285C151.851 311.21 154.922 313.713 158.028 316.903C160.735 319.677 162.904 322.392 164.638 324.822C166.064 326.235 168.717 329.253 170.182 333.929C171.785 339.049 171.101 343.409 170.657 345.375C169.98 343.193 168.561 339.594 165.46 336.094C163.222 333.557 160.869 331.948 159.142 330.954C157.232 331.017 153.767 331.378 150.092 333.382C144.72 336.302 142.271 340.842 141.44 342.573C140.629 340.535 138.401 335.681 133.152 331.849C128.242 328.268 123.296 327.508 121.113 327.305C119.304 327.191 114.102 327.079 108.756 330.375C103.591 333.56 101.355 338.071 100.623 339.754C98.4894 339.535 96.3557 339.333 94.2225 339.115C93.2474 337.123 91.4588 334.121 88.2948 331.387C82.9784 326.803 77.1225 325.848 74.7126 325.592C72.59 325.683 64.797 326.275 59.3498 332.408C57.684 334.286 56.6367 336.241 55.9538 337.893C53.9792 337.922 52.0049 337.934 50.0302 337.964C49.472 336.371 48.0964 333.083 44.8363 330.25C40.709 326.666 36.1522 326.045 34.5233 325.901C33.0009 326.183 28.7411 327.165 25.0832 330.916C21.1759 334.923 20.4058 339.559 20.2156 341.04C19.1262 340.841 18.0364 340.658 16.9306 340.458L11.0727 328.914L24.025 321.875C28.113 316.908 36.1135 308.538 48.8044 302.407C60.6724 296.67 71.4306 295.414 77.7332 295.138L77.7656 295.155Z" fill="#369689"/>
<path d="M306.259 388.61L306.981 349.125C307.554 343.686 302.799 339.635 298.6 339.933C294.958 340.193 291.401 343.766 291.577 348.37C291.334 361.678 291.09 375.003 290.847 388.312L306.259 388.594L306.259 388.61Z" fill="#369689"/>
<path d="M269.562 387.939L270.285 348.454C270.743 343.013 267.13 338.982 263.926 339.299C261.148 339.574 258.407 343.162 258.518 347.765C258.275 361.074 258.031 374.398 257.787 387.707L269.563 387.922L269.562 387.939Z" fill="#369689"/>
<path d="M350.082 389.412L350.805 349.926C351.377 344.488 346.622 340.436 342.424 340.735C338.781 340.994 335.224 344.567 335.401 349.171C335.157 362.48 334.914 375.805 334.67 389.113L350.083 389.395L350.082 389.412Z" fill="#369689"/>
<path d="M385.376 390.057L386.098 350.572C386.508 345.131 383.367 341.109 380.555 341.432C378.119 341.714 375.72 345.308 375.816 349.911C375.572 363.219 375.328 376.544 375.085 389.853L385.376 390.041L385.376 390.057Z" fill="#369689"/>
<path d="M342.794 300.003L303.537 299.285C298.703 299.556 291.571 300.567 283.711 303.948C278.284 306.279 274.04 309.089 270.928 311.512C268.17 313.338 265.01 315.727 261.789 318.801C258.983 321.474 256.716 324.108 254.894 326.473C253.417 327.833 250.656 330.752 249.021 335.372C247.232 340.429 247.756 344.811 248.127 346.792C248.885 344.636 250.434 341.091 253.661 337.708C255.99 335.254 258.4 333.732 260.163 332.802C262.069 332.935 265.519 333.422 269.118 335.56C274.38 338.674 276.661 343.301 277.428 345.06C278.313 343.053 280.717 338.285 286.102 334.647C291.14 331.248 296.111 330.67 298.299 330.547C300.111 330.498 305.314 330.577 310.536 334.066C315.581 337.438 317.651 342.027 318.321 343.736C320.461 343.596 322.6 343.472 324.74 343.332C325.787 341.377 327.685 338.442 330.947 335.826C336.427 331.44 342.314 330.699 344.731 330.531C346.849 330.701 354.616 331.577 359.835 337.905C361.431 339.843 362.406 341.835 363.028 343.51C365 343.611 366.973 343.696 368.945 343.798C369.561 342.227 371.056 338.991 374.417 336.279C378.673 332.849 383.249 332.394 384.883 332.31C386.394 332.648 390.615 333.785 394.133 337.667C397.891 341.815 398.491 346.476 398.627 347.963C399.723 347.803 400.819 347.66 401.931 347.501L408.207 336.179L395.521 328.671C391.618 323.558 383.928 314.901 371.47 308.31C359.82 302.142 349.115 300.494 342.827 299.988L342.794 300.003Z" fill="#369689"/>
<path d="M205.565 29.1292C205.388 32.5684 204.686 37.9068 202.049 43.8298C198.783 51.1607 194.112 55.8392 191.311 58.2678L225.756 58.8979C223.057 56.5971 218.571 52.1427 215.305 45.1491C212.26 38.6001 211.634 32.699 211.534 29.2384C212.145 28.8417 213.551 27.8069 214.434 25.8979C215.249 24.1671 215.245 22.5845 215.193 21.8494C215.306 21.0521 215.396 19.6506 214.855 18.0582C213.988 15.4646 212.072 14.0917 211.411 13.6554L206.274 13.5614C205.596 14.0548 204.601 14.9013 203.794 16.2243C202.483 18.3213 202.347 20.3908 202.346 21.337C202.235 22.0692 202.072 23.8445 202.95 25.8184C203.748 27.6439 205.002 28.6784 205.598 29.1135L205.565 29.1292Z" fill="#369689"/>
</svg>
