<svg width="814" height="662" viewBox="0 0 814 662" fill="none" xmlns="http://www.w3.org/2000/svg">
<g clip-path="url(#clip0_107_886)">
<rect width="814" height="662" fill="white"/>
<rect x="39" y="153.308" width="612.327" height="400" transform="rotate(-3 39 153.308)" fill="#B0DDF1"/>
<mask id="path-2-outside-1_107_886" maskUnits="userSpaceOnUse" x="32" y="199.906" width="442" height="309" fill="black">
<rect fill="white" x="32" y="199.906" width="442" height="309"/>
<path d="M439.559 218.316H467.186V502.008H38V218.316H68.8359L99.6709 206.906L131.483 218.316H222.733L254.546 206.906L286.079 218.316H384.585L411.933 206.906L439.559 218.316Z"/>
</mask>
<path d="M439.559 218.316H467.186V502.008H38V218.316H68.8359L99.6709 206.906L131.483 218.316H222.733L254.546 206.906L286.079 218.316H384.585L411.933 206.906L439.559 218.316Z" fill="#FCFCFC"/>
<path d="M439.559 218.316L437.268 223.862L438.368 224.316H439.559V218.316ZM467.186 218.316H473.186V212.316H467.186V218.316ZM467.186 502.008V508.008H473.186V502.008H467.186ZM38 502.008H32V508.008H38V502.008ZM38 218.316V212.316H32V218.316H38ZM68.8359 218.316V224.316H69.9105L70.9182 223.944L68.8359 218.316ZM99.6709 206.906L101.697 201.259L99.6388 200.52L97.5886 201.279L99.6709 206.906ZM131.483 218.316L129.458 223.964L130.44 224.316H131.483V218.316ZM222.733 218.316V224.316H223.777L224.759 223.964L222.733 218.316ZM254.546 206.906L256.587 201.264L254.555 200.529L252.52 201.259L254.546 206.906ZM286.079 218.316L284.038 223.958L285.027 224.316H286.079V218.316ZM384.585 218.316V224.316H385.786L386.895 223.854L384.585 218.316ZM411.933 206.906L414.223 201.361L411.921 200.41L409.622 201.369L411.933 206.906ZM439.559 218.316V224.316H467.186V218.316V212.316H439.559V218.316ZM467.186 218.316H461.186V502.008H467.186H473.186V218.316H467.186ZM467.186 502.008V496.008H38V502.008V508.008H467.186V502.008ZM38 502.008H44V218.316H38H32V502.008H38ZM38 218.316V224.316H68.8359V218.316V212.316H38V218.316ZM68.8359 218.316L70.9182 223.944L101.753 212.533L99.6709 206.906L97.5886 201.279L66.7537 212.689L68.8359 218.316ZM99.6709 206.906L97.6452 212.554L129.458 223.964L131.483 218.316L133.509 212.669L101.697 201.259L99.6709 206.906ZM131.483 218.316V224.316H222.733V218.316V212.316H131.483V218.316ZM222.733 218.316L224.759 223.964L256.572 212.554L254.546 206.906L252.52 201.259L220.708 212.669L222.733 218.316ZM254.546 206.906L252.504 212.548L284.038 223.958L286.079 218.316L288.121 212.674L256.587 201.264L254.546 206.906ZM286.079 218.316V224.316H384.585V218.316V212.316H286.079V218.316ZM384.585 218.316L386.895 223.854L414.243 212.444L411.933 206.906L409.622 201.369L382.275 212.779L384.585 218.316ZM411.933 206.906L409.642 212.452L437.268 223.862L439.559 218.316L441.849 212.771L414.223 201.361L411.933 206.906Z" fill="#EB6F20" mask="url(#path-2-outside-1_107_886)"/>
<rect x="38" y="395.541" width="429.185" height="106.893" fill="#EB6F20"/>
<rect x="61.9991" y="267.068" width="29.1469" height="32.6738" fill="#FAC566"/>
<rect x="112.689" y="267.068" width="29.1469" height="32.6738" fill="#FAC566"/>
<rect x="163.379" y="267.068" width="29.1469" height="32.6738" fill="#FAC566"/>
<rect x="214.07" y="267.068" width="29.1469" height="32.6738" fill="#FAC566"/>
<rect x="264.76" y="267.068" width="29.1469" height="32.6738" fill="#FAC566"/>
<rect x="315.45" y="267.068" width="29.1469" height="32.6738" fill="#FAC566"/>
<rect x="366.141" y="267.068" width="29.1469" height="32.6738" fill="#FAC566"/>
<rect x="416.831" y="267.068" width="29.1469" height="32.6738" fill="#FAC566"/>
<rect x="61.9991" y="315.301" width="29.1469" height="32.6738" fill="#FAC566"/>
<rect x="112.689" y="315.301" width="29.1469" height="32.6738" fill="#FAC566"/>
<rect x="163.379" y="315.301" width="29.1469" height="32.6738" fill="#FAC566"/>
<rect x="214.07" y="315.301" width="29.1469" height="32.6738" fill="#FAC566"/>
<rect x="264.76" y="315.301" width="29.1469" height="32.6738" fill="#FAC566"/>
<rect x="315.45" y="315.301" width="29.1469" height="32.6738" fill="#FAC566"/>
<rect x="366.141" y="315.301" width="29.1469" height="32.6738" fill="#FAC566"/>
<rect x="416.831" y="315.301" width="29.1469" height="32.6738" fill="#FAC566"/>
<rect x="61.9991" y="363.533" width="29.1469" height="32.6738" fill="#FAC566"/>
<rect x="112.689" y="363.533" width="29.1469" height="32.6738" fill="#FAC566"/>
<rect x="163.379" y="363.533" width="29.1469" height="32.6738" fill="#FAC566"/>
<rect x="214.07" y="363.533" width="29.1469" height="32.6738" fill="#FAC566"/>
<rect x="264.76" y="363.533" width="29.1469" height="32.6738" fill="#FAC566"/>
<rect x="315.45" y="363.533" width="29.1469" height="32.6738" fill="#FAC566"/>
<rect x="366.141" y="363.533" width="29.1469" height="32.6738" fill="#FAC566"/>
<rect x="416.831" y="363.533" width="29.1469" height="32.6738" fill="#FAC566"/>
<rect x="61.9993" y="411.766" width="29.1469" height="33.1925" fill="#FAC566"/>
<rect x="112.689" y="411.766" width="29.1469" height="33.1925" fill="#FAC566"/>
<rect x="163.379" y="411.766" width="29.1469" height="33.1925" fill="#FAC566"/>
<rect x="214.07" y="411.766" width="29.1469" height="33.1925" fill="#FAC566"/>
<rect x="264.76" y="411.766" width="29.1469" height="33.1925" fill="#FAC566"/>
<rect x="315.45" y="411.766" width="29.1469" height="33.1925" fill="#FAC566"/>
<rect x="366.141" y="411.766" width="29.1469" height="33.1925" fill="#FAC566"/>
<rect x="416.831" y="411.766" width="29.1469" height="33.1925" fill="#FAC566"/>
<rect x="61.999" y="460.518" width="29.1469" height="33.1925" fill="#FAC566"/>
<rect x="112.689" y="460.518" width="29.1469" height="33.1925" fill="#FAC566"/>
<rect x="163.379" y="460.518" width="29.1469" height="33.1925" fill="#FAC566"/>
<rect x="214.07" y="460.518" width="29.1469" height="33.1925" fill="#FAC566"/>
<rect x="264.76" y="460.518" width="29.1469" height="33.1925" fill="#FAC566"/>
<rect x="315.45" y="460.518" width="29.1469" height="33.1925" fill="#FAC566"/>
<rect x="366.141" y="460.518" width="29.1469" height="33.1925" fill="#FAC566"/>
<rect x="416.831" y="460.518" width="29.1469" height="33.1925" fill="#FAC566"/>
<ellipse cx="99.9503" cy="226.096" rx="6.6973" ry="6.22359" fill="#EB6F20"/>
<ellipse cx="255.104" cy="226.096" rx="6.6973" ry="6.22359" fill="#EB6F20"/>
<ellipse cx="412.491" cy="226.096" rx="6.6973" ry="6.22359" fill="#EB6F20"/>
<rect x="62.1659" y="246.43" width="383.753" height="6.28784" fill="#EB6F20"/>
<rect x="43.5812" y="383.76" width="418.023" height="3.1118" fill="#EB6F20"/>
<rect x="112.787" y="335.527" width="29.0216" height="3.1118" fill="#EB6F20"/>
<rect x="214.363" y="335.527" width="29.0216" height="3.1118" fill="#EB6F20"/>
<rect x="265.15" y="335.527" width="29.0216" height="3.1118" fill="#EB6F20"/>
<rect x="366.168" y="335.527" width="29.0216" height="3.1118" fill="#EB6F20"/>
<rect x="416.956" y="335.527" width="29.0216" height="3.1118" fill="#EB6F20"/>
<rect x="43.5812" y="393.095" width="418.023" height="3.1118" fill="#EB6F20"/>
<rect x="112.787" y="344.863" width="29.0216" height="3.1118" fill="#EB6F20"/>
<rect x="214.363" y="344.863" width="29.0216" height="3.1118" fill="#EB6F20"/>
<rect x="265.15" y="344.863" width="29.0216" height="3.1118" fill="#EB6F20"/>
<rect x="366.168" y="344.863" width="29.0216" height="3.1118" fill="#EB6F20"/>
<rect x="416.956" y="344.863" width="29.0216" height="3.1118" fill="#EB6F20"/>
<rect x="43.5812" y="386.872" width="2.79054" height="6.22359" fill="#EB6F20"/>
<rect x="50.2784" y="386.872" width="2.79054" height="6.22359" fill="#EB6F20"/>
<rect x="56.9757" y="386.872" width="2.79054" height="6.22359" fill="#EB6F20"/>
<rect x="63.6732" y="386.872" width="2.79054" height="6.22359" fill="#EB6F20"/>
<rect x="112.787" y="338.639" width="2.79054" height="6.22359" fill="#EB6F20"/>
<rect x="214.363" y="338.639" width="2.79054" height="6.22359" fill="#EB6F20"/>
<rect x="265.15" y="338.639" width="2.79054" height="6.22359" fill="#EB6F20"/>
<rect x="366.168" y="338.639" width="2.79054" height="6.22359" fill="#EB6F20"/>
<rect x="416.956" y="338.639" width="2.79054" height="6.22359" fill="#EB6F20"/>
<rect x="119.484" y="338.639" width="2.79054" height="6.22359" fill="#EB6F20"/>
<rect x="221.06" y="338.639" width="2.79054" height="6.22359" fill="#EB6F20"/>
<rect x="271.847" y="338.639" width="2.79054" height="6.22359" fill="#EB6F20"/>
<rect x="372.865" y="338.639" width="2.79054" height="6.22359" fill="#EB6F20"/>
<rect x="423.653" y="338.639" width="2.79054" height="6.22359" fill="#EB6F20"/>
<rect x="126.181" y="338.639" width="2.23243" height="6.22359" fill="#EB6F20"/>
<rect x="227.757" y="338.639" width="2.23243" height="6.22359" fill="#EB6F20"/>
<rect x="278.545" y="338.639" width="2.23243" height="6.22359" fill="#EB6F20"/>
<rect x="379.563" y="338.639" width="2.23243" height="6.22359" fill="#EB6F20"/>
<rect x="430.35" y="338.639" width="2.23243" height="6.22359" fill="#EB6F20"/>
<rect x="132.321" y="338.639" width="2.79054" height="6.22359" fill="#EB6F20"/>
<rect x="233.896" y="338.639" width="2.79054" height="6.22359" fill="#EB6F20"/>
<rect x="284.684" y="338.639" width="2.79054" height="6.22359" fill="#EB6F20"/>
<rect x="385.702" y="338.639" width="2.79054" height="6.22359" fill="#EB6F20"/>
<rect x="436.49" y="338.639" width="2.79054" height="6.22359" fill="#EB6F20"/>
<rect x="61.9991" y="335.527" width="29.0216" height="3.1118" fill="#EB6F20"/>
<rect x="61.9993" y="344.863" width="29.0216" height="3.1118" fill="#EB6F20"/>
<rect x="61.9993" y="338.639" width="2.79054" height="6.22359" fill="#EB6F20"/>
<rect x="68.6963" y="338.639" width="2.79054" height="6.22359" fill="#EB6F20"/>
<rect x="75.3936" y="338.639" width="2.23243" height="6.22359" fill="#EB6F20"/>
<rect x="81.5327" y="338.639" width="2.79054" height="6.22359" fill="#EB6F20"/>
<rect x="88.2302" y="338.639" width="2.79054" height="6.22359" fill="#EB6F20"/>
<rect x="61.9991" y="287.294" width="29.0216" height="3.1118" fill="#EB6F20"/>
<rect x="61.9993" y="296.629" width="29.0216" height="3.1118" fill="#EB6F20"/>
<rect x="61.9993" y="290.406" width="2.79054" height="6.22359" fill="#EB6F20"/>
<rect x="68.6963" y="290.406" width="2.79054" height="6.22359" fill="#EB6F20"/>
<rect x="75.3936" y="290.406" width="2.23243" height="6.22359" fill="#EB6F20"/>
<rect x="81.5327" y="290.406" width="2.79054" height="6.22359" fill="#EB6F20"/>
<rect x="88.2302" y="290.406" width="2.79054" height="6.22359" fill="#EB6F20"/>
<rect x="213.804" y="287.294" width="29.0216" height="3.1118" fill="#EB6F20"/>
<rect x="213.804" y="296.629" width="29.0216" height="3.1118" fill="#EB6F20"/>
<rect x="213.804" y="290.406" width="2.79054" height="6.22359" fill="#EB6F20"/>
<rect x="220.501" y="290.406" width="2.79054" height="6.22359" fill="#EB6F20"/>
<rect x="227.199" y="290.406" width="2.23243" height="6.22359" fill="#EB6F20"/>
<rect x="233.338" y="290.406" width="2.79054" height="6.22359" fill="#EB6F20"/>
<rect x="240.035" y="290.406" width="2.79054" height="6.22359" fill="#EB6F20"/>
<rect x="366.168" y="287.294" width="29.0216" height="3.1118" fill="#EB6F20"/>
<rect x="366.168" y="296.629" width="29.0216" height="3.1118" fill="#EB6F20"/>
<rect x="366.168" y="290.406" width="2.79054" height="6.22359" fill="#EB6F20"/>
<rect x="372.865" y="290.406" width="2.79054" height="6.22359" fill="#EB6F20"/>
<rect x="379.562" y="290.406" width="2.23243" height="6.22359" fill="#EB6F20"/>
<rect x="385.702" y="290.406" width="2.79054" height="6.22359" fill="#EB6F20"/>
<rect x="392.399" y="290.406" width="2.79054" height="6.22359" fill="#EB6F20"/>
<rect x="112.787" y="287.294" width="29.0216" height="3.1118" fill="#EB6F20"/>
<rect x="112.787" y="296.629" width="29.0216" height="3.1118" fill="#EB6F20"/>
<rect x="112.787" y="290.406" width="2.79054" height="6.22359" fill="#EB6F20"/>
<rect x="119.484" y="290.406" width="2.79054" height="6.22359" fill="#EB6F20"/>
<rect x="126.181" y="290.406" width="2.23243" height="6.22359" fill="#EB6F20"/>
<rect x="132.32" y="290.406" width="2.79054" height="6.22359" fill="#EB6F20"/>
<rect x="139.018" y="290.406" width="2.79054" height="6.22359" fill="#EB6F20"/>
<rect x="264.592" y="287.294" width="29.0216" height="3.1118" fill="#EB6F20"/>
<rect x="264.592" y="296.629" width="29.0216" height="3.1118" fill="#EB6F20"/>
<rect x="264.592" y="290.406" width="2.79054" height="6.22359" fill="#EB6F20"/>
<rect x="271.29" y="290.406" width="2.79054" height="6.22359" fill="#EB6F20"/>
<rect x="277.987" y="290.406" width="2.23243" height="6.22359" fill="#EB6F20"/>
<rect x="284.126" y="290.406" width="2.79054" height="6.22359" fill="#EB6F20"/>
<rect x="290.823" y="290.406" width="2.79054" height="6.22359" fill="#EB6F20"/>
<rect x="416.956" y="287.294" width="29.0216" height="3.1118" fill="#EB6F20"/>
<rect x="416.956" y="296.629" width="29.0216" height="3.1118" fill="#EB6F20"/>
<rect x="416.956" y="290.406" width="2.79054" height="6.22359" fill="#EB6F20"/>
<rect x="423.653" y="290.406" width="2.79054" height="6.22359" fill="#EB6F20"/>
<rect x="430.35" y="290.406" width="2.23243" height="6.22359" fill="#EB6F20"/>
<rect x="436.49" y="290.406" width="2.79054" height="6.22359" fill="#EB6F20"/>
<rect x="443.187" y="290.406" width="2.79054" height="6.22359" fill="#EB6F20"/>
<rect x="139.018" y="338.639" width="2.79054" height="6.22359" fill="#EB6F20"/>
<rect x="240.594" y="338.639" width="2.79054" height="6.22359" fill="#EB6F20"/>
<rect x="291.381" y="338.639" width="2.79054" height="6.22359" fill="#EB6F20"/>
<rect x="392.399" y="338.639" width="2.79054" height="6.22359" fill="#EB6F20"/>
<rect x="443.187" y="338.639" width="2.79054" height="6.22359" fill="#EB6F20"/>
<rect x="70.3705" y="386.872" width="2.79054" height="6.22359" fill="#EB6F20"/>
<rect x="77.0675" y="386.872" width="2.79054" height="6.22359" fill="#EB6F20"/>
<rect x="83.765" y="386.872" width="2.79054" height="6.22359" fill="#EB6F20"/>
<rect x="90.4623" y="386.872" width="2.79054" height="6.22359" fill="#EB6F20"/>
<rect x="97.1598" y="386.872" width="2.79054" height="6.22359" fill="#EB6F20"/>
<rect x="103.857" y="386.872" width="2.79054" height="6.22359" fill="#EB6F20"/>
<rect x="110.554" y="386.872" width="2.79054" height="6.22359" fill="#EB6F20"/>
<rect x="117.252" y="386.872" width="2.79054" height="6.22359" fill="#EB6F20"/>
<rect x="123.949" y="386.872" width="2.79054" height="6.22359" fill="#EB6F20"/>
<rect x="130.646" y="386.872" width="2.79054" height="6.22359" fill="#EB6F20"/>
<rect x="137.344" y="386.872" width="2.79054" height="6.22359" fill="#EB6F20"/>
<rect x="144.041" y="386.872" width="2.79054" height="6.22359" fill="#EB6F20"/>
<rect x="150.738" y="386.872" width="2.79054" height="6.22359" fill="#EB6F20"/>
<rect x="157.435" y="386.872" width="2.79054" height="6.22359" fill="#EB6F20"/>
<rect x="164.133" y="386.872" width="2.79054" height="6.22359" fill="#EB6F20"/>
<rect x="170.83" y="386.872" width="2.79054" height="6.22359" fill="#EB6F20"/>
<rect x="177.527" y="386.872" width="2.79054" height="6.22359" fill="#EB6F20"/>
<rect x="184.225" y="386.872" width="2.79054" height="6.22359" fill="#EB6F20"/>
<rect x="190.922" y="386.872" width="2.79054" height="6.22359" fill="#EB6F20"/>
<rect x="197.619" y="386.872" width="2.79054" height="6.22359" fill="#EB6F20"/>
<rect x="204.316" y="386.872" width="2.79054" height="6.22359" fill="#EB6F20"/>
<rect x="211.014" y="386.872" width="2.79054" height="6.22359" fill="#EB6F20"/>
<rect x="217.711" y="386.872" width="2.79054" height="6.22359" fill="#EB6F20"/>
<rect x="224.408" y="386.872" width="2.79054" height="6.22359" fill="#EB6F20"/>
<rect x="231.105" y="386.872" width="2.79054" height="6.22359" fill="#EB6F20"/>
<rect x="237.803" y="386.872" width="2.79054" height="6.22359" fill="#EB6F20"/>
<rect x="244.5" y="386.872" width="2.79054" height="6.22359" fill="#EB6F20"/>
<rect x="251.198" y="386.872" width="2.79054" height="6.22359" fill="#EB6F20"/>
<rect x="257.895" y="386.872" width="2.79054" height="6.22359" fill="#EB6F20"/>
<rect x="264.592" y="386.872" width="2.79054" height="6.22359" fill="#EB6F20"/>
<rect x="271.289" y="386.872" width="2.79054" height="6.22359" fill="#EB6F20"/>
<rect x="277.987" y="386.872" width="2.79054" height="6.22359" fill="#EB6F20"/>
<rect x="284.684" y="386.872" width="2.79054" height="6.22359" fill="#EB6F20"/>
<rect x="291.381" y="386.872" width="2.79054" height="6.22359" fill="#EB6F20"/>
<rect x="298.079" y="386.872" width="2.79054" height="6.22359" fill="#EB6F20"/>
<rect x="304.776" y="386.872" width="2.79054" height="6.22359" fill="#EB6F20"/>
<rect x="311.473" y="386.872" width="2.79054" height="6.22359" fill="#EB6F20"/>
<rect x="318.171" y="386.872" width="2.79054" height="6.22359" fill="#EB6F20"/>
<rect x="324.868" y="386.872" width="2.79054" height="6.22359" fill="#EB6F20"/>
<rect x="331.565" y="386.872" width="2.79054" height="6.22359" fill="#EB6F20"/>
<rect x="338.263" y="386.872" width="2.79054" height="6.22359" fill="#EB6F20"/>
<rect x="344.959" y="386.872" width="2.79054" height="6.22359" fill="#EB6F20"/>
<rect x="351.657" y="386.872" width="2.79054" height="6.22359" fill="#EB6F20"/>
<rect x="358.354" y="386.872" width="2.79054" height="6.22359" fill="#EB6F20"/>
<rect x="365.052" y="386.872" width="2.79054" height="6.22359" fill="#EB6F20"/>
<rect x="371.749" y="386.872" width="2.79054" height="6.22359" fill="#EB6F20"/>
<rect x="378.446" y="386.872" width="2.79054" height="6.22359" fill="#EB6F20"/>
<rect x="385.143" y="386.872" width="2.79054" height="6.22359" fill="#EB6F20"/>
<rect x="391.841" y="386.872" width="2.79054" height="6.22359" fill="#EB6F20"/>
<rect x="398.538" y="386.872" width="2.79054" height="6.22359" fill="#EB6F20"/>
<rect x="405.236" y="386.872" width="2.79054" height="6.22359" fill="#EB6F20"/>
<rect x="411.933" y="386.872" width="2.79054" height="6.22359" fill="#EB6F20"/>
<rect x="418.63" y="386.872" width="2.79054" height="6.22359" fill="#EB6F20"/>
<rect x="425.327" y="386.872" width="2.79054" height="6.22359" fill="#EB6F20"/>
<rect x="432.025" y="386.872" width="2.79054" height="6.22359" fill="#EB6F20"/>
<rect x="438.722" y="386.872" width="2.79054" height="6.22359" fill="#EB6F20"/>
<rect x="445.419" y="386.872" width="2.79054" height="6.22359" fill="#EB6F20"/>
<rect x="445.419" y="386.872" width="2.79054" height="6.22359" fill="#EB6F20"/>
<rect x="452.116" y="386.872" width="2.79054" height="6.22359" fill="#EB6F20"/>
<rect x="458.814" y="386.872" width="2.79054" height="6.22359" fill="#EB6F20"/>
<path d="M218.258 549.529L216 538.911V437.534L239.357 431.645L240.006 415.749L232.495 414.75L236.388 395.935L254.804 388.074L363.817 350.368H374.061V318.289L377.093 314.247L376.719 289.28L428.387 267.906L492.632 293.372V313.236L495.477 314.222V329.918L492.657 329.007V342.283L497.348 341.684C517.848 339.064 538.673 337.729 559.235 337.729C564.725 337.729 570.302 337.828 575.78 338.016C607.36 339.089 638.977 343.281 669.746 350.468L674.637 351.616V369.308L735.975 357.967L797.113 379.527V396.945L814.306 402.261L797.113 414.226V531.961L780.893 537.563V536.465L741.789 543.864V544.937L733.167 544.501L732.194 544.663L709.735 543.315L396.682 547.084V548.631L385.353 547.283L355.682 552.935L218.208 549.554L218.258 549.529Z" fill="#034E96"/>
<path d="M222.325 537.85V442.075L245.483 436.236L246.569 409.834L240.08 408.973L241.927 400.065L257.087 393.589L364.89 356.307H377.904V373.501H386.725L393.862 315.008L428.449 276.029L486.305 298.987V322.694C486.305 322.694 486.343 329.032 486.343 331.39V349.12L599.623 347.598L668.348 356.22V376.495L735.513 364.08L790.836 383.595V527.02L731.482 537.863L709.947 536.578L413.102 540.146L385.203 540.483L355.233 546.185L223.436 542.941L222.35 537.863L222.325 537.85Z" fill="#4BB6A5"/>
<path d="M433.826 456.025C484.933 452.282 540.282 450.336 599.324 451.234C643.493 451.908 685.454 454.116 724.994 457.385V475.851C685.429 473.655 644.254 472.271 601.557 471.921C543.064 471.435 487.291 472.932 434.513 475.851C434.288 469.239 434.051 462.626 433.826 456.013V456.025Z" fill="#034E96"/>
<path d="M459.368 536.378H482.488V476.862C474.777 477.149 467.066 477.473 459.368 477.823V536.391V536.378Z" fill="#034E96"/>
<path d="M518.522 536.378H546.433V475.265C537.138 475.39 527.83 475.552 518.522 475.764V536.378Z" fill="#034E96"/>
<path d="M579.76 475.053C579.648 475.053 579.535 475.053 579.423 475.053V536.391H609.144V475.227C606.611 475.202 604.066 475.165 601.533 475.14C594.308 475.078 586.984 475.053 579.76 475.053Z" fill="#034E96"/>
<path d="M639.201 536.378H707.464V478.16C684.78 477.049 661.96 476.251 639.201 475.727V536.378Z" fill="#034E96"/>
<path d="M668.336 383.32L735.5 371.928V537.85L709.922 536.553L710.134 478.097L728.276 477.773V455.426L699.179 453.168V400.302L673.339 396.222L668.336 396.321V383.32Z" fill="#034E96"/>
<path d="M750.198 414.389C749.737 408.2 747.241 404.02 745.357 404.045C743.473 404.07 741.09 408.262 740.728 414.389V536.378L751.184 534.619L750.198 414.389Z" fill="#034E96"/>
<path d="M764.647 417.919C764.235 411.731 762.039 407.551 760.355 407.576C758.683 407.601 756.587 411.793 756.263 417.919V534.257L765.471 532.51L764.635 417.919H764.647Z" fill="#034E96"/>
<path d="M777.711 421.663C777.336 415.474 775.29 411.294 773.73 411.319C772.183 411.344 770.224 415.536 769.937 421.663V531.674L778.447 530.064L777.723 421.663H777.711Z" fill="#034E96"/>
<path d="M742.375 386.215L800.07 404.045L795.004 407.564L788.778 405.555L737.309 388.848L742.375 386.215Z" fill="#034E96"/>
<path d="M790.812 527.008V406.453L787.268 405.056V528.231L790.812 527.008Z" fill="#034E96"/>
<path d="M446.591 453.729V346.363L453.678 348.372L454.776 452.457L446.591 453.729Z" fill="#034E96"/>
<path d="M466.966 394.225V352.739L474.241 354.56V392.229L466.966 394.225Z" fill="#034E96"/>
<path d="M393.114 354.448L395.958 349.095L417.893 347.586L413.539 349.757L397.468 351.017L395.122 356.295L393.114 354.448Z" fill="#034E96"/>
<path d="M398.304 496.102L397.468 444.371V351.017L395.122 356.295V496.102H398.304Z" fill="#034E96"/>
<path d="M489.151 320.785V318.314L428.449 297.39V276.004L486.306 298.962V297.253L428.449 274.32L383.132 293.061L383.469 315.894L380.399 319.986V357.468L386.875 356.782L386.638 382.198L366.674 379.191V371.293L358.664 369.995L240.068 408.949L246.556 409.81L245.471 436.211L222.313 442.051L222.887 496.077L223.386 542.891L228.178 543.004V495.653L235.339 495.091V543.191L238.409 543.266V494.842L245.396 494.293V543.44L253.232 543.628V493.669L260.893 493.058V543.815L268.067 543.989V492.484L275.204 491.922V544.164L281.854 544.326V491.398L288.155 490.899V544.489L292.248 544.588V490.575L301.107 489.876V544.813L308.568 545L307.969 489.339L318.675 488.491L318.974 545.262L321.27 545.325C321.158 538.013 321.445 513.682 321.806 488.254L333.473 487.331V545.624L339.611 545.774V486.844L350.803 485.958L351.178 546.061L355.183 546.161L366.649 542.916V381.574L386.576 385.529L385.141 540.458L390.356 541.082V496.102L392.19 495.204L391.803 348.559L394.686 343.631L413.414 341.609L414.063 393.065V535.755L428.424 536.965V337.118L476.798 349.607V347.561L428.424 334.048V301.133L489.126 320.772L489.151 320.785ZM228.202 479.694V443.448L235.364 441.914V478.859L228.202 479.694ZM238.421 478.497V440.89L245.409 439.019V477.673L238.421 478.497ZM253.244 476.762V433.566L260.905 431.008V475.864L253.244 476.762ZM268.08 475.016V430.148L275.217 428.613V474.18L268.08 475.016ZM281.867 473.406V426.741L288.168 425.032V472.657L281.867 473.393V473.406ZM292.26 472.196V424.882L293.284 424.371L301.119 421.813V471.16L292.26 472.196ZM307.782 470.374L307.258 421.8C307.77 421.8 318.338 419.242 318.338 419.242L318.6 469.101L307.782 470.362V470.374ZM322.118 468.702C322.53 441.814 322.929 418.406 322.929 418.406L333.498 416.023V467.379L322.118 468.715V468.702ZM339.636 466.643V414.813L350.367 412.255L350.704 465.346L339.636 466.643Z" fill="#034E96"/>
<path d="M656.445 397.033C582.967 387.75 515.665 389.858 457.084 397.207V414.987C464.858 414.201 472.831 413.502 480.991 412.866V449.948C482.575 449.874 484.16 449.799 485.732 449.736V419.816L509.851 418.631L511.859 448.738C512.957 448.701 514.068 448.663 515.166 448.638L514.055 410.87C524.274 410.421 534.767 410.109 545.498 409.959V447.977C546.484 447.965 547.469 447.965 548.455 447.952V416.285H578.762V447.84C579.548 447.84 580.334 447.84 581.133 447.84V410.096C584.614 410.171 588.12 410.258 591.651 410.371C597.952 410.57 604.166 410.832 610.304 411.132V448.214C611.016 448.227 611.727 448.251 612.438 448.264V417.258L638.116 418.868V449.025C639.214 449.063 640.312 449.1 641.41 449.137V413.153C648.946 413.765 656.333 414.438 663.582 415.187V450.098C664.031 450.123 664.493 450.148 664.942 450.173V421.076L680.738 423.222V451.046C682.223 451.134 683.695 451.209 685.18 451.308V417.645C689.385 418.169 693.552 418.705 697.645 419.267V403.371C684.319 400.963 670.582 398.829 656.445 397.045V397.033Z" fill="#034E96"/>
<path d="M575.58 343.917C538.773 342.657 506.706 345.814 480.991 350.056C482.014 356.607 482.039 364.492 483.062 371.043C487.067 370.506 491.247 370.032 495.577 369.608V390.071C497.061 389.958 498.534 389.846 500.018 389.746V375.26L519.732 373.651V388.561C520.431 388.523 521.117 388.486 521.816 388.461V367.799C529.09 367.474 536.664 367.275 544.45 367.2V387.762C545.61 387.737 546.771 387.737 547.918 387.712V373.339H570.552V387.75C571.438 387.762 572.311 387.775 573.185 387.787V367.387C578.912 367.524 584.714 367.711 590.578 367.961C592.35 368.036 594.084 368.123 595.818 368.211V388.536C596.467 388.561 597.116 388.598 597.765 388.636V374.249L617.766 375.859V389.896C618.465 389.946 619.151 389.996 619.849 390.046V370.257C625.626 370.931 631.216 371.717 636.656 372.578V391.543C637.168 391.593 637.679 391.655 638.178 391.705V378.854L651.092 381.536V393.14C652.253 393.277 653.413 393.402 654.561 393.552V375.872C659.24 376.832 663.819 377.855 668.298 378.916V356.195C643.182 350.331 611.814 345.14 575.555 343.905L575.58 343.917Z" fill="#034E96"/>
<g filter="url(#filter0_dd_107_886)">
<path d="M257.735 84.4621L274.364 189.949L341.599 189.949L328.342 126.319L393.131 99.3425L502.394 135.316L494.306 210.95L371.647 274.851L341.599 389.158L334.785 452.884L386.29 459.792L406.401 396.087L440.997 310.744L605.129 238.057L619.443 131.337L487.247 45.552L368.975 29.6886L257.735 84.4621Z" fill="#D04023"/>
<path d="M306.404 501.148L281.955 566.269L365.454 620.595L380.801 511.127L306.404 501.148Z" fill="#D04023"/>
</g>
</g>
<defs>
<filter id="filter0_dd_107_886" x="254.735" y="29.6885" width="367.708" height="597.906" filterUnits="userSpaceOnUse" color-interpolation-filters="sRGB">
<feFlood flood-opacity="0" result="BackgroundImageFix"/>
<feColorMatrix in="SourceAlpha" type="matrix" values="0 0 0 0 0 0 0 0 0 0 0 0 0 0 0 0 0 0 127 0" result="hardAlpha"/>
<feMorphology radius="1" operator="erode" in="SourceAlpha" result="effect1_dropShadow_107_886"/>
<feOffset dy="4"/>
<feGaussianBlur stdDeviation="2"/>
<feComposite in2="hardAlpha" operator="out"/>
<feColorMatrix type="matrix" values="0 0 0 0 0.0470588 0 0 0 0 0.0470588 0 0 0 0 0.0509804 0 0 0 0.05 0"/>
<feBlend mode="normal" in2="BackgroundImageFix" result="effect1_dropShadow_107_886"/>
<feColorMatrix in="SourceAlpha" type="matrix" values="0 0 0 0 0 0 0 0 0 0 0 0 0 0 0 0 0 0 127 0" result="hardAlpha"/>
<feMorphology radius="1" operator="erode" in="SourceAlpha" result="effect2_dropShadow_107_886"/>
<feOffset dy="4"/>
<feGaussianBlur stdDeviation="2"/>
<feComposite in2="hardAlpha" operator="out"/>
<feColorMatrix type="matrix" values="0 0 0 0 0.0470588 0 0 0 0 0.0470588 0 0 0 0 0.0509804 0 0 0 0.1 0"/>
<feBlend mode="normal" in2="effect1_dropShadow_107_886" result="effect2_dropShadow_107_886"/>
<feBlend mode="normal" in="SourceGraphic" in2="effect2_dropShadow_107_886" result="shape"/>
</filter>
<clipPath id="clip0_107_886">
<rect width="814" height="662" fill="white"/>
</clipPath>
</defs>
</svg>
