<svg width="560" height="252" viewBox="0 0 560 252" fill="none" xmlns="http://www.w3.org/2000/svg">
<path d="M5.11998 34.1598C9.90942 31.7702 16.5949 29.8911 21.7535 28.8306C23.402 28.4836 23.0002 29.8204 24.1536 29.629C26.4069 29.2543 28.1532 28.0259 30.3664 27.7589C31.1213 27.6684 30.8682 29.6411 31.645 29.5087C35.893 28.7731 39.3992 27.01 43.5427 25.9021C63.8232 20.5201 83.4475 14.2583 104.175 8.76109C111.039 6.94782 119.788 6.11715 126.881 3.73775C127.74 3.4511 126.865 2.06641 127.004 1.90304C129.185 -0.600927 128.993 2.64919 130.745 2.69128C138.042 2.93244 144.842 1.40846 153.96 1.67503C155.992 1.82789 156.208 1.08875 156.327 0.501469C156.438 -0.0460545 156.551 -0.49131 158.874 1.1214C159.177 1.34655 157.429 2.49136 158.711 3.1129C159.939 3.73321 161.78 4.54424 163.753 6.29567C165.109 7.51632 166.4 8.76328 167.039 9.60858C168.945 12.2445 169.284 12.6913 170.899 15.3373C173.095 19.0629 173.984 24.1404 174.945 28.3313C175.159 29.237 176.661 27.7584 177.142 29.241C177.663 30.7555 177.662 34.778 177.189 36.022C176.751 37.2949 175.442 36.6857 175.131 36.8964C172.539 38.5314 175.559 42.866 175.529 43.4594C175.387 53.3351 170.717 60.0482 167.771 67.5533C165.483 73.2945 163.46 79.4694 161.057 84.6147C158.19 90.7364 155.028 95.5122 152.697 101.473C152.451 102.1 154.582 102.137 154.287 102.901C152.687 107.051 151.096 111.116 149.489 115.104C147.988 118.825 146.515 122.472 145.174 125.999C144.9 126.725 143.371 125.431 142.995 126.152C141.862 128.369 140.288 131.4 140.416 133.999C140.425 136.581 142.728 138.319 145.443 135.496C145.418 135.482 145.39 135.467 145.36 135.451C144.334 134.459 143.418 134.275 143.275 134.329C143.079 134.381 143.396 134.574 143.841 134.735C144.815 135.076 146.313 135.39 147.778 135.906C149.716 136.577 148.276 138.765 150.474 137.522C150.96 137.238 149.95 135.754 150.694 135.45C153.84 134.16 157.714 133.608 160.849 131.716C161.478 131.329 160.84 129.971 160.951 129.654C161.949 127.062 165.727 129.563 166.448 129.587C171.666 129.832 174.715 127.88 178.998 126.296C179.986 125.93 178.108 124.512 179.033 124.092C183.842 121.936 188.991 120.063 194.158 118.915C195.291 118.671 194.961 120.643 195.536 120.607C198.07 120.424 197.394 117.228 199.803 116.986C200.31 116.931 200.61 118.382 200.754 118.496C203.008 120.282 202.792 116.52 203.1 116.308C206.915 113.563 211.054 115.856 214.97 113.639C215.43 113.373 213.619 112.136 214.958 111.492C223.928 107.166 233.856 103.496 243.526 101.01C245.03 100.621 244.558 102.323 244.713 102.443C247.202 104.286 246.767 100.592 247.17 100.276C248.842 99.0284 250.876 98.7737 252.572 98.1373C254.187 97.5305 255.476 96.611 255.939 94.1998C264.163 91.6922 272.153 88.4606 280.996 86.5023C285.42 85.5643 290.107 84.8846 295.28 85.4813C300.239 85.9697 306.955 88.6695 309.647 94.4299C309.774 94.6914 308.053 95.2919 308.283 95.7726C309.258 97.961 309.684 99.0241 310.47 99.7581C311.688 100.934 313.67 100.99 316.1 103.449C317.109 104.595 313.177 107.791 312.86 107.965C311.77 108.877 309.152 107.938 308.941 108.236C307.244 110.472 315.938 110.435 315.656 113.942C315.632 114.044 314.086 113.46 313.903 113.725C313.329 114.534 313.861 115.48 313.215 116.235C311.704 118.015 307.471 117.981 309.411 121.137C309.656 121.547 314.612 121.855 313.832 124.683C313.534 125.805 312.525 130.791 311.871 132.078C311.231 133.373 309.921 132.059 309.83 132.143C306.903 135.282 306.399 133.685 302.942 134.702C299.493 135.695 306.738 137.075 307.336 138.025C307.932 138.979 305.545 141.157 304.786 141.633C304.028 142.113 303.284 141.042 302.797 141.519C299.597 144.673 305.842 144.175 306.607 145.746C308.41 149.475 302.493 150.214 301.179 152.721C300.824 153.398 302.191 153.171 302.109 153.845C301.761 156.525 299.665 157.552 300.279 160.888C300.375 161.444 302.803 164.729 300.048 165.52C299.651 165.634 298.535 164.624 297.914 165.628C297.109 166.91 296.123 169.248 295.863 171.03C295.822 171.296 295.797 171.549 295.79 171.784C295.756 173.147 298.32 172.3 297.208 173.697C296.712 174.331 295.811 172.655 294.985 173.876C294.153 175.08 293.361 178.518 293.181 179.807C292.988 181.088 294.795 180.682 294.887 180.81C295.391 181.59 295.96 183.795 295.982 183.904C295.937 184.881 296.071 185.692 296.041 185.669C296.02 185.666 295.849 185.425 295.613 185.289C295.38 185.149 295.222 185.175 295.323 185.252C295.861 185.666 298.535 185.633 300.818 185.247C305.58 184.478 310.534 182.966 315.263 180.641C315.829 180.36 316.403 180.06 316.986 179.74C317.772 179.31 316.497 177.915 316.61 177.833C319.034 175.92 318.823 181.244 321.422 181.818C319.637 178.633 321.051 178.716 322.817 177.462C323.68 176.849 322.575 175.807 322.601 175.637C323.085 173.055 325.196 175.12 325.691 175.514C327.51 176.961 327.44 174.281 328.658 175.246C329.87 176.202 329.29 178.732 331.154 177.83C331.13 176.404 328.288 173.976 329.483 172.807C333.891 168.429 345.045 166.159 349.494 164.465C353.937 162.76 355.249 161.925 357.977 161.245C362.909 160.036 360.221 158.449 362.657 156.161C365.115 153.881 366.086 160.211 367.012 161.271C367.924 162.339 367.842 160.886 368.624 161.358C369.402 161.833 368.666 163.115 369.943 162.891C371.209 162.666 373.552 159.18 373.474 157.716C373.3 154.612 370.675 152.288 374.292 152.073C374.5 152.064 374.481 153.818 375.244 153.706C381.28 152.77 387.169 150.831 393.229 150.314C394.065 150.247 393.835 152.194 394.322 152.177C399.306 152.077 396.878 149.549 398.823 145.61C399.186 150.183 401.264 152.494 404.777 151.932C406.894 151.621 406.245 149.725 407.537 148.162C407.937 147.687 409.621 148.896 409.852 147.952C410.639 144.874 408.767 141.475 413.174 142.731C413.361 142.795 412.774 144.461 413.412 144.561C417.492 145.373 418.197 142.041 423.544 143.053C423.688 143.086 423.836 143.125 423.985 143.169C428.539 144.214 433.532 150.574 435.207 154.329C430.995 157.121 433.565 159.225 437.397 159.473C438.28 161.994 439.227 164.675 439.253 167.183C439.261 168.043 437.704 167.791 437.569 167.928C435.417 169.902 438.937 170.359 439.151 170.879C441.269 176.502 438.826 181.235 441.379 186.574C441.47 186.761 445.012 187.093 442.417 188.524C442.237 188.612 440.645 186.832 440.495 189.35C440.347 191.878 438.301 196.511 439.791 200.021C440.151 200.867 442.93 203.106 440.618 204.687C440.304 204.9 439.3 204.611 438.723 204.914C436.881 205.9 440.433 206.581 437.35 207.716C434.273 208.822 431.887 211.377 433.959 214.937C434.02 215.054 436.848 215.905 436.815 216.958C436.757 218.722 436.256 221.159 436.462 223.004C436.491 223.261 436.667 223.371 436.9 223.405C437.22 223.457 437.645 223.357 437.943 223.292C438.132 223.252 438.27 223.225 438.297 223.254C438.298 223.256 438.3 223.258 438.3 223.26C440.099 228.487 439.013 233.106 444.296 236.491C445.451 237.15 448.454 235.215 450.612 236.849C453.2 238.581 451.913 247.777 458.11 244.261C460.681 242.722 459.677 231.524 465.476 235.317C469.437 232.846 473.645 231.584 477.773 229.949C480.781 228.754 483.722 227.357 486.35 225.108C486.63 224.87 486.27 221.633 487.04 221.295C488.179 220.802 489.423 221.777 490.265 221.458C493.782 220.169 496.251 217.531 499.518 216.055C500.76 215.489 501.012 217.025 502.494 216.348C503.974 215.669 504.035 213.442 506.411 213.257C508.218 213.118 511.541 215.866 513.713 215.242C511.949 211.734 513.332 211.095 515.218 208.917C515.581 208.496 514.448 207.551 514.587 207.29C515.137 206.199 516.475 206.769 516.95 205.646C517.067 205.375 516.445 204.187 516.504 203.899C516.976 201.409 520.721 202.821 521.366 203.071C523.839 204.005 523.723 202.088 525.266 202.148C526.81 202.207 525.524 204.016 527.119 203.697C530.415 203.039 533.947 200.879 536.846 199.373C537.999 198.766 536.363 197.618 536.508 197.494C538.66 195.808 541.961 196.177 541.566 192.332C547.622 199.527 542.563 190.771 546.826 190.544C547.163 190.53 549.592 194.17 548.877 195.289C548.162 196.408 545.957 196.06 545.016 197.709C544.791 198.099 544.822 202.733 544.677 203.094C543.537 205.917 540.135 200.353 539.855 200.098C536.772 197.381 536.524 202.523 536.044 203.129C533.871 205.893 531.016 206.396 529.11 208.553C527.855 209.96 529.734 213.793 528.439 214.341C524.155 216.153 519.935 211.66 518.508 218.264C518.202 219.672 521.204 223.36 516.521 221.691C516.228 221.585 512.458 219.783 512.17 222.33C512.133 222.651 512.77 223.852 512.612 224.064C511.54 225.461 510.083 225.002 508.781 226.265C507.468 227.534 505.953 229.19 503.971 229.692C502.764 230.004 500.247 228.448 499.447 228.16C497.187 227.31 496.957 230.709 495.083 229.232C493.202 227.747 493.482 223.911 490.482 223.849C491.979 227.048 493.403 230.388 494.852 233.633C490.683 235.614 486.232 236.987 481.954 238.764C480.784 239.251 479.652 239.755 478.501 240.324C477.837 240.656 479.322 242.061 478.628 242.462C475.654 244.157 472.356 244.146 469.081 246.028C466.548 247.484 464.093 250.524 460.72 251.968C457.579 248.623 452.824 251.289 447.294 250.614C445.413 250.352 445.652 249.272 444.369 248.713C439.507 246.251 440.876 250.143 439.066 250.163C430.474 248.738 434.36 240.956 431.27 236.202C431.075 236.039 425.518 233.939 425.137 233.406C422.462 230.538 426.377 232.405 426.168 230.374C425.998 228.084 426.307 226.427 426.134 224.572C426.047 223.571 425.798 222.413 425.267 221.233C424.833 220.276 422.071 217.954 424.148 216.133C424.419 215.895 425.843 216.022 425.926 215.834C427.327 212.455 422.878 212.31 421.408 210.358C419.945 208.372 423.145 205.63 424.058 205.103C426.42 203.691 424.994 206.295 425.218 206.383C427.868 207.446 427.483 205.375 427.777 203.807C432.169 203.768 431.998 201.586 428.063 202.207C427.633 202.279 427.991 203.504 427.777 203.807C423.534 202.262 423.089 199.851 427.209 197.418C429.136 196.279 431.3 197.495 430.616 193.78C430.301 192.098 427.265 192.659 426.475 191.194C424.673 187.873 427.49 183.697 426.886 180.454C426.667 179.297 425.073 180.51 424.865 179.737C424.301 177.701 425.383 175.81 424.495 173.939C424.413 173.774 422.754 174.419 422.653 173.842C421.867 169.6 421.908 165.877 420.561 163.739C420.248 163.238 419.634 162.873 419.164 162.756C418.686 162.627 418.321 162.647 418.043 162.424C417.954 162.354 417.858 162.266 417.743 162.161C416.723 161.027 412.327 158.812 409.236 159.768C406.996 160.422 407.736 162.096 406.971 163.398C405.554 165.911 401.387 162.638 400.705 162.158C400.69 162.135 402.655 161.275 401.363 160.654C400.302 158.996 400.722 162.146 400.705 162.158C400.305 161.81 395.983 162.529 395.236 163.11C394.831 163.415 395.542 164.917 395.325 165.046C390.144 168.087 384.682 170.48 378.641 172.018C378.528 172.027 378.012 170.258 377.752 170.301C374.083 170.868 372.773 173.838 370.542 176.222C368.307 178.61 365.967 179.145 363.057 176.983C361.13 178.262 357.567 178.334 355.477 178.356C353.393 178.375 354.642 181.732 354.517 181.867C350.725 186.089 347.118 185.519 342.022 187.556C339.598 188.518 335.128 191.191 332.668 192.763C330.773 193.99 329.149 193.818 327.437 195.185C327.203 195.37 328.128 196.696 328.072 196.789C326.683 199.507 326.132 195.488 325.402 195.056C323.612 193.988 322.281 193.303 320.956 193.656C320.282 193.841 319.598 194.269 318.85 195.005C318.31 195.532 318.55 201.501 317.332 202.34C315.81 203.391 315.747 201.264 314.112 202.41C313.97 202.505 314.448 203.652 313.306 204.015C310.579 204.874 307.659 205.644 303.811 206.32C301.903 206.634 299.717 206.97 296.766 207.004C293.885 206.931 289.452 207.043 283.622 203.472C280.619 201.266 283.33 206.068 278.821 202.166C273.58 196.882 272.475 191.099 272.078 187.809C271.716 184.314 271.969 181.999 272.239 179.98C272.842 175.969 273.791 173.255 274.877 170.79C275.421 169.609 276.551 170.732 277.016 170.567C279.821 169.585 276.969 166.49 277.011 166.097C277.025 165.942 277.04 165.787 277.057 165.633C277.954 157.038 282.835 152.042 283.693 143.808C283.74 143.339 281.012 138.984 284.595 138.442C284.833 138.406 288.496 137.872 286.628 135.974C286.51 135.858 284.59 136.284 285.192 134.773C285.794 133.26 285.339 130.481 287.716 128.85C288.465 128.337 292.142 127.518 289.983 124.929C289.845 124.718 284.57 120.473 288.865 120.299C289.569 120.279 293.905 121.275 292.095 118.567C291.74 118.054 290.63 118.659 290.22 117.423C289.578 115.578 291.082 113.491 289.284 111.468C288.97 111.092 286.071 109.659 288.369 108.897C288.73 108.77 290.204 109.073 290.378 108.601C291.01 106.981 290.375 105.543 290.596 105.927C290.697 106.066 290.952 106.381 291.463 106.683C292.139 107.068 293.935 105.456 294.695 105.372C295.079 105.326 295.52 105.292 295.721 105.302C295.933 105.32 295.87 105.408 295.653 105.913C295.251 106.929 294.087 110.568 294.255 110.925C293.906 111.718 283.989 111.01 276.175 113.556C274.963 113.923 276.389 114.867 274.648 115.51C271.305 116.75 266.741 118.922 262.11 120.814C257.548 122.675 253.014 124.131 249.514 124.089C243.687 124.035 249.189 119.788 245.064 120.508C243.087 120.856 242.851 125.767 242.465 126.082C238.755 129.192 235.02 128.643 231.386 130.832C230.637 131.284 232.118 132.608 231.473 132.974C229.301 134.23 226.513 134.536 224.375 135.594C223.42 136.071 224.12 137.265 223.159 137.554C220.856 138.263 218.719 138.533 216.058 138.249C215.818 138.222 216.479 136.098 214.828 136.718C212.181 137.714 208.419 137.9 205.841 140.372C205.083 141.107 206.24 144.022 203.476 142.81C202.893 142.559 201.996 138.862 200.937 142.8C200.778 143.449 198.529 149.083 195.611 147.195C194.852 146.695 192.407 144.35 191.489 145.229C191.367 145.36 192.581 146.693 191.726 147.203C188.694 148.978 185.174 150.132 181.977 151.872C181.101 152.348 183.081 153.477 181.756 154.132C178.174 155.915 173.205 157.18 169.12 157.895C167.637 158.147 168.189 156.461 168.037 156.344C165.622 154.423 165.582 158.029 165.075 158.388C161.767 160.602 158.579 159.777 154.837 160.97C153.79 161.29 154.859 162.757 154.671 162.943C152.558 164.786 153.792 161.565 152.275 161.493C147.69 160.889 143.794 163.183 132.512 159.343C130.343 158.369 130.196 158.747 130.164 159.318C130.107 159.824 130.224 160.561 127.963 159.151C126.48 158.182 125 156.973 123.654 155.539C116.52 147.639 115.86 140.194 115.56 135.063C115.422 129.789 116.262 125.656 117.377 122.025C117.837 120.593 119.116 121.783 119.5 121.542C122.165 119.967 119.703 116.525 119.586 115.768C118.996 112.488 120.58 111.734 121.108 109.232C121.368 108.013 121.671 106.786 122.017 105.544C124.966 94.7879 130.63 84.0013 134.767 75.9326C140.708 64.2934 146.143 55.8506 148.688 45.6897C148.839 45.064 146.784 45.1703 146.887 44.6304C148.351 37.768 149.047 32.3226 147.537 30.3891C147.427 30.231 145.801 31.1435 145.59 30.9786C145.148 30.6726 145.017 30.2428 145.024 29.3367C145.006 28.8819 146.542 28.2244 146.454 27.7413C146.357 27.2824 146.151 26.8432 145.812 26.4168C149.718 29.3405 150.599 28.6876 150.497 29.0164C150.396 29.136 150.299 31.0299 150.203 31.0423C146.639 30.8824 135.109 33.5317 125.088 33.7829C124.381 33.8007 122.777 30.2477 121.49 31.3733C121.666 32.4331 122.011 33.6411 122.271 34.7539C108.092 39.3892 93.2413 42.955 78.5808 47.8283C77.9534 48.0382 79.7042 49.5872 78.4923 50.0038C71.6211 52.3696 65.1316 55.2847 57.3471 55.9487C56.5886 56.0129 55.727 52.509 53.8605 53.7642C53.5369 53.9866 50.5807 55.5728 50.0268 56.605C49.9571 56.7556 51.1041 58.1189 50.1094 58.5346C44.4417 60.8782 38.1554 62.795 32.0128 63.9926C31.0208 64.1827 31.3923 62.1414 30.6796 62.2626C25.5759 63.1552 20.9426 66.3417 15.826 66.5408C12.4318 66.656 12.4563 63.3528 9.77286 61.1234C9.39452 60.8086 7.48037 61.46 6.75615 59.8468C4.93326 55.7909 4.13295 50.8973 2.08159 46.615C1.64333 45.6911 -0.523469 47.6851 0.117694 44.8092C0.166146 44.6145 1.72397 43.1513 1.88017 42.1992C1.9913 41.5398 0.788308 40.0754 1.1703 39.1406C1.55219 38.2067 2.78939 39.3478 3.54107 38.1357C4.28667 36.9146 3.10579 35.177 5.11998 34.1598ZM346.079 178.52C343.75 177.711 346.168 183.514 347.263 181.347C347.313 181.235 346.197 178.557 346.079 178.52ZM481.802 233.355C480.57 232.816 479.842 233.059 479.527 233.647C478.972 234.664 479.638 236.699 481.186 237.463C481.252 237.495 481.316 237.523 481.377 237.547C483.571 238.417 482.798 233.783 481.802 233.355ZM502.712 220.61C499.273 219.931 502.964 228.048 504.767 225.089C504.872 224.92 502.912 220.65 502.712 220.61ZM16.9429 57.4975C16.8911 57.4278 15.5007 57.8639 15.4965 57.9539C15.4741 60.0936 18.2533 59.2204 16.9429 57.4975ZM522.984 207.404C521.668 206.744 520.152 209.133 521.796 209.952C523.121 210.61 524.629 208.222 522.984 207.404ZM298.222 151.907C298.32 151.908 298.699 150.941 298.187 150.808C296.534 150.386 296.58 151.899 298.222 151.907ZM558.852 187.782C553.392 190.388 546.653 185.688 552.817 183.262C553.934 182.822 551.692 186.552 553.34 186.407C556.353 186.135 555.748 181.2 559.42 182.011C560.087 182.163 559.17 187.648 558.847 187.796C558.849 187.791 558.85 187.786 558.852 187.782ZM341.972 172.109C341.91 172.046 340.565 172.586 340.57 172.675C340.706 174.811 343.402 173.731 341.972 172.109ZM304.758 91.9811C304.838 91.6493 301.117 89.6728 300.908 89.9086C299.459 91.1732 300.566 92.3952 301.706 93.0153C302.849 93.6015 304.483 93.8936 304.758 91.9811ZM435.131 154.461C437.859 154.961 439.205 157.193 437.397 159.464C436.843 157.76 436.044 156.113 435.131 154.461Z" fill="#FAC566"/>
</svg>
