<svg width="368" height="266" viewBox="0 0 368 266" fill="none" xmlns="http://www.w3.org/2000/svg">
<path d="M24.1215 265.572C20.0914 265.572 16.82 262.301 16.82 258.271V155.548H14.4946C10.4645 155.548 7.19313 152.277 7.19313 148.246V136.718L0.433558 118.026C0.147805 117.228 0 116.39 0 115.543V103.492C0 99.4616 3.27141 96.1902 7.3015 96.1902H42.6659L43.9961 7.19307C44.0552 3.20239 47.3068 0 51.2975 0H315.155C319.186 0 322.457 3.27135 322.457 7.30144V96.8406H344.854C345.77 96.4267 346.795 96.1902 347.869 96.1902H360.699C364.729 96.1902 368 99.4616 368 103.492V115.543C368 116.39 367.852 117.228 367.566 118.026L360.807 136.718V148.246C360.807 152.277 357.536 155.548 353.505 155.548H351.417V258.271C351.417 262.301 348.145 265.572 344.115 265.572H24.151H24.1215Z" fill="#034E96"/>
<path d="M315.146 7.2915H51.2881V60.54H315.146V7.2915Z" fill="#369689"/>
<path d="M45.287 155.134H24.1216V258.271H45.287V155.134Z" fill="#B1DEF2"/>
<path d="M105.039 155.134H83.8735V258.271H105.039V155.134Z" fill="#B1DEF2"/>
<path d="M164.8 155.134H143.635V258.271H164.8V155.134Z" fill="#B1DEF2"/>
<path d="M224.562 155.134H203.397V258.271H224.562V155.134Z" fill="#B1DEF2"/>
<path d="M284.324 155.134H263.159V258.271H284.324V155.134Z" fill="#B1DEF2"/>
<path d="M344.086 155.134H322.92V258.271H344.086V155.134Z" fill="#B1DEF2"/>
<path d="M315.146 66.5703H51.2881V99.5304H315.146V66.5703Z" fill="#B1DEF2"/>
<path d="M282.294 60.54C262.469 44.6561 225.538 33.9651 183.217 33.9651C140.896 33.9651 103.955 44.6561 84.1396 60.54H282.304H282.294Z" fill="#B1DEF2"/>
<path d="M347.859 103.482V115.523H319.284V106.28H349.988V104.122H319.284V103.472H305.292V104.122H276.707V103.472H262.715V104.122H234.14V103.472H220.148V104.122H191.573V103.472H177.581V104.122H149.005V103.472H135.013V104.122H106.438V103.472H92.446V104.122H63.8707V103.472H49.8787V104.122H21.3034V103.472H7.32129V115.513L14.5144 135.407V148.217H353.515V135.407L360.709 115.513V103.472H347.879L347.859 103.482ZM49.8491 115.533H21.2739V106.29H49.8491V115.533ZM92.4263 115.533H63.851V106.29H92.4263V115.533ZM134.994 115.533H106.418V106.29H134.994V115.533ZM177.571 115.533H148.995V106.29H177.571V115.533ZM220.138 115.533H191.563V106.29H220.138V115.533ZM262.715 115.533H234.14V106.29H262.715V115.533ZM305.282 115.533H276.697V106.29H305.282V115.533Z" fill="#B1DEF2"/>
</svg>
