<svg width="599" height="286" viewBox="0 0 599 286" fill="none" xmlns="http://www.w3.org/2000/svg" preserveAspectRatio="none">
<path d="M2.25837 281.623L0 271.005V169.628L23.3573 163.738L24.0061 147.842L16.4949 146.844L20.3877 128.029L38.8041 120.168L147.817 82.4618H158.061V50.3829L161.093 46.3403L160.719 21.3734L212.387 0L276.632 25.466V45.3297L279.477 46.3154V62.0117L276.657 61.1008V74.3766L281.348 73.7777C301.848 71.1575 322.673 69.8224 343.235 69.8224C348.725 69.8224 354.302 69.9222 359.78 70.1094C391.36 71.1824 422.977 75.3747 453.746 82.5616L458.637 83.7095V101.402L519.975 90.0604L581.113 111.621V129.039L598.307 134.354L581.113 146.32V264.055L564.893 269.657V268.559L525.789 275.958V277.031L517.167 276.595L516.194 276.757L493.735 275.409L180.682 279.177V280.724L169.353 279.377L139.682 285.029L2.20847 281.648L2.25837 281.623Z" fill="#034E96"/>
<path d="M6.32544 269.944V174.169L29.4831 168.33L30.5686 141.928L24.0805 141.067L25.9271 132.158L41.0869 125.683L148.89 88.4009H161.904V105.594H170.725L177.862 47.1013L212.449 8.12256L270.305 31.0806V54.7873C270.305 54.7873 270.343 61.1257 270.343 63.4839V81.214L383.623 79.6918L452.348 88.3135V108.589L519.513 96.1741L574.836 115.688V259.114L515.482 269.957L493.947 268.671L197.102 272.24L169.203 272.577L139.233 278.279L7.43591 275.035L6.35038 269.957L6.32544 269.944Z" fill="#4BB6A5"/>
<path d="M217.826 188.119C268.933 184.376 324.282 182.429 383.324 183.328C427.493 184.001 469.454 186.21 508.994 189.479V207.945C469.429 205.749 428.254 204.364 385.557 204.015C327.064 203.528 271.291 205.026 218.513 207.945C218.288 201.332 218.051 194.719 217.826 188.106V188.119Z" fill="#034E96"/>
<path d="M243.368 268.472H266.488V208.956C258.777 209.243 251.066 209.567 243.368 209.916V268.484V268.472Z" fill="#034E96"/>
<path d="M302.522 268.472H330.433V207.359C321.138 207.484 311.83 207.646 302.522 207.858V268.472Z" fill="#034E96"/>
<path d="M363.76 207.146C363.648 207.146 363.535 207.146 363.423 207.146V268.484H393.144V207.321C390.611 207.296 388.066 207.259 385.533 207.234C378.308 207.171 370.984 207.146 363.76 207.146Z" fill="#034E96"/>
<path d="M423.201 268.472H491.464V210.253C468.78 209.143 445.96 208.344 423.201 207.82V268.472Z" fill="#034E96"/>
<path d="M452.335 115.414L519.5 104.022V269.944L493.922 268.646L494.134 210.191L512.276 209.866V187.52L483.179 185.261V132.395L457.339 128.315L452.335 128.415V115.414Z" fill="#034E96"/>
<path d="M534.198 146.482C533.737 140.294 531.241 136.114 529.357 136.139C527.473 136.164 525.09 140.356 524.728 146.482V268.472L535.184 266.713L534.198 146.482Z" fill="#034E96"/>
<path d="M548.647 150.013C548.235 143.824 546.039 139.645 544.355 139.67C542.683 139.694 540.587 143.887 540.262 150.013V266.351L549.471 264.604L548.635 150.013H548.647Z" fill="#034E96"/>
<path d="M561.711 153.756C561.336 147.568 559.29 143.388 557.73 143.413C556.183 143.438 554.224 147.63 553.937 153.756V263.768L562.447 262.158L561.723 153.756H561.711Z" fill="#034E96"/>
<path d="M526.375 118.309L584.07 136.139L579.004 139.658L572.778 137.649L521.31 120.942L526.375 118.309Z" fill="#034E96"/>
<path d="M574.812 259.102V138.547L571.268 137.15V260.325L574.812 259.102Z" fill="#034E96"/>
<path d="M230.591 185.823V78.4568L237.678 80.4656L238.776 184.55L230.591 185.823Z" fill="#034E96"/>
<path d="M250.966 126.319V84.8325L258.241 86.6542V124.323L250.966 126.319Z" fill="#034E96"/>
<path d="M177.114 86.5419L179.958 81.1892L201.893 79.6794L197.539 81.8505L181.468 83.1107L179.122 88.3885L177.114 86.5419Z" fill="#034E96"/>
<path d="M182.304 228.195L181.468 176.465V83.1106L179.122 88.3884V228.195H182.304Z" fill="#034E96"/>
<path d="M273.151 52.8787V50.4082L212.449 29.4839V8.098L270.306 31.056V29.3467L212.449 6.41357L167.132 25.1543L167.469 47.9876L164.399 52.0801V89.5616L170.875 88.8754L170.638 114.291L150.674 111.284V103.386L142.664 102.089L24.0683 141.043L30.5564 141.903L29.4709 168.305L6.31323 174.145L6.88719 228.171L7.38627 274.985L12.1775 275.098V227.747L19.3394 227.185V275.285L22.4088 275.36V226.936L29.396 226.387V275.534L37.2317 275.721V225.763L44.8927 225.151V275.909L52.0671 276.083V224.577L59.2041 224.016V276.258L65.8544 276.42V223.492L72.1554 222.993V276.582L76.2479 276.682V222.668L85.1068 221.97V276.907L92.5681 277.094L91.9692 221.433L102.675 220.585L102.974 277.356L105.27 277.418C105.158 270.107 105.445 245.776 105.806 220.348L117.473 219.424V277.718L123.611 277.867V218.938L134.803 218.052L135.178 278.154L139.183 278.254L150.649 275.01V113.668L170.576 117.623L169.141 272.552L174.356 273.176V228.196L176.19 227.297L175.803 80.6529L178.686 75.7244L197.414 73.7031L198.063 125.159V267.848L212.424 269.059V69.2113L260.798 81.701V79.6547L212.424 66.1419V33.2271L273.126 52.8662L273.151 52.8787ZM12.2025 211.788V175.542L19.3644 174.007V210.952L12.2025 211.788ZM22.4213 210.59V172.984L29.4085 171.113V209.767L22.4213 210.59ZM37.2442 208.856V165.66L44.9052 163.102V207.958L37.2442 208.856ZM52.0796 207.109V162.241L59.2166 160.707V206.273L52.0796 207.109ZM65.8669 205.5V158.835L72.1679 157.126V204.751L65.8669 205.487V205.5ZM76.2604 204.289V156.976L77.2836 156.464L85.1192 153.907V203.254L76.2604 204.289ZM91.7821 202.468L91.258 153.894C91.7696 153.894 102.338 151.336 102.338 151.336L102.6 201.195L91.7821 202.455V202.468ZM106.118 200.796C106.53 173.907 106.929 150.5 106.929 150.5L117.498 148.117V199.473L106.118 200.808V200.796ZM123.636 198.737V146.907L134.367 144.349L134.704 197.439L123.636 198.737Z" fill="#034E96"/>
<path d="M440.445 129.126C366.967 119.843 299.665 121.952 241.084 129.301V147.081C248.858 146.295 256.831 145.596 264.991 144.96V182.042C266.575 181.967 268.16 181.892 269.732 181.83V151.91L293.851 150.724L295.859 180.832C296.957 180.794 298.068 180.757 299.166 180.732L298.055 142.964C308.274 142.514 318.767 142.202 329.498 142.053V180.071C330.484 180.058 331.469 180.058 332.455 180.046V148.379H362.762V179.933C363.548 179.933 364.334 179.933 365.133 179.933V142.19C368.614 142.265 372.12 142.352 375.651 142.464C381.952 142.664 388.166 142.926 394.304 143.226V180.308C395.016 180.32 395.727 180.345 396.438 180.358V149.352L422.116 150.961V181.119C423.214 181.156 424.312 181.194 425.41 181.231V145.247C432.946 145.858 440.333 146.532 447.582 147.281V182.192C448.031 182.217 448.493 182.242 448.942 182.267V153.17L464.738 155.316V183.14C466.223 183.227 467.695 183.302 469.18 183.402V149.739C473.385 150.263 477.552 150.799 481.645 151.361V135.465C468.319 133.057 454.582 130.923 440.445 129.139V129.126Z" fill="#034E96"/>
<path d="M359.58 76.0112C322.773 74.751 290.706 77.9077 264.991 82.1499C266.014 88.7005 266.039 96.5861 267.062 103.137C271.067 102.6 275.247 102.126 279.577 101.702V122.164C281.061 122.052 282.534 121.94 284.018 121.84V107.354L303.732 105.744V120.655C304.431 120.617 305.117 120.58 305.816 120.555V99.8925C313.09 99.5681 320.664 99.3685 328.45 99.2936V119.856C329.61 119.831 330.771 119.831 331.918 119.806V105.432H354.552V119.844C355.438 119.856 356.311 119.869 357.185 119.881V99.4808C362.912 99.618 368.714 99.8052 374.578 100.055C376.35 100.13 378.084 100.217 379.818 100.304V120.63C380.467 120.655 381.116 120.692 381.765 120.729V106.343L401.766 107.953V121.99C402.465 122.04 403.151 122.089 403.849 122.139V102.351C409.626 103.024 415.216 103.81 420.656 104.671V123.637C421.168 123.687 421.679 123.749 422.178 123.799V110.947L435.092 113.63V125.234C436.253 125.371 437.413 125.496 438.561 125.645V107.965C443.24 108.926 447.819 109.949 452.298 111.01V88.2887C427.182 82.4244 395.814 77.2339 359.555 75.9987L359.58 76.0112Z" fill="#034E96"/>
</svg>
