<svg width="442" height="308" viewBox="0 0 442 308" fill="none" xmlns="http://www.w3.org/2000/svg">
<mask id="path-1-outside-1_103_1097" maskUnits="userSpaceOnUse" x="0" y="-0.503662" width="442" height="309" fill="black">
<rect fill="white" y="-0.503662" width="442" height="309"/>
<path d="M407.559 17.9065H435.186V301.598H6V17.9065H36.8359L67.6709 6.49634L99.4834 17.9065H190.733L222.546 6.49634L254.079 17.9065H352.585L379.933 6.49634L407.559 17.9065Z"/>
</mask>
<path d="M407.559 17.9065H435.186V301.598H6V17.9065H36.8359L67.6709 6.49634L99.4834 17.9065H190.733L222.546 6.49634L254.079 17.9065H352.585L379.933 6.49634L407.559 17.9065Z" fill="#FCFCFC"/>
<path d="M407.559 17.9065L405.268 23.4521L406.368 23.9065H407.559V17.9065ZM435.186 17.9065H441.186V11.9065H435.186V17.9065ZM435.186 301.598V307.598H441.186V301.598H435.186ZM6 301.598H0V307.598H6V301.598ZM6 17.9065V11.9065H0V17.9065H6ZM36.8359 17.9065V23.9065H37.9105L38.9182 23.5336L36.8359 17.9065ZM67.6709 6.49634L69.6966 0.848621L67.6388 0.110585L65.5886 0.869239L67.6709 6.49634ZM99.4834 17.9065L97.4577 23.5542L98.4399 23.9065H99.4834V17.9065ZM190.733 17.9065V23.9065H191.777L192.759 23.5542L190.733 17.9065ZM222.546 6.49634L224.587 0.85434L222.555 0.118864L220.52 0.848621L222.546 6.49634ZM254.079 17.9065L252.038 23.5485L253.027 23.9065H254.079V17.9065ZM352.585 17.9065V23.9065H353.786L354.895 23.4439L352.585 17.9065ZM379.933 6.49634L382.223 0.950729L379.921 -9.48906e-05L377.622 0.958977L379.933 6.49634ZM407.559 17.9065V23.9065H435.186V17.9065V11.9065H407.559V17.9065ZM435.186 17.9065H429.186V301.598H435.186H441.186V17.9065H435.186ZM435.186 301.598V295.598H6V301.598V307.598H435.186V301.598ZM6 301.598H12V17.9065H6H0V301.598H6ZM6 17.9065V23.9065H36.8359V17.9065V11.9065H6V17.9065ZM36.8359 17.9065L38.9182 23.5336L69.7531 12.1234L67.6709 6.49634L65.5886 0.869239L34.7537 12.2794L36.8359 17.9065ZM67.6709 6.49634L65.6452 12.1441L97.4577 23.5542L99.4834 17.9065L101.509 12.2588L69.6966 0.848621L67.6709 6.49634ZM99.4834 17.9065V23.9065H190.733V17.9065V11.9065H99.4834V17.9065ZM190.733 17.9065L192.759 23.5542L224.572 12.1441L222.546 6.49634L220.52 0.848621L188.708 12.2588L190.733 17.9065ZM222.546 6.49634L220.504 12.1383L252.038 23.5485L254.079 17.9065L256.121 12.2645L224.587 0.85434L222.546 6.49634ZM254.079 17.9065V23.9065H352.585V17.9065V11.9065H254.079V17.9065ZM352.585 17.9065L354.895 23.4439L382.243 12.0337L379.933 6.49634L377.622 0.958977L350.275 12.3691L352.585 17.9065ZM379.933 6.49634L377.642 12.0419L405.268 23.4521L407.559 17.9065L409.849 12.3609L382.223 0.950729L379.933 6.49634Z" fill="#EB6F20" mask="url(#path-1-outside-1_103_1097)"/>
<rect x="6" y="195.131" width="429.185" height="106.893" fill="#EB6F20"/>
<rect x="29.999" y="66.658" width="29.1469" height="32.6738" fill="#FAC566"/>
<rect x="80.689" y="66.658" width="29.1469" height="32.6738" fill="#FAC566"/>
<rect x="131.379" y="66.658" width="29.1469" height="32.6738" fill="#FAC566"/>
<rect x="182.069" y="66.658" width="29.1469" height="32.6738" fill="#FAC566"/>
<rect x="232.76" y="66.658" width="29.1469" height="32.6738" fill="#FAC566"/>
<rect x="283.45" y="66.658" width="29.1469" height="32.6738" fill="#FAC566"/>
<rect x="334.14" y="66.658" width="29.1469" height="32.6738" fill="#FAC566"/>
<rect x="384.831" y="66.658" width="29.1469" height="32.6738" fill="#FAC566"/>
<rect x="29.999" y="114.891" width="29.1469" height="32.6738" fill="#FAC566"/>
<rect x="80.689" y="114.891" width="29.1469" height="32.6738" fill="#FAC566"/>
<rect x="131.379" y="114.891" width="29.1469" height="32.6738" fill="#FAC566"/>
<rect x="182.069" y="114.891" width="29.1469" height="32.6738" fill="#FAC566"/>
<rect x="232.76" y="114.891" width="29.1469" height="32.6738" fill="#FAC566"/>
<rect x="283.45" y="114.891" width="29.1469" height="32.6738" fill="#FAC566"/>
<rect x="334.14" y="114.891" width="29.1469" height="32.6738" fill="#FAC566"/>
<rect x="384.831" y="114.891" width="29.1469" height="32.6738" fill="#FAC566"/>
<rect x="29.999" y="163.123" width="29.1469" height="32.6738" fill="#FAC566"/>
<rect x="80.689" y="163.123" width="29.1469" height="32.6738" fill="#FAC566"/>
<rect x="131.379" y="163.123" width="29.1469" height="32.6738" fill="#FAC566"/>
<rect x="182.069" y="163.123" width="29.1469" height="32.6738" fill="#FAC566"/>
<rect x="232.76" y="163.123" width="29.1469" height="32.6738" fill="#FAC566"/>
<rect x="283.45" y="163.123" width="29.1469" height="32.6738" fill="#FAC566"/>
<rect x="334.14" y="163.123" width="29.1469" height="32.6738" fill="#FAC566"/>
<rect x="384.831" y="163.123" width="29.1469" height="32.6738" fill="#FAC566"/>
<rect x="29.999" y="211.356" width="29.1469" height="33.1925" fill="#FAC566"/>
<rect x="80.689" y="211.356" width="29.1469" height="33.1925" fill="#FAC566"/>
<rect x="131.379" y="211.356" width="29.1469" height="33.1925" fill="#FAC566"/>
<rect x="182.069" y="211.356" width="29.1469" height="33.1925" fill="#FAC566"/>
<rect x="232.76" y="211.356" width="29.1469" height="33.1925" fill="#FAC566"/>
<rect x="283.45" y="211.356" width="29.1469" height="33.1925" fill="#FAC566"/>
<rect x="334.14" y="211.356" width="29.1469" height="33.1925" fill="#FAC566"/>
<rect x="384.831" y="211.356" width="29.1469" height="33.1925" fill="#FAC566"/>
<rect x="29.999" y="260.108" width="29.1469" height="33.1925" fill="#FAC566"/>
<rect x="80.689" y="260.108" width="29.1469" height="33.1925" fill="#FAC566"/>
<rect x="131.379" y="260.108" width="29.1469" height="33.1925" fill="#FAC566"/>
<rect x="182.069" y="260.108" width="29.1469" height="33.1925" fill="#FAC566"/>
<rect x="232.76" y="260.108" width="29.1469" height="33.1925" fill="#FAC566"/>
<rect x="283.45" y="260.108" width="29.1469" height="33.1925" fill="#FAC566"/>
<rect x="334.14" y="260.108" width="29.1469" height="33.1925" fill="#FAC566"/>
<rect x="384.831" y="260.108" width="29.1469" height="33.1925" fill="#FAC566"/>
<ellipse cx="67.9502" cy="25.6857" rx="6.6973" ry="6.22359" fill="#EB6F20"/>
<ellipse cx="223.104" cy="25.6857" rx="6.6973" ry="6.22359" fill="#EB6F20"/>
<ellipse cx="380.491" cy="25.6857" rx="6.6973" ry="6.22359" fill="#EB6F20"/>
<rect x="30.166" y="46.0198" width="383.753" height="6.28784" fill="#EB6F20"/>
<rect x="11.5813" y="183.35" width="418.023" height="3.1118" fill="#EB6F20"/>
<rect x="80.7871" y="135.117" width="29.0216" height="3.1118" fill="#EB6F20"/>
<rect x="182.363" y="135.117" width="29.0216" height="3.1118" fill="#EB6F20"/>
<rect x="233.15" y="135.117" width="29.0216" height="3.1118" fill="#EB6F20"/>
<rect x="334.168" y="135.117" width="29.0216" height="3.1118" fill="#EB6F20"/>
<rect x="384.956" y="135.117" width="29.0216" height="3.1118" fill="#EB6F20"/>
<rect x="11.5813" y="192.685" width="418.023" height="3.1118" fill="#EB6F20"/>
<rect x="80.7871" y="144.453" width="29.0216" height="3.1118" fill="#EB6F20"/>
<rect x="182.363" y="144.453" width="29.0216" height="3.1118" fill="#EB6F20"/>
<rect x="233.15" y="144.453" width="29.0216" height="3.1118" fill="#EB6F20"/>
<rect x="334.168" y="144.453" width="29.0216" height="3.1118" fill="#EB6F20"/>
<rect x="384.956" y="144.453" width="29.0216" height="3.1118" fill="#EB6F20"/>
<rect x="11.5813" y="186.462" width="2.79054" height="6.22359" fill="#EB6F20"/>
<rect x="18.2786" y="186.462" width="2.79054" height="6.22359" fill="#EB6F20"/>
<rect x="24.9756" y="186.462" width="2.79054" height="6.22359" fill="#EB6F20"/>
<rect x="31.6733" y="186.462" width="2.79054" height="6.22359" fill="#EB6F20"/>
<rect x="80.7871" y="138.229" width="2.79054" height="6.22359" fill="#EB6F20"/>
<rect x="182.363" y="138.229" width="2.79054" height="6.22359" fill="#EB6F20"/>
<rect x="233.15" y="138.229" width="2.79054" height="6.22359" fill="#EB6F20"/>
<rect x="334.168" y="138.229" width="2.79054" height="6.22359" fill="#EB6F20"/>
<rect x="384.956" y="138.229" width="2.79054" height="6.22359" fill="#EB6F20"/>
<rect x="87.4839" y="138.229" width="2.79054" height="6.22359" fill="#EB6F20"/>
<rect x="189.06" y="138.229" width="2.79054" height="6.22359" fill="#EB6F20"/>
<rect x="239.847" y="138.229" width="2.79054" height="6.22359" fill="#EB6F20"/>
<rect x="340.865" y="138.229" width="2.79054" height="6.22359" fill="#EB6F20"/>
<rect x="391.653" y="138.229" width="2.79054" height="6.22359" fill="#EB6F20"/>
<rect x="94.1812" y="138.229" width="2.23243" height="6.22359" fill="#EB6F20"/>
<rect x="195.757" y="138.229" width="2.23243" height="6.22359" fill="#EB6F20"/>
<rect x="246.545" y="138.229" width="2.23243" height="6.22359" fill="#EB6F20"/>
<rect x="347.563" y="138.229" width="2.23243" height="6.22359" fill="#EB6F20"/>
<rect x="398.35" y="138.229" width="2.23243" height="6.22359" fill="#EB6F20"/>
<rect x="100.321" y="138.229" width="2.79054" height="6.22359" fill="#EB6F20"/>
<rect x="201.896" y="138.229" width="2.79054" height="6.22359" fill="#EB6F20"/>
<rect x="252.684" y="138.229" width="2.79054" height="6.22359" fill="#EB6F20"/>
<rect x="353.702" y="138.229" width="2.79054" height="6.22359" fill="#EB6F20"/>
<rect x="404.49" y="138.229" width="2.79054" height="6.22359" fill="#EB6F20"/>
<rect x="29.999" y="135.117" width="29.0216" height="3.1118" fill="#EB6F20"/>
<rect x="29.999" y="144.453" width="29.0216" height="3.1118" fill="#EB6F20"/>
<rect x="29.999" y="138.229" width="2.79054" height="6.22359" fill="#EB6F20"/>
<rect x="36.696" y="138.229" width="2.79054" height="6.22359" fill="#EB6F20"/>
<rect x="43.3933" y="138.229" width="2.23243" height="6.22359" fill="#EB6F20"/>
<rect x="49.5327" y="138.229" width="2.79054" height="6.22359" fill="#EB6F20"/>
<rect x="56.2302" y="138.229" width="2.79054" height="6.22359" fill="#EB6F20"/>
<rect x="29.999" y="86.8845" width="29.0216" height="3.1118" fill="#EB6F20"/>
<rect x="29.999" y="96.2195" width="29.0216" height="3.1118" fill="#EB6F20"/>
<rect x="29.999" y="89.9961" width="2.79054" height="6.22359" fill="#EB6F20"/>
<rect x="36.696" y="89.9961" width="2.79054" height="6.22359" fill="#EB6F20"/>
<rect x="43.3933" y="89.9961" width="2.23243" height="6.22359" fill="#EB6F20"/>
<rect x="49.5327" y="89.9961" width="2.79054" height="6.22359" fill="#EB6F20"/>
<rect x="56.2302" y="89.9961" width="2.79054" height="6.22359" fill="#EB6F20"/>
<rect x="181.804" y="86.8845" width="29.0216" height="3.1118" fill="#EB6F20"/>
<rect x="181.804" y="96.2195" width="29.0216" height="3.1118" fill="#EB6F20"/>
<rect x="181.804" y="89.9961" width="2.79054" height="6.22359" fill="#EB6F20"/>
<rect x="188.501" y="89.9961" width="2.79054" height="6.22359" fill="#EB6F20"/>
<rect x="195.199" y="89.9961" width="2.23243" height="6.22359" fill="#EB6F20"/>
<rect x="201.338" y="89.9961" width="2.79054" height="6.22359" fill="#EB6F20"/>
<rect x="208.035" y="89.9961" width="2.79054" height="6.22359" fill="#EB6F20"/>
<rect x="334.168" y="86.8845" width="29.0216" height="3.1118" fill="#EB6F20"/>
<rect x="334.168" y="96.2195" width="29.0216" height="3.1118" fill="#EB6F20"/>
<rect x="334.168" y="89.9961" width="2.79054" height="6.22359" fill="#EB6F20"/>
<rect x="340.865" y="89.9961" width="2.79054" height="6.22359" fill="#EB6F20"/>
<rect x="347.562" y="89.9961" width="2.23243" height="6.22359" fill="#EB6F20"/>
<rect x="353.702" y="89.9961" width="2.79054" height="6.22359" fill="#EB6F20"/>
<rect x="360.399" y="89.9961" width="2.79054" height="6.22359" fill="#EB6F20"/>
<rect x="80.7871" y="86.8845" width="29.0216" height="3.1118" fill="#EB6F20"/>
<rect x="80.7871" y="96.2195" width="29.0216" height="3.1118" fill="#EB6F20"/>
<rect x="80.7871" y="89.9961" width="2.79054" height="6.22359" fill="#EB6F20"/>
<rect x="87.4841" y="89.9961" width="2.79054" height="6.22359" fill="#EB6F20"/>
<rect x="94.1812" y="89.9961" width="2.23243" height="6.22359" fill="#EB6F20"/>
<rect x="100.321" y="89.9961" width="2.79054" height="6.22359" fill="#EB6F20"/>
<rect x="107.018" y="89.9961" width="2.79054" height="6.22359" fill="#EB6F20"/>
<rect x="232.592" y="86.8845" width="29.0216" height="3.1118" fill="#EB6F20"/>
<rect x="232.592" y="96.2195" width="29.0216" height="3.1118" fill="#EB6F20"/>
<rect x="232.592" y="89.9961" width="2.79054" height="6.22359" fill="#EB6F20"/>
<rect x="239.289" y="89.9961" width="2.79054" height="6.22359" fill="#EB6F20"/>
<rect x="245.987" y="89.9961" width="2.23243" height="6.22359" fill="#EB6F20"/>
<rect x="252.126" y="89.9961" width="2.79054" height="6.22359" fill="#EB6F20"/>
<rect x="258.823" y="89.9961" width="2.79054" height="6.22359" fill="#EB6F20"/>
<rect x="384.956" y="86.8845" width="29.0216" height="3.1118" fill="#EB6F20"/>
<rect x="384.956" y="96.2195" width="29.0216" height="3.1118" fill="#EB6F20"/>
<rect x="384.956" y="89.9961" width="2.79054" height="6.22359" fill="#EB6F20"/>
<rect x="391.653" y="89.9961" width="2.79054" height="6.22359" fill="#EB6F20"/>
<rect x="398.35" y="89.9961" width="2.23243" height="6.22359" fill="#EB6F20"/>
<rect x="404.49" y="89.9961" width="2.79054" height="6.22359" fill="#EB6F20"/>
<rect x="411.187" y="89.9961" width="2.79054" height="6.22359" fill="#EB6F20"/>
<rect x="107.018" y="138.229" width="2.79054" height="6.22359" fill="#EB6F20"/>
<rect x="208.594" y="138.229" width="2.79054" height="6.22359" fill="#EB6F20"/>
<rect x="259.381" y="138.229" width="2.79054" height="6.22359" fill="#EB6F20"/>
<rect x="360.399" y="138.229" width="2.79054" height="6.22359" fill="#EB6F20"/>
<rect x="411.187" y="138.229" width="2.79054" height="6.22359" fill="#EB6F20"/>
<rect x="38.3706" y="186.462" width="2.79054" height="6.22359" fill="#EB6F20"/>
<rect x="45.0674" y="186.462" width="2.79054" height="6.22359" fill="#EB6F20"/>
<rect x="51.7651" y="186.462" width="2.79054" height="6.22359" fill="#EB6F20"/>
<rect x="58.4622" y="186.462" width="2.79054" height="6.22359" fill="#EB6F20"/>
<rect x="65.1599" y="186.462" width="2.79054" height="6.22359" fill="#EB6F20"/>
<rect x="71.8567" y="186.462" width="2.79054" height="6.22359" fill="#EB6F20"/>
<rect x="78.554" y="186.462" width="2.79054" height="6.22359" fill="#EB6F20"/>
<rect x="85.2515" y="186.462" width="2.79054" height="6.22359" fill="#EB6F20"/>
<rect x="91.9487" y="186.462" width="2.79054" height="6.22359" fill="#EB6F20"/>
<rect x="98.646" y="186.462" width="2.79054" height="6.22359" fill="#EB6F20"/>
<rect x="105.344" y="186.462" width="2.79054" height="6.22359" fill="#EB6F20"/>
<rect x="112.041" y="186.462" width="2.79054" height="6.22359" fill="#EB6F20"/>
<rect x="118.738" y="186.462" width="2.79054" height="6.22359" fill="#EB6F20"/>
<rect x="125.435" y="186.462" width="2.79054" height="6.22359" fill="#EB6F20"/>
<rect x="132.133" y="186.462" width="2.79054" height="6.22359" fill="#EB6F20"/>
<rect x="138.83" y="186.462" width="2.79054" height="6.22359" fill="#EB6F20"/>
<rect x="145.527" y="186.462" width="2.79054" height="6.22359" fill="#EB6F20"/>
<rect x="152.225" y="186.462" width="2.79054" height="6.22359" fill="#EB6F20"/>
<rect x="158.922" y="186.462" width="2.79054" height="6.22359" fill="#EB6F20"/>
<rect x="165.619" y="186.462" width="2.79054" height="6.22359" fill="#EB6F20"/>
<rect x="172.316" y="186.462" width="2.79054" height="6.22359" fill="#EB6F20"/>
<rect x="179.014" y="186.462" width="2.79054" height="6.22359" fill="#EB6F20"/>
<rect x="185.711" y="186.462" width="2.79054" height="6.22359" fill="#EB6F20"/>
<rect x="192.408" y="186.462" width="2.79054" height="6.22359" fill="#EB6F20"/>
<rect x="199.105" y="186.462" width="2.79054" height="6.22359" fill="#EB6F20"/>
<rect x="205.803" y="186.462" width="2.79054" height="6.22359" fill="#EB6F20"/>
<rect x="212.5" y="186.462" width="2.79054" height="6.22359" fill="#EB6F20"/>
<rect x="219.198" y="186.462" width="2.79054" height="6.22359" fill="#EB6F20"/>
<rect x="225.895" y="186.462" width="2.79054" height="6.22359" fill="#EB6F20"/>
<rect x="232.592" y="186.462" width="2.79054" height="6.22359" fill="#EB6F20"/>
<rect x="239.289" y="186.462" width="2.79054" height="6.22359" fill="#EB6F20"/>
<rect x="245.987" y="186.462" width="2.79054" height="6.22359" fill="#EB6F20"/>
<rect x="252.684" y="186.462" width="2.79054" height="6.22359" fill="#EB6F20"/>
<rect x="259.381" y="186.462" width="2.79054" height="6.22359" fill="#EB6F20"/>
<rect x="266.079" y="186.462" width="2.79054" height="6.22359" fill="#EB6F20"/>
<rect x="272.776" y="186.462" width="2.79054" height="6.22359" fill="#EB6F20"/>
<rect x="279.473" y="186.462" width="2.79054" height="6.22359" fill="#EB6F20"/>
<rect x="286.17" y="186.462" width="2.79054" height="6.22359" fill="#EB6F20"/>
<rect x="292.868" y="186.462" width="2.79054" height="6.22359" fill="#EB6F20"/>
<rect x="299.565" y="186.462" width="2.79054" height="6.22359" fill="#EB6F20"/>
<rect x="306.262" y="186.462" width="2.79054" height="6.22359" fill="#EB6F20"/>
<rect x="312.959" y="186.462" width="2.79054" height="6.22359" fill="#EB6F20"/>
<rect x="319.657" y="186.462" width="2.79054" height="6.22359" fill="#EB6F20"/>
<rect x="326.354" y="186.462" width="2.79054" height="6.22359" fill="#EB6F20"/>
<rect x="333.052" y="186.462" width="2.79054" height="6.22359" fill="#EB6F20"/>
<rect x="339.749" y="186.462" width="2.79054" height="6.22359" fill="#EB6F20"/>
<rect x="346.446" y="186.462" width="2.79054" height="6.22359" fill="#EB6F20"/>
<rect x="353.143" y="186.462" width="2.79054" height="6.22359" fill="#EB6F20"/>
<rect x="359.841" y="186.462" width="2.79054" height="6.22359" fill="#EB6F20"/>
<rect x="366.538" y="186.462" width="2.79054" height="6.22359" fill="#EB6F20"/>
<rect x="373.236" y="186.462" width="2.79054" height="6.22359" fill="#EB6F20"/>
<rect x="379.933" y="186.462" width="2.79054" height="6.22359" fill="#EB6F20"/>
<rect x="386.63" y="186.462" width="2.79054" height="6.22359" fill="#EB6F20"/>
<rect x="393.327" y="186.462" width="2.79054" height="6.22359" fill="#EB6F20"/>
<rect x="400.025" y="186.462" width="2.79054" height="6.22359" fill="#EB6F20"/>
<rect x="406.722" y="186.462" width="2.79054" height="6.22359" fill="#EB6F20"/>
<rect x="413.419" y="186.462" width="2.79054" height="6.22359" fill="#EB6F20"/>
<rect x="413.419" y="186.462" width="2.79054" height="6.22359" fill="#EB6F20"/>
<rect x="420.116" y="186.462" width="2.79054" height="6.22359" fill="#EB6F20"/>
<rect x="426.814" y="186.462" width="2.79054" height="6.22359" fill="#EB6F20"/>
</svg>
